<?xml version="1.0" encoding="UTF-8"?>
<!DOCTYPE svg PUBLIC "-//W3C//DTD SVG 1.1//EN" "http://www.w3.org/Graphics/SVG/1.1/DTD/svg11.dtd">
<!-- Creator: CorelDRAW -->
<svg xmlns="http://www.w3.org/2000/svg" xml:space="preserve" width="2.97234in" height="1.40706in" version="1.1" style="shape-rendering:geometricPrecision; text-rendering:geometricPrecision; image-rendering:optimizeQuality; fill-rule:evenodd; clip-rule:evenodd"
viewBox="0 0 2331.55 1103.72"
 xmlns:xlink="http://www.w3.org/1999/xlink"
 xmlns:xodm="http://www.corel.com/coreldraw/odm/2003">
 <defs>
  <style type="text/css">
   <![CDATA[
    .str0 {stroke:#EC940C;stroke-width:43.58;stroke-miterlimit:2.61313}
    .fil1 {fill:none}
    .fil2 {fill:#313F4C}
    .fil3 {fill:#52596E}
    .fil5 {fill:#373435;fill-rule:nonzero}
    .fil0 {fill:#383C48;fill-rule:nonzero}
    .fil4 {fill:#FFA953;fill-rule:nonzero}
   ]]>
  </style>
 </defs>
 <g id="Layer_x0020_1">
  <metadata id="CorelCorpID_0Corel-Layer"/>
  <g id="_2872748041664">
   <g>
    <path class="fil0" d="M968.18 517.02l0 140.12 6.83 0c21.88,0 37.71,-6.83 47.57,-20.5 9.77,-13.67 16.09,-33.82 18.77,-60.46l9.86 0 0 180.09 -9.86 0c-1.99,-19.64 -6.32,-35.72 -12.8,-48.18 -6.57,-12.54 -14.1,-20.93 -22.75,-25.26 -8.65,-4.33 -21.19,-6.49 -37.63,-6.49l0 96.71c0,18.94 0.78,30.45 2.42,34.68 1.56,4.24 4.58,7.7 9,10.38 4.41,2.68 11.5,4.06 21.28,4.06l20.59 0c32.09,0 57.86,-7.44 77.24,-22.23 19.38,-14.79 33.3,-37.37 41.69,-67.82l9.43 0 -15.48 109.25 -296.94 0 0 -8.82 11.33 0c9.95,0 17.99,-1.82 24.05,-5.36 4.41,-2.42 7.79,-6.49 10.12,-12.28 1.82,-4.07 2.77,-14.79 2.77,-32.18l0 -226.8c0,-15.65 -0.43,-25.26 -1.3,-28.89 -1.64,-5.97 -4.76,-10.55 -9.34,-13.76 -6.4,-4.76 -15.14,-7.18 -26.29,-7.18l-11.33 0 0 -8.82 287.52 0 0 101.72 -9.86 0c-4.85,-24.91 -11.76,-42.73 -20.59,-53.54 -8.82,-10.82 -21.28,-18.77 -37.45,-23.88 -9.43,-3.03 -27.07,-4.58 -53.02,-4.58l-35.81 0zm563.1 -27.51l0 120.92 -8.82 0c-11.33,-32.87 -28.37,-57.87 -51.03,-74.99 -22.66,-17.13 -47.48,-25.69 -74.39,-25.69 -25.77,0 -47.14,7.18 -64.27,21.62 -17.13,14.45 -29.24,34.6 -36.33,60.38 -7.09,25.86 -10.64,52.33 -10.64,79.49 0,32.95 3.8,61.76 11.59,86.58 7.78,24.82 20.33,42.99 37.62,54.67 17.3,11.67 37.8,17.47 61.59,17.47 8.3,0 16.78,-0.86 25.43,-2.68 8.74,-1.73 17.64,-4.33 26.73,-7.7l0 -71.1c0,-13.75 -0.95,-22.66 -2.77,-26.73 -1.82,-3.98 -5.71,-7.7 -11.5,-10.9 -5.8,-3.29 -12.8,-4.93 -21.02,-4.93l-8.82 0 0 -8.82 167.11 0 0 8.82c-12.71,0.86 -21.62,2.59 -26.64,5.28 -4.93,2.68 -8.82,7.09 -11.5,13.32 -1.56,3.2 -2.34,11.24 -2.34,23.96l0 71.1c-21.97,9.77 -44.8,17.13 -68.51,22.14 -23.7,4.93 -48.35,7.44 -73.87,7.44 -32.52,0 -59.6,-4.41 -81.13,-13.32 -21.54,-8.82 -40.56,-20.5 -57,-34.95 -16.43,-14.44 -29.32,-30.7 -38.58,-48.78 -11.85,-23.27 -17.73,-49.39 -17.73,-78.19 0,-51.73 18.17,-95.32 54.5,-130.96 36.42,-35.64 82.17,-53.45 137.27,-53.45 17.13,0 32.44,1.3 46.19,3.98 7.44,1.38 19.47,5.19 36.16,11.5 16.61,6.31 26.47,9.43 29.5,9.43 4.76,0 9.17,-1.73 13.23,-5.19 4.07,-3.46 7.79,-10.03 11.16,-19.72l8.82 0zm260.96 253.78l-120.31 0 -14.97 33.56c-4.76,11.24 -7.09,20.59 -7.09,27.94 0,9.77 3.89,16.95 11.59,21.62 4.59,2.68 15.83,4.76 33.74,6.14l0 8.82 -114.26 0 0 -8.82c12.28,-1.91 22.49,-7.09 30.36,-15.48 7.96,-8.48 17.82,-25.95 29.41,-52.42l122.83 -274.11 4.85 0 123.95 281.72c11.85,26.99 21.54,44.03 29.15,51.03 5.79,5.36 13.84,8.39 24.39,9.26l0 8.82 -166.25 0 0 -8.82 6.83 0c13.32,0 22.75,-1.91 28.11,-5.71 3.72,-2.68 5.54,-6.66 5.54,-11.76 0,-3.11 -0.43,-6.32 -1.47,-9.6 -0.35,-1.47 -2.85,-7.96 -7.61,-19.29l-18.77 -42.9zm-8.13 -18.68l-51.29 -117.21 -52.5 117.21 103.79 0zm305.59 -39.96l0 97.05c0,18.51 1.12,30.27 3.46,35.03 2.25,4.84 6.32,8.65 12.02,11.5 5.8,2.85 16.52,4.33 32.27,4.33l0 8.82 -175.93 0 0 -8.82c15.91,0 26.73,-1.47 32.35,-4.41 5.71,-2.94 9.69,-6.83 11.94,-11.5 2.33,-4.76 3.46,-16.43 3.46,-34.94l0 -224.72c0,-18.6 -1.12,-30.27 -3.46,-35.03 -2.25,-4.84 -6.32,-8.65 -12.02,-11.5 -5.8,-2.85 -16.52,-4.32 -32.26,-4.32l0 -8.82 159.84 0c41.6,0 71.97,2.85 91.25,8.65 19.29,5.71 35.03,16.35 47.23,31.92 12.2,15.48 18.25,33.65 18.25,54.49 0,25.34 -9.17,46.36 -27.42,62.97 -11.67,10.55 -28.02,18.42 -49.04,23.62l82.43 116.51c10.9,14.96 18.68,24.3 23.27,28.02 6.92,5.19 15.05,8.04 24.22,8.57l0 9.34 -108.3 0 -110.98 -156.73 -22.58 0zm0 -168.15l0 149.98 14.44 0c23.53,0 41.18,-2.16 52.85,-6.4 11.68,-4.33 20.85,-12.11 27.51,-23.27 6.66,-11.16 10.03,-25.78 10.03,-43.77 0,-26.12 -6.14,-45.41 -18.42,-57.86 -12.29,-12.46 -32.01,-18.68 -59.25,-18.68l-27.16 0z"/>
    <g>
     <polygon class="fil1 str0" points="22.22,406.74 382.58,31.45 743.47,406.74 743.47,907.1 22.22,907.1 "/>
     <polygon class="fil2" points="70.02,112.78 180.57,112.78 180.57,223.72 68.01,341.03 "/>
     <path class="fil3" d="M687.89 400.93l-613.3 -0.4 -61.1 0.67c-12.01,6.26 -14.77,10.9 -12.99,27.41l2.64 4.18c6.58,6.89 9.98,7.34 21.33,8.36 8.11,0.74 18.61,0.28 26.85,0.09l620.85 -1.09c-5.02,9.46 -0.32,4.84 -9.86,11.77l-571.36 389.09c-15.6,9.26 -24.94,19.87 -38.4,24.84 -10.09,7.27 -18.07,12.49 -28.46,19.45 -10.24,6.86 -18.66,11.47 -17.67,27.52 12.47,20.71 48.36,14.03 83.86,14.02l604.03 0.02c34.93,-0.09 65.27,7.24 69.08,-22.79 -5.67,-9.62 -2.8,-11.94 -17.87,-15.06 -10.91,-2.26 -23.68,-1.41 -34.98,-1.42 -100.76,-1.33 -203.36,-0.06 -304.35,0.06 -12.8,0.01 -289.43,2.92 -302.94,-2.2l413.77 -284.18c11.92,-8.03 24.95,-19.27 36.92,-26.32 43.23,-25.47 103.52,-73.09 152.24,-102.47 8.26,-8.81 45.46,-31.61 57.22,-39.21 2.84,-9.69 3.79,-14.19 -0.11,-24.62l-2.43 -1.56 -3.47 -2.82 -3.76 -2.68 -3.59 -2.7c-14.14,3.89 -42.29,2.88 -62.12,2.05z"/>
    </g>
    <path class="fil4" d="M1428.54 903.48l0 7.74c0,3.17 -0.62,5.15 -1.86,6 -1.28,0.81 -5.84,3.05 -13.74,6.69 -7.89,3.64 -15.48,7.89 -22.71,12.81 2.79,-4.1 5.34,-7.12 7.62,-9.09 2.32,-1.94 5.45,-4.41 9.36,-7.35 -3.41,-1.35 -8.13,-2.05 -14.16,-2.05 -9.36,0 -19.47,1.86 -30.34,5.57 -10.83,3.72 -20.04,8.13 -27.67,13.27 -7.58,5.15 -11.37,9.44 -11.37,12.92 0,1.82 1.16,3.33 3.44,4.49 2.32,1.16 6.03,2.09 11.11,2.71 5.11,0.66 11.49,1.08 19.11,1.32 7.62,0.23 17.07,0.35 28.25,0.35 8.16,0 13.39,0.31 15.75,0.89 2.32,0.62 3.52,2.01 3.52,4.22 0,2.79 -1.39,6 -4.14,9.56 -2.79,3.6 -6.42,5.73 -10.95,6.42 -7.04,1.12 -12.62,2.09 -16.79,2.9 -4.14,0.78 -9.05,2.13 -14.78,4.03 -5.69,1.89 -12.03,4.6 -19,8.16 -10.33,5.46 -18.42,10.95 -24.22,16.56 -5.81,5.61 -8.71,10.56 -8.71,14.86 0,3.72 2.09,6.62 6.23,8.67 4.18,2.09 10.14,3.13 17.91,3.13 26.81,0 54.13,-12.07 81.95,-36.18 0.15,7.39 -0.66,13.93 -2.44,19.54 -1.78,5.65 -5.38,11.03 -10.84,16.18 -4.53,4.33 -11.14,8.43 -19.89,12.38 -8.71,3.91 -18.22,7.08 -28.55,9.4 -10.33,2.36 -20.01,3.52 -29.1,3.52 -10.49,0 -19.19,-2.51 -26.08,-7.54 -6.89,-5.03 -10.33,-11.73 -10.33,-20.04 0,-6.04 1.66,-12.03 4.99,-18.03 3.33,-5.96 8.43,-11.69 15.28,-17.18 6.89,-5.49 15.59,-10.45 26.16,-14.9 10.52,-4.49 22.67,-8.01 36.45,-10.56 1.94,-0.39 2.94,-1.01 2.94,-1.82 0,-0.89 -1.16,-1.47 -3.48,-1.62 -2.28,-0.19 -6.54,-0.35 -12.69,-0.43 -6.15,-0.08 -11.57,-0.31 -16.25,-0.78 -4.68,-0.46 -9.64,-1.43 -14.86,-2.94 -5.34,-1.66 -9.48,-4.6 -12.38,-8.75 -2.9,-4.18 -4.33,-8.78 -4.33,-13.85 0,-6.5 2.32,-13.04 7,-19.62 4.68,-6.57 11.26,-12.5 19.81,-17.8 8.55,-5.3 18.88,-9.52 30.99,-12.73 12.15,-3.21 25.42,-4.84 39.85,-4.84 8.32,0 14.12,0.46 17.41,1.43 3.25,0.93 5.19,2.17 5.69,3.72 0.54,1.55 0.81,4.45 0.81,8.67zm47.79 105.9l0 8.4c-15.82,20.94 -28.67,31.38 -38.58,31.38 -5.34,0 -9.56,-2.94 -12.61,-8.79 -3.06,-5.84 -4.6,-13.54 -4.6,-23.06 0,-7.7 1.82,-16.87 5.46,-27.47 3.59,-10.64 8.47,-21.4 14.55,-32.31 6.07,-10.91 12.38,-20.43 18.92,-28.55 6.54,-8.13 12.62,-13.81 18.23,-17.07 2.24,-1.35 4.02,-2.05 5.3,-2.05 1.58,0 2.63,0.7 3.17,2.09 0.5,1.39 0.78,3.79 0.78,7.2 0,10.52 -4.26,23.41 -12.81,38.73 -8.55,15.28 -20.47,30.92 -35.75,46.86 -0.74,3.95 -1.12,6.96 -1.12,9.05 0,4.84 1.04,8.79 3.13,11.8 2.09,3.02 4.95,4.53 8.67,4.53 1.9,0 3.95,-0.74 6.15,-2.21 2.21,-1.47 4.49,-3.33 6.93,-5.49 2.4,-2.21 7.16,-6.54 14.2,-13.04zm-33.97 -20.35c3.95,-3.87 7.74,-8.24 11.41,-13.16 3.68,-4.91 7.16,-10.14 10.41,-15.75 3.25,-5.57 5.8,-10.6 7.66,-15.05 1.86,-4.45 2.79,-7.82 2.79,-10.1 0,-1.74 -0.62,-2.59 -1.82,-2.59 -0.47,0 -1.32,0.43 -2.59,1.24 -4.64,3.79 -9.83,11.14 -15.59,22.13 -5.77,10.99 -9.83,22.1 -12.27,33.28zm79.44 -29.02c-1.9,0 -3.68,-0.74 -5.38,-2.17 -1.7,-1.43 -2.55,-3.25 -2.55,-5.42 0,-3.33 1.58,-7.04 4.76,-11.14 3.17,-4.06 6.46,-6.11 9.83,-6.11 2.29,0 4.18,0.7 5.69,2.09 1.51,1.39 2.24,3.44 2.24,6.07 0,3.25 -1.55,6.85 -4.64,10.8 -3.09,3.91 -6.42,5.88 -9.94,5.88zm7.7 50.65l0 8.28c-7.35,9.44 -14.2,16.6 -20.55,21.4 -6.35,4.8 -11.73,7.2 -16.18,7.2 -6.23,0 -10.83,-3.25 -13.85,-9.75 -3.02,-6.5 -4.53,-13.62 -4.53,-21.32 0,-2.94 0.31,-5.76 0.89,-8.43 0.62,-2.71 1.35,-4.91 2.17,-6.66 0.85,-1.74 2.4,-4.45 4.68,-8.17 10.72,-16.71 20.54,-25.07 29.44,-25.07 4.6,0 6.93,1.78 6.93,5.34 0,2.4 -1.51,6.19 -4.49,11.34 -2.98,5.15 -5.65,8.82 -7.97,11.03 -6.58,6.35 -10.87,10.76 -12.85,13.23 -2.01,2.51 -3.02,5.34 -3.02,8.51 0,2.71 1.01,4.99 3.06,6.81 2.05,1.82 4.68,2.71 7.93,2.71 3.56,0 7.47,-1.32 11.72,-3.91 4.26,-2.59 9.79,-6.77 16.6,-12.54zm38.73 -58.78l4.87 0c4.02,-7.2 7.62,-12.27 10.87,-15.25 3.25,-2.98 6.96,-4.49 11.11,-4.49 4.18,0 6.27,0.97 6.27,2.82 0,0.93 -1.62,3.37 -4.88,7.39 -3.25,3.98 -5.73,7.35 -7.39,10.1 2.55,0.27 4.87,0.54 6.85,0.77 2.01,0.23 3.6,0.43 4.72,0.58 -4.3,7.97 -9.71,16.14 -16.21,24.49 -2.13,-0.15 -3.91,-0.27 -5.34,-0.39 -1.43,-0.11 -2.86,-0.23 -4.37,-0.35 -1.47,-0.11 -3.25,-0.23 -5.38,-0.39 -4.06,6.58 -7.51,12.46 -10.26,17.64 -2.75,5.19 -4.87,9.94 -6.34,14.28 -1.47,4.3 -2.21,8.4 -2.21,12.23 0,5.22 2.09,7.85 6.23,7.85 2.86,0 6.66,-1.55 11.3,-4.6 4.64,-3.05 10.83,-7.74 18.65,-14.08l0 7.54c-20.43,22.13 -35.52,33.2 -45.27,33.2 -3.4,0 -6.15,-1.32 -8.2,-3.95 -2.09,-2.67 -3.13,-6.07 -3.13,-10.21 0,-2.79 0.58,-6.12 1.74,-9.95 1.2,-3.87 3.29,-9.67 6.31,-17.45 -1.04,0.93 -2.05,1.78 -2.98,2.67 -0.97,0.85 -1.82,1.66 -2.63,2.36 -0.77,0.74 -1.62,1.47 -2.55,2.29 -0.89,0.77 -1.82,1.58 -2.71,2.44l0 -7.86c7.93,-6.66 17.53,-18.34 28.83,-35.09 -1.16,-0.04 -2.21,-0.12 -3.21,-0.16 -0.97,-0.04 -2.13,-0.04 -3.48,-0.04 -4.49,0 -7.82,0.27 -9.98,0.89 -0.93,0.23 -1.78,0.46 -2.55,0.74 -0.81,0.27 -1.36,0.39 -1.66,0.39 -0.31,0 -0.46,-0.23 -0.46,-0.66 0,-2.48 1.55,-6.19 4.68,-11.14 2.47,-4.22 4.84,-7.35 7.08,-9.4 2.24,-2.05 4.95,-3.44 8.16,-4.14 3.21,-0.74 7.74,-1.08 13.55,-1.08zm36.41 62.88l0 2.83c0,4.45 1.08,7.93 3.29,10.41 2.21,2.51 5.07,3.75 8.63,3.75 3.68,0 7.54,-0.85 11.49,-2.59 3.99,-1.74 7.93,-4.06 11.84,-6.93 3.95,-2.86 8.74,-6.73 14.39,-11.57l0 6.93c-8.51,10.25 -16.52,18.15 -24.03,23.6 -7.47,5.46 -15.05,8.21 -22.79,8.21 -6.7,0 -12.03,-2.59 -15.98,-7.82 -3.91,-5.23 -5.88,-12.34 -5.88,-21.44 0,-7.93 1.86,-15.13 5.57,-21.59 3.68,-6.46 9.71,-13.27 18.11,-20.43 5.77,-4.91 11.45,-8.63 17.14,-11.11 5.65,-2.52 10.72,-3.76 15.17,-3.76 3.56,0 6.38,0.82 8.44,2.44 2.09,1.62 3.13,4.06 3.13,7.31 0,4.76 -1.78,9.52 -5.34,14.24 -3.56,4.72 -8.97,9.4 -16.25,14.09 -7.31,4.64 -16.29,9.13 -26.93,13.42zm1.12 -7.35c6.81,-2.67 12.62,-5.96 17.45,-9.87 4.84,-3.91 8.39,-7.7 10.72,-11.26 2.28,-3.6 3.44,-6.23 3.44,-7.89 0,-1.74 -0.77,-2.59 -2.36,-2.59 -1.39,0 -3.6,0.85 -6.66,2.59 -3.06,1.74 -6.15,4.03 -9.29,6.81 -3.13,2.79 -5.92,6.08 -8.44,9.87 -2.47,3.76 -4.1,7.89 -4.87,12.34zm181.94 3.52l0 7.59c-8.09,7.93 -14.66,14.08 -19.77,18.46 -5.11,4.37 -9.87,7.78 -14.28,10.18 -4.45,2.44 -8.75,3.64 -13,3.64 -4.14,0 -7.97,-1.62 -11.41,-4.91 -3.48,-3.29 -6.19,-7.62 -8.16,-12.92 -1.97,-5.34 -2.94,-10.99 -2.94,-16.99 0,-5.11 1.12,-9.71 3.41,-13.7 2.25,-4.02 6.62,-9.21 13.12,-15.56 7.7,-7.54 14.86,-13.39 21.48,-17.49 6.62,-4.14 11.8,-6.19 15.59,-6.19 2.71,0 5.03,0.93 6.93,2.83 1.9,1.9 2.83,4.3 2.83,7.16 0,2.44 -1.24,5.88 -3.76,10.33 -2.47,4.49 -5.26,8.36 -8.39,11.65 -3.09,3.29 -5.53,4.95 -7.35,4.95 -1.97,0 -2.94,-1.04 -2.94,-3.17 0.08,-0.62 0.11,-1.2 0.15,-1.7 0.04,-0.54 0.08,-1.08 0.08,-1.58 0,-0.93 -0.35,-1.43 -0.97,-1.55 -0.66,-0.12 -1.43,0.15 -2.32,0.85 -7.54,5.3 -12.73,9.02 -15.56,11.15 -2.79,2.17 -4.99,4.33 -6.62,6.54 -1.62,2.17 -2.44,4.49 -2.44,6.89 0,4.49 1.43,8.09 4.29,10.91 2.9,2.79 6.62,4.18 11.22,4.18 4.76,0 10.49,-1.82 17.18,-5.49 6.7,-3.68 14.59,-9.02 23.64,-16.02zm53.78 -1.55l0 8.4c-15.82,20.94 -28.67,31.38 -38.58,31.38 -5.34,0 -9.56,-2.94 -12.61,-8.79 -3.06,-5.84 -4.6,-13.54 -4.6,-23.06 0,-7.7 1.82,-16.87 5.46,-27.47 3.59,-10.64 8.47,-21.4 14.55,-32.31 6.07,-10.91 12.38,-20.43 18.92,-28.55 6.54,-8.13 12.62,-13.81 18.23,-17.07 2.24,-1.35 4.02,-2.05 5.3,-2.05 1.59,0 2.63,0.7 3.17,2.09 0.5,1.39 0.78,3.79 0.78,7.2 0,10.52 -4.26,23.41 -12.81,38.73 -8.55,15.28 -20.47,30.92 -35.75,46.86 -0.74,3.95 -1.12,6.96 -1.12,9.05 0,4.84 1.05,8.79 3.13,11.8 2.09,3.02 4.95,4.53 8.67,4.53 1.9,0 3.95,-0.74 6.15,-2.21 2.21,-1.47 4.49,-3.33 6.93,-5.49 2.4,-2.21 7.16,-6.54 14.2,-13.04zm-33.97 -20.35c3.95,-3.87 7.74,-8.24 11.41,-13.16 3.68,-4.91 7.16,-10.14 10.41,-15.75 3.25,-5.57 5.8,-10.6 7.66,-15.05 1.86,-4.45 2.79,-7.82 2.79,-10.1 0,-1.74 -0.62,-2.59 -1.82,-2.59 -0.47,0 -1.32,0.43 -2.59,1.24 -4.64,3.79 -9.83,11.14 -15.6,22.13 -5.77,10.99 -9.83,22.1 -12.27,33.28zm51.08 25.73l0 2.83c0,4.45 1.08,7.93 3.29,10.41 2.21,2.51 5.07,3.75 8.63,3.75 3.68,0 7.54,-0.85 11.49,-2.59 3.99,-1.74 7.93,-4.06 11.84,-6.93 3.94,-2.86 8.74,-6.73 14.39,-11.57l0 6.93c-8.51,10.25 -16.52,18.15 -24.03,23.6 -7.47,5.46 -15.05,8.21 -22.79,8.21 -6.7,0 -12.03,-2.59 -15.98,-7.82 -3.91,-5.23 -5.88,-12.34 -5.88,-21.44 0,-7.93 1.86,-15.13 5.57,-21.59 3.68,-6.46 9.71,-13.27 18.11,-20.43 5.77,-4.91 11.45,-8.63 17.14,-11.11 5.65,-2.52 10.72,-3.76 15.17,-3.76 3.56,0 6.38,0.82 8.43,2.44 2.09,1.62 3.13,4.06 3.13,7.31 0,4.76 -1.78,9.52 -5.34,14.24 -3.56,4.72 -8.98,9.4 -16.25,14.09 -7.31,4.64 -16.29,9.13 -26.93,13.42zm1.12 -7.35c6.81,-2.67 12.61,-5.96 17.45,-9.87 4.83,-3.91 8.39,-7.7 10.72,-11.26 2.28,-3.6 3.44,-6.23 3.44,-7.89 0,-1.74 -0.77,-2.59 -2.36,-2.59 -1.4,0 -3.6,0.85 -6.66,2.59 -3.06,1.74 -6.15,4.03 -9.29,6.81 -3.13,2.79 -5.92,6.08 -8.44,9.87 -2.48,3.76 -4.1,7.89 -4.87,12.34zm61.79 -17.02c11.49,-10.45 22.64,-18.19 33.47,-23.25 10.79,-5.07 19.15,-7.58 25.04,-7.58 1.58,0 3.05,0.65 4.45,1.97 1.36,1.32 2.44,2.86 3.21,4.6 0.81,1.74 1.2,3.02 1.2,3.87 0,1.35 -0.54,2.36 -1.59,2.98 -1.04,0.66 -2.9,1.43 -5.57,2.32 0.54,1.24 1.24,2.79 2.05,4.68 0.85,1.86 1.47,3.41 1.93,4.56 0.46,1.2 0.66,2.21 0.66,3.14 0,1.82 -1.82,5.18 -5.49,10.14 -3.64,4.95 -6.23,8.59 -7.7,10.95 -1.47,2.36 -2.21,5.22 -2.21,8.63 0,5.57 2.55,8.4 7.7,8.4 5.3,0 13.58,-4.95 24.84,-14.86l0 6.89c-19.12,21.24 -32.81,31.85 -41.06,31.85 -2.98,0 -5.07,-0.97 -6.35,-2.9 -1.24,-1.94 -1.86,-4.76 -1.86,-8.55 0,-5.96 2.16,-14.59 6.5,-25.93 -11.07,12.23 -19.23,20.93 -24.61,26.12 -5.38,5.15 -9.79,7.74 -13.27,7.74 -1.66,0 -3.71,-1.43 -6.23,-4.29 -2.47,-2.9 -4.68,-6.62 -6.62,-11.19 -1.94,-4.56 -2.9,-9.32 -2.9,-14.2 0,-3.56 0.35,-6.54 1.01,-8.9 0.7,-2.4 2.01,-4.84 3.99,-7.32 1.97,-2.51 5.11,-5.8 9.4,-9.86zm54.33 -12.5c-19.65,9.02 -33.66,16.64 -42.02,22.91 -8.36,6.31 -12.54,12.77 -12.54,19.43 0,2.4 0.43,4.41 1.24,5.96 0.85,1.55 1.97,2.32 3.4,2.32 0.85,0 2.32,-0.54 4.41,-1.59 7.93,-4.68 15.21,-10.79 21.78,-18.34 6.58,-7.51 14.51,-17.76 23.72,-30.68zm103.04 12.27c-13.31,14.82 -19.96,25.15 -19.96,30.96 0,3.25 1.32,4.88 3.98,4.88 2.16,0 5.03,-1.16 8.55,-3.48 3.52,-2.28 9.01,-6.38 16.48,-12.27l0 7.78c-10.72,10.6 -18.96,18.26 -24.68,22.94 -5.77,4.68 -10.45,7.04 -14.09,7.04 -6.19,0 -9.29,-4.1 -9.29,-12.26 0,-2.4 0.39,-4.8 1.12,-7.12 0.78,-2.36 1.82,-4.8 3.13,-7.31 1.32,-2.55 3.33,-6.15 6.08,-10.87 2.71,-4.76 5.84,-10.1 9.4,-16.06 -4.3,2.21 -9.71,6.54 -16.21,13 -4.26,4.1 -7.82,7.97 -10.8,11.65 -2.94,3.68 -6.07,7.74 -9.44,12.23 -3.37,4.52 -5.85,7.54 -7.39,9.09 -1.55,1.55 -3.09,2.32 -4.68,2.32 -2.44,0 -4.64,-2.52 -6.69,-7.58 -2.05,-5.07 -3.06,-10.99 -3.06,-17.72 0,-4.14 0.46,-7.39 1.43,-9.75 0.93,-2.32 2.79,-5.65 5.61,-9.98 5.19,-8.01 9.71,-13.89 13.46,-17.64 3.79,-3.72 7.43,-5.61 10.87,-5.61 2.44,0 4.37,0.43 5.84,1.24 1.47,0.85 2.21,2.13 2.21,3.87 0,0.78 -0.19,1.55 -0.66,2.4 -0.46,0.85 -0.97,1.59 -1.55,2.29 -0.54,0.65 -1.74,2.01 -3.56,3.94 -11.92,13.24 -17.87,21.82 -17.87,25.73 0,2.21 0.74,3.29 2.16,3.29 0.89,0 2.63,-1.47 5.27,-4.37 2.59,-2.9 5.96,-6.74 10.06,-11.45 4.14,-4.72 9.01,-9.64 14.63,-14.78 5.65,-5.15 12.03,-10.1 19.19,-14.86 4.02,-2.82 7.35,-4.22 9.98,-4.22 1.24,0 2.4,1.66 3.6,4.99 1.16,3.33 1.74,6.69 1.74,10.14 0,1.66 -1.63,4.18 -4.88,7.58zm54.87 -30.14c-1.9,0 -3.68,-0.74 -5.38,-2.17 -1.7,-1.43 -2.55,-3.25 -2.55,-5.42 0,-3.33 1.58,-7.04 4.76,-11.14 3.17,-4.06 6.46,-6.11 9.83,-6.11 2.29,0 4.18,0.7 5.69,2.09 1.51,1.39 2.25,3.44 2.25,6.07 0,3.25 -1.55,6.85 -4.64,10.8 -3.1,3.91 -6.43,5.88 -9.95,5.88zm7.7 50.65l0 8.28c-7.35,9.44 -14.2,16.6 -20.55,21.4 -6.35,4.8 -11.73,7.2 -16.17,7.2 -6.23,0 -10.84,-3.25 -13.85,-9.75 -3.02,-6.5 -4.53,-13.62 -4.53,-21.32 0,-2.94 0.31,-5.76 0.89,-8.43 0.62,-2.71 1.35,-4.91 2.17,-6.66 0.85,-1.74 2.4,-4.45 4.68,-8.17 10.72,-16.71 20.55,-25.07 29.44,-25.07 4.61,0 6.93,1.78 6.93,5.34 0,2.4 -1.51,6.19 -4.49,11.34 -2.98,5.15 -5.65,8.82 -7.97,11.03 -6.58,6.35 -10.87,10.76 -12.85,13.23 -2.01,2.51 -3.02,5.34 -3.02,8.51 0,2.71 1.01,4.99 3.06,6.81 2.05,1.82 4.68,2.71 7.93,2.71 3.56,0 7.47,-1.32 11.72,-3.91 4.26,-2.59 9.79,-6.77 16.6,-12.54zm75.37 -20.51c-13.31,14.82 -19.97,25.15 -19.97,30.96 0,3.25 1.32,4.88 3.98,4.88 2.17,0 5.03,-1.16 8.55,-3.48 3.52,-2.28 9.02,-6.38 16.49,-12.27l0 7.78c-10.72,10.6 -18.96,18.26 -24.69,22.94 -5.77,4.68 -10.45,7.04 -14.09,7.04 -6.19,0 -9.29,-4.1 -9.29,-12.26 0,-2.4 0.39,-4.8 1.12,-7.12 0.77,-2.36 1.82,-4.8 3.13,-7.31 1.32,-2.55 3.33,-6.15 6.08,-10.87 2.71,-4.76 5.84,-10.1 9.4,-16.06 -4.3,2.21 -9.71,6.54 -16.21,13 -4.26,4.1 -7.82,7.97 -10.8,11.65 -2.94,3.68 -6.07,7.74 -9.44,12.23 -3.37,4.52 -5.84,7.54 -7.39,9.09 -1.55,1.55 -3.1,2.32 -4.68,2.32 -2.44,0 -4.64,-2.52 -6.7,-7.58 -2.05,-5.07 -3.06,-10.99 -3.06,-17.72 0,-4.14 0.46,-7.39 1.43,-9.75 0.93,-2.32 2.79,-5.65 5.61,-9.98 5.18,-8.01 9.71,-13.89 13.46,-17.64 3.8,-3.72 7.43,-5.61 10.88,-5.61 2.44,0 4.37,0.43 5.84,1.24 1.47,0.85 2.21,2.13 2.21,3.87 0,0.78 -0.19,1.55 -0.65,2.4 -0.47,0.85 -0.97,1.59 -1.55,2.29 -0.54,0.65 -1.74,2.01 -3.56,3.94 -11.92,13.24 -17.88,21.82 -17.88,25.73 0,2.21 0.74,3.29 2.17,3.29 0.89,0 2.63,-1.47 5.26,-4.37 2.59,-2.9 5.96,-6.74 10.06,-11.45 4.14,-4.72 9.01,-9.64 14.63,-14.78 5.65,-5.15 12.03,-10.1 19.19,-14.86 4.02,-2.82 7.35,-4.22 9.98,-4.22 1.24,0 2.4,1.66 3.6,4.99 1.16,3.33 1.74,6.69 1.74,10.14 0,1.66 -1.63,4.18 -4.88,7.58zm98.51 28.09l-37.69 30.96c-10.6,18.3 -20.2,31.96 -28.9,40.98 -8.67,9.01 -15.13,13.54 -19.35,13.54 -2.28,0 -3.4,-1.39 -3.4,-4.18 0,-5.46 2.75,-12.42 8.28,-20.86 2.16,-3.33 4.68,-6.57 7.51,-9.75 2.82,-3.17 5.53,-5.92 8.05,-8.24 2.51,-2.28 5.88,-5.15 10.02,-8.59 4.18,-3.44 7,-5.81 8.51,-7.08 7.54,-15.44 12.96,-27.2 16.29,-35.37 -7.08,7.54 -13.27,13.78 -18.57,18.61 -5.3,4.84 -10.14,8.55 -14.55,11.19 -4.41,2.59 -8.4,3.91 -11.96,3.91 -3.87,0 -7.39,-3.09 -10.64,-9.25 -3.25,-6.15 -4.88,-12.5 -4.88,-19 0,-3.02 0.7,-6.19 2.09,-9.52 1.39,-3.33 3.6,-6.85 6.58,-10.64 2.98,-3.79 6.77,-7.66 11.37,-11.61 4.6,-3.98 10.02,-7.86 16.21,-11.65 11.72,-7.31 20.82,-10.99 27.32,-10.99 4.84,0 7.24,1.78 7.24,5.34 0,4.87 -5.23,9.67 -15.75,14.39 -6.42,2.79 -12.77,6.46 -19.08,11.07 -6.31,4.64 -11.41,9.52 -15.28,14.7 -3.91,5.15 -5.84,9.83 -5.84,13.97 0,2.05 0.5,3.68 1.47,4.88 1.01,1.2 2.29,1.82 3.87,1.82 2.63,0 5.65,-1.2 9.05,-3.64 3.41,-2.4 8.43,-6.7 15.09,-12.81 3.02,-2.79 7.04,-7.31 12.08,-13.54 5.03,-6.23 9.17,-11.03 12.46,-14.32 3.29,-3.29 6.27,-4.92 8.9,-4.92 1.51,0 2.75,0.47 3.68,1.43 0.97,0.93 1.43,2.32 1.43,4.14 0,3.48 -1.39,8.51 -4.14,15.13 -2.79,6.62 -7.78,17.45 -14.97,32.5l27.51 -19.97 0 7.35z"/>
   </g>
   <path class="fil5" d="M1997.98 1084.44c-1.81,1.96 -3.42,3.4 -4.84,4.31 -1.41,0.92 -2.85,1.38 -4.31,1.38 -1.51,0 -2.72,-0.49 -3.65,-1.48 -0.92,-0.99 -1.37,-2.29 -1.37,-3.89 0,-0.95 0.22,-2.28 0.66,-3.96 0.44,-1.68 0.66,-2.97 0.66,-3.86 0,-1.43 -0.48,-2.17 -1.41,-2.22 -0.58,-0.05 -0.86,-0.32 -0.86,-0.82 0,-0.91 0.33,-1.37 0.99,-1.37l1.56 0.1c1.45,0 2.61,-0.71 3.46,-2.13 0.86,-1.42 1.29,-3.13 1.29,-5.14 0,-4.67 -2.66,-7.01 -7.96,-7.01 -3.38,0 -6.39,0.92 -9.01,2.74 -2.62,1.83 -3.93,3.86 -3.93,6.12 0,1.28 0.63,2.25 1.9,2.88 0.6,0.31 0.9,0.69 0.9,1.14 0,0.4 -0.59,0.86 -1.76,1.38 -1.17,0.51 -1.98,0.77 -2.4,0.77 -0.68,0 -1.3,-0.44 -1.84,-1.33 -0.55,-0.89 -0.82,-1.9 -0.82,-3.05 0,-3.42 1.74,-6.36 5.21,-8.8 3.48,-2.44 7.72,-3.66 12.72,-3.66 4.19,0 7.47,0.9 9.81,2.71 2.34,1.81 3.51,4 3.51,6.57 0,1.63 -0.65,3.2 -1.94,4.73 -1.29,1.53 -3.82,2.72 -7.59,3.57 1.38,0.78 2.37,1.63 3,2.55 0.62,0.91 0.94,2.06 0.94,3.44 0,0.78 -0.08,1.64 -0.23,2.58 -0.16,0.96 -0.24,1.57 -0.24,1.83 0,1.32 0.52,1.99 1.57,1.99 1.41,0 3.41,-1.58 6.01,-4.74l0 2.66zm-11.9 -22.1c-1.27,1.03 -2.12,2.12 -2.54,3.3 -0.44,1.17 -0.86,3.33 -1.3,6.46 -0.43,3.14 -0.91,5.64 -1.46,7.51 -0.55,1.86 -1.5,3.61 -2.86,5.26 -1.36,1.65 -3,2.94 -4.92,3.87 -1.92,0.92 -3.91,1.39 -5.96,1.39 -2.22,0 -3.89,-0.54 -4.99,-1.61 -1.11,-1.07 -1.66,-2.31 -1.66,-3.72 0,-0.45 0.17,-0.85 0.52,-1.2 0.35,-0.36 1.06,-0.84 2.14,-1.46 1.07,-0.62 1.82,-0.93 2.21,-0.93 0.52,0 0.77,0.29 0.77,0.88 0,0.15 -0.08,0.67 -0.23,1.58 -0.16,0.91 -0.24,1.45 -0.24,1.62 0,0.86 0.24,1.58 0.74,2.14 0.49,0.56 1.11,0.85 1.87,0.85 1.6,0 3.03,-1.02 4.26,-3.06 1.24,-2.04 2.1,-5.04 2.6,-9.02 0.51,-3.97 1.16,-6.86 1.98,-8.66 0.82,-1.79 2.01,-3.25 3.57,-4.35 1.57,-1.1 2.98,-1.65 4.23,-1.65 0.36,0 0.78,0.27 1.27,0.81zm38.58 22.1c-3.66,3.79 -8.07,5.69 -13.24,5.69 -3.7,0 -6.73,-1.16 -9.1,-3.49 -2.36,-2.32 -3.55,-5.3 -3.55,-8.94 0,-3.63 0.85,-7.08 2.57,-10.35 1.72,-3.27 3.95,-5.89 6.73,-7.85 2.76,-1.96 5.48,-2.94 8.16,-2.94 2.24,0 4.06,0.67 5.47,2.01 1.41,1.34 2.12,3.09 2.12,5.24 0,2.8 -0.86,5.22 -2.56,7.26 -1.7,2.04 -3.7,3.07 -5.98,3.07 -1.2,0 -2.19,-0.31 -2.96,-0.93 -0.77,-0.61 -1.15,-1.41 -1.15,-2.39 0,-0.84 0.33,-1.61 0.99,-2.32 0.5,0.92 1.18,1.37 2.04,1.37 1.23,0 2.37,-0.78 3.43,-2.32 1.06,-1.54 1.59,-3.23 1.59,-5.06 0,-1.28 -0.3,-2.3 -0.9,-3.06 -0.59,-0.75 -1.38,-1.13 -2.37,-1.13 -1.43,0 -2.96,0.89 -4.59,2.69 -1.63,1.79 -2.99,4.09 -4.08,6.9 -1.08,2.81 -1.63,5.48 -1.63,8.01 0,3.22 0.92,5.87 2.74,7.93 1.83,2.07 4.15,3.11 6.97,3.11 1.8,0 3.41,-0.42 4.84,-1.25 1.44,-0.84 2.93,-2.14 4.47,-3.92l0 2.66zm12.47 -13.13c-0.49,1.9 -1.05,3.3 -1.68,4.18 -0.62,0.88 -1.58,1.32 -2.86,1.32 -1.17,0 -2.54,-0.49 -4.1,-1.47 0.76,-0.81 1.55,-2.66 2.39,-5.55 1,0.84 1.75,1.38 2.23,1.64 0.49,0.26 1.05,0.4 1.7,0.4 0.48,0 0.97,-0.09 1.46,-0.26 0.49,-0.17 0.78,-0.26 0.85,-0.26zm-3.7 13.37c-0.49,1.88 -1.04,3.26 -1.65,4.14 -0.6,0.87 -1.53,1.32 -2.78,1.32 -1.12,0 -2.46,-0.5 -4.01,-1.49 0.88,-1.31 1.65,-3.12 2.31,-5.44 1.01,0.83 1.77,1.36 2.26,1.6 0.49,0.23 1.01,0.35 1.57,0.35 0.25,0 1.02,-0.16 2.31,-0.48zm21.09 -18.86c-0.4,0.19 -0.79,0.28 -1.15,0.28 -0.34,0 -0.52,-0.18 -0.52,-0.55 0,-0.21 0.11,-0.67 0.32,-1.39l1.32 -4.31c0.22,-0.65 0.45,-1.2 0.71,-1.66 0.25,-0.46 0.55,-0.77 0.87,-0.94 0.32,-0.16 0.97,-0.32 1.94,-0.46 0.96,-0.14 1.91,-0.21 2.86,-0.21 1.05,0 2.42,0.14 4.13,0.43 1.7,0.28 3.03,0.43 3.97,0.43 1.33,0 2.3,-0.14 2.92,-0.43 0.62,-0.29 0.97,-0.43 1.07,-0.43 0.11,0 0.21,0.06 0.33,0.18 0.12,0.13 0.18,0.25 0.18,0.37 0,0.79 -1.12,3.36 -3.37,7.7 -1.98,3.85 -3.76,7.77 -5.37,11.76 -1.59,4 -2.68,6.99 -3.23,8.98 -0.56,1.99 -0.99,3.14 -1.28,3.48 -0.29,0.33 -1.01,0.59 -2.16,0.8 -1.15,0.2 -2.37,0.3 -3.67,0.3 -0.72,0 -1.08,-0.25 -1.08,-0.77 0,-0.76 0.59,-2.59 1.77,-5.51 1.19,-2.91 4.05,-7.2 8.63,-12.87 2.69,-3.38 4.53,-6.14 5.53,-8.25 -0.88,0.12 -1.65,0.18 -2.32,0.18 -0.39,0 -1.72,-0.11 -3.99,-0.33 -2.28,-0.22 -3.64,-0.33 -4.06,-0.33 -1.33,0 -2.3,0.28 -2.92,0.83 -0.62,0.56 -1.11,1.47 -1.46,2.73zm43.56 -9.25c-0.45,1.89 -1.02,3.29 -1.7,4.2 -0.69,0.91 -1.47,1.5 -2.37,1.76 -0.88,0.26 -2.06,0.4 -3.53,0.4 -1.49,0 -3.26,-0.13 -5.3,-0.37l-1.95 7.21c1.38,-0.36 2.66,-0.53 3.84,-0.53 2.76,0 5.06,0.89 6.91,2.69 1.84,1.79 2.76,4.04 2.76,6.72 0,3.25 -1.22,5.98 -3.66,8.19 -2.43,2.21 -5.45,3.31 -9.05,3.31 -2.77,0 -4.95,-0.66 -6.55,-1.99 -1.61,-1.33 -2.41,-2.77 -2.41,-4.33 0,-0.49 0.07,-0.9 0.2,-1.19 0.15,-0.3 0.43,-0.56 0.86,-0.78 0.42,-0.23 1.1,-0.54 2.03,-0.95 0.93,-0.41 1.56,-0.62 1.91,-0.62 0.37,0 0.55,0.18 0.55,0.55 0,0.16 -0.09,0.69 -0.26,1.63 -0.17,0.92 -0.26,1.47 -0.26,1.64 0,1.23 0.37,2.26 1.12,3.07 0.75,0.81 1.71,1.22 2.86,1.22 1.65,0 3.07,-0.96 4.25,-2.88 1.18,-1.91 1.77,-4.26 1.77,-7.03 0,-1.95 -0.53,-3.49 -1.59,-4.6 -1.06,-1.11 -2.52,-1.66 -4.39,-1.66 -0.85,0 -1.5,0.06 -1.97,0.19 -0.47,0.13 -0.78,0.19 -0.92,0.19 -0.28,0 -0.42,-0.15 -0.42,-0.44 0,-0.11 0.09,-0.51 0.28,-1.19l3.61 -13.03c0.24,-0.91 0.62,-1.37 1.14,-1.37 0.11,0 0.37,0.05 0.79,0.14 1.48,0.35 3.11,0.52 4.89,0.52 2.05,0 4.24,-0.22 6.56,-0.66zm19.15 19.97c1.82,-0.08 3.33,-0.25 4.51,-0.53l0.37 -0.1c0.48,0 0.72,0.16 0.72,0.48 0,0.23 -0.17,0.89 -0.51,1.98 -0.34,1.1 -0.61,1.7 -0.81,1.83 -0.19,0.12 -0.68,0.22 -1.47,0.3 -0.79,0.07 -2.09,0.11 -3.91,0.11l-1.23 4.47c-0.35,1.27 -0.66,2.25 -0.94,2.95 -0.28,0.69 -0.6,1.15 -0.96,1.34 -0.36,0.2 -1.05,0.38 -2.09,0.53 -1.03,0.15 -2.16,0.23 -3.36,0.23 -0.72,0 -1.08,-0.19 -1.08,-0.58 0,-0.32 0.11,-0.78 0.32,-1.37l2.8 -7.58 -8.17 -0.28c-0.74,-0.03 -1.2,-0.08 -1.38,-0.14 -0.18,-0.06 -0.27,-0.22 -0.27,-0.48 0,-0.99 0.17,-1.82 0.49,-2.48 0.74,-1.56 1.85,-3.42 3.33,-5.57 2.16,-3.1 4.68,-6.11 7.56,-9.02 2.88,-2.91 4.97,-4.71 6.27,-5.4 0.81,-0.44 1.91,-0.65 3.33,-0.65 0.89,0 1.33,0.24 1.33,0.7 0,0.2 -0.36,1.83 -1.09,4.9l-0.69 3c-0.39,1.62 -1.2,4.66 -2.45,9.12l-0.63 2.25zm-1.74 -15.46c-1.49,1.03 -3.58,3.13 -6.26,6.28 -2.67,3.15 -4.97,6.4 -6.88,9.74 3.59,0.05 6.37,0.02 8.35,-0.1 1.31,-3.86 2.91,-9.17 4.79,-15.93zm22.51 -4.51c2.58,0 4.66,0.98 6.25,2.94 1.59,1.95 2.39,4.54 2.39,7.74 0,4.1 -1.02,7.9 -3.07,11.39 -2.05,3.49 -4.58,6.28 -7.58,8.37 -3.01,2.09 -5.24,3.14 -6.69,3.14 -0.03,0 -0.24,-0.12 -0.62,-0.35 -0.39,-0.23 -0.58,-0.41 -0.58,-0.55 0,-0.16 0.19,-0.35 0.58,-0.58 2.54,-1.43 4.75,-3.69 6.62,-6.8 1.86,-3.11 3.25,-6.57 4.17,-10.38 0.92,-3.81 1.39,-6.67 1.39,-8.58 0,-1.38 -0.31,-2.5 -0.92,-3.37 -0.61,-0.87 -1.39,-1.31 -2.35,-1.31 -1.7,0 -3.11,1.36 -4.24,4.08 -1.13,2.71 -1.69,5.21 -1.69,7.51 0,1.04 0.27,1.95 0.82,2.71 0.54,0.77 1.14,1.16 1.8,1.16 0.4,0 0.8,-0.07 1.2,-0.22 0.4,-0.14 0.63,-0.21 0.71,-0.21 0.1,0 0.21,0.07 0.33,0.22 0.12,0.14 0.17,0.29 0.17,0.45 0,0.17 -0.64,0.69 -1.91,1.56 -1.27,0.88 -2.44,1.32 -3.52,1.32 -1.62,0 -3.05,-0.75 -4.28,-2.24 -1.23,-1.49 -1.85,-3.24 -1.85,-5.25 0,-3.31 1.31,-6.27 3.94,-8.86 2.63,-2.59 5.62,-3.89 8.95,-3.89zm34.19 0c-0.45,1.89 -1.02,3.29 -1.7,4.2 -0.69,0.91 -1.47,1.5 -2.37,1.76 -0.88,0.26 -2.06,0.4 -3.53,0.4 -1.49,0 -3.26,-0.13 -5.3,-0.37l-1.95 7.21c1.37,-0.36 2.66,-0.53 3.84,-0.53 2.76,0 5.06,0.89 6.91,2.69 1.84,1.79 2.76,4.04 2.76,6.72 0,3.25 -1.22,5.98 -3.66,8.19 -2.43,2.21 -5.45,3.31 -9.05,3.31 -2.77,0 -4.95,-0.66 -6.55,-1.99 -1.6,-1.33 -2.41,-2.77 -2.41,-4.33 0,-0.49 0.07,-0.9 0.2,-1.19 0.15,-0.3 0.43,-0.56 0.86,-0.78 0.42,-0.23 1.1,-0.54 2.03,-0.95 0.93,-0.41 1.56,-0.62 1.91,-0.62 0.37,0 0.55,0.18 0.55,0.55 0,0.16 -0.09,0.69 -0.26,1.63 -0.17,0.92 -0.26,1.47 -0.26,1.64 0,1.23 0.37,2.26 1.12,3.07 0.75,0.81 1.71,1.22 2.86,1.22 1.65,0 3.07,-0.96 4.25,-2.88 1.18,-1.91 1.77,-4.26 1.77,-7.03 0,-1.95 -0.53,-3.49 -1.59,-4.6 -1.06,-1.11 -2.52,-1.66 -4.39,-1.66 -0.85,0 -1.5,0.06 -1.97,0.19 -0.47,0.13 -0.78,0.19 -0.93,0.19 -0.27,0 -0.42,-0.15 -0.42,-0.44 0,-0.11 0.09,-0.51 0.27,-1.19l3.61 -13.03c0.24,-0.91 0.62,-1.37 1.14,-1.37 0.11,0 0.37,0.05 0.79,0.14 1.48,0.35 3.1,0.52 4.89,0.52 2.05,0 4.24,-0.22 6.56,-0.66zm5.45 28.41c1.75,-0.55 3.44,-0.81 5.09,-0.81 0.31,0 1.41,0.08 3.31,0.23 1.9,0.16 3.03,0.24 3.38,0.24 0.88,0 1.6,-0.16 2.17,-0.47 0.57,-0.32 1.02,-0.94 1.36,-1.87 0.1,-0.31 0.21,-0.46 0.32,-0.46 0.27,0 0.56,0.07 0.87,0.22 0.32,0.14 0.47,0.26 0.47,0.36 0,0.5 -0.41,1.63 -1.24,3.37 -0.82,1.73 -1.67,2.89 -2.54,3.48 -0.86,0.58 -2.16,0.88 -3.91,0.88 -0.39,0 -1.74,-0.1 -4.06,-0.28 -2.32,-0.19 -3.7,-0.28 -4.13,-0.28 -1.51,0 -2.63,0.09 -3.36,0.28 -0.72,0.19 -1.12,0.28 -1.2,0.28 -0.21,0 -0.32,-0.15 -0.32,-0.44 0,-0.92 0.18,-1.84 0.53,-2.73 0.35,-0.9 1.13,-2.08 2.34,-3.56 1.22,-1.48 3.01,-3.33 5.39,-5.54l2.62 -2.41c2.07,-1.95 3.53,-3.82 4.37,-5.61 0.85,-1.79 1.26,-3.6 1.26,-5.46 0,-1.58 -0.4,-2.84 -1.22,-3.81 -0.81,-0.96 -1.87,-1.44 -3.18,-1.44 -1.25,0 -2.34,0.45 -3.26,1.36 -0.92,0.91 -1.39,1.99 -1.39,3.22 0,1.04 0.5,1.96 1.52,2.77 0.53,0.4 0.8,0.77 0.8,1.09 0,0.44 -0.58,0.94 -1.76,1.51 -1.17,0.58 -2.12,0.86 -2.84,0.86 -0.59,0 -1.09,-0.28 -1.53,-0.85 -0.44,-0.57 -0.65,-1.26 -0.65,-2.06 0,-2.58 1.24,-4.98 3.72,-7.18 2.47,-2.19 5.21,-3.29 8.19,-3.29 2.46,0 4.47,0.75 6.05,2.25 1.59,1.49 2.38,3.4 2.38,5.7 0,1.86 -0.52,3.58 -1.56,5.16 -1.04,1.58 -2.29,2.96 -3.75,4.15 -1.45,1.19 -3.36,2.59 -5.74,4.21 -2.38,1.62 -4.2,2.92 -5.45,3.9 -1.27,0.99 -2.27,1.99 -3.03,3.04zm24.75 0c1.75,-0.55 3.44,-0.81 5.09,-0.81 0.31,0 1.42,0.08 3.31,0.23 1.9,0.16 3.03,0.24 3.38,0.24 0.88,0 1.6,-0.16 2.17,-0.47 0.57,-0.32 1.02,-0.94 1.36,-1.87 0.1,-0.31 0.21,-0.46 0.32,-0.46 0.27,0 0.56,0.07 0.87,0.22 0.32,0.14 0.47,0.26 0.47,0.36 0,0.5 -0.41,1.63 -1.24,3.37 -0.82,1.73 -1.67,2.89 -2.54,3.48 -0.86,0.58 -2.16,0.88 -3.91,0.88 -0.39,0 -1.74,-0.1 -4.06,-0.28 -2.32,-0.19 -3.7,-0.28 -4.13,-0.28 -1.51,0 -2.63,0.09 -3.36,0.28 -0.72,0.19 -1.12,0.28 -1.2,0.28 -0.21,0 -0.32,-0.15 -0.32,-0.44 0,-0.92 0.18,-1.84 0.53,-2.73 0.35,-0.9 1.13,-2.08 2.34,-3.56 1.22,-1.48 3.01,-3.33 5.39,-5.54l2.62 -2.41c2.07,-1.95 3.53,-3.82 4.37,-5.61 0.85,-1.79 1.26,-3.6 1.26,-5.46 0,-1.58 -0.4,-2.84 -1.22,-3.81 -0.81,-0.96 -1.87,-1.44 -3.18,-1.44 -1.25,0 -2.34,0.45 -3.26,1.36 -0.92,0.91 -1.39,1.99 -1.39,3.22 0,1.04 0.5,1.96 1.52,2.77 0.54,0.4 0.81,0.77 0.81,1.09 0,0.44 -0.58,0.94 -1.76,1.51 -1.17,0.58 -2.12,0.86 -2.84,0.86 -0.58,0 -1.09,-0.28 -1.52,-0.85 -0.44,-0.57 -0.65,-1.26 -0.65,-2.06 0,-2.58 1.24,-4.98 3.72,-7.18 2.47,-2.19 5.21,-3.29 8.19,-3.29 2.46,0 4.47,0.75 6.05,2.25 1.59,1.49 2.38,3.4 2.38,5.7 0,1.86 -0.52,3.58 -1.57,5.16 -1.04,1.58 -2.29,2.96 -3.75,4.15 -1.45,1.19 -3.37,2.59 -5.74,4.21 -2.38,1.62 -4.19,2.92 -5.45,3.9 -1.27,0.99 -2.27,1.99 -3.03,3.04z"/>
  </g>
  <path class="fil4" d="M2231.17 1083.76l37.27 -19.46c-7.04,10.92 -13.59,19.55 -19.7,25.88 -8.67,9.01 -15.13,13.54 -19.35,13.54 -2.28,0 -3.39,-1.39 -3.39,-4.18 0,-4.32 1.72,-9.59 5.18,-15.78z"/>
 </g>
</svg> 
