<?xml version="1.0" encoding="UTF-8"?>
<!DOCTYPE svg PUBLIC "-//W3C//DTD SVG 1.1//EN" "http://www.w3.org/Graphics/SVG/1.1/DTD/svg11.dtd">
<!-- Creator: CorelDRAW -->
<svg xmlns="http://www.w3.org/2000/svg" xml:space="preserve" width="0.702327in" height="0.635953in" version="1.1" style="shape-rendering:geometricPrecision; text-rendering:geometricPrecision; image-rendering:optimizeQuality; fill-rule:evenodd; clip-rule:evenodd"
viewBox="0 0 164.67 149.11"
 xmlns:xlink="http://www.w3.org/1999/xlink"
 xmlns:xodm="http://www.corel.com/coreldraw/odm/2003">
 <defs>
  <style type="text/css">
   <![CDATA[
    .fil2 {fill:#040504}
    .fil1 {fill:#232424}
    .fil0 {fill:#FEFEFE}
   ]]>
  </style>
 </defs>
 <g id="Layer_x0020_1">
  <metadata id="CorelCorpID_0Corel-Layer"/>
  <g id="_1936660373568">
   <path class="fil0" d="M39.08 9.69l1.37 2.37c2.17,1.08 3.03,4.55 2.84,7.18 1.11,0.84 0.64,-1.42 1.13,1.85l-0.41 20.16 82.96 -0.04 -0.51 -23.03 0.35 -1.74 -1.15 -1.07 0.39 -1.21c-1.34,0 -0.85,0.28 -1.03,-1.3l0.14 -0.08c-1.38,0 -0.92,0.31 -1.15,-1.21l0.11 -0.3c-0.87,-0.47 -0.47,-0.02 -1.41,-0.91 -0.88,-0.83 -0.7,-0.58 -0.95,-1.36 -1.77,-0.23 -1.45,0.32 -1.45,-1.21l-2.93 -0.35 -0.96 -1.14 -78.29 0.07c-2.2,0 -1.75,-0.6 -1.75,1.4 1.78,0.51 0.13,-0.47 1.54,0.63 0.87,0.68 0.73,0.77 1.15,1.3z"/>
   <path class="fil1" d="M59.76 123.78l6.03 0.03 -3.36 -0.81c-0.66,-0.12 -2.11,-0.34 -2.36,-0.42 1.72,0.01 5.63,0.4 7.04,-0.59 -0.95,-3.21 1.48,-2.07 -3.84,-2.45l-27.48 0.16c-10.08,-0.04 -9.95,-1.27 -8.6,0.22 7.44,0 33.52,0.97 38.66,-0.44 -2.43,-1.68 -33.36,-0.75 -39.07,-0.55 0.59,-15.77 0.15,-32.39 0.14,-48.25 -0,-5.79 1.07,-45.1 -0.88,-47.27 -0.94,3.66 -0.98,90.22 -0.02,96.12 -1.03,-11.71 -0.19,-66.85 -0.14,-86.37 0.01,-3.38 0.92,-8.6 -1.41,-10.68 0.25,-0.07 -1.11,-1.12 1.81,0.51 -0.97,-1.52 -0.26,-1 -2.22,-2.18 -1.02,1.21 1.13,0.65 -1.5,0.44 -2.13,-0.17 -0.35,0.1 -1.48,-0.61 -1.18,0.07 -0.9,-0.25 -0.9,0.9 0.04,0.1 0,0.3 -0.01,0.33 -0.01,0.03 -0.02,0.28 -0.03,0.31 -1.23,3.36 0.37,1.9 -0.91,0.46l-0.63 1.19c1.4,1.68 0.18,-0.67 0.81,1.69l0.1 33.53 2.29 1.09 0.06 10.16c0.68,-1.04 0.48,-0.14 0.78,-2.71 0.19,-1.68 -0.28,-4.29 0.46,-7.48l-0.3 9.77 -2.92 1.94c-0.08,-0.15 -0.34,0.25 -0.48,0.41 0.58,11.18 -0.63,7.8 3.69,10.16l-0.13 9.38 -3.08 2c-0.07,-0.15 -0.35,0.21 -0.49,0.35 0.3,3.34 0.22,6.78 0.22,10.16 0,2.57 0.59,6.52 -0.9,8.62l-1.16 0.38c-0.19,0.04 -0.41,0.11 -0.63,0.14l-11.74 -0.47c-1.61,-3.45 -0.47,-65.97 -0.55,-79.01 -0.03,-4.75 -0.71,-14.4 1.02,-18.5l1.61 -2.79c1.45,0 0.92,0.31 1.16,-1.38 -1.11,-0.18 -0.58,-0.14 0.76,-1.6 1.7,-1.84 1.74,-3.1 1.6,-0.81 1.56,-0.28 1.28,0.22 1.28,-1.11 0.03,-0.6 -2.32,0.34 0.77,-0.66 2.29,-0.74 0.06,-1.38 1.07,0.16 1.72,-0.14 1.44,0.39 1.44,-1.01 -2.5,-1.62 -1.01,-0.47 2.46,-0.99 1.69,-0.25 3.78,-0.32 5.5,-0.21 1.57,0.1 8.18,1.25 6.07,2.37l0.85 0.85c1.16,-0.74 -0.05,-0.61 1.47,-0.2 2.34,0.63 0.87,0.33 0.26,0.59 0,1.38 -0.31,0.91 1.2,1.17 0.49,-0.99 -1.17,-1.97 2.01,1.06 2.6,2.48 1.24,0.17 2.05,2.97 -0.41,-3.3 0.2,0.13 -1.39,-1.8l1.38 2.41c0.24,-0.1 0.59,-0.23 0.62,-0.24 0,-0 -0.12,0.11 -0.12,0.06 0,-0.09 -0.15,0.07 -0.23,0.11 0.2,1.55 -0.28,1.28 1.04,1.28 2.76,-0.5 1.94,20.97 1.94,22.97 -0.01,5.05 0.92,5.66 -0.01,7.11l0.71 0.69c2.15,-2.45 34.63,-1.14 39.97,-1.15l36.73 0.07c4.12,0.53 1.71,0.63 1.63,0.73 -0.08,2.49 -0.07,4.93 -0.11,7.42 -0.01,0.69 -0.07,3.4 -0,3.9 0.47,3.35 -0.81,1.37 1.22,2.84 -1.51,-3.76 -0.87,-10.18 -0.19,-14.23 0.69,2.71 0.62,5.3 0.5,8.26 -0.33,7.88 -0.02,5.67 1.65,6.69 1.28,-1.88 1.14,-2.22 1.08,-5.91 -0.03,-1.73 -0.21,-3.93 -0.19,-5.58 0.08,-5.33 2.69,-4.48 7.48,-4.06l-0.1 -26.39c-0.87,-7.97 -3.2,-6.3 -0.55,-6.2 -0.14,-1.68 0.37,-1.38 -1.06,-1.38 -1.66,0.49 -0.34,-3.75 -5.62,-5.91 2.2,0.4 1.24,-0.25 3.53,2.23l0.89 1.14c-1.92,-3.61 -1.07,-2.77 -4.67,-4.73 -0.69,2.31 0.92,0.83 -0.65,0.15 -2.51,-1.08 -0.54,0.23 -0.29,-0.5 0,-1.51 0.32,-0.99 -1.4,-1.13 -0.15,0.21 -0.33,0.52 -0.34,0.54 -0,0 0.1,-0.05 0.1,-0.09 0,-0.08 0.12,-0.12 0.17,-0.17 0,-1.48 0.31,-0.96 -1.42,-1.06 -0.84,1.58 0.47,0.51 -1.9,0.22 -9.47,-1.13 -40.74,-0.48 -50.54,-0.45 -9.12,0.02 -18.23,-0.01 -27.36,-0.07l-25.83 0.24 -0.92 0.73c0.67,0.94 2.04,-0.04 0.09,0.41 -3.67,0.83 1.1,0.6 -0.85,-0.43l-0.71 0.77 0.22 0.42c0,-0.09 -0.09,-0.16 -0.14,-0.24 -1.62,0.2 -1.32,-0.3 -1.32,1.11 0.49,1.03 0.64,-0.66 -2.78,2.54 -4.17,3.92 -1.21,3.35 -2.58,2.62 -1.49,0 -0.98,-0.32 -1.19,1.37 1.83,0.67 0.28,-0.84 -1.34,4.19 -2.47,7.7 -1.05,97.99 -1.11,107.32 4.46,1.06 -0.31,-2.05 3.39,0.42l0.67 -0.84c-1.69,-1.76 -0.9,0.58 -0.81,-2.37 0.06,-2 0.03,-0.89 0.85,-1.91l5.7 -0.48c-1.29,-0.72 1.2,-0.14 -1.99,-0.72 -4.7,-0.86 -3.55,0.11 -4.29,0.96 0.97,-2.5 3.78,-1.7 6.29,-1.08 2.46,5.42 -2.04,5.06 3.35,6.63l0.69 -5.86 7.04 0.02c0.39,-0.13 -0.42,-1.87 0.32,0.38 0.82,2.49 0.51,12.33 0.51,15.08l2.9 -0.3c-2.11,0.14 -0.49,0.39 -1.63,1.3 1.7,-0.67 0.97,-0.08 2.27,-1.15 -0.96,-2.37 -0.83,-7.01 -0.36,-10.2l6.67 0.19c-1.23,-0 -2.79,-0.22 -4.05,-0.02l-2.02 0.71c-0.13,-0.19 -0.44,0.2 -0.62,0.35l6.77 -0.06 0.64 7.92 2.13 0.94c0.04,-0.11 0.25,0.06 0.37,0.11 -1.51,-0.47 -1.02,-0.64 -1.02,1.07 1.56,-0.17 1.37,0.31 1.02,-1.07 1.66,0.45 1.15,0.7 1.25,-1.1 -2.26,-0.76 -0.45,0.81 -0.87,-1.71 -0.01,-0.05 -0.02,-2.91 -0.01,-3.05 0.06,-1.29 -0.37,-5.69 0.57,-3.16l7.13 -0.34c-0.25,1.73 -0.52,3.44 -0.45,5.23 0.03,0.82 0.07,1.26 0.3,2.03 0.75,2.52 -0.67,-0.03 0.81,1.49 0.34,-1.47 0.56,-2.75 0.5,-4.43 -0.03,-0.74 -0.13,-1.57 -0.3,-2.29 -0.41,-1.74 -0.54,-1.55 -0.86,-2.03l-3.59 -0.5c-0.84,-0.06 -2.64,-0.08 -3.53,-0.18 9.38,-1.07 7.74,1.35 7.95,5.79l1.02 4.29c4.7,-1.58 0.89,-0.54 2.79,-10.2l6.46 0.39c-3.5,-0.01 -4.74,-0.33 -6.54,0.74l6.65 0.2 0.59 3.75c0.23,5.38 0.87,4.08 1.55,4.6 -1.71,0.52 -0.59,0.45 -2.16,0.11 1.45,2.01 0.45,0.81 2.12,1.57l0.26 -0.11c2.26,-1.31 1.25,-0.59 2.21,-2.19 -1.89,0.8 -0.96,0.74 -2.08,0.3 2.12,-1.58 1.05,-1.46 1.25,-5.07 0.05,-0.92 -0.2,-5.24 0.69,-3.09zm-15.33 -102.69c-0.5,-3.26 -0.02,-1.01 -1.13,-1.85l-0.03 2.34c-0.75,-8.38 -3.25,-7.62 -4.14,-11.31 0.28,3.42 -0.35,-0.3 1.33,1.79l-1.37 -2.37c-1.1,0.35 -0.43,0.46 -1.83,-0.61 -1.24,-0.95 -0.93,-0.86 -0.87,-1.32 0,-2.01 -0.45,-1.4 1.75,-1.4 -1.61,-1.2 2.28,-1.73 -2.42,-1.14 16.96,-0.28 67.45,-0.57 82.07,1.1l-1.35 -0.04 0.96 1.14c0.63,-0.25 6.51,-0.69 2.93,0.35 0,1.53 -0.33,0.98 1.45,1.21 0.12,-1.89 -0.04,-0.53 0.93,0.47 1.51,1.54 0.38,0.17 1.43,1.8 1.26,0.33 1.4,-0.09 -0.11,0.3 0.23,1.52 -0.24,1.21 1.15,1.21l-0.14 0.08c0.18,1.58 -0.31,1.3 1.03,1.3 0.22,-0.15 0.92,-2.92 0.12,0.18 -0.01,0.04 -0.2,0.59 -0.22,0.46 -0.01,-0.18 -0.2,0.39 -0.3,0.58l1.15 1.07 0.24 -1.43c0.55,4.93 0.43,1.84 -0.58,3.18l0.51 23.03 -82.96 0.04c4.09,3.35 2.4,1.14 2.71,1.21l70.36 0.08c2.24,0.01 9.3,0.85 10.21,-1.72 1.58,-4.45 0.59,-11.49 0.5,-22.84 -0.13,5.1 1.21,20.51 -0.81,23.59 -2.28,1.69 -74.14,1.05 -83.14,0.71 -0.75,-3.4 -0.53,-7.09 -0.49,-10.67 0.02,-1.79 -0.03,-3.74 0.01,-5.5 0.02,-0.88 0.08,-2.18 0.26,-3.02 0.44,-2.06 -0.24,-0.43 0.8,-2z"/>
   <path class="fil1" d="M78.69 142.85c1.53,2.95 0.97,2.25 4,3.6l-4 -3.6zm66.44 -27.55c-1.48,0.56 -1.12,0.71 -0.71,-0.83 -12.52,-7.09 -12.97,-1.56 -19.88,-4.57 -0.22,-6.12 0.69,-14.26 -1.03,-16.52 -2.1,0.49 -2.65,-3.12 -2.37,8.56 0.09,3.93 -0.19,7.64 0.64,10.94 8.64,1.75 17.59,-1.63 21.94,6.19 1.24,0.77 1.67,0.56 2.85,4.83 0.65,2.36 0.89,4.66 0.69,7.41 -8.76,0.76 -21.06,0.17 -30.18,0.13 -12.23,-0.05 -19.11,2.61 -22.5,-8.52 -2.81,-9.22 -8.79,-39.2 7.64,-40.66l5 -0.43c1.7,-0.59 0.57,-0.06 1.68,-1 -2.75,-2.87 -14.58,-2.25 -17.41,4.18 -5.39,12.26 -4.1,32.91 2.7,44.45l2.4 3.9c1.25,4.29 -0.21,15.25 -11.07,10.32 -3.29,-1.49 -4.44,-3.11 -4.77,-7.48 -0.63,-8.48 -0.82,-39.73 1.25,-46.8 1.28,-4.37 4.41,-13.31 10.01,-14.02 3.43,-2.38 3.09,-1.34 3.57,-0.83l1.78 -1.07 -1.54 -0.08c21.25,-2.69 17.81,1.6 24.22,4.3 -0.8,-5.47 -2.52,-6.84 -7.79,-7.73 -12.81,-2.17 -25.97,-0.05 -31.35,12.94 -3.11,7.49 -3.36,16.91 -3.25,26.84 0.49,42.8 -8.91,37.87 51.16,37.84 11.33,-0.01 17.25,0.45 20.83,-9.26 3.01,-8.16 -0.48,-16.9 -4.5,-23.04zm-67.34 26.05c0.23,-1.34 0.62,-1.19 -0.59,-1l0.59 1zm0.53 -50.99l-1.1 1.43c1.31,-0.5 1.08,1.28 1.1,-1.43zm0.8 -3.02l-1.12 1.36c1.28,-0.5 1.04,1.36 1.12,-1.36zm2.11 -6.51c1.59,-0.28 1.28,0.2 1.07,-1.35 -1.42,0 -0.93,-0.3 -1.07,1.35zm1.41 -2.34c1.61,-0.44 1.28,0.1 1.25,-1.44 -1.56,0 -1.01,-0.34 -1.25,1.44zm4.05 -4.36c1.37,-0.03 0.87,0.28 1.26,-1.22 -1.58,0.27 -1.26,-0.22 -1.26,1.22zm2.33 -1.65c1.4,0.12 0.97,0.42 1.2,-1.02 -1.5,0.12 -1.2,-0.32 -1.2,1.02zm1.44 -0.89c1.32,0.15 0.93,0.43 1.08,-0.92 -1.36,0.07 -1.08,-0.32 -1.08,0.92zm4.19 -1.34c1.87,-0.38 0.76,0.07 0.96,-1.16l-0.96 1.16zm25.39 3.55c-0.26,-1.47 0.2,-1.25 -1.15,-0.97 0.34,-1.5 0.59,-1 -1.02,-1.31l1.02 1.31c-0.09,1.22 -0.31,0.76 1.15,0.97zm-2.51 3.5c-0.49,1.59 -0.68,1.08 1.12,1.1 0,-1.68 0.45,-1.41 -1.12,-1.1l-1.13 -1.15c0.13,1.69 -0.37,1.47 1.13,1.15zm-0.84 -1.34c0.1,-1.39 0.42,-1.06 -0.97,-1 0,1.33 -0.34,1 0.97,1zm-3.01 -1.41c-0.17,-1.64 0.25,-1.22 -1.49,-0.88 0,1.37 -0.26,0.83 1.49,0.88zm-22.51 1.22c-1.62,-0.19 -1.1,-0.52 -1.43,1.18 1.75,-0.21 1.43,0.33 1.43,-1.18zm-4.95 4.93l1.02 -1.42c-1.91,0 -1.53,-0.45 -1.02,1.42l-0.34 0.96 0.34 -0.96zm-0.43 0.92c-1.68,0.33 -1.35,-0.18 -1.11,1.46 1.54,0 1,0.32 1.11,-1.46zm-0.73 2.31c-1.31,-0.1 -1,-0.37 -0.75,0.97l0.75 -0.97zm-1.55 4.25l-0.49 0.89 0.49 -0.89zm-1.92 51.39c-0.37,1.66 -0.69,1.16 1.02,1.45 -0.16,-1.73 0.38,-1.45 -1.02,-1.45zm3.75 2.86c-0.03,1.19 -0.31,0.93 0.88,0.73l-0.88 -0.73zm11.01 -8.72c0.29,-1.51 0.58,-1.04 -1.01,-1.28 0.21,1.55 -0.28,1.28 1.01,1.28zm-0.81 -1.37c0.08,-1.51 0.4,-0.99 -1.19,-1.39 0.23,1.7 -0.3,1.39 1.19,1.39zm-1.52 -2.44c0.18,-1.53 0.48,-1.02 -1.12,-1.38 0.17,1.69 -0.34,1.38 1.12,1.38zm-1.19 -1.32c0.11,-1.18 0.39,-0.91 -0.77,-0.88l0.77 0.88zm-0.39 -1.82c0.29,-1.61 0.6,-1.12 -1.05,-1.37 0.14,1.67 -0.37,1.37 1.05,1.37zm-1.17 -1.91c0.3,-1.52 0.68,-1.21 -0.75,-1.22l0.75 1.22zm-2.09 -34.01c-1.14,0.73 -0.65,-1.24 -1.02,1.58 1.28,-0.36 1.06,1.54 1.02,-1.58zm-0.22 -2c1.52,0.07 1.06,0.33 0.69,-1.32l-0.69 1.32zm0.8 -2.05c1.54,-0.14 1.2,0.27 0.94,-1.3 -1.35,0 -0.88,-0.28 -0.94,1.3zm0.72 -1.9c1.26,-0.04 1,0.3 0.9,-0.91 -1.14,0 -0.81,-0.27 -0.9,0.91zm4.01 -3.81c1.33,0.01 0.89,0.32 1.24,-1.04 -1.53,0.13 -1.24,-0.33 -1.24,1.04zm1.47 -0.77c1.67,0.24 1.21,0.61 1.47,-1 -1.77,0.06 -1.47,-0.47 -1.47,1zm11.75 -1.66c0.29,1.61 -0.18,1.11 1.5,1.4 -0.36,-1.63 0.14,-1.17 -1.5,-1.4zm1.03 3.84c-2.89,-0.15 -1.26,-0.35 -1.4,0.72l1.4 -0.72zm-8.32 0.37c-2.64,0.04 -0.84,-0.17 -1.37,1.12l1.37 -1.12zm-2.26 0.74c-1.53,-0.19 -1.02,-0.49 -1.39,1.11 1.68,-0.22 1.39,0.3 1.39,-1.11zm-2.12 2.09l-0.63 0.75 0.63 -0.75zm-0.88 0.62c-1.73,0.27 -1.42,-0.24 -1.1,1.43 1.46,0 0.93,0.3 1.1,-1.43zm-0.71 2.42c-1.25,-0.09 -0.87,-0.31 -0.63,1.05l0.63 -1.05zm0.8 34.13c-0.24,1.42 -0.6,1.16 0.72,1.09l-0.72 -1.09zm0.35 1.95c-0.21,1.53 -0.51,1.04 1.07,1.35 -0.15,-1.65 0.35,-1.35 -1.07,-1.35zm0.79 1.47c-0.11,1.54 -0.43,1.01 1.18,1.44 -0.19,-1.76 0.35,-1.44 -1.18,-1.44zm2.08 2.18l0.67 0.72 -0.67 -0.72zm3.71 2.64l-1.52 -1.11c0.65,1.52 -0.24,1.12 1.52,1.11zm43.81 0.04c1.61,0.2 1.31,0.6 1.16,-0.93 -1.46,0 -1.16,-0.4 -1.16,0.93zm0.03 -7.06c0.18,-1.48 0.54,-1.1 -0.8,-1.35l0.8 1.35zm-0.44 -2.05c0.15,-1.43 0.44,-0.94 -1.04,-1.34 0.17,1.63 -0.33,1.34 1.04,1.34zm-0.96 -1.39c0.12,-1.32 0.37,-0.88 -1.09,-1.05 0.23,1.34 -0.18,1.05 1.09,1.05zm-3.32 -3.95c-0.26,-1.63 0.24,-1.36 -1.3,-1.09 0,1.35 -0.28,0.85 1.3,1.09zm-5.29 -2.58l1.24 1.11c-0.38,-1.24 0.99,-0.94 -1.24,-1.11zm-14.66 -20.86c-1.45,0.33 -0.96,-0.1 -1.07,1.63 2.06,0 1.59,0.46 1.07,-1.63l0.14 -0.74 -0.14 0.74zm3.19 1.15l0.64 14.98c0.1,0.18 0.26,0.45 0.45,0.62 -0.44,-2.87 -0.43,-5.19 -0.37,-8.1 0.02,-1.17 0.14,-2.88 0.11,-3.96 -0.09,-3 0.42,-1.98 -0.83,-3.54zm14.98 16.06c-0.61,1.16 -0.61,0.83 0.6,0.45l-0.6 -0.45zm2.47 1.53c0.04,1.28 -0.32,1.04 0.88,0.93l-0.88 -0.93zm5.15 5.84c-0.23,1.49 -0.51,1.01 1.07,1.28 -0.2,-1.57 0.29,-1.28 -1.07,-1.28zm0.82 1.39c-0.14,1.55 -0.47,1.03 1.1,1.45 -0.1,-1.78 0.43,-1.45 -1.1,-1.45zm2.44 6.96c0.26,3.7 0.17,1.49 1.09,1.89l-1.09 -1.89zm-0.49 13.78c-1.26,0.2 -1,-0.18 -0.95,1.02 1.23,0 0.86,0.29 0.95,-1.02zm-2.2 3.43l1.26 -2.39c-1.2,1.44 -0.79,-1.05 -1.26,2.39zm-2.55 2.11c-1.32,-0.05 -0.9,-0.34 -1.08,1.06 1.37,-0.21 1.08,0.21 1.08,-1.06zm-60.69 1.4l0.85 1.18c-0.06,-1.24 1.21,-0.66 -0.85,-1.18zm-1.33 0.4c0.2,-1.05 0.44,-0.86 -0.58,-0.69l0.58 0.69zm17.07 -4.24l0.79 -6.94c3.37,-1.07 40.6,-1.07 45.31,-0.13 -3.36,9.35 -8.06,7.35 -19.06,7.35 -7.42,0 -20.27,0.71 -27.03,-0.28z"/>
   <path class="fil2" d="M13.88 1.89l25.83 -0.24c9.12,0.05 18.23,0.09 27.36,0.07 9.81,-0.02 41.07,-0.68 50.54,0.45 2.37,0.28 1.07,1.36 1.9,-0.22 -4.63,-2.82 -43.62,-1.53 -52.44,-1.51 -13.43,0.02 -42.36,-1.65 -53.19,1.45zm107.12 0.85l-0.06 0.27c-0.06,0.06 -0.17,0.1 -0.17,0.17 0,0.04 -0.1,0.09 -0.1,0.09 0.01,-0.02 0.19,-0.32 0.34,-0.54zm2.34 1.47l-0.94 -0.35c-0.25,0.73 -2.22,-0.58 0.29,0.5 1.57,0.68 -0.04,2.16 0.65,-0.15zm5.88 7.26c-0.25,-2 0.14,-1.69 -1.2,-2.53l-0.89 -1.14c-2.29,-2.49 -1.32,-1.84 -3.53,-2.23 5.28,2.15 3.97,6.4 5.62,5.91zm-8.62 48.8c0.37,1.9 -1.7,0.36 1.18,1.79 4.09,-1.42 3.07,-6.99 2.65,-15.64l6.85 -0.35c1.54,-4.6 1.38,-29.64 -1,-33.21 -2.65,-0.1 -0.32,-1.77 0.55,6.2l0.1 26.39c-4.79,-0.41 -7.4,-1.27 -7.48,4.06 -0.02,1.65 0.16,3.85 0.19,5.58 0.06,3.68 0.2,4.02 -1.08,5.91 -1.68,-1.01 -1.99,1.2 -1.65,-6.69 0.13,-2.96 0.19,-5.54 -0.5,-8.26 -0.68,4.04 -1.32,10.46 0.19,14.23zm-79.43 -13.8l78.32 -0.35c0.09,-0.1 2.49,-0.2 -1.63,-0.73l-36.73 -0.07c-5.33,0.01 -37.82,-1.3 -39.97,1.15zm-2.64 -30.77c0.36,5.64 1.19,2.24 1.16,14.35l-0.06 11.77c0.04,0.88 0.04,1.29 0.21,2.16 0.4,2 0.01,0.74 0.62,1.79 0.92,-1.45 0,-2.06 0.01,-7.11 0,-2 0.83,-23.47 -1.94,-22.97zm-1.3 -1.21l0.26 -0.06c0.08,-0.04 0.23,-0.2 0.23,-0.11 -0,0.05 0.13,-0.06 0.12,-0.06 -0.02,0.01 -0.38,0.14 -0.62,0.24zm-4.05 -4.63c0.75,1.5 1.15,1.82 2.67,2.23 1.59,1.93 0.98,-1.5 1.39,1.8 -0.82,-2.8 0.55,-0.49 -2.05,-2.97 -3.18,-3.03 -1.52,-2.05 -2.01,-1.06zm-2.93 -1.56l1.74 0.39c0.61,-0.26 2.08,0.04 -0.26,-0.59 -1.53,-0.41 -0.32,-0.54 -1.47,0.2zm-14.88 -2.02c3.17,0.31 3.76,-0.52 7.11,-0.36 2.56,0.12 4.67,1.07 6.92,1.53 2.11,-1.12 -4.51,-2.27 -6.07,-2.37 -1.71,-0.11 -3.8,-0.04 -5.5,0.21 -3.48,0.52 -4.96,-0.63 -2.46,0.99zm-3.29 1.51c1.9,0.01 1.05,0.83 1.84,-0.51 -1.02,-1.54 1.22,-0.9 -1.07,-0.16 -3.09,1 -0.74,0.06 -0.77,0.66zm-3.64 3.52c1.34,-0.49 1.88,-1.04 2.35,-2.4 0.14,-2.29 0.1,-1.03 -1.6,0.81 -1.34,1.45 -1.87,1.41 -0.76,1.6zm-3.25 101.67l11.74 0.47c0.22,-0.04 0.44,-0.1 0.63,-0.14l1.16 -0.38c1.49,-2.09 0.9,-6.05 0.9,-8.62 -0,-3.38 0.09,-6.82 -0.22,-10.16 0.15,-0.14 0.42,-0.5 0.49,-0.35l3.08 -2 0.13 -9.38c-4.31,-2.36 -3.11,1.02 -3.69,-10.16 0.14,-0.16 0.4,-0.56 0.48,-0.41l2.92 -1.94 0.3 -9.77c-0.74,3.19 -0.26,5.8 -0.46,7.48 -0.3,2.57 -0.1,1.67 -0.78,2.71l-2.92 -0.23 -0.42 10.75c1.66,3.28 -0.29,-0.28 1.71,1.52 1.91,1.71 1.7,-1.46 1.63,8.64l-3.11 1.56 -0.06 20.34 -13.53 0.05c1.16,-15.44 0.13,-34.96 0.14,-50.87l0.01 -38.33c0.12,-5.39 1.42,-7.31 1.93,-11.09l-1.61 2.79c-1.73,4.1 -1.05,13.75 -1.02,18.5 0.07,13.04 -1.07,75.55 0.55,79.01zm13.42 -89.12l0.01 36.54 3.2 -0.23 -2.29 -1.09 -0.1 -33.53c-0.64,-2.36 0.59,-0.01 -0.81,-1.69zm1.58 -2.29l-0.95 1.1c1.28,1.44 -0.32,2.9 0.91,-0.46 0.01,-0.03 0.02,-0.28 0.03,-0.31 0.01,-0.03 0.05,-0.23 0.01,-0.33zm3.89 -0.73l-2.98 -0.17c1.13,0.71 -0.65,0.44 1.48,0.61 2.63,0.21 0.47,0.77 1.5,-0.44zm1.98 2.6l0.24 -0.41c-2.92,-1.63 -1.56,-0.58 -1.81,-0.51 2.33,2.08 1.42,7.3 1.41,10.68 -0.05,19.52 -0.89,74.66 0.14,86.37 -0.96,-5.9 -0.92,-92.46 0.02,-96.12zm39.73 100.39c1.14,-0.65 1.54,-0.65 1.84,-1.92 0.86,-3.73 -0.29,-2.14 -1.76,-2.41 -5.14,1.4 -31.22,0.44 -38.66,0.44 -1.35,-1.5 -1.48,-0.26 8.6,-0.22l27.48 -0.16c5.32,0.38 2.89,-0.76 3.84,2.45 -1.41,0.99 -5.32,0.6 -7.04,0.59 0.25,0.08 1.7,0.3 2.36,0.42l3.36 0.81zm-5.89 7.84l-0.14 -7.87c-0.89,-2.15 -0.64,2.17 -0.69,3.09 -0.2,3.61 0.87,3.49 -1.25,5.07 1.12,0.44 0.19,0.5 2.08,-0.3zm-2.47 2.3l0.26 -0.11 -0.26 0.11zm-2.09 -10.03l-0.03 8.46c1.57,0.35 0.45,0.42 2.16,-0.11 -0.68,-0.52 -1.32,0.78 -1.55,-4.6l-0.59 -3.75zm-11.22 -0.53c0.33,0.48 0.46,0.29 0.86,2.03 0.17,0.72 0.28,1.55 0.3,2.29 0.06,1.68 -0.16,2.96 -0.5,4.43 0.46,1.31 -1.57,0.86 1.97,1.86 2.17,-1.31 2.12,-0.9 2.41,-3.85 0.21,-2.11 -0.1,-4.43 -0.47,-6.44 1.8,-1.06 3.03,-0.75 6.54,-0.74l-6.46 -0.39c-1.9,9.66 1.9,8.62 -2.79,10.2l-1.02 -4.29c-0.21,-4.44 1.43,-6.86 -7.95,-5.79 0.9,0.1 2.69,0.12 3.53,0.18l3.59 0.5zm-6.82 8.26l-0.31 -7.92c-0.94,-2.53 -0.51,1.87 -0.57,3.16 -0.01,0.15 0,3.01 0.01,3.05 0.42,2.52 -1.39,0.94 0.87,1.71zm-4.39 -7.87c-0.5,4.3 -1.38,9.54 2.12,10.04 0,-1.71 -0.49,-1.54 1.02,-1.07 -0.12,-0.05 -0.33,-0.23 -0.37,-0.11l-2.13 -0.94 -0.64 -7.92zm-6.39 9.03l-0.38 -8.97c0.18,-0.15 0.49,-0.54 0.62,-0.35l2.02 -0.71c1.26,-0.2 2.82,0.02 4.05,0.02l-6.67 -0.19c-0.47,3.19 -0.6,7.83 0.36,10.2zm-4.38 -15.32c-0.62,3.21 -0.41,6.17 -0.43,9.5 -0.03,4.24 -0.91,6.36 2.54,6.97 1.13,-0.92 -0.48,-1.17 1.63,-1.3l-2.9 0.3c0.01,-2.76 0.31,-12.6 -0.51,-15.08 -0.74,-2.25 0.07,-0.51 -0.32,-0.38zm-11.07 0.05c-0.4,3 -1.2,6.72 2.06,6.7 3.18,-0.02 2.55,-3.79 1.98,-6.76l-0.69 5.86c-5.38,-1.57 -0.89,-1.21 -3.35,-6.63 -2.51,-0.62 -5.32,-1.42 -6.29,1.08 0.74,-0.86 -0.41,-1.82 4.29,-0.96 3.19,0.58 0.7,0 1.99,0.72zm1.14 -114.93c1.95,1.03 -2.82,1.27 0.85,0.43 1.96,-0.44 0.58,0.53 -0.09,-0.41l-0.76 -0.02zm-0.63 0.95c0.05,0.08 0.14,0.15 0.14,0.24l-0.22 -0.42 0.08 0.18zm-6.68 6.28c1.37,0.72 -1.59,1.29 2.58,-2.62 3.41,-3.21 3.27,-1.51 2.78,-2.54 -1.79,0.4 -1.81,0.2 -3.49,1.82 -1.67,1.61 -1.45,1.57 -1.87,3.35zm-0.24 113.3c-3.7,-2.47 1.07,0.63 -3.39,-0.42 0.06,-9.33 -1.36,-99.62 1.11,-107.32 1.61,-5.04 3.16,-3.52 1.34,-4.19 -5.58,3.3 -3.21,47.54 -3.21,57.14 -0,10.16 0,20.32 -0,30.48 -0,5.21 0.02,10.42 0,15.63 -0.01,4.17 -1.17,12.67 4.15,8.68zm0.71 -5.12c-0.81,1.03 -0.79,-0.08 -0.85,1.91 -0.09,2.95 -0.88,0.61 0.81,2.37l0.04 -4.28z"/>
   <path class="fil2" d="M97.37 73.49l14.82 0.18c1.73,-0.35 1.32,-0.76 1.49,0.88 1.8,1.08 -0.12,0.36 2.04,0.4 1.39,-0.06 1.07,-0.39 0.97,1l-0.29 0.19 1.13 1.15c1.57,-0.3 1.12,-0.58 1.12,1.1l1.82 -0.31c0.45,-2.13 1.05,-2.59 -0.42,-4.29 -1.45,-0.22 -1.23,0.25 -1.15,-0.97l-1.02 -1.31c-2,-4.35 -16.99,-3.01 -22.26,-2.43 -0.2,1.23 0.91,0.77 -0.96,1.16l-3.1 0.42c-0.15,1.35 0.23,1.07 -1.08,0.92l-0.24 -0.13c-0.23,1.44 0.2,1.14 -1.2,1.02l-1.08 0.42c-0.39,1.5 0.11,1.19 -1.26,1.22 -1.64,0.63 0.28,-1.16 -1.8,1.08 -1.73,1.86 -0.56,0.37 -1.01,1.84 0.03,1.53 0.37,0.99 -1.25,1.44 -1.11,-0.52 -0.41,-0.34 -0.34,1 0.22,1.55 0.53,1.07 -1.07,1.35 -1.77,2.04 -2.18,3.74 -2.11,6.51 -0.08,2.72 0.16,0.85 -1.12,1.36l0.32 1.66c-0.03,2.71 0.21,0.92 -1.1,1.43 -1.26,13.04 -1.48,35.54 -0.01,48.56 1.21,-0.19 0.82,-0.34 0.59,1l0.9 1.5 4 3.6 -0.13 0.19c1.02,-0.16 0.79,-0.35 0.58,0.69l1.33 -0.4c2.06,0.51 0.79,-0.06 0.85,1.18 9.07,0.99 54.08,2.2 58.76,-1.51 0.18,-1.4 -0.23,-1.11 1.08,-1.06l2.55 -2.11c0.47,-3.44 0.05,-0.95 1.26,-2.39l-0 -0.02c-0.05,-1.21 -0.32,-0.83 0.95,-1.02 1.84,-3.89 1.61,-7.01 1.58,-11.89 -0.92,-0.41 -0.83,1.8 -1.09,-1.89 0.23,-2.5 0.06,-3.6 -1.34,-5.51 -1.56,-0.42 -1.24,0.09 -1.1,-1.45l0.25 -0.11c-1.58,-0.27 -1.29,0.21 -1.07,-1.28 -0.35,-1.61 0.55,-0.48 -0.56,-1.7 -1.29,-1.43 0.21,-0.17 -1.46,-0.85 0.52,-1.51 0.82,-1.29 -0.71,-0.83 -0.45,-1.55 1.75,-0.57 -1.54,-1.52 -1.2,0.11 -0.85,0.35 -0.88,-0.93l-1.87 -1.07c-1.21,0.37 -1.21,0.7 -0.6,-0.45l-13.89 -0.47c-0.19,-0.17 -0.35,-0.44 -0.45,-0.62l-0.64 -14.98c-0.1,-1.68 0.65,-1 -0.18,-1.88l-2.87 -0.01 -0.14 0.74c0.52,2.08 0.99,1.63 -1.07,1.63 -0.43,5.89 -0.7,14.36 1.13,18.86 4.01,0.91 10.06,1.09 14.61,0.37 2.23,0.17 0.86,-0.13 1.24,1.11 2.35,0.87 0.25,0.42 2.75,0.38 1.53,-0.27 1.04,-0.55 1.3,1.09 0.41,1.08 -0.28,0.19 0.65,1.13 1.46,1.46 0.7,0.71 1.76,1.23l-0.18 0.54c1.46,0.17 1.21,-0.27 1.09,1.05l-0.08 0.04c1.48,0.4 1.19,-0.09 1.04,1.34l-0.36 0.7c1.34,0.25 0.98,-0.13 0.8,1.35l1.13 6.13c0.14,1.53 0.44,1.13 -1.16,0.93 -4.33,-1.04 -39.33,-1.02 -43.81,-0.04 -1.76,0.01 -0.87,0.41 -1.52,-1.11l-1.52 -0.82 -0.67 -0.72c-0.55,-0.98 0.48,-1.17 -0.91,-0.74 -1.61,-0.43 -1.29,0.11 -1.18,-1.44l0.28 -0.12c-1.58,-0.31 -1.28,0.18 -1.07,-1.35l0.38 -0.86c-1.33,0.07 -0.96,0.33 -0.72,-1.09 -0.89,-5.32 -2.8,-9.06 -3.14,-15.44 -0.34,-6.37 0.73,-11.69 1.7,-17.64 -0.24,-1.36 -0.62,-1.15 0.63,-1.05l-0.39 -0.99c-0.32,-1.67 -0.64,-1.16 1.1,-1.43l0.25 0.13 0.63 -0.75 0.73 -0.98c0.37,-1.6 -0.14,-1.3 1.39,-1.11l0.89 0.38c0.53,-1.29 -1.27,-1.08 1.37,-1.12l6.92 0.35c0.14,-1.07 -1.49,-0.87 1.4,-0.72 0.51,-0.55 0.4,0.49 0.75,-1.18 0.4,-1.88 0.33,-0.6 -0.28,-1.26 -1.67,-0.29 -1.2,0.21 -1.5,-1.4l-10.28 0.66c-0.26,1.61 0.2,1.24 -1.47,1l-0.23 -0.27c-0.34,1.36 0.1,1.05 -1.24,1.04 -2.44,0.67 -2.18,0.38 -3.11,2.9 0.1,1.21 0.36,0.87 -0.9,0.91l0.23 0.61c0.25,1.56 0.6,1.15 -0.94,1.3l-0.11 0.74c0.37,1.65 0.83,1.39 -0.69,1.32l0.22 2c0.03,3.12 0.25,1.22 -1.02,1.58 -0.72,13.18 -1.82,18.98 2.36,31.2 1.43,0.01 1.05,-0.29 0.75,1.22l0.12 0.53c1.66,0.25 1.34,-0.23 1.05,1.37l-0.38 0.93c1.16,-0.02 0.88,-0.3 0.77,0.88l0.07 -0.06c1.6,0.37 1.3,-0.15 1.12,1.38 -0.08,1.31 -0.83,1.39 0.33,1.05 1.59,0.4 1.27,-0.12 1.19,1.39l-0.2 0.09c1.58,0.24 1.3,-0.23 1.01,1.28l-1.74 9.54 -8.39 -0.09c-1.19,0.2 -0.92,0.46 -0.88,-0.73l-2.73 -1.41c-1.7,-0.28 -1.39,0.22 -1.02,-1.45 2.29,-15.23 -2.44,-34.33 1.43,-50.5l0.49 -0.89 0.8 -3.28c-0.25,-1.34 -0.56,-1.07 0.75,-0.97l-0.38 -0.84c-0.24,-1.65 -0.57,-1.13 1.11,-1.46l0.09 0.04 0.34 -0.96c-0.51,-1.87 -0.89,-1.42 1.02,-1.42 1.54,-0.58 1.97,-0.95 2.5,-2.33 0.34,-1.69 -0.19,-1.37 1.43,-1.18 1.41,0.46 1.52,0.99 0.84,-0.38l3.57 -0.83c-0.48,-0.5 -0.15,-1.55 -3.57,0.83 -5.6,0.71 -8.72,9.64 -10.01,14.02 -2.07,7.07 -1.88,38.32 -1.25,46.8 0.33,4.38 1.48,5.99 4.77,7.48 10.86,4.93 12.32,-6.04 11.07,-10.32l-2.4 -3.9c-6.8,-11.54 -8.09,-32.19 -2.7,-44.45 2.83,-6.43 14.66,-7.05 17.41,-4.18 -1.11,0.94 0.01,0.41 -1.68,1l-5 0.43c-16.43,1.47 -10.44,31.44 -7.64,40.66 3.39,11.13 10.27,8.47 22.5,8.52 9.12,0.03 21.42,0.62 30.18,-0.13 0.2,-2.75 -0.04,-5.05 -0.69,-7.41 -1.18,-4.27 -1.61,-4.06 -2.85,-4.83 -4.36,-7.83 -13.3,-4.44 -21.94,-6.19 -0.83,-3.3 -0.55,-7.01 -0.64,-10.94 -0.28,-11.68 0.27,-8.07 2.37,-8.56 1.73,2.27 0.81,10.4 1.03,16.52 6.91,3.01 7.36,-2.52 19.88,4.57 -0.41,1.54 -0.77,1.39 0.71,0.83 4.02,6.14 7.51,14.88 4.5,23.04 -3.58,9.71 -9.5,9.25 -20.83,9.26 -60.06,0.03 -50.67,4.97 -51.16,-37.84 -0.11,-9.92 0.15,-19.34 3.25,-26.84 5.38,-12.99 18.54,-15.11 31.35,-12.94 5.28,0.89 7,2.26 7.79,7.73 -6.42,-2.7 -2.98,-7 -24.22,-4.3l1.54 0.08z"/>
   <path class="fil1" d="M153.7 85.68l0.92 -1.02c-0.14,-0.22 -0.23,-0.36 -0.23,-0.37 -0,-0 0.08,0.22 0.08,0.16 0,-0.09 0.09,0.17 0.13,0.25 1.82,-0.12 1.51,0.44 1.51,-1.09 -2.31,-1.16 -2.27,-0.45 1.69,-1.03 2.78,-0.41 1.76,-1.1 3.36,0.62l1.7 -1.17 -1.97 0.37c3.19,-0.97 2.19,1.5 2.84,-3.74 -1.86,-0.16 -3.64,-0.26 -5.52,-0.81 -2.29,-0.67 -3.92,-0.87 -2.63,-1.89l-1.03 -0.22 -1.51 -1.01c0,1.95 -0.43,1.52 1.51,1.01 -0.19,-0.02 -1.49,-0.37 -2.33,-1.1 -1.8,-1.56 -1.82,-0.6 -0.67,-1.67l0.73 0.73 -0.73 -0.73 -0.83 -0.74c-0,0 0.26,1.92 -1.48,-0.9 -0.88,-1.44 -1.14,-0.47 0,-1.31l-0.94 -0.94 -0.56 0.83c-0.95,-2.45 -0.52,-0.78 0.6,-1.13 -0.1,-1.56 0.37,-1.27 -1,-1.27 -0.88,1.14 0.05,1.25 -0.73,-0.46 -0.4,-0.87 -0.48,-1.51 -0.69,-2.48 -0.31,-1.44 -0.36,-4.38 -0.35,-4.49 -0.48,1.65 -0.79,1.24 0.93,1.24 -0.13,-1.45 0.31,-1.16 -0.93,-1.24 0.47,-1.36 0.74,-1 -0.64,-1.17 -1.38,0.89 1.63,0.07 -1.88,0.86 -3.12,0.7 1.06,0.97 -1.13,-0.16l-0.64 0.74 0.44 1.19c0.29,1.48 0.11,-0.51 0.19,1.34 0.01,0.34 -0.13,1.76 -0.2,2.15 -0.43,2.47 -0.35,4.36 -1.32,2.21l-0.68 1.11c0.26,0.41 0.31,0.49 0.56,1.01 0,0 -0.05,0.01 -0.05,-0.01 0,-0.05 -0.12,-0.07 -0.12,-0.12 -1.49,0 -0.96,-0.31 -1.09,1.45 0.08,0.05 0.23,0.14 0.24,0.15l-0.03 -0.01c-0,-0.1 -0.17,-0.11 -0.26,-0.16l-0.39 1 -1.06 1.36c1.9,0 1.56,0.46 1.06,-1.36 -0.01,0.08 -0.41,1.06 -1.25,2.09 -1.37,1.68 -1.61,3.5 -1.5,0.87 -1.64,0.22 -1.34,-0.29 -1.34,1.13 0.25,0.59 2.68,-0.46 -0.62,0.75 -2.27,0.83 -0.29,1.06 -1.16,-0.27 -1.84,0.11 -1.56,-0.46 -1.56,1 0.18,0.09 2.94,0.72 0.04,0.35 -1.54,-0.2 -0.97,1.83 -0.82,-0.6 -3.26,0.42 -1.69,-0.02 -2.18,1.02l1.55 0.05c-1.56,0.21 -2.53,0.57 -3.72,0.81 -1.11,0.22 -0.94,0.3 -1.83,0.02 1.78,0.26 1.31,0.66 1.49,-1.08 -1.7,0.11 -1.32,-0.38 -1.49,1.08 -1.07,-0.49 -0.83,-0.71 -0.85,0.44 4.35,4.81 12.69,3.36 8.7,4.28 0,1.49 -0.31,0.95 1.45,1.08l0.05 -0.14c0,1.31 -0.29,0.86 1.17,1.08 0.36,-0.54 -0.7,-1.92 2.32,0.94 1.14,1.08 1.35,1.21 1.97,2.87l1.63 2.16c0.35,0.67 0.66,1.44 0.86,2.2 2.32,9.05 -2.64,3.19 3.29,7.39 1.54,-0.15 1.08,0.27 1.35,-1.27 -1.44,-1.12 -0.6,0.73 -0.67,-1.83 0,-0 0.23,-1.86 0.27,-2.03 0.73,-3.35 0.2,-3.46 1.26,-1.55l0.6 -0.98c-0.23,-0.42 -0.41,-0.74 -0.61,-1.27 -0,-0.01 0.07,0.02 0.07,-0.01 -0,-0.08 0.14,0.07 0.15,0.13 1.39,0 0.87,0.28 1.04,-1.38 -0.11,-0.06 -0.29,-0.2 -0.3,-0.21l0.13 0.15c1.41,0 0.92,0.3 1.12,-1.3 -1.58,-0.61 -1.26,0.43 -0.02,-0.7 1.28,-1.16 0.11,-0.31 0.95,-0.23l2.19 -2.29 -1.67 1.87 -0.62 -1c1.07,-0.72 1.43,-1.26 2.4,-1.71 1.62,-0.76 0.34,-1.19 1.28,0.1zm-17.69 -5.86c3.5,-1.43 6.94,-4.75 8.02,-8.64 6.74,8.97 1.44,2.91 9.13,8.88 -4.09,3.46 -6.67,3.94 -8.8,10.06 -1.16,-2.03 -1.49,-3.76 -3.23,-5.93 -1.79,-2.24 -3.22,-2.54 -5.13,-4.37z"/>
   <path class="fil0" d="M100.21 143.09c6.76,1 19.62,0.29 27.03,0.28 11,-0.01 15.69,2 19.06,-7.35 -4.71,-0.94 -41.94,-0.94 -45.31,0.13l-0.79 6.94z"/>
   <path class="fil0" d="M136.01 79.82c1.91,1.82 3.34,2.12 5.13,4.37 1.74,2.17 2.06,3.91 3.23,5.93 2.13,-6.13 4.71,-6.6 8.8,-10.06 -7.69,-5.97 -2.39,0.1 -9.13,-8.88 -1.09,3.89 -4.52,7.21 -8.02,8.64z"/>
   <path class="fil2" d="M38.14 6.36l78.29 -0.07 1.35 0.04c-14.62,-1.68 -65.1,-1.38 -82.07,-1.1 4.7,-0.59 0.82,-0.06 2.42,1.14zm82.18 1.42c3.59,-1.04 -2.3,-0.6 -2.93,-0.35l2.93 0.35zm3.81 3.48l-0.11 0.3c1.51,-0.38 1.37,0.03 0.11,-0.3 -1.05,-1.63 0.08,-0.26 -1.43,-1.8 -0.97,-1 -0.82,-2.36 -0.93,-0.47 0.25,0.78 0.06,0.53 0.95,1.36 0.94,0.88 0.55,0.44 1.41,0.91zm0.89 1.58l0.14 -0.08 -0.14 0.08zm0.64 2.51c0.1,-0.19 0.29,-0.76 0.3,-0.58 0.01,0.13 0.21,-0.42 0.22,-0.46 0.8,-3.1 0.09,-0.32 -0.12,-0.18l-0.39 1.21zm1.15 1.07l-0.35 1.74c1.01,-1.34 1.14,1.75 0.58,-3.18l-0.24 1.43zm-82.8 24.82l0.41 -20.16c-1.04,1.56 -0.36,-0.06 -0.8,2 -0.18,0.84 -0.24,2.14 -0.26,3.02 -0.04,1.77 0.01,3.71 -0.01,5.5 -0.03,3.58 -0.26,7.27 0.49,10.67 9,0.34 80.86,0.98 83.14,-0.71 2.01,-3.08 0.68,-18.49 0.81,-23.59 0.09,11.35 1.08,18.39 -0.5,22.84 -0.91,2.57 -7.97,1.74 -10.21,1.72l-70.36 -0.08c-0.3,-0.07 1.38,2.14 -2.71,-1.21zm-0.73 -22.01c0.19,-2.63 -0.67,-6.1 -2.84,-7.18 -1.68,-2.09 -1.06,1.63 -1.33,-1.79 0.89,3.69 3.39,2.93 4.14,11.31l0.03 -2.34zm-6.9 -11.48c-0.07,0.46 -0.38,0.37 0.87,1.32 1.4,1.07 0.72,0.96 1.83,0.61 -0.42,-0.52 -0.28,-0.62 -1.15,-1.3 -1.42,-1.1 0.24,-0.12 -1.54,-0.63z"/>
   <path class="fil2" d="M123.34 79.33c0.2,3.12 -0.04,2.6 2.87,3.38 2,0.54 3.75,0.97 5.83,0.9 3.98,-0.92 -4.35,0.53 -8.7,-4.28zm10.21 5.22l-0.05 0.14 0.05 -0.14zm5.46 4.89c0.4,2.56 1.4,3.76 1.89,6.57 0.67,3.78 -0.51,5.68 3.89,5.19 -5.94,-4.2 -0.97,1.66 -3.29,-7.39 -0.2,-0.76 -0.5,-1.53 -0.86,-2.2l-1.63 -2.16c-0.63,-1.66 -0.84,-1.79 -1.97,-2.87 -3.02,-2.86 -1.96,-1.48 -2.32,-0.94 0.6,0.75 0.8,0.89 1.63,1.69 0.12,0.12 1.25,1.17 1.25,1.17 1.02,0.83 0.57,0.48 1.41,0.96zm7.99 5.08c-1.06,-1.91 -0.54,-1.8 -1.26,1.55 -0.04,0.17 -0.27,2.03 -0.27,2.03 0.07,2.55 -0.78,0.7 0.67,1.83l0.86 -5.41zm0.21 -2.13c-0.01,-0.07 -0.16,-0.21 -0.15,-0.13 0,0.03 -0.07,0 -0.07,0.01 0.21,0.53 0.38,0.85 0.61,1.27l-0.39 -1.14zm0.87 -1.44l-0.13 -0.15c0.02,0.01 0.2,0.15 0.3,0.21l-0.18 -0.07zm2.05 -2.22c-0.83,-0.08 0.33,-0.93 -0.95,0.23 -1.24,1.12 -1.56,0.08 0.02,0.7l0.93 -0.92zm2.19 -2.29l1.39 -0.74c-0.94,-1.29 0.33,-0.86 -1.28,-0.1 -0.97,0.46 -1.33,0.99 -2.4,1.71l0.62 1 1.67 -1.87zm2.29 -1.71c-0.04,-0.08 -0.13,-0.35 -0.13,-0.25 0,0.06 -0.08,-0.16 -0.08,-0.16 0,0 0.1,0.14 0.23,0.37l-0.02 0.05zm6.56 -1.5c-1.6,-1.71 -0.58,-1.02 -3.36,-0.62 -3.96,0.58 -4,-0.13 -1.69,1.03l5.05 -0.42zm1.7 -1.17c1.54,-0.29 1.84,0.86 1.8,-1.88 -0.02,-1.7 -0.98,-1.94 -2.29,-2.43 -1.29,-0.48 -5.43,-1.42 -6.79,-1.76 -1.29,1.02 0.34,1.22 2.63,1.89 1.88,0.55 3.66,0.65 5.52,0.81 -0.65,5.24 0.35,2.76 -2.84,3.74l1.97 -0.37zm-9.83 -7.3l-0.75 -1.03 -0.73 -0.73c-1.15,1.07 -1.13,0.11 0.67,1.67 0.84,0.73 2.14,1.08 2.33,1.1 -1.95,0.51 -1.51,0.94 -1.51,-1.01zm-3.79 -4.73c-1.14,0.85 -0.89,-0.12 -0,1.31 1.74,2.82 1.48,0.9 1.48,0.9l-1.48 -2.22zm-0.9 -1.25c-1.12,0.35 -1.55,-1.31 -0.6,1.13l0.56 -0.83 0.04 -0.31zm-1.84 -7.47c-1.72,0 -1.41,0.41 -0.93,-1.24 -0.01,0.11 0.04,3.05 0.35,4.49 0.21,0.97 0.29,1.61 0.69,2.48 0.78,1.72 -0.14,1.6 0.73,0.46l-0.84 -6.2zm-4.58 -1.7c2.18,1.13 -1.99,0.85 1.13,0.16 3.51,-0.79 0.5,0.03 1.88,-0.86 -2.88,-0.26 -1.01,-0.59 -3.01,0.71zm-1.53 7.64c0.97,2.14 0.89,0.25 1.32,-2.21 0.07,-0.4 0.22,-1.81 0.2,-2.15 -0.08,-1.86 0.1,0.14 -0.19,-1.34l-0.44 -1.19 -0.89 6.9zm-0.29 1.99c0,0.06 0.13,0.07 0.12,0.12 -0,0.01 0.05,0.01 0.05,0.01 -0.25,-0.53 -0.3,-0.6 -0.56,-1.01l0.39 0.88zm-1.14 1.43c0.09,0.05 0.26,0.05 0.26,0.16l0.03 0.01c-0.01,-0.01 -0.16,-0.1 -0.24,-0.15l-0.05 -0.02zm-1.45 2.37c-1.31,0.46 -1.21,0.28 -1.69,1.6 -0.11,2.62 0.12,0.81 1.5,-0.87 0.85,-1.04 1.25,-2.02 1.25,-2.09 0.51,1.83 0.85,1.36 -1.06,1.36zm-4.82 3.21c0.88,1.33 -1.1,1.1 1.16,0.27 3.3,-1.21 0.87,-0.16 0.62,-0.75 -1.96,-0.04 -0.86,-1.13 -1.78,0.48zm-2.34 0.75c-0.15,2.43 -0.72,0.4 0.82,0.6 2.9,0.37 0.15,-0.25 -0.04,-0.35l-0.79 -0.25zm-2.18 1.02l-2.51 -0.21c-0.18,1.74 0.28,1.34 -1.49,1.08 0.89,0.27 0.72,0.19 1.83,-0.02 1.19,-0.24 2.17,-0.59 3.72,-0.81l-1.55 -0.05z"/>
   <path class="fil1" d="M90.28 132.67c-4.85,-0.84 -4.61,3.11 -3.01,4.61 0.98,0.93 2.39,0.5 2.95,-0.4 0.89,-1.42 0.33,-2.74 0.06,-4.21z"/>
  </g>
 </g>
</svg>
