<?xml version="1.0" encoding="UTF-8"?>
<!DOCTYPE svg PUBLIC "-//W3C//DTD SVG 1.1//EN" "http://www.w3.org/Graphics/SVG/1.1/DTD/svg11.dtd">
<!-- Creator: CorelDRAW -->
<svg xmlns="http://www.w3.org/2000/svg" xml:space="preserve" width="0.661992in" height="0.654996in" version="1.1" style="shape-rendering:geometricPrecision; text-rendering:geometricPrecision; image-rendering:optimizeQuality; fill-rule:evenodd; clip-rule:evenodd"
viewBox="0 0 81.41 80.55"
 xmlns:xlink="http://www.w3.org/1999/xlink"
 xmlns:xodm="http://www.corel.com/coreldraw/odm/2003">
 <defs>
  <style type="text/css">
   <![CDATA[
    .fil2 {fill:#040504}
    .fil0 {fill:#232424}
    .fil1 {fill:#FEFEFE}
   ]]>
  </style>
 </defs>
 <g id="Layer_x0020_1">
  <metadata id="CorelCorpID_0Corel-Layer"/>
  <g id="_1972665452176">
   <path class="fil0" d="M45 61.66l5.96 -0.05 -0.01 15.97 -5.95 0.02 0 -15.94zm-8.69 -0.01l6.08 -0.03 -0 15.98 -6.02 -0.01 -0.07 -15.94zm35.67 9.98l1.11 -0.62c6.69,-2.85 8.25,-9.06 5.72,-13.72 -0.71,-1.31 -0.46,-0.54 -1.46,-1.74 0.21,-2.79 1.64,-3.62 0.53,-7.52 -0.77,-2.69 -2.2,-3.35 -3.69,-4.77 0,-1.46 -0.1,-3 -0.45,-3.82 -0.39,-0.93 -1.13,-1.79 -2.18,-2.11 -4.72,-0.57 -4.33,2.19 -5.09,6.19 -2.22,1.39 -1.4,0.32 -2.54,2.78 -2.74,5.94 -0.62,4.77 -0.68,8.42 -0.02,1.46 -4.75,6.02 -0.52,12.47 1.91,2.91 3.5,2.97 6.5,4.24 0.06,0.02 0.18,0.07 0.27,0.12 0.64,1.09 0.42,5.23 0.18,6.28 -2.27,0.62 -14.76,0.63 -16.24,-0.08 -1.11,-1.77 -0.06,-14.04 -0.6,-18.26 -2.83,-0.29 -6.26,-0.16 -9.16,-0.14l-8.19 0.17c-0.88,0.25 -0.6,0.16 -1.09,0.5 -0.87,2.55 0.05,13.82 -0.41,17.8l-5.93 0.3c-2.5,-0.19 -0.98,-0.19 -0.94,-0.23l-0.01 -74.93 33.56 0.11c-0.94,-1.51 -15.18,-0.8 -16.57,-0.8 -3.93,0 -14.16,-0.53 -17.32,0.31 -0.94,3.58 -0.31,46.46 -0.31,56.26 0,5.63 -0.47,13.75 0.15,19.07l-0.02 -75.33 34.14 -0.23 -0 34.35c-0.02,1.98 -0.48,3.23 0.98,4.18 1.26,-1.33 0.6,-6.52 0.62,-9.51l-0.08 -30.47 -37.11 -0.13c-0.14,3.04 0.53,23.02 -0.44,23.94 -1.92,1.21 -16.42,-0.15 -20.17,0.58 -0.06,0.12 -0.11,0.17 -0.13,0.38 -0.02,0.21 -0.1,0.27 -0.12,0.38l-0.14 49.22c0.05,5.07 -2.26,1.37 -3.67,3.65 0.67,1.31 -0.78,0.71 1.77,1.01l77.52 -0.09c1.29,-0.28 0.38,0.3 1.17,-0.54 -0.94,-2.76 -5.13,-0.07 -9.12,-1.53 -0.55,-1.62 -0.62,-5.03 0.16,-6.12zm-4.18 -0.1c0.16,-0.69 0.22,-0.46 -0.54,-0.29l0.54 0.29zm-0.89 -0.43c-0.11,-0.78 0.11,-0.61 -0.67,-0.51 0,0.72 -0.15,0.47 0.67,0.51zm-0.69 -0.42c-0.19,-0.83 0.07,-0.66 -0.74,-0.58 0,0.78 -0.17,0.51 0.74,0.58zm-2.46 -1.61c0.44,0.48 0.32,0.38 1.23,0.81 -0.93,-0.93 0.7,-0.33 -1.23,-0.81zm-1.56 -2.05c0.62,1.17 0.4,0.73 0.96,1.16 -0.41,-1.04 -0.16,-0.63 -0.96,-1.16zm-0.14 0.04c0.04,-0.54 0.16,-0.42 -0.38,-0.34l0.38 0.34zm-0.38 -0.78c0.09,-0.64 0.24,-0.51 -0.38,-0.46l0.38 0.46zm-0.79 -7.59c0.69,0.18 0.5,0.26 0.31,-0.45l-0.31 0.45zm1.91 -4.18c0.18,-0.7 0.39,-0.66 -0.27,-0.45l0.27 0.45zm0.17 -7.24c0.84,-0.14 0.67,0.11 0.55,-0.73 -0.76,0 -0.5,-0.16 -0.55,0.73zm0.43 -0.75c0.84,-0.17 0.68,0.09 0.58,-0.71 -0.75,0 -0.49,-0.16 -0.58,0.71zm3.29 -6.97c0.88,-0.13 0.71,0.13 0.57,-0.72 -0.76,0 -0.5,-0.16 -0.57,0.72zm1.56 -2.13l0.31 -0.38 -0.31 0.38zm5.41 1.31c-0.58,-0.91 -0.21,-0.6 -1.27,-1.26l1.27 1.26zm0.53 0.61c-0.22,0.7 -0.42,0.66 0.27,0.41l-0.27 -0.41zm1.06 4.32c-0.76,-1.1 -0.21,-0.45 -0.59,-1.59 -0.28,-0.83 0.39,-0.09 -0.4,-1.07 -0.55,1.91 -0.54,2.07 0.99,2.65zm1.44 1.7c-0.02,0.78 -0.19,0.5 0.63,0.75 -0.1,-0.92 0.18,-0.75 -0.63,-0.75zm1.77 10.99l-0.67 -0.95c-0.04,-0.17 -0.17,-0.16 -0.26,-0.23 0.3,0.86 -0.15,0.47 0.94,1.18zm1 1.47c-0.12,0.57 -0.25,0.46 0.32,0.38l-0.32 -0.38zm0.29 7.36c-0.76,0.07 -0.6,-0.13 -0.47,0.64 0.68,0 0.45,0.14 0.47,-0.64zm-0.79 1.46c-0.8,0.21 -0.63,-0.05 -0.61,0.73 0.79,0 0.52,0.17 0.61,-0.73zm-2.9 3.18c-0.62,0 -0.41,-0.14 -0.51,0.55l0.51 -0.55zm4.88 8.26c-0.07,0.68 -0.22,0.51 0.46,0.5 -0.02,-0.65 0.15,-0.5 -0.46,-0.5zm-80.18 1.84c1.36,0.88 51.54,0.42 60.15,0.42 2.78,0 18.16,0.65 19.5,-0.4 -1.73,-0.44 -77.18,-0.55 -79.64,-0.02l-0.6 -0.14 0.6 0.14zm60.55 -38.71c-0.23,-0.88 0.05,-0.61 -0.82,-0.84 0.1,1 -0.18,0.72 0.82,0.84zm13.29 14.32c1.51,1.76 3.19,3.54 3.01,6.93 -0.45,8.69 -14.42,8.95 -14.4,-0.78 0.01,-4.47 3.09,-4.62 2.46,-7.16 -0.48,-1.94 -2.06,-3.39 0.14,-7.18 1.18,-2.03 1.76,-1.39 2.52,-2.41 0.97,-1.31 0.24,-2.33 0.62,-3.98 0.38,-1.65 1.73,-2.08 2.6,-0.65 0.51,0.84 0.37,3.12 0.42,4.2 1.25,1.15 3.18,2.14 3.79,4.33 0.92,3.28 -0.71,4.24 -1.17,6.71zm-49.99 22.34l-1.76 0.25c-2.85,0.08 -16.3,0.28 -16.93,-0.41 -0.66,-0.71 -0.24,-33.02 -0.24,-38.58 -0,-15.27 -2.35,-12.51 9.72,-12.57 12.3,-0.06 9.83,-4.96 9.72,25.69 -0.03,8.03 0.52,17.88 -0.1,25.66 0.53,-3.16 0.45,-39.31 0.26,-48.23 -0.03,-1.22 -0.09,-1.92 -0.67,-2.67l-0 50.85z"/>
   <path class="fil1" d="M19.57 70.45l-3.35 0.15 -2.05 -0c-2.68,-0.01 -3.72,0.21 -3.08,-2.78l8.77 0.17 -0.29 2.46zm-4.58 -11.38c2.19,0.01 5.16,-0.71 4.76,2.04 -0.6,1.04 -7.36,1.05 -8.7,0 -0.41,-2.68 1.68,-2.05 3.94,-2.05zm2.46 -8.76c2.45,-0.01 2.67,0.54 2.3,2.74l-8.73 -0.11c-0.33,-1.87 -0.32,-2.45 1.87,-2.65 1.16,-0.11 3.28,0.03 4.56,0.02zm2.21 -8.51c0.6,2.63 -0.44,2.55 -3.03,2.55 -5.17,0.01 -6.17,0.65 -5.6,-2.64 1.67,-0.56 7.04,-0.35 8.64,0.09zm-5.09 -9.01c2.18,0.02 3.85,-0.39 5.19,0.75 1.63,3.05 -7.41,2.42 -8.76,1.39 -0.38,-2.72 1.19,-2.16 3.57,-2.13zm10.04 45.08l0 -50.85 -18.63 0.23 0.06 50.47 18.56 0.16z"/>
   <path class="fil1" d="M74.61 55.54c0.46,-2.47 2.08,-3.43 1.17,-6.71 -0.61,-2.18 -2.54,-3.18 -3.79,-4.33 -0.05,-1.08 0.09,-3.36 -0.42,-4.2 -0.87,-1.43 -2.22,-1 -2.6,0.65 -0.38,1.64 0.35,2.66 -0.62,3.98 -0.76,1.02 -1.34,0.38 -2.52,2.41 -2.2,3.8 -0.63,5.24 -0.14,7.18 0.63,2.54 -2.45,2.69 -2.46,7.16 -0.02,9.73 13.95,9.47 14.4,0.78 0.18,-3.4 -1.5,-5.17 -3.01,-6.93z"/>
   <path class="fil2" d="M60.67 3.05c-0.51,1.92 -0.61,34.86 -0.18,37.32 0.87,0.24 0.59,-0.04 0.82,0.84 2.19,0.19 1.69,-1.45 1.66,-3.7 -0.13,-7.3 0.49,-33.96 -0.42,-36.92 -2.32,-0.79 -36.01,-0.8 -37.12,0.04 -0.75,0.67 -0.19,-0.55 -0.73,0.99l-0.05 22.83c-4.6,-0.09 -17.71,-0.77 -20.73,0.66 -0.86,3.14 -0.47,45.84 -0.37,52.58 -2.11,-0.04 -4.11,-0.19 -3.38,2.1l0.6 0.14c2.46,-0.53 77.91,-0.42 79.64,0.02 1.05,-0.13 1.04,0.57 1,-1.36 -0.69,0.01 -0.53,0.18 -0.46,-0.5 -1.1,-0.79 -6.74,-0.4 -8.93,-0.48l-0.02 -5.97 3.57 -1.26c0.09,-0.69 -0.12,-0.55 0.51,-0.55 0.71,-0.31 0.81,-0.24 1.49,-0.94 1,-1.02 0.58,-0.54 0.81,-1.51 -0.02,-0.78 -0.2,-0.52 0.61,-0.73 0.9,-0.38 0.27,0.2 0.32,-0.82 -0.12,-0.77 -0.29,-0.57 0.47,-0.64 0.88,-2.32 0.61,-4.64 0.03,-6.99 -0.57,0.09 -0.45,0.2 -0.32,-0.38 -0.29,-1.03 -0.15,-1.07 -1,-1.47 -1.09,-0.71 -0.64,-0.32 -0.94,-1.18 1.25,-2.05 2,-7.94 -0.21,-9.07 -0.82,-0.24 -0.65,0.04 -0.63,-0.75 -0.27,-0.95 0.41,0.11 -0.51,-1.01 -0.52,-0.63 -0.5,-0.45 -0.93,-0.7 -1.53,-0.58 -1.54,-0.75 -0.99,-2.65l0.19 -1.26c-0.68,0.26 -0.48,0.29 -0.27,-0.41 -0.28,-0.79 -0.04,-0.57 -0.53,-0.61l-1.27 -1.26c-0.26,-0.6 -0.52,-0.71 -1.61,-0.78 -0.93,-0.06 -1.52,0.13 -2.22,0.34l-0.31 0.38c-1.39,0.85 -0.71,-0.02 -0.99,1.41 0.15,0.85 0.31,0.59 -0.57,0.72l-0.5 3.66c-0.48,0.31 -1.01,0.55 -1.45,1.01 -1.1,1.15 -0.57,0.4 -0.76,1.59 0.1,0.8 0.26,0.54 -0.58,0.71l0.12 0.02c0.12,0.84 0.3,0.59 -0.55,0.73 -1.14,1.94 -0.81,4.55 -0.44,6.79 0.66,-0.21 0.45,-0.25 0.27,0.45 -0.03,1.3 -1,2.1 -1.6,3.73 0.2,0.71 0.38,0.63 -0.31,0.45 -0.44,3.24 -0.49,4.12 0.41,7.13 0.63,-0.05 0.48,-0.18 0.38,0.46l-0 0.44c0.54,-0.08 0.42,-0.2 0.38,0.34l0.14 -0.04c0.81,0.53 0.55,0.12 0.96,1.16 0.13,0.73 -0.64,0.09 0.6,0.89 1.93,0.48 0.3,-0.12 1.23,0.81 -0.26,0.74 -0.15,0.25 0.49,0.22 0.81,-0.08 0.55,-0.25 0.74,0.58l0.01 -0.09c0.78,-0.09 0.56,-0.27 0.67,0.51l0.35 0.14c0.76,-0.17 0.69,-0.4 0.54,0.29l1.7 0.02 -0.03 6.09 -16.02 0.11c0.21,-2.84 0.64,-16.51 -0.32,-18.02 -0.53,-0.7 -0.71,-0.82 -2.04,-0.94l-7.4 0.03c-12.28,-0 -10.13,-3.1 -9.91,18.8l-6.66 0.26c-0.03,0.04 -1.56,0.04 0.94,0.23l5.93 -0.3c0.46,-3.98 -0.46,-15.25 0.41,-17.8 0.49,-0.34 0.21,-0.25 1.09,-0.5l8.19 -0.17c2.89,-0.02 6.33,-0.15 9.16,0.14 0.54,4.22 -0.51,16.48 0.6,18.26 1.47,0.72 13.97,0.71 16.24,0.08 0.24,-1.05 0.46,-5.2 -0.18,-6.28 -0.09,-0.05 -0.21,-0.1 -0.27,-0.12 -3,-1.27 -4.59,-1.33 -6.5,-4.24 -4.23,-6.45 0.49,-11.02 0.52,-12.47 0.06,-3.65 -2.06,-2.48 0.68,-8.42 1.14,-2.47 0.32,-1.39 2.54,-2.78 0.76,-4 0.37,-6.75 5.09,-6.19 1.05,0.32 1.79,1.18 2.18,2.11 0.35,0.83 0.46,2.36 0.45,3.82 1.49,1.42 2.92,2.08 3.69,4.77 1.11,3.9 -0.32,4.72 -0.53,7.52 1,1.2 0.75,0.43 1.46,1.74 2.53,4.66 0.97,10.87 -5.72,13.72l-1.11 0.62c-0.78,1.09 -0.71,4.5 -0.16,6.12 3.99,1.47 8.17,-1.23 9.12,1.53 -0.79,0.84 0.12,0.26 -1.17,0.54l-77.52 0.09c-2.55,-0.3 -1.1,0.3 -1.77,-1.01 1.41,-2.28 3.73,1.42 3.67,-3.65l0.14 -49.22c0.02,-0.11 0.1,-0.17 0.12,-0.38 0.02,-0.21 0.08,-0.26 0.13,-0.38 3.75,-0.72 18.25,0.63 20.17,-0.58 0.98,-0.92 0.31,-20.89 0.44,-23.94l37.11 0.13 0.08 30.47c-0.02,2.99 0.64,8.18 -0.62,9.51 -1.46,-0.95 -1,-2.2 -0.98,-4.18l0 -34.35 -34.14 0.23 0.02 75.33c-0.62,-5.32 -0.15,-13.44 -0.15,-19.07 0,-9.8 -0.63,-52.68 0.31,-56.26 3.15,-0.84 13.38,-0.31 17.32,-0.31 1.4,0 15.63,-0.71 16.57,0.8z"/>
   <polygon class="fil1" points="36.38,77.59 42.39,77.6 42.4,61.62 36.31,61.65 "/>
   <polygon class="fil1" points="45,77.6 50.95,77.58 50.96,61.62 45,61.66 "/>
   <path class="fil2" d="M24.61 27.02c0.58,0.75 0.65,1.45 0.67,2.67 0.18,8.92 0.26,45.07 -0.26,48.23 0.62,-7.78 0.07,-17.63 0.1,-25.66 0.11,-30.65 2.58,-25.75 -9.72,-25.69 -12.07,0.06 -9.72,-2.7 -9.72,12.57 0,5.56 -0.42,37.86 0.24,38.58 0.63,0.69 14.08,0.49 16.93,0.41l1.76 -0.25 -18.56 -0.16 -0.06 -50.47 18.63 -0.23z"/>
   <path class="fil0" d="M51.72 29.71l0.19 5.84 2.25 0.08c0.56,-2.06 0.58,-8.28 -0.22,-10.02 -2.84,-0.17 -2.36,1.16 -2.23,4.1z"/>
   <path class="fil0" d="M42.39 12.5c0.01,4.03 -0.87,6.73 2.12,6.58 1.14,-1.47 0.67,-2.95 0.66,-6.58 -0,-1.55 0.36,-3.31 -1.46,-3.25 -1.58,0.05 -1.32,1.65 -1.32,3.25z"/>
   <path class="fil0" d="M54.41 49.8c-0,-3.44 0.66,-7.97 -1.34,-8.06 -1.9,-0.09 -1.38,2.1 -1.36,3.96 0.01,0.94 -0.12,4.74 0.12,5.34 0.76,1.87 2.58,0.89 2.58,-1.24z"/>
   <path class="fil0" d="M42.39 46.52c0,1.24 -0.32,3.73 0.32,4.7 2.81,4.27 2.47,-5.74 2.46,-6.75 -0,-1.62 0.23,-1.27 -0.67,-2.47l-1.71 -0.11c-0.57,1.56 -0.41,2.71 -0.4,4.63z"/>
   <path class="fil0" d="M33.29 44.05c0.08,2.27 -0.23,6.23 0.62,7.74 2.92,0.31 2.2,-1.19 2.18,-4.03 -0.01,-1.85 0.43,-4.24 -0.61,-5.71l-1.75 -0.16 -0.45 2.17z"/>
   <path class="fil0" d="M33.37 28.07l0.08 7.21c3.43,1.79 2.59,-3.03 2.63,-5.57 0.02,-1.36 0.39,-3.42 -0.76,-4.04 -1.9,-1.02 -1.95,1.08 -1.95,2.4z"/>
   <path class="fil0" d="M42.4 29.71c0.01,4.24 -0.81,6.02 2.11,5.85 1.15,-1.63 0.73,-9.2 0.17,-9.71 -2.73,-1.02 -2.28,1.45 -2.28,3.86z"/>
   <path class="fil0" d="M51.71 12.91c-0,2.15 -0.24,4.64 0.46,6.21l1.85 0.06c0.76,-2.03 0.37,-7.31 0.26,-9.71 -3.03,-0.42 -2.57,0.57 -2.58,3.44z"/>
   <path class="fil0" d="M33.64 9.48c-0.55,1.88 -0.59,7.89 0.12,9.63l1.94 -0.07c0.28,-1.9 1.6,-11.59 -2.06,-9.56z"/>
   <path class="fil0" d="M11.03 41.72c-0.57,3.29 0.43,2.64 5.6,2.64 2.59,-0 3.63,0.08 3.03,-2.55 -1.6,-0.44 -6.97,-0.65 -8.64,-0.09z"/>
   <path class="fil0" d="M11 34.93c1.35,1.03 10.39,1.66 8.76,-1.39 -1.34,-1.14 -3.01,-0.72 -5.19,-0.75 -2.38,-0.03 -3.95,-0.58 -3.57,2.13z"/>
   <path class="fil0" d="M11.02 52.95l8.73 0.11c0.37,-2.19 0.15,-2.74 -2.3,-2.74 -1.28,0 -3.4,-0.13 -4.56,-0.02 -2.2,0.2 -2.21,0.78 -1.87,2.65z"/>
   <path class="fil0" d="M11.09 67.82c-0.64,2.99 0.41,2.77 3.08,2.78l2.05 0 3.35 -0.15 0.29 -2.46 -8.77 -0.17z"/>
   <path class="fil0" d="M11.05 61.12c1.34,1.05 8.1,1.04 8.7,-0 0.41,-2.75 -2.56,-2.04 -4.76,-2.04 -2.26,-0.01 -4.35,-0.64 -3.94,2.05z"/>
  </g>
 </g>
</svg>
