<?xml version="1.0" encoding="UTF-8"?>
<!DOCTYPE svg PUBLIC "-//W3C//DTD SVG 1.1//EN" "http://www.w3.org/Graphics/SVG/1.1/DTD/svg11.dtd">
<!-- Creator: CorelDRAW -->
<svg xmlns="http://www.w3.org/2000/svg" xml:space="preserve" width="0.624701in" height="0.670752in" version="1.1" style="shape-rendering:geometricPrecision; text-rendering:geometricPrecision; image-rendering:optimizeQuality; fill-rule:evenodd; clip-rule:evenodd"
viewBox="0 0 120.71 129.61"
 xmlns:xlink="http://www.w3.org/1999/xlink"
 xmlns:xodm="http://www.corel.com/coreldraw/odm/2003">
 <defs>
  <style type="text/css">
   <![CDATA[
    .fil2 {fill:#040504}
    .fil0 {fill:#232424}
    .fil1 {fill:#FEFEFE}
   ]]>
  </style>
 </defs>
 <g id="Layer_x0020_1">
  <metadata id="CorelCorpID_0Corel-Layer"/>
  <g id="_1972667547808">
   <path class="fil0" d="M68.58 123.86c-0.93,0.66 -0.8,0.5 -1.45,1.49 1.39,-0.53 0.52,1.2 1.45,-1.49zm-46.8 -22.62c3.34,-3.55 17.09,1.58 37.23,-13.78 1.95,-1.48 2.52,-2.17 4.34,-4.06 1.5,-1.55 2.67,-3.13 4.96,-3.97 4.34,2.34 9.46,5.72 14.01,8.44 -2.46,11.8 -3.05,23.75 -1.32,36.42 -3.32,0.53 -5.33,0.96 -8.79,0.46 -0.53,-0.77 0.4,-1.79 1.11,-3.13 1.41,-2.65 1.26,-1.52 1.17,-4.51 -4.02,0.82 -1.56,1.38 -6.44,8.36 -1.89,0.13 -17.17,-0.94 -17.47,-3.62 -0.16,-1.42 14.9,-11.99 16.16,-22.9 -5.79,1.16 -1.56,3.43 -9.48,11.84 -1.07,1.13 -9.46,10.09 -10.86,10.24 -1.29,0.14 -12.74,-5.16 -13.72,-8.52 1.47,-1.34 10.75,-2.03 17.4,-6.25 2.48,-1.58 1.21,1.1 1.82,-2.46 -0.44,-0.23 0.12,-2.05 -4.14,0.64 -3.77,2.38 -9.14,4.02 -13.8,4.82 -5.88,1.01 -7.03,0.69 -9.58,-3.38 -1.59,-2.53 -2.71,-3.05 -3.48,-6.04 -0.66,2.84 -0.14,0.23 0.85,1.38zm47.2 21.9c1.32,-0.33 1.07,0.1 0.95,-1.16 -1.22,0 -0.79,-0.26 -0.95,1.16zm2 -3.86c1.35,-0.22 1.09,0.18 0.86,-1.14 -1.18,0 -0.76,-0.24 -0.86,1.14zm3.48 1.07l0.97 -0.66c-0.95,0.04 -0.37,-1.02 -0.97,0.66zm0.25 0.22c-1.4,0.21 -1.13,-0.2 -0.9,1.15 1.21,0 0.79,0.26 0.9,-1.15zm-0.7 1.29c-1.32,0.18 -1.09,-0.21 -0.87,1.04 1.1,0 0.71,0.23 0.87,-1.04zm-52.39 -20.34c-0.13,1.13 -0.34,0.72 0.89,1.01 -0.22,-1.24 0.17,-1.01 -0.89,-1.01zm1.3 1.89c-0.11,1.17 -0.33,0.75 0.93,1.06 -0.24,-1.29 0.18,-1.06 -0.93,-1.06zm3.47 4.28c-0.81,-1.29 -1,-1.7 -1.68,-2.62 0.53,2.85 -0.22,1.17 1.68,2.62zm1.36 1.4c0,1.94 -0.31,1 1.25,0.64 4.09,-0.94 -0.78,1.73 1.29,-0.7l-2.54 0.06zm11.15 -1.11c1.64,-0.24 0.63,0.07 0.92,-0.94l-0.92 0.94zm2.1 -1.1c1.06,0.21 0.92,0.5 0.77,-0.48l-0.77 0.48zm4.65 -1.9c0.94,0.17 0.74,0.35 0.53,-0.59l-0.53 0.59zm5.2 1.13c-1.25,-0.08 -0.83,-0.35 -1.16,0.94 1.43,-0.11 1.16,0.32 1.16,-0.94zm-4.84 3.06c-1,-0.21 -0.84,-0.44 -0.62,0.53l0.62 -0.53zm-1.52 0.2c-1.41,-0.21 -1,-0.52 -1.27,0.87 1.52,-0.07 1.27,0.39 1.27,-0.87zm-1.8 0.69c-1.47,-0.28 -1.05,-0.59 -1.34,0.83 1.58,-0.06 1.34,0.42 1.34,-0.83zm-9.01 3.02l-0.02 -1.06c-1.5,0.74 -1.3,0.1 0.02,1.06zm1.76 1.84c-1.2,-1.7 -0.32,-0.65 -1.86,-1.45 1.07,1.4 -0.69,0.68 1.86,1.45zm0.68 0.49c0.34,1.33 -0.1,1.07 1.16,0.98 0,-1.23 0.26,-0.78 -1.16,-0.98zm2.66 1.21l0.62 0.71 -0.62 -0.71zm0.56 0.79c0.33,1.29 -0.09,1.03 1.16,0.92 0,-1.22 0.26,-0.79 -1.16,-0.92zm1.29 0.69c0.24,1.3 -0.16,1.05 1.11,0.87 0,-1.15 0.24,-0.74 -1.11,-0.87zm1.29 0.63c0.24,1.34 -0.16,1.07 1.17,0.87 0,-1.2 0.25,-0.77 -1.17,-0.87zm2.06 0.55c-0.03,0.96 -0.24,0.72 0.76,0.56l-0.76 -0.56zm5.52 -0.83c1.23,0.33 0.79,0.45 0.79,-0.98 -1.17,0.31 -1.01,-0.08 -0.79,0.98 -0.15,0.05 -0.36,0.03 -0.43,0.22 -0.08,0.2 -0.34,0.17 -0.44,0.22l-3.48 1.13c2.03,2.03 -2.54,0.45 1.11,0.36 1.41,-0.04 0.28,0.32 1.45,-0.23 0.44,-0.21 1.47,-1.35 1.79,-1.69zm9.33 -10.04c-0.83,0.66 -0.61,-0.03 -1.02,1.77 -0.96,-0.16 -0.59,-0.32 -0.92,0.75 1.36,0 1.24,0.41 0.92,-0.75l1.02 -1.77zm0.54 -0.69c1.28,-0.27 1.06,0.14 0.92,-1.04 -1.1,0 -0.7,-0.23 -0.92,1.04zm1.24 -1.93c1.29,-0.33 1.02,0.09 0.95,-1.15 -1.22,0 -0.79,-0.26 -0.95,1.15zm6.45 -3.89c-1.04,-0.03 -0.8,-0.27 -0.64,0.79l0.64 -0.79zm-1.25 2.64c-0.92,0.02 -0.71,-0.22 -0.67,0.68l0.67 -0.68zm-0.74 0.61c-1.25,0.37 -1,-0.06 -0.92,1.15 1.21,0 0.78,0.26 0.92,-1.15zm-0.77 1.29c-1.19,0.23 -1,-0.15 -0.82,0.96l0.82 -0.96zm-1.21 1.93c-1.17,0.35 -0.94,-0.05 -0.91,1.04 1.1,0 0.7,0.23 0.91,-1.04zm-3.34 4.45c0.87,-0.67 0.62,0.11 1.05,-1.76 0.97,0.17 0.61,0.32 0.88,-0.76 -1.33,0 -1.21,-0.39 -0.88,0.76l-1.05 1.76zm-9.04 9.18c0.97,-0.63 1.03,-0.68 1.53,-1.29 -3.25,0.67 -0.54,-0.3 -1.53,1.29zm6.07 2.03l-1.03 -0.87c0.16,1.01 -0.83,0.68 1.03,0.87zm3.22 0.64l-1.19 -0.85c0.27,0.96 -0.93,0.73 1.19,0.85zm-27.71 -7.44l0.77 0.7c0.13,0.08 0.39,0.23 0.53,0.31 0.15,0.09 0.39,0.19 0.59,0.29 -1.04,-1.27 0.89,-0.56 -1.89,-1.3zm72.85 -77.6l0.63 -0.59 -0.1 -1.6c0.12,-0.55 0.68,-1.66 0.95,-2.18 3.29,-6.43 14.7,-25.71 13.14,-30.42 -0.84,-2.53 -4.24,-4.69 -7.87,-3.77 -3.55,0.9 -3.9,3.53 -5.72,6.71 -5.87,10.24 -27.94,56.14 -29.54,57.31 -1.43,1.04 -3.08,0.76 -4.9,1.52 -3.43,1.43 -1.74,3.5 -7.57,11.13 -2.04,2.67 -4.46,4.92 -6.78,6.13 -1,2.54 -13.66,8.56 -16.77,9.58 -3.51,1.17 -6.43,1.86 -10.36,2.54l-10.26 1.27c-6.31,2.04 4.52,13.59 7.24,15.53 1.32,0.94 2.22,1.82 3.15,2.58 1.72,1.4 2.17,1.44 3.92,2.61 13.74,9.24 33.46,12.71 50.44,9.4 -1.14,-14.33 -3.09,-25.95 1.81,-39.49 1.19,-3.28 4.37,-7.67 4.26,-10.36 -0.4,-9.59 -6.57,3.72 4.64,-19.34l8.49 -17.37c1.33,-2.37 0.4,-1.9 1.21,-1.2zm-73.54 77.16c-0.42,-1.26 0.02,-0.99 -1.17,-1.03 0,1.28 -0.28,0.83 1.17,1.03zm-5.16 -3.88c1.32,1.26 0.74,0.7 2.59,1.81 -1.47,-1.86 0.09,-0.96 -2.59,-1.81zm-4.7 -5.71c0.31,-1.16 0.44,-0.76 -0.91,-0.76 0.3,1.09 -0.07,0.93 0.91,0.76 0.44,1.98 0.23,1.14 1,1.78l-1 -1.78zm-1.39 -1.65c0.13,-1.16 0.35,-0.76 -0.89,-1.04 0.18,1.28 -0.22,1.04 0.89,1.04zm-1.08 -0.97l-0.67 -0.46 0.67 0.46zm-0.88 -7.95l-0.93 1.84c0.93,-1.09 0.65,0.94 0.93,-1.84zm22.2 -3.47c1.49,0.26 1.08,0.59 1.32,-0.84 -1.57,0.06 -1.32,-0.42 -1.32,0.84zm1.67 -1.1l0.65 -0.5 -0.65 0.5zm1.62 -0.16c1.46,0.28 1.05,0.59 1.26,-0.87 -1.51,0.08 -1.26,-0.38 -1.26,0.87zm6.59 -3.18c1.25,0.17 0.84,0.42 1.11,-0.89 -1.36,0.14 -1.11,-0.28 -1.11,0.89zm4.98 -3.41l-1.13 0.85c-1,-0.39 -0.81,-0.64 -0.81,0.38l0.81 -0.38c1.5,0.42 1.13,0.71 1.13,-0.85zm0.76 -0.44c1.33,0.1 0.87,0.36 1.17,-1.06 -1.45,0.24 -1.17,-0.21 -1.17,1.06zm7.07 -6.75c-1,0.78 -1.08,0.94 -2.13,1.86 -1.22,1.07 -0.9,0.47 -1.87,1.8 2.55,-1.72 2.39,-0.59 4,-3.66zm1.21 -1.31c1.22,-0.37 1,0.05 0.95,-1.07 -1.12,0 -0.7,-0.24 -0.95,1.07zm1.81 -4.17c0.82,0.17 0.64,0.34 0.56,-0.48l-0.56 0.48zm0.72 -0.69c1.2,-0.14 0.97,0.21 0.83,-0.92 -1.06,0 -0.72,-0.24 -0.83,0.92zm0.69 -1.12c1.23,-0.24 0.99,0.14 0.87,-1.05 -1.17,0 -0.79,-0.26 -0.87,1.05zm0.69 -1.1c1.33,-0.26 1.07,0.15 0.9,-1.14 -1.21,0 -0.79,-0.26 -0.9,1.14zm2.47 -3.27c0.99,0.16 0.78,0.36 0.62,-0.63l-0.62 0.63zm28.95 -48.6c0.8,0.16 0.62,0.33 0.54,-0.48l-0.54 0.48zm0.65 -1.1c0.86,0.06 0.65,0.26 0.6,-0.6l-0.6 0.6zm0.67 -1.15c0.94,-0.03 0.74,0.22 0.67,-0.69l-0.67 0.69zm0.67 -1.1c1.07,-0.06 0.83,0.23 0.73,-0.83 -0.95,0 -0.65,-0.21 -0.73,0.83zm0.66 -1.21c1.1,-0.13 0.85,0.18 0.74,-0.93 -1.01,0 -0.67,-0.22 -0.74,0.93zm0.63 -1.34c1.12,-0.09 0.88,0.22 0.75,-0.88 -0.99,0 -0.67,-0.22 -0.75,0.88zm0.64 -1.34c1.14,-0.01 0.89,0.27 0.72,-0.86 -0.97,0 -0.65,-0.21 -0.72,0.86zm0.64 -1.27c1.1,-0.09 0.87,0.21 0.76,-0.85 -0.98,0 -0.68,-0.22 -0.76,0.85zm0.67 -1.06c1.17,-0.23 0.92,0.13 0.83,-1.01 -1.12,0 -0.75,-0.24 -0.83,1.01zm0.68 -1.04c1.3,-0.33 1.03,0.09 0.92,-1.2 -1.26,0 -0.82,-0.26 -0.92,1.2zm0.68 -1.29c1.37,-0.23 1.11,0.18 0.89,-1.13 -1.2,0 -0.78,-0.25 -0.89,1.13zm0.72 -1.29c1.24,-0.2 1.03,0.18 0.83,-0.99 -1.03,0 -0.65,-0.21 -0.83,0.99zm2.51 -3c1.1,0.04 0.73,0.28 0.99,-0.86 -1.24,0.09 -0.99,-0.27 -0.99,0.86zm6.6 -0.88c0.21,1.18 -0.15,0.93 1,0.86 0,-1.12 0.25,-0.75 -1,-0.86zm-13 43.45c-0.88,-0.12 -0.69,-0.31 -0.58,0.56l0.58 -0.56zm-2.57 5.21c-0.86,-0.09 -0.69,-0.3 -0.59,0.53l0.59 -0.53zm-10.53 20.28c-1.32,0.22 -1.08,-0.17 -0.83,1.11 1.09,0 0.68,0.22 0.83,-1.11zm-0.52 2.52l0.01 -0.47 -0.01 0.47zm0.34 1.42c0.01,1.22 -0.28,0.81 0.89,1.21 -0.07,-1.47 0.36,-1.21 -0.89,-1.21zm0.4 8.52c-0.9,-0.1 -0.69,-0.29 -0.59,0.62l0.59 -0.62zm-0.68 1.13l-0.7 0.63 0.7 -0.63zm-0.74 0.83c-1.25,0.15 -1,-0.21 -0.83,1.01 1.12,0 0.75,0.24 0.83,-1.01zm-0.69 1.04c-1.33,0.27 -1.05,-0.14 -0.88,1.19 1.21,0 0.77,0.25 0.88,-1.19zm-0.57 2.02c-1.01,-0.08 -0.75,-0.28 -0.56,0.77l0.56 -0.77zm-3.02 40.74c-0.93,-0.26 -0.85,-0.46 -0.43,0.42l0.43 -0.42zm-27.88 -0.49l1.14 0.88c-0.3,-1 1.15,-0.74 -1.14,-0.88zm-7.57 -1.99l0.86 0.96c-0.22,-0.96 0.78,-0.55 -0.86,-0.96zm-1.12 0.33c0.12,-0.96 0.29,-0.72 -0.7,-0.5l0.7 0.5zm-1.01 -0.73c-0.26,-1.42 0.15,-1.11 -1.29,-0.86 0,1.26 -0.25,0.79 1.29,0.86zm-4.63 -1.9c-0.19,-1.33 0.19,-1.05 -1.13,-0.86 0,1.19 -0.25,0.78 1.13,0.86zm-1.53 -0.62c-0.19,-1.09 0.14,-0.85 -0.94,-0.78 0,1.05 -0.23,0.71 0.94,0.78zm-1.08 -0.65c-0.26,-1.22 0.12,-0.95 -1.11,-0.84 0,1.16 -0.24,0.75 1.11,0.84zm-1.13 -0.66c-0.43,-1.19 -0.01,-0.92 -1.21,-0.92 0,1.25 -0.26,0.8 1.21,0.92zm-1.29 -0.72c-0.27,-1.22 0.12,-1 -1.03,-0.86 0,1.08 -0.23,0.68 1.03,0.86zm-2.31 -1.12c-0.18,-1.07 0.15,-0.83 -0.87,-0.83 0,1.01 -0.23,0.68 0.87,0.83zm35.43 -44.5c0.53,-2.6 1.19,-3.3 2.22,-5.12 3.66,0.21 8.15,2.77 11.11,4.47 5.46,3.14 2.54,5.36 0.6,9.61 -4.96,-2.64 -9.73,-5.49 -13.92,-8.96zm9.53 -7.52c1.67,-4.95 5.67,-11.97 8.21,-17.07 2.72,-5.48 5.4,-10.74 8.17,-16.3l12.2 -24.52c1.36,-2.76 2.39,-6.36 6.24,-4.93 3.59,1.33 0.75,5.71 -0.53,8.23l-20.46 40.64c-2.46,4.97 -5.37,11.82 -8.22,16.41l-5.6 -2.46z"/>
   <path class="fil1" d="M21.77 101.24l-0.16 0.28c1.06,0 0.67,-0.22 0.89,1.01 1.37,-0.18 0.39,-0.21 0.41,0.87 1.11,0 0.69,-0.23 0.93,1.06 1.25,-0.38 0.33,-0.25 0.86,0.6 0.68,0.92 0.87,1.33 1.68,2.62 0.88,0.3 0.59,-0.93 1.36,1.4l2.54 -0.06 8.61 -1.05 0.92 -0.94 1.18 -0.17 0.77 -0.48 3.88 -1.42 0.53 -0.59c1.16,-0.53 3.93,-2.22 5.37,-1.79 1.26,0.37 1.42,0.04 1.29,1.81 -0.18,2.42 -1.02,1.53 -1.99,1.7 0,1.26 0.27,0.83 -1.16,0.94l-3.68 2.12 -0.62 0.53 -0.9 -0.33c0,1.26 0.25,0.79 -1.27,0.87l-0.53 -0.18c0,1.25 0.24,0.77 -1.34,0.83 -2.25,0.93 -5.02,1.58 -7.69,1.13l0.02 1.06 -0.1 0.39c1.54,0.8 0.65,-0.24 1.86,1.45 0.9,0.15 1.14,-0.68 0.68,0.49 1.42,0.2 1.16,-0.24 1.16,0.98 1.41,-0.08 0.59,-0.43 1.51,0.22l0.62 0.71 -0.06 0.08c1.42,0.13 1.16,-0.3 1.16,0.92l0.13 -0.22c1.35,0.13 1.11,-0.28 1.11,0.87l0.18 -0.24c1.42,0.11 1.17,-0.32 1.17,0.87l0.89 -0.33 0.76 0.56 0.4 0.18 3.48 -1.13c0.11,-0.05 0.37,-0.02 0.44,-0.22 0.07,-0.19 0.28,-0.16 0.43,-0.22 -0.22,-1.06 -0.38,-0.67 0.79,-0.98 0.39,-1.51 1.83,-2.29 3.06,-3.48 1.24,-1.19 2.07,-2.53 3.54,-3.06 0.32,-1.07 -0.05,-0.92 0.92,-0.75 0.41,-1.8 0.19,-1.11 1.02,-1.77 0.17,-0.89 -0.7,-0.97 0.54,-0.69 0.23,-1.28 -0.18,-1.04 0.92,-1.04 -0,-1.07 -0.86,-1.08 0.32,-0.89 0.16,-1.41 -0.28,-1.15 0.95,-1.15 0.15,-2.02 -0.15,-0.71 0.81,-2.89 0.24,-0.53 1.07,-2.15 1.5,-2.49 2.87,-2.3 3.9,-0.07 3.2,2.64l-0.64 0.79 -0.61 1.85 -0.67 0.68 -0.07 -0.07c-0.14,1.4 0.29,1.15 -0.92,1.15l0.16 0.14 -0.82 0.96c-0.01,1.21 0.91,1.14 -0.39,0.97 -0.21,1.27 0.19,1.04 -0.91,1.04 -0.06,1.11 0.97,0.85 -0.49,0.89 -0.28,1.08 0.08,0.92 -0.88,0.76 -0.43,1.88 -0.17,1.09 -1.05,1.76 -1.23,2.7 -5,5.86 -7.51,7.9 -0.5,0.61 -0.56,0.66 -1.53,1.29l5.04 1.15 1.03 0.87 2.03 -0.21 1.19 0.85c2.64,-0.42 4.6,0.04 7.13,0.72 0.65,-0.98 0.52,-0.83 1.45,-1.49 0.06,-0.88 -0.84,-0.99 0.4,-0.73 0.16,-1.42 -0.27,-1.16 0.95,-1.16 0.14,-1.49 -0.4,-1.25 1.05,-2.71 0.1,-1.39 -0.32,-1.14 0.86,-1.14 0.28,-1.47 -0.18,-0.84 0.8,-2.05 3.07,0.49 2.66,0.27 2.79,3.6l-0.97 0.66 0.25 0.22c-0.11,1.4 0.31,1.15 -0.9,1.15l0.2 0.14c-0.16,1.27 0.23,1.04 -0.87,1.04 -0.42,1.71 0.91,0.15 -0.9,1.86 3.46,0.5 5.47,0.07 8.79,-0.46 -1.73,-12.67 -1.14,-24.62 1.32,-36.42 -4.55,-2.71 -9.67,-6.1 -14.01,-8.44 -2.3,0.84 -3.46,2.41 -4.96,3.97 -1.82,1.89 -2.4,2.57 -4.34,4.06 -20.14,15.36 -33.9,10.23 -37.23,13.78z"/>
   <path class="fil1" d="M80.04 67.31l5.6 2.46c2.86,-4.59 5.76,-11.44 8.22,-16.41l20.46 -40.64c1.27,-2.53 4.11,-6.9 0.53,-8.23 -3.85,-1.43 -4.87,2.17 -6.24,4.93l-12.2 24.52c-2.77,5.56 -5.45,10.83 -8.17,16.3 -2.53,5.1 -6.53,12.12 -8.21,17.07z"/>
   <path class="fil0" d="M12.72 50.8c2.52,-2.31 1.4,-2.1 2.78,-4.7 1.41,1.73 1.5,3.06 3.3,4.83 1.44,1.42 3.5,2.35 5.29,3.29 -0.17,0.08 -0.39,0.14 -0.52,0.19 -3.48,1.27 -4.82,1.91 -6.72,5.13l-1.13 1.9c-0.03,-0.09 -0.15,0.23 -0.23,0.34 -2.28,-4.28 -2.47,-6.09 -7.33,-7.53l4.55 -3.44zm2.78 20.27c2.85,-1.37 1.61,-1.87 2.61,-5.27 1.21,-4.09 4.12,-7.04 8.05,-8.62 3.24,-1.3 4.13,-0.41 5.19,-3.61 -2.71,-3.59 -10.52,-1.41 -13.05,-11.12 -0.49,-1.89 -2.55,-9.67 -4.77,-3.05 -2.98,8.85 -1.07,8.45 -11.33,12.45 -1.49,0.58 -2.82,1.33 -1.89,3.3 0.76,1.62 2.34,1.36 4.48,2.11 11.05,3.89 6.46,11.97 10.71,13.81z"/>
   <path class="fil0" d="M34.82 21.63c-1.02,-1.31 -1.24,-2 -2.33,-3.1l-3.35 -2.31c3.98,-2.67 3.84,-1.78 5.97,-6.13 1.04,3.36 3.36,4.25 5.58,6.04 -4.11,1.53 -3.28,1.53 -5.01,4.28 -0.6,0.94 -0.51,0.79 -0.87,1.23zm-14.26 -4.77c2.43,3.05 4.48,0.41 8.8,4.81 3.62,3.68 2.42,5.53 4.08,10.07 6.27,0.19 1.76,-2.24 5.93,-9.09 1.11,-1.82 2.08,-2.46 4.24,-3.38l4.44 -1.4c1.05,-0.46 0.6,-0.14 1.23,-0.75 0.77,-4.01 -4.89,-2.75 -8.21,-5.88 -3.64,-3.43 -2.88,-5.9 -4.76,-10.59 -6.58,0.28 -1.04,8.52 -10.86,12.57 -2.71,1.12 -4.2,0.48 -4.89,3.63z"/>
   <path class="fil2" d="M105.76 39c2.76,-6.13 6.13,-12.28 9.24,-18.58 2.21,-4.48 10.25,-16.41 2.2,-18.81 -1.15,0.07 -0.79,0.32 -1,-0.86 -1.71,-1.03 -3.88,-0.96 -5.61,0.01 -0.25,1.14 0.11,0.9 -0.99,0.86 -2.23,0.89 -1.15,-0.15 -1.67,2.01 0.19,1.17 0.41,0.79 -0.83,0.99l0.17 0.15c0.22,1.32 0.47,0.91 -0.89,1.13l0.24 0.09c0.11,1.29 0.38,0.86 -0.92,1.2l0.15 0.03c0.08,1.15 0.33,0.79 -0.83,1.01l0.08 0.21c0.11,1.06 0.34,0.75 -0.76,0.85l0.08 0.42c0.18,1.13 0.42,0.85 -0.72,0.86l0.11 0.46c0.13,1.09 0.36,0.79 -0.75,0.88l0.11 0.41c0.11,1.1 0.35,0.79 -0.74,0.93l0.07 0.37c0.11,1.06 0.34,0.77 -0.73,0.83l0 0.41c0.06,0.91 0.27,0.66 -0.67,0.69l-0.07 0.55c0.05,0.86 0.25,0.66 -0.6,0.6l-0.12 0.63c0.09,0.8 0.26,0.64 -0.54,0.48 -3.5,8.46 -13.97,28.01 -19.11,38.45 -5.67,11.5 -3.58,7.86 -9.21,9.53 0.15,0.99 0.36,0.78 -0.62,0.63 -2.39,0.72 -1.4,0.22 -1.57,2.14 0.17,1.29 0.43,0.88 -0.9,1.14l0.18 0.05c0.12,1.19 0.37,0.81 -0.87,1.05l0.14 0.2c0.14,1.13 0.36,0.79 -0.83,0.92l-0.16 0.2c0.07,0.82 0.25,0.65 -0.56,0.48 -0.91,2.14 -0.68,1.1 -0.86,3.11 0.05,1.12 0.27,0.7 -0.95,1.07 -1.21,0.37 -0.43,-0.31 -1.21,1.31 -1.61,3.08 -1.45,1.94 -4,3.66 -0.02,0.01 -1.12,0.89 -1.17,0.93 -0.89,0.93 -0.25,0.21 -0.73,1.16l0 -0.07c-0.31,1.42 0.15,1.16 -1.17,1.06 -0.95,0.04 -0.85,-0.94 -0.76,0.44 0,1.56 0.37,1.27 -1.13,0.85l-0.81 0.38 -1.93 1.3c-0.27,1.31 0.14,1.06 -1.11,0.89 -1.96,0.15 -3.54,0.97 -5.33,2.32 -0.21,1.45 0.2,1.15 -1.26,0.87l-0.96 -0.33 -0.65 0.5 -0.34 0.26c-0.24,1.43 0.16,1.1 -1.32,0.84 -2.25,-0.12 -7.49,1.6 -10.48,2.06 -3.83,0.6 -8.36,0.64 -11.72,1.4 -0.28,2.78 0,0.75 -0.93,1.84 -0.43,2.41 0.47,4.01 1.14,5.65l0.67 0.46 0.19 -0.07c1.24,0.29 1.02,-0.12 0.89,1.04 0.03,1.12 -0.96,0.93 0.48,0.89 1.35,0 1.22,-0.4 0.91,0.76l1 1.78 3.7 3.94c2.68,0.85 1.11,-0.04 2.59,1.81 0.85,2.66 -0.12,0.65 1.4,1.04 1.2,0.04 0.75,-0.23 1.17,1.03 -0.41,0.87 -0.3,0.33 0.69,0.44 2.78,0.73 0.85,0.02 1.89,1.3l0.04 0.03c1.02,-0.01 0.69,-0.24 0.87,0.83 0.48,0.87 -0.2,0.31 1.27,0.26 1.15,-0.13 0.76,-0.36 1.03,0.86l0.08 -0.19c1.2,-0.01 0.78,-0.28 1.21,0.92l0.02 -0.18c1.23,-0.1 0.86,-0.38 1.11,0.84l0.14 -0.12c1.08,-0.08 0.75,-0.32 0.94,0.78l0.4 -0.23c1.33,-0.2 0.94,-0.48 1.13,0.86 1.61,1.22 1.43,1.1 3.34,1.04 1.44,-0.25 1.03,-0.56 1.29,0.86l0.32 0.23c0.98,-0.22 0.81,-0.45 0.7,0.5l1.12 -0.33c1.63,0.41 0.64,0.01 0.86,0.96 2.64,0.54 3.91,1.32 6.71,1.03 2.3,0.14 0.84,-0.12 1.14,0.88 4.64,0.59 7.89,1.29 12.99,1.31 5.64,0.02 8.3,-0.84 13.33,-1.28 -0.43,-0.87 -0.5,-0.68 0.43,-0.42 1.5,-2.64 -0.24,-15.47 -0.25,-20.23 -0.03,-9.76 0.63,-11.45 2.71,-19.75 -0.19,-1.05 -0.45,-0.85 0.56,-0.77l-0.32 -0.84c-0.17,-1.33 -0.45,-0.92 0.88,-1.19l-0.14 -0.03c-0.17,-1.22 -0.42,-0.86 0.83,-1.01l0.04 -0.2 0.7 -0.63 0.08 -0.51c-0.09,-0.91 -0.31,-0.72 0.59,-0.62 0.88,-1.99 2.16,-4.92 0.49,-7.31 -1.17,-0.39 -0.88,0.02 -0.89,-1.21 -0.11,-0.98 0.26,-0.36 -0.34,-1.42l0.01 -0.47 -0.32 -0.94c-0.25,-1.28 -0.49,-0.88 0.83,-1.11l9.94 -19.75c-0.1,-0.83 -0.27,-0.62 0.59,-0.53l1.99 -4.65c-0.1,-0.87 -0.29,-0.68 0.58,-0.56l1.93 -4.61c-0.81,-0.7 0.11,-1.17 -1.21,1.2l-8.49 17.37c-11.21,23.06 -5.04,9.75 -4.64,19.34 0.11,2.69 -3.08,7.07 -4.26,10.36 -4.89,13.54 -2.94,25.16 -1.81,39.49 -16.98,3.31 -36.7,-0.17 -50.44,-9.4 -1.75,-1.17 -2.2,-1.22 -3.92,-2.61 -0.94,-0.76 -1.83,-1.64 -3.15,-2.58 -2.72,-1.94 -13.55,-13.48 -7.24,-15.53l10.26 -1.27c3.93,-0.68 6.84,-1.37 10.36,-2.54 3.1,-1.03 15.76,-7.05 16.77,-9.58 2.32,-1.2 4.75,-3.46 6.78,-6.13 5.83,-7.63 4.14,-9.7 7.57,-11.13 1.82,-0.76 3.47,-0.48 4.9,-1.52 1.6,-1.17 23.67,-47.07 29.54,-57.31 1.83,-3.18 2.17,-5.81 5.72,-6.71 3.63,-0.92 7.03,1.24 7.87,3.77 1.56,4.71 -9.85,23.99 -13.14,30.42 -0.27,0.52 -0.83,1.63 -0.95,2.18l0.1 1.6z"/>
   <path class="fil1" d="M70.52 74.83c4.19,3.47 8.96,6.32 13.92,8.96 1.95,-4.25 4.86,-6.46 -0.6,-9.61 -2.96,-1.7 -7.44,-4.27 -11.11,-4.47 -1.03,1.82 -1.69,2.52 -2.22,5.12z"/>
   <path class="fil0" d="M72.07 21.62l-1.08 -0.94c-1.03,0.72 0.2,0.18 -0.99,0.33 -0.03,0 -2.94,-0.41 0.21,-0.29 -0.13,-1.55 0.36,-1.32 -0.85,-1.32l-0.47 -3.66c-1.08,-0.76 0.28,-0.83 -2.39,-1.13 1.51,0.42 1.16,0.73 1.16,-0.81 -1.26,0.12 -0.97,-0.25 -1.16,0.81l-0.79 0.26c0.82,1.05 0.36,-0.19 0.67,1.41l-0.17 4.26c-1.31,1.05 -0.3,0.31 -0.63,-0.03 0.99,0.05 0.68,0.22 0.42,-0.86l-0.42 0.86c-1.25,-0.28 -1.03,-0.62 -1.03,0.51 0.21,0.14 2.66,0.69 -0.71,0.33 -1.53,-0.16 -0.94,-0.11 -1.75,-0.64l-1.5 0.9 1.6 0.1c-2.43,0.37 -2.06,0.81 -2.66,0.35 -1.17,0 -0.79,-0.25 -0.84,1.08 3.81,0.84 -1.82,-0.73 1.45,0.67 0.85,0.36 0.31,0.24 1.51,0.56 1.18,0.32 4.87,0.26 2.07,0.66 0,1.23 -0.24,0.75 1.32,0.84 0.22,-0.54 -0.81,-2.19 0.63,0.03 0.7,1.08 0.24,0.05 0.5,1.35 0.26,1.31 0.08,2.6 0.38,3.98 2.76,-0.75 1.85,1.92 2.36,-2.87 0.12,-1.1 -0.33,-4.17 0.52,-1.75 0.76,-0.63 0.88,-0.74 1.54,-1.56 -0.99,0.27 -1.4,0.12 -1.42,0.01l6 -0.9c-1.14,-2.49 -1.28,-1.98 -4.61,-2.54l1.14 0.02z"/>
   <path class="fil1" d="M8.17 54.24c4.86,1.45 5.05,3.25 7.33,7.53 0.09,-0.1 0.2,-0.43 0.23,-0.34l1.13 -1.9c1.89,-3.22 3.23,-3.85 6.72,-5.13 0.12,-0.04 0.35,-0.11 0.52,-0.19 -1.79,-0.94 -3.85,-1.87 -5.29,-3.29 -1.8,-1.77 -1.89,-3.09 -3.3,-4.83 -1.38,2.6 -0.26,2.39 -2.78,4.7l-4.55 3.44z"/>
   <path class="fil0" d="M45.08 55.38l1.58 1.9 0.4 4.45c3.66,-1.17 1.67,1.31 2.51,-3 0.88,-4.51 2.3,-3.49 4.24,-4 3.6,-0.94 1.46,0.76 2.39,-2 -2.79,-1.3 -7.45,-0.89 -5.74,-1.94l0.91 0.51c0,-1.06 0.21,-0.77 -0.91,-0.51 0.22,-1 0.47,-0.8 -0.49,-0.8 -0.33,0.24 0.03,1.96 -0.33,-0.8 -0.78,-6.07 0.45,-3.28 -2.52,-4.28 -0.02,0.96 -0.14,7.83 -1,5.72l0.33 -1.2 -0.33 1.2c-0.99,-0.03 -0.75,-0.28 -0.75,0.69l-5.2 0.97c1.23,3 -1.63,1.41 3.43,2.39 2.96,0.57 2.9,0.28 2.35,1.56 0.01,-1.21 0.32,-0.94 -0.85,-0.87z"/>
   <path class="fil2" d="M61.55 104.59c0.08,1.24 0.34,0.82 -0.95,1.15 -1.18,-0.19 -0.32,-0.18 -0.32,0.89 0.14,1.19 0.36,0.78 -0.92,1.04 -1.24,-0.28 -0.37,-0.19 -0.54,0.69l-1.02 1.77c0.32,1.16 0.44,0.75 -0.92,0.75 -1.47,0.53 -2.3,1.87 -3.54,3.06 -1.23,1.19 -2.68,1.97 -3.06,3.48 0,1.43 0.43,1.3 -0.79,0.98 -0.32,0.34 -1.35,1.48 -1.79,1.69 -1.18,0.56 -0.04,0.2 -1.45,0.23 -3.64,0.09 0.92,1.68 -1.11,-0.36l-0.4 -0.18c-1,0.16 -0.79,0.4 -0.76,-0.56l-0.89 0.33c-1.33,0.19 -0.93,0.47 -1.17,-0.87l-0.18 0.24c-1.26,0.18 -0.87,0.43 -1.11,-0.87l-0.13 0.22c-1.25,0.11 -0.83,0.37 -1.16,-0.92l0.06 -0.08 -0.62 -0.71c-0.91,-0.65 -0.1,-0.31 -1.51,-0.22 -1.26,0.09 -0.82,0.34 -1.16,-0.98 0.45,-1.16 0.22,-0.34 -0.68,-0.49 -2.55,-0.78 -0.79,-0.05 -1.86,-1.45l0.1 -0.39c-1.32,-0.97 -1.52,-0.32 -0.02,-1.06 2.67,0.45 5.44,-0.21 7.69,-1.13 0.29,-1.42 -0.13,-1.11 1.34,-0.83l0.53 0.18c0.27,-1.39 -0.15,-1.08 1.27,-0.87l0.9 0.33c-0.22,-0.97 -0.37,-0.74 0.62,-0.53l3.68 -2.12c0.33,-1.29 -0.09,-1.02 1.16,-0.94 0.97,-0.17 1.81,0.72 1.99,-1.7 0.13,-1.77 -0.03,-1.43 -1.29,-1.81 -1.44,-0.43 -4.21,1.26 -5.37,1.79 0.21,0.95 0.41,0.77 -0.53,0.59l-3.88 1.42c0.15,0.98 0.29,0.69 -0.77,0.48l-1.18 0.17c-0.29,1 0.72,0.69 -0.92,0.94l-8.61 1.05c-2.06,2.44 2.8,-0.24 -1.29,0.7 -1.56,0.36 -1.25,1.3 -1.25,-0.64 -0.78,-2.32 -0.48,-1.1 -1.36,-1.4 -1.9,-1.45 -1.15,0.23 -1.68,-2.62 -0.53,-0.84 0.39,-0.97 -0.86,-0.6 -1.26,-0.3 -1.04,0.11 -0.93,-1.06 -0.02,-1.09 0.96,-1.06 -0.41,-0.87 -1.22,-0.29 -1.01,0.11 -0.89,-1.01l0.16 -0.28c-0.98,-1.15 -1.51,1.46 -0.85,-1.38 0.76,2.99 1.89,3.51 3.48,6.04 2.55,4.07 3.71,4.39 9.58,3.38 4.66,-0.8 10.02,-2.44 13.8,-4.82 4.25,-2.69 3.69,-0.87 4.14,-0.64 -0.61,3.56 0.66,0.88 -1.82,2.46 -6.65,4.22 -15.93,4.91 -17.4,6.25 0.98,3.35 12.43,8.66 13.72,8.52 1.39,-0.15 9.79,-9.11 10.86,-10.24 7.92,-8.41 3.7,-10.68 9.48,-11.84 -1.27,10.9 -16.32,21.48 -16.16,22.9 0.3,2.68 15.59,3.74 17.47,3.62 4.88,-6.98 2.42,-7.54 6.44,-8.36 0.09,3 0.24,1.87 -1.17,4.51 -0.71,1.34 -1.64,2.36 -1.11,3.13 1.81,-1.71 0.48,-0.14 0.9,-1.86 -0.22,-1.25 -0.45,-0.86 0.87,-1.04l-0.2 -0.14c-0.24,-1.35 -0.5,-0.94 0.9,-1.15l-0.25 -0.22c0.6,-1.69 0.03,-0.62 0.97,-0.66 -0.13,-3.32 0.28,-3.11 -2.79,-3.6 -0.98,1.2 -0.52,0.57 -0.8,2.05 0.22,1.32 0.49,0.93 -0.86,1.14 -1.45,1.46 -0.92,1.22 -1.05,2.71 0.12,1.26 0.37,0.82 -0.95,1.16 -1.24,-0.26 -0.33,-0.16 -0.4,0.73 -0.93,2.68 -0.06,0.96 -1.45,1.49 -2.54,-0.68 -4.49,-1.14 -7.13,-0.72 -2.12,-0.12 -0.92,0.11 -1.19,-0.85l-2.03 0.21c-1.86,-0.19 -0.87,0.14 -1.03,-0.87l-5.04 -1.15c0.99,-1.59 -1.72,-0.62 1.53,-1.29 2.51,-2.03 6.28,-5.19 7.51,-7.9l1.05 -1.76c-0.32,-1.15 -0.44,-0.76 0.88,-0.76 1.47,-0.05 0.44,0.22 0.49,-0.89 -0.03,-1.09 -0.26,-0.69 0.91,-1.04 1.3,0.16 0.38,0.23 0.39,-0.97 -0.18,-1.1 -0.37,-0.73 0.82,-0.96l-0.16 -0.14c-0.08,-1.21 -0.33,-0.78 0.92,-1.15l0.07 0.07c-0.04,-0.9 -0.25,-0.66 0.67,-0.68l0.61 -1.85c-0.16,-1.06 -0.41,-0.82 0.64,-0.79 0.7,-2.71 -0.32,-4.94 -3.2,-2.64 -0.42,0.34 -1.26,1.95 -1.5,2.49 -0.96,2.18 -0.66,0.87 -0.81,2.89z"/>
   <path class="fil0" d="M99.41 99.2c-1.53,4.16 -0.95,6.94 -4.36,9.43 -1.06,0.77 -3.61,1.62 -4.4,2.85 -1.78,2.77 -0.09,4.97 7.17,0.54 2.07,-1.26 2.09,-1.56 3.27,-3.77 2.8,-5.21 4.19,-9.04 -1.68,-9.05z"/>
   <path class="fil1" d="M34.82 21.63c0.36,-0.43 0.27,-0.28 0.87,-1.23 1.73,-2.75 0.9,-2.75 5.01,-4.28 -2.22,-1.79 -4.54,-2.69 -5.58,-6.04 -2.13,4.36 -1.99,3.46 -5.97,6.13l3.35 2.31c1.08,1.1 1.3,1.8 2.33,3.1z"/>
   <path class="fil2" d="M45.37 51.32c-3.58,-0.08 -5.5,-0.46 -6.02,3.14 2.05,1.06 2.69,1.17 5.74,0.92 1.18,-0.07 0.87,-0.34 0.85,0.87 0.55,-1.28 0.61,-1 -2.35,-1.56 -5.05,-0.98 -2.2,0.61 -3.43,-2.39l5.2 -0.97zm1.3 5.96c-1.06,6.43 2.81,6.79 3.61,2.74 1.35,-6.83 0.84,-3.28 6.49,-4.97l0.11 -2.96c-2.14,-0.83 -2.92,-1.08 -5.5,-0.78l-0.91 -0.51c-1.71,1.04 2.95,0.64 5.74,1.94 -0.93,2.75 1.21,1.06 -2.39,2 -1.94,0.51 -3.36,-0.51 -4.24,4 -0.84,4.31 1.15,1.83 -2.51,3l-0.4 -4.45zm-0.22 -7.85l-0.33 1.2c0.86,2.11 0.98,-4.76 1,-5.72 2.97,1 1.74,-1.79 2.52,4.28 0.35,2.77 0,1.05 0.33,0.8 0.35,-2.16 0.27,-3.87 -0.33,-5.42l-2.81 -0.14 -0.38 5z"/>
   <path class="fil2" d="M66.51 14.61c2.67,0.31 1.31,0.37 2.39,1.13l0.47 3.66c0.53,-3.18 1.02,-5.16 -1.7,-5.6 0,1.54 0.35,1.23 -1.16,0.81zm4.48 6.08l-0.78 0.04c-3.15,-0.12 -0.24,0.3 -0.21,0.29 1.2,-0.15 -0.04,0.39 0.99,-0.33zm-0.03 4.35l4.68 0.11c1.56,-3.79 -0.2,-4.04 -3.56,-3.52l-1.14 -0.02c3.33,0.56 3.47,0.05 4.61,2.54l-6 0.9c0.02,0.11 0.43,0.26 1.42,-0.01zm-5.94 0.82l1 6.04 3.11 -0.06 0.28 -5.25c-0.85,-2.42 -0.4,0.65 -0.52,1.75 -0.51,4.78 0.4,2.12 -2.36,2.87 -0.3,-1.37 -0.12,-2.67 -0.38,-3.98 -0.26,-1.3 0.2,-0.27 -0.5,-1.35 -1.44,-2.22 -0.41,-0.58 -0.63,-0.03zm-6.34 -2.73l0.47 1.55 4.55 0.34c2.81,-0.4 -0.89,-0.33 -2.07,-0.66 -1.19,-0.33 -0.66,-0.2 -1.51,-0.56 -3.27,-1.4 2.36,0.17 -1.45,-0.67zm1.91 -1.53c-1.94,-0.47 -0.89,-0.4 -1.07,0.45 0.6,0.45 0.23,0.02 2.66,-0.35l-1.6 -0.1zm5.4 -1.96c0.26,1.08 0.57,0.92 -0.42,0.86 0.33,0.34 -0.67,1.08 0.63,0.03l0.17 -4.26c-0.31,-1.59 0.15,-0.36 -0.67,-1.41l0.28 4.77zm-3.9 1.07c0.8,0.53 0.22,0.48 1.75,0.64 3.37,0.35 0.91,-0.19 0.71,-0.33l-2.45 -0.31z"/>
  </g>
 </g>
</svg>
