<?xml version="1.0" encoding="UTF-8"?>
<!DOCTYPE svg PUBLIC "-//W3C//DTD SVG 1.1//EN" "http://www.w3.org/Graphics/SVG/1.1/DTD/svg11.dtd">
<!-- Creator: CorelDRAW -->
<svg xmlns="http://www.w3.org/2000/svg" xml:space="preserve" width="0.589811in" height="0.672287in" version="1.1" style="shape-rendering:geometricPrecision; text-rendering:geometricPrecision; image-rendering:optimizeQuality; fill-rule:evenodd; clip-rule:evenodd"
viewBox="0 0 359.64 409.93"
 xmlns:xlink="http://www.w3.org/1999/xlink"
 xmlns:xodm="http://www.corel.com/coreldraw/odm/2003">
 <defs>
  <style type="text/css">
   <![CDATA[
    .fil2 {fill:#040504}
    .fil0 {fill:#232424}
    .fil1 {fill:#FEFEFE}
   ]]>
  </style>
 </defs>
 <g id="Layer_x0020_1">
  <metadata id="CorelCorpID_0Corel-Layer"/>
  <g id="_1972661185712">
   <path class="fil0" d="M214.87 392.72c3.65,0 2.36,0.77 2.78,-3.45 -2.52,-2.2 -1.15,0.82 -0.61,-6.72 0.25,-3.47 0.54,-5.74 0.59,-9.44 0.12,-8.41 -2.19,-68.76 2.02,-56.36 3.49,0 2.08,0.65 2.25,-3.88l-0.91 -1.25c3.84,0 2.41,0.81 3.22,-3.66l-0.16 0.06 -0.04 0.13c4.4,-0.83 3.57,0.58 3.57,-3.27 -0.87,-1.83 -4.27,0.57 1,-1.6 4.96,-2.05 -0.78,-3.87 1.53,0.46 4.37,-0.48 3.58,0.86 3.58,-2.87 0.01,-1.99 -4.58,2.29 2.39,-1.69 0.4,-0.23 3.73,-1.97 3.79,-2 10.42,-4.98 5.27,-3.1 7.53,-1.45 3.85,-0.17 3.15,0.97 3.15,-2.35 -3.53,-2.87 -2.73,0.58 1.67,-2.03 1.35,-0.8 5.02,-2.27 5.69,-2.54 9.22,-3.81 6.45,-6.01 7.29,-1.24 4.2,-0.23 3.43,1.02 3.43,-2.62l-0.13 -0.17c0.02,-0.35 0.49,0.54 0.74,0.8 4.2,-0.26 3.38,0.97 3.38,-2.78 -0.42,-0.53 -0.63,-0.78 -0.65,-0.79 -0,0 0.07,0.13 0.07,0.13 0,0.01 0.6,0.9 0.91,1.34 4.45,-0.22 3.64,1.1 3.64,-2.75 -1.23,-2.59 -3.24,-0.1 2.96,-2.6 7.01,-2.83 2.01,-2.42 5.43,-0.38l2.06 -2.31c-0.71,-2.43 -4.67,0.48 1.08,-2.21 4.72,-2.22 -0.87,-2.22 2.18,0.52 3.38,-0.61 2.66,0.44 2.66,-2.74 -1.03,-2.96 -2.59,1.54 1.17,-2.82 4.06,-4.7 0.54,-0.98 4.39,-3.46 -2.72,1.31 -1.11,1.77 -3.39,4.45 4.67,-2.47 3.78,-1.97 5.86,-4.62 -1.03,-2.44 -1.14,-0.06 4.73,-4.75 8.77,-7.02 12.94,-11.4 18.46,-21.28l-0.29 4.45 3.83 -6.16c-3.18,-0.91 0.67,-1.11 2.69,-7.54l-0.24 5.69 3.21 -6.28c-0.6,-0.31 -5.66,-0.55 -0.69,-0.41 0.01,0 0.6,0.46 0.61,0.24 0.02,-0.31 0.59,0.25 0.88,0.37l2.01 -1.35 0.63 -5.56c3.58,0 2.28,0.75 2.72,-3.46l-0.68 -0.46c3.76,0 2.43,0.79 2.81,-3.61 -0.53,-0.42 -1.33,-0.97 -1.38,-1 -0.01,-0 0.21,0.39 0.21,0.28 -0.01,-0.21 0.28,0.32 0.42,0.48 3.97,0 2.58,0.83 2.85,-3.81 -3.82,-1.9 -2.63,3.01 1.03,-6.94l8.63 -25.15c3.27,-2 1.7,2.71 2.78,-3.04 -3.03,-6.54 -0.95,-12.09 -0.19,-18.04l0.58 -38.41c-0.08,-2.08 -0.51,-8.32 -0.37,-9.87 0.53,-5.67 -0.79,-2.56 1.83,-5.44 -0.85,-7.08 0.56,-4.35 -2.81,-8.1l-0.36 7.78c-0.47,-20.16 -4.12,-15.1 -6.94,-18.44 -4.31,0.43 -3.63,-0.92 -3.63,2.53 4.56,2.91 5.16,0.24 -6.18,3.29 -1.24,0.33 -3.27,0.7 -4.44,0.74 -6.39,0.24 0.68,1.79 -3.73,-0.84l-3.08 1.8c3.58,2.85 7.42,-0.18 -5.53,4.11 -11.46,3.8 -3.83,2.84 -6.77,0.26 -4.28,0.17 -3.56,-1.12 -3.56,2.45 1.6,0.94 7.91,0.31 -2.56,2.17 -5.72,1.02 -1.91,1.17 -4.8,-0.61l-3 2.08c3.98,2.71 3.8,-1.07 -0.94,1.63 -0.27,0.15 -1.43,0.62 -1.83,0.7 -0.24,0.05 -0.97,0.1 -1.21,0.12 -0.25,0.02 -1.07,-0.07 -1.29,-0.06l-2.72 -0.5 -2.38 1.65c3.71,3.14 3.6,-1.57 -0.74,2.03 -0.23,0.19 -1.27,0.77 -1.61,0.87 -5.52,1.66 -1.9,1.17 -4.44,-0.38 -3.68,0.13 -3.04,-0.97 -3.04,2.14 2.48,1.67 5.93,-1.05 -4.14,3.42 -8.27,3.67 -5.81,6 -5.6,0.84 -4.13,0.47 -3.4,-0.81 -3.4,2.71l-0.67 -0.68c-4.19,0.43 -3.44,-0.85 -3.44,2.73l-0.63 -0.52 -3.07 2.57c-0.02,0.78 1.67,0 -3.35,2.66 -4.92,2.6 -1.82,3.81 -3.74,0.71 -4.04,0.54 -3.31,-0.72 -3.31,2.75 0.84,2.39 3.36,-1.31 -1.6,2.25 -3.71,2.67 -0.39,1.06 -5.53,2.69 7.68,-1.13 -0.08,0.23 4.33,-3.62 -4.35,1.83 -4.21,1.8 -6.18,3.69 0.18,0.86 5.32,-0.25 -4.25,3.85 -0.92,3.61 0.31,3.16 -1.39,-0.25l-2.3 2.78c1.32,3.78 -6.93,6.17 -15.13,17.27l-1.62 -1.34c-3.32,3.88 -2.27,2.91 -5.36,8.23 3.83,2.21 2.52,-2.58 -0.01,1.83 -3.24,5.64 1.02,1.51 -1.32,0.72 -3.82,0 -2.48,-0.82 -3.03,3.55 3.11,1.47 1.8,-1.46 -0.75,3.33 -2.91,5.45 -1.53,3.22 -2.39,3.14 -3.87,0 -2.51,-0.81 -2.87,3.69 0.68,0.49 1.15,0.8 1.17,0.81 0.01,0 -0.41,-0.15 -0.41,-0.32 0,-0.28 -0.44,-0.35 -0.66,-0.52 -3.08,0 -2.11,-0.68 -2.27,2.72 0.25,0.36 0.67,0.97 0.74,1.09l0.2 0.6c-3.88,0 -2.49,-0.81 -2.84,3.76 3.92,1.88 1.83,-1.27 -1.57,8.52 -14.8,42.46 6.59,85.79 3.32,93.87l1.73 2.03c2.78,-2.79 1.58,-1.26 5.52,6.51 3.8,7.49 6.58,6.97 1.16,7.2 0.18,5.28 -1.48,4.59 2.37,4.59 4.06,-10.18 0.94,9.97 0.89,15.44 -0.1,10.03 2.25,66.24 -1.27,56.3l-2.24 3.22c1.83,2.54 2.92,-0.94 0.22,3.91 -3.1,5.57 0.82,1.48 -4.6,3.34 8.25,-1.3 -0.51,0.77 3.53,-3.24l-5.27 3.28 0.12 0.57c-4.65,0.42 -3.96,-1.05 -3.96,2.56 2.5,1.41 7.42,-0.19 -3.14,1.7 -2.11,0.38 -6.84,0.57 -9.06,0.62 -6.68,0.17 -13.68,0.1 -20.42,0.16 -25.91,0.21 -103.6,5.24 -109.94,-9.38 3.46,5.25 0.76,2.23 5.93,5.08 -2.77,-3.81 -2.61,-3.87 -5.86,-7.12l-0.09 0.02c-0.36,-4.65 1.08,-3.9 -2.68,-3.9 -2.24,2.95 -1.96,10.16 -1.94,-12.13 0.02,-20.45 -1.61,-122.65 2.8,-111.21l2.02 -3.04 -0.97 -2.35c3.64,0 2.33,0.76 2.72,-3.52l-0.71 -0.68c3.54,0 2.27,0.74 2.71,-3.38l-0.72 -0.48c0,-0.26 0.45,0.24 0.67,0.36 3.16,0 2.14,0.72 2.62,-2.66 -2.72,-3.32 -1.44,1.87 0.03,-3.25 1.36,-4.75 -0.57,3.02 2.59,-5.49l-0.39 5.59c3.13,-3.58 1.58,-1.88 2.29,-5.92 3.05,0.52 1.91,1.01 2.77,-2.39 -4.17,0 -3.77,-1.23 -2.77,2.39 0.01,-0.68 2.67,-3.74 4.27,-7.75l-0.81 5.4c1.95,-2 1.87,-1.86 3.79,-6.14 -3.2,-1.22 -1.77,2.19 2.91,-7.58l-1.25 5.39 3.28 -4.08c0.23,-1 0.62,-1.24 0.92,-1.87 -3.49,-2.33 -2.89,2.58 -0.14,-2.11 3.26,-5.53 -1.09,-1.86 1.55,-0.57 3.66,0 2.32,0.78 3.06,-3.42 -2.68,-0.97 0.73,-0.96 2.81,-7.47l-0.36 5.63 3.35 -6.3c-3.98,-2.22 -2.56,2.61 -0.05,-1.84 3.12,-5.5 -0.74,-1.31 1.37,-0.73 3.76,0 2.41,0.8 3.03,-3.52 -4.82,-1.1 -1.89,2.19 0.01,-1.43 3.43,-6.52 -1.45,-1.1 1.12,-0.89 3.9,0 2.56,0.85 3.02,-3.59 -3.58,-1.17 -1.33,0.7 1,-4.81 1.63,-3.87 2.25,-4.97 3.53,-9.34 1.03,-3.5 3.27,-18.35 4.54,-13.32 2.97,0 2.24,0.75 2.24,-2.18l10.67 -1.03c9.61,0.06 41.75,-1.27 46.96,2.06 1.73,0.96 2.31,1.32 0.29,2 0.3,4.63 -1.11,3.86 2.72,3.86 0.36,-0.46 3.84,-8.68 0.24,-0.05 -0.02,0.05 -0.49,1.23 -0.52,0.92 -0.03,-0.41 -0.47,0.82 -0.7,1.23l2.2 2.4c1.11,-0.6 0.52,-5.04 0.82,0.18 0,0.05 -0.41,1.28 -0.42,0.98 -0.01,-0.4 -0.43,0.85 -0.64,1.28l1.76 1.83c2.96,-1.57 -0.37,-5.12 1.28,0.01 2.97,9.21 0.99,-1.96 -1.08,2.46l1.7 1.79c7.31,-6.04 -2.42,9.89 11.91,10.84 2.18,-2.63 1.19,-2.88 1.7,-4.52 0.13,-0.43 0.51,-1.9 0.6,-2.21l0.66 -2.13c-0.25,-3.53 0.8,-2.88 -2.25,-2.88 -1.55,1.23 -0.68,6.2 -0.85,0.15 0,-0.05 0.46,-0.58 0.47,-1.01 0.02,-0.59 0.48,-0.91 0.72,-1.36l-1.84 -2.1c-3.06,1.67 0.35,4.88 -1.26,0.1 -0.01,-0.05 0.42,-0.56 0.42,-0.96 0,-0.56 0.48,-0.86 0.71,-1.3l-1.92 -1.82c-3.03,1.36 0.99,2.73 -1.4,0.31 -3.87,-3.93 -0.69,0.75 1.14,-1.38 -0.3,-3.62 0.79,-2.96 -2.34,-2.96 -0.28,0.23 -1.03,6.38 -0.78,0.24 0,-0.04 0.48,-0.5 0.49,-0.88 0.02,-0.52 0.49,-0.79 0.73,-1.2l-2.07 -2.55c-4.49,4.93 -2.16,-0.47 -1.68,-17.54 0.6,-21.17 2.33,-27.65 -4.13,-43.36 -2.56,-6.21 -0.79,-20.05 0.58,-11.77 3.99,0 2.61,0.84 2.84,-3.81 -2.54,-1.44 -1.69,-0.13 0.6,-5.27 1.5,-3.38 3.17,-5.75 4.77,-8.15 27.14,-1.53 38.82,4.22 40.59,-7.72 1.5,-10.16 -2.98,-7.21 0.9,-12.78l-2.02 -3.27c-4.56,4.47 2.87,4.74 -1.87,-0.71 -0.18,-0.21 -0.75,-1.19 -0.85,-1.48 -2.11,-6.24 -3.28,-0.88 0.42,-3.35 -0.44,-4.17 0.84,-3.41 -2.75,-3.41 -1.75,0.5 -0.27,1.09 -3.45,-4.08 -3.26,-5.3 -2.85,-3.75 -2.6,-6.89 -0.47,4.58 -1.53,3.27 2.78,4.23l-2.78 -4.23 -0.67 -2.03c-4.73,0.92 -2.07,-0.59 -7.02,-5.39 -1.74,-1.69 -2.7,-2.33 -4.17,-3.67 -4.63,-4.22 -3.07,0.88 -1.7,-2 0,-3.96 0.85,-2.55 -3.63,-3.26 -1.68,4.97 2.64,1.99 -1.7,0.4 -6.8,-2.5 -1.53,1.11 -0.78,-1.18 0,-4.01 0.85,-2.63 -3.75,-2.99 -0.33,0.59 -0.6,1.2 -0.61,1.23 0,0.01 0.29,-0.22 0.29,-0.38 0,-0.26 0.3,-0.42 0.46,-0.63 0,-3.13 0.69,-2.11 -2.8,-2.31l-1.51 0.73c0,-3.8 0.77,-2.43 -3.78,-2.62 -1.69,2.73 -0.67,1.14 -5.99,-0.19 -23.22,-5.8 -98.47,-2.91 -126.3,-3.07 -9.53,-0.05 -25.38,-0.89 -34.13,1.05l-5.1 1.45 2.64 -3.2c-4.08,0.74 -3.5,-0.53 -2.64,3.2 -3.82,-0.89 -2.54,-1.5 -3.26,2.66 3.42,1.84 0.74,8.1 0.73,22.44 -0,5.01 -0.2,7.13 1.06,12.08 3.54,13.97 7.85,1.28 2.29,5.53 0,3.55 -0.77,2.39 3.24,2.54 1.8,-2.53 -2.13,-1.7 10.56,-1.47 8.06,0.14 37.35,-1.55 31.09,0.7l-0.1 11.01c0.06,-0.07 6.73,2.13 3.8,-8.12l-0.35 -1.96 -2.84 24.71 -0.28 -4.8 -2.74 3.55c1.49,2.55 0.93,1.31 1.65,4.57 0,0.01 1.38,8.86 -0.85,0.12 -3.87,0 -2.31,-0.73 -2.55,4.3 3.2,1.39 4.17,-3.38 -0.56,7.73 -2.76,6.49 -1.69,9.46 -3.45,4.31 -3.13,0 -2.12,-0.69 -2.32,2.8l0.84 1.55c-3.85,0 -2.49,-0.8 -2.77,3.7 0.89,0.71 1.4,1.05 1.46,1.09 0.01,0.01 -0.2,-0.12 -0.19,-0.22 0.01,-0.19 -0.27,-0.27 -0.4,-0.41 -3.96,0 -2.56,-0.82 -2.88,3.83 0.6,0.33 1.22,0.63 1.25,0.64 0.01,0 -0.43,-0.09 -0.43,-0.26 0,-0.28 -0.47,-0.28 -0.7,-0.42 -3,0 -2.06,-0.69 -2.4,2.52 2.23,3.25 1.68,-1.42 0.55,3.59 -1.67,7.43 0.27,1.42 -1.41,0.99l-2.63 3.11c0.29,0.16 6.75,-1.02 0.74,0.43 -0,0 -0.51,-0.04 -0.52,-0.23 -0.01,-0.29 -0.51,-0.24 -0.77,-0.35l-2.3 1.85c1,2.29 3.9,-3.13 -0.78,4.75 -4.57,7.7 -1.18,2.07 -2.49,1.84 -3.16,0 -2.13,-0.73 -2.77,2.57 3.88,4.75 -8.14,2.88 -2.54,20.95 19.78,5.93 23.63,-10.3 23.23,-1.57 4.33,-0.37 3.55,0.94 3.55,-2.76 -0.47,-0.49 -0.55,-0.58 -0.55,-0.58 0,0 0.11,0.12 0.11,0.13 0.01,0.01 0.64,0.74 0.96,1.1 4.12,-0.47 3.39,0.81 3.39,-2.68 -0.02,-0.17 0.19,-0.42 0.22,-0.45 0.04,-0.04 0.26,-0.43 0.32,-0.48l6.93 -3.64c-8.55,0.87 0.46,-0.76 -4.76,3.54l6.26 -3.67c-0.98,-4.27 -1.32,0.34 2.85,-5.17 2.95,-3.89 2.72,-2.58 5.6,-7.95l-1.16 4.41c0.41,-0.36 0.97,-0.79 1.22,-1.09l3.11 -4.82c-2.95,-1.55 -1.62,1.17 0.98,-3.31 2.32,-4 1.86,-3.1 2.51,-3.32 3.72,0 2.38,0.78 2.93,-3.54 -0.58,-0.35 -0.94,-0.51 -0.95,-0.51 -0,0 0.44,0.51 0.45,0.33 0,-0.28 0.46,0.33 0.69,0.49l2.02 -2.36c-1.78,-2.74 -0.61,1.73 -2.6,-4.96 -2.13,-7.19 -5.01,3.44 0.31,-2.39 0,-3.91 0.79,-2.51 -3.88,-2.68l0.35 -0.12 -2.58 1.93c2.65,4.51 2.68,-2.77 -0.8,3.16 -3.09,5.26 0.01,2.53 -2.07,1.65 -3.56,0 -2.29,-0.75 -2.7,3.4l0.67 0.45c-3.87,0 -2.53,-0.83 -2.94,3.61 2.23,0.84 4.3,-1.3 -6.29,10.08 -2.11,2.26 -2.93,3.24 -5.37,5.14 -2.63,2.04 -3.06,6 -2.68,0.93 -4.56,0.6 -3.72,-0.81 -3.72,3.14 0.39,2.31 4.14,-2.15 -2.05,1.78 -6.81,4.33 -9.85,4.86 -12.79,3.24l0.07 -3.96c-3.66,3.88 -3.61,-3.08 -3.17,4.21 1.96,-8.85 3.88,-3.08 8.05,-13.03l-0.41 4.8 3.8 -6.15c-5.09,-2.03 -2.28,2.59 -0.2,-1.78 3.16,-6.65 -1.33,-1.7 1.29,-0.78 3.75,0 2.43,0.79 2.86,-3.53 -3.37,-1.89 -2.03,1.3 0.61,-3.62 2.77,-5.17 1.69,-3.2 2.64,-3.15 3.53,0 2.26,0.74 2.72,-3.38l-0.67 -0.47c3.77,0 2.45,0.79 2.79,-3.6 -1.89,-1.42 -1.44,-1.05 -1.5,-1.09 -0.01,-0.01 0.26,0.35 0.25,0.23 -0.01,-0.22 0.32,0.29 0.49,0.43 3.81,0 2.47,0.8 2.79,-3.64 -2.56,-1.77 -5.37,4.57 0.07,-3.84 3.2,-4.94 -0.85,-3.38 2.79,-1.39l1.57 -1.94c-0.76,-1.86 -0.77,-1.43 -0.79,-4.36 -0.07,-9.32 -0.8,4.2 0.25,-3.06 0.4,-2.74 1.62,-5.94 2.21,-8.21 3.36,-13.08 -0.6,-38.77 17.64,-27.6 7.58,4.65 2.79,1.44 0.81,1.62 0.5,4.62 -0.92,3.78 3.07,3.78 0.57,-0.37 0.78,-0.53 0.79,-0.54 0,0 -0.15,0.06 -0.15,0.06 -0.02,0 -0.95,0.5 -1.41,0.76 0.34,4.44 -1,3.63 2.82,3.63 0.52,-0.44 0.77,-0.65 0.77,-0.66 0,-0 -0.16,0.09 -0.17,0.09 -0.02,0.01 -0.97,0.67 -1.45,1.01 0.25,4.65 -1.14,3.81 2.85,3.81 0.5,-0.46 0.78,-0.72 0.78,-0.75 0,-0 -0.16,0.06 -0.16,0.06 -0.02,-0 -0.95,0.62 -1.42,0.94 0.33,4.54 -1.04,3.73 2.84,3.73l-0.82 0.33c0.3,4.58 -1.07,3.76 2.87,3.76 0.48,-0.48 0.72,-0.73 0.72,-0.75 0,-0 -0.16,0.07 -0.16,0.07 -0.02,0 -0.92,0.65 -1.37,0.99 0.28,4.51 -1.06,3.68 2.86,3.68 3.07,-1.26 -2.76,-4.76 1.49,2.18 0.97,1.59 2.16,3.53 2.99,4.94 2.17,3.67 4.88,5.18 2.44,9.71l2.22 2.01c2.33,-1.64 -0.73,-3.28 2,-0.17 -1.55,11.16 -7.02,8.72 -5.87,40.64 0.31,8.75 0.77,13.5 -0.14,22.48 -1.89,18.61 -1.93,18.41 -4.05,13.37l-2.04 3.5c1.71,2.61 4.07,-4.29 -0.54,6.69 -3.93,9.36 -0.88,3.67 -2.54,3.38 -3.58,0 -2.29,-0.76 -2.81,3.42 3.98,1.96 2.43,-2.47 0.12,1.81 -3.05,5.65 0.67,1.34 -1.35,0.73 -3.78,0 -2.42,-0.8 -3.05,3.56 4.87,1.36 1.96,-2.35 0.1,1.52 -3.01,6.25 0.77,1.08 -1.13,0.86 -4,0 -2.57,-0.86 -3.26,3.72 3.64,0.48 1.67,-1.09 -0.76,2.58 -3.68,5.56 -0.07,2.48 -2.04,2.06 -3.74,0 -2.4,-0.8 -3.04,3.49 3.3,1.23 0.5,-2 -2.8,7.53l0.39 -5.57 -3.62 6.17c5.17,2.25 1.85,-2.34 -2.88,7.57l0.91 -5.49c-2,1.96 -1.96,1.72 -3.95,6.05 3.08,1.63 1.65,-1.74 -3.01,7.56l1.08 -5.36 -4.02 5.93c3.67,2.11 2.79,-2.24 0.02,1.86 -3.49,5.16 0.99,1.82 -1.48,0.53 -3.95,0 -2.57,-0.84 -3.02,3.7 3.78,0.77 1.22,-0.68 -1.22,4.33 -8.96,18.38 -5.42,42.64 -5.46,68.85 -0.02,14.23 0,28.46 -0.03,42.68l0.9 30.19c0.53,4.47 5.33,4.65 -0.13,4.37 0.49,4.26 -0.82,3.47 2.87,3.47 1.54,-0.81 2.53,4.81 9.19,8.62 9.82,5.63 107.59,3.06 128.02,3.02l19.24 1.28 2.03 -1.47c-2.99,-4.32 -2.22,0.09 1.98,-3.88 1.74,-1.65 2.94,-2.14 3.6,-2.27 -3.78,-0.97 -2.47,-1.39 -2.47,2.98 3.63,-0.87 3.1,0.33 2.47,-2.98 4.83,-1.79 2.31,0.12 5.5,-4.7l-3.25 2.36 -1.21 -0.94c15.96,-8.93 -2.75,-6.36 5.63,-4.07zm-3.97 -106.04c-8.43,-20.14 -13.47,-48.12 -9.28,-72.23 4.47,-25.72 15.48,-42.14 29.3,-56.04 32.2,-32.38 64.93,-37.27 110.97,-57.81l3.57 16.25c3.04,42.51 -4.68,76.51 -26.65,111.21 -22.78,35.98 -64.29,48.78 -94.3,63.85 6.82,-37.58 33.67,-80.1 57.3,-107.05 16.46,-18.78 22.17,-21.2 20.95,-32.71 -11.35,-1.67 -13.8,3.3 -19.59,9.73 -26.69,29.62 -67.16,85.97 -72.27,124.81zm-48.13 -175.69l0.49 -0.17c0.41,4.64 -1.05,3.92 2.61,3.92 4.31,-7.49 0.98,-2.54 2.22,6.51 0.66,4.78 0.7,7.15 0.56,11.95 -0.24,8.85 0,23.87 -2.85,16.46l-1.96 2.79 -12.98 1.04c-6.1,-0.03 -51.45,1.86 -43.2,-1.06 0,-3.99 1.18,-3.31 -2.18,-3.31l-0.2 -34.23 0.22 4.36 2.64 -4.42c-0.26,-0.47 -4.79,2.37 -1,-4.99 2.57,-4.98 42.88,-2.49 53.85,-2.6 2.01,2.39 1.82,0.27 -0.33,1.91l2.1 1.84zm-148.3 -70.36l-1.05 -25.76 24.15 0.15 -0.93 25.11c10.07,-7.87 -2.47,7.63 2.68,-2.9 2.68,-5.48 0.93,1.12 1.2,-9.63 0.11,-4.32 0.42,-8.59 0.06,-13l-1 25.38c-7.49,2.59 -20.28,2.35 -28.12,0.56l0.38 -26.51c7.37,-3.51 17.51,-2.1 26.06,-2.11 -24.34,1.71 -27.54,-2.56 -27.54,15.58 0,1.19 0.38,7.19 0.67,8.15 1.35,4.55 -0.3,2.45 3.44,5zm159.26 24.05c-6.61,6.27 -12.8,21.8 -15.8,31.61l-43.67 -0.41c-5.26,-5.48 -16.62,-30.48 -20.99,-39.05 -11.08,-21.73 -14.67,-19.04 -42.62,-18.32l-0.11 -23.65c34.41,1.32 70.35,-1.39 104.45,0.44 27.5,1.48 52.25,23.81 54.74,48.97l-36.01 0.41z"/>
   <path class="fil1" d="M210.9 286.67c5.11,-38.84 45.58,-95.19 72.27,-124.81 5.79,-6.43 8.24,-11.4 19.59,-9.73 1.21,11.51 -4.49,13.93 -20.95,32.71 -23.63,26.96 -50.48,69.47 -57.3,107.05 30.01,-15.07 71.52,-27.87 94.3,-63.85 21.97,-34.7 29.69,-68.7 26.65,-111.21l-3.57 -16.25c-46.04,20.54 -78.77,25.44 -110.97,57.81 -13.82,13.89 -24.82,30.31 -29.3,56.04 -4.19,24.11 0.85,52.09 9.28,72.23z"/>
   <path class="fil1" d="M50.65 38.49c27.95,-0.72 31.54,-3.42 42.62,18.32 4.37,8.57 15.73,33.57 20.99,39.05l43.67 0.41c3,-9.8 9.19,-25.33 15.8,-31.61l36.01 -0.41c-2.5,-25.16 -27.24,-47.5 -54.74,-48.97 -34.1,-1.83 -70.04,0.88 -104.45,-0.44l0.11 23.65z"/>
   <path class="fil2" d="M8.55 3.31l-2.64 3.2 5.1 -1.45c8.75,-1.94 24.61,-1.1 34.13,-1.05 27.84,0.15 103.09,-2.73 126.3,3.07 5.32,1.33 4.3,2.92 5.99,0.19 -15.11,-9.12 -60.17,-6.2 -81.49,-6.17 -13.4,0.02 -81.85,-3.59 -87.41,2.22zm174.18 5.84l-1.51 0.73 1.51 -0.73zm2.67 2.09l0.14 0.22c-0.15,0.21 -0.45,0.37 -0.46,0.63 -0,0.16 -0.29,0.39 -0.29,0.38 0.01,-0.03 0.28,-0.64 0.61,-1.23zm6.23 3.78l-2.47 -0.78c-0.76,2.3 -6.03,-1.32 0.78,1.18 4.34,1.59 0.01,4.57 1.7,-0.4zm16.52 14.32c-2.06,-2.89 -2.87,-4.4 -5.6,-6.89 -4.87,-4.44 -2.39,-2.75 -7.29,-4.17 -1.37,2.88 -2.94,-2.22 1.7,2 1.47,1.34 2.43,1.98 4.17,3.67 4.95,4.8 2.28,6.31 7.02,5.39zm6.73 13.01c-0.36,-4.72 2.43,-3.92 -3.28,-6.75 -4.31,-0.96 -3.25,0.36 -2.78,-4.23 -0.25,3.14 -0.65,1.59 2.6,6.89 3.18,5.18 1.7,4.58 3.45,4.08zm5.06 8.95c-0.89,-7.51 1.51,-2.43 -2.3,-5.54 -3.69,2.47 -2.53,-2.9 -0.42,3.35 0.1,0.29 0.67,1.27 0.85,1.48 4.74,5.45 -2.69,5.19 1.87,0.71zm-44.85 37.19l5.9 -10.56 39.48 -0.48c3.88,-9.22 4.32,-12.73 1.49,-22.88 -3.88,5.56 0.6,2.62 -0.9,12.78 -1.77,11.94 -13.46,6.19 -40.59,7.72 -1.6,2.4 -3.27,4.77 -4.77,8.15 -2.29,5.14 -3.14,3.83 -0.6,5.27zm2.38 76.49c-0.37,-12.82 1.52,-26.33 1.37,-40.01 -0.19,-17.53 -5.98,-19.2 -6.59,-32.66 -1.38,-8.28 -3.14,5.56 -0.58,11.77 6.46,15.71 4.73,22.19 4.13,43.36 -0.49,17.07 -2.81,22.47 1.68,17.54zm1.63 4.39l0.43 -1.84c-0.24,0.4 -0.71,0.67 -0.73,1.2 -0.01,0.37 -0.48,0.84 -0.49,0.88 -0.24,6.14 0.51,-0.01 0.78,-0.24zm2.6 4.02l-0.26 -1.06c-1.83,2.12 -5.01,-2.55 -1.14,1.38 2.38,2.42 -1.63,1.04 1.4,-0.31zm2.05 3.98l-0.13 -2.16c-0.23,0.43 -0.71,0.73 -0.71,1.3 -0,0.4 -0.44,0.91 -0.42,0.96 1.61,4.78 -1.79,1.57 1.26,-0.1zm1.51 4.31l0.33 -2.22c-0.24,0.45 -0.7,0.77 -0.72,1.36 -0.01,0.42 -0.47,0.96 -0.47,1.01 0.18,6.05 -0.7,1.09 0.85,-0.15zm-12.63 0.91c2.78,9.36 4.88,16.28 15.18,12.19 2.51,-5.79 2.49,-4.01 -0.3,-10.22l-0.66 2.13c-0.09,0.31 -0.46,1.78 -0.6,2.21 -0.52,1.64 0.48,1.9 -1.7,4.52 -14.34,-0.95 -4.6,-16.88 -11.91,-10.84zm-1.91 -4.26l0.21 2.47c2.07,-4.42 4.04,6.76 1.08,-2.46 -1.65,-5.13 1.68,-1.58 -1.28,-0.01zm-1.52 -4.27l-0.24 2.44c0.21,-0.43 0.63,-1.69 0.64,-1.28 0.01,0.3 0.42,-0.92 0.42,-0.98 -0.3,-5.22 0.29,-0.78 -0.82,-0.18zm-1.21 -4.5l-0.98 2.1c0.23,-0.41 0.67,-1.64 0.7,-1.23 0.02,0.3 0.5,-0.88 0.52,-0.92 3.61,-8.63 0.12,-0.4 -0.24,0.05zm-3.01 -5.86c-5.21,-3.33 -37.35,-2 -46.96,-2.06l-10.67 1.03 57.63 1.03 0.29 2c2.02,-0.68 1.44,-1.04 -0.29,-2zm-68.94 28.62c6.16,-3.98 9.52,-18.2 9.07,-27.46 -1.27,-5.03 -3.51,9.82 -4.54,13.32 -1.28,4.36 -1.9,5.46 -3.53,9.34 -2.32,5.51 -4.58,3.64 -1,4.81zm-4.15 5.9c3.96,1.22 1.13,0.57 1.13,-2.31 -2.57,-0.21 2.31,-5.63 -1.12,0.89 -1.9,3.62 -4.83,0.32 -0.01,1.43zm-4.35 6.1c4.21,0.62 1.28,0.65 1.32,-2.57 -2.11,-0.58 1.75,-4.77 -1.37,0.73 -2.52,4.45 -3.94,-0.38 0.05,1.84zm-5.81 8.13c3.84,1.37 1.07,0.82 2.46,-1.83l0.36 -5.63c-2.08,6.51 -5.49,6.5 -2.81,7.47zm-4.48 6.1c4.46,0.06 1.27,0.66 1.42,-2.68 -2.64,-1.29 1.7,-4.95 -1.55,0.57 -2.76,4.68 -3.35,-0.23 0.14,2.11zm-5.86 8.13c4.01,0.8 1.19,0.59 1.66,-2.18l1.25 -5.39c-4.68,9.77 -6.11,6.36 -2.91,7.58zm-7.25 8.49c-1.01,-3.62 -1.4,-2.39 2.77,-2.39l0.7 0.04 0.81 -5.4c-1.6,4 -4.27,7.07 -4.27,7.75zm-4.52 9.06l2.23 -3.15 0.39 -5.59c-3.16,8.51 -1.23,0.74 -2.59,5.49 -1.47,5.11 -2.74,-0.07 -0.03,3.25zm-2.57 2.77l-0.05 -0.12c-0.22,-0.12 -0.67,-0.62 -0.67,-0.36l0.72 0.48zm-2 4.06l-0.71 -0.68 0.71 0.68zm-1.74 5.87l-0.97 -2.35 0.97 2.35zm-2.88 126.38l0.86 -123.34c-4.41,-11.44 -2.78,90.75 -2.8,111.21 -0.02,22.3 -0.31,15.08 1.94,12.13zm2.77 3.88l-0.09 0.02 0.09 -0.02zm142.48 8.94c-17.58,-2.86 -49.82,-0.79 -69.2,-0.81 -22.24,-0.02 -47.19,0.47 -67.42,-1.01 -5.17,-2.85 -2.47,0.17 -5.93,-5.08 6.34,14.63 84.03,9.6 109.94,9.38 6.74,-0.06 13.74,0.01 20.42,-0.16 2.22,-0.06 6.94,-0.24 9.06,-0.62 10.56,-1.9 5.64,-0.3 3.14,-1.7zm3.84 -3.13l0.12 0.57 -0.12 -0.57zm6.11 -7.29c-2.13,2.35 -0.85,0.04 -0.85,4.01 -4.04,4.01 4.71,1.94 -3.53,3.24 5.42,-1.86 1.5,2.24 4.6,-3.34 2.7,-4.85 1.61,-1.38 -0.22,-3.91zm2.61 -74.96l-0.37 71.74c3.51,9.94 1.16,-46.27 1.27,-56.3 0.05,-5.47 3.17,-25.62 -0.89,-15.44zm-9.05 -18.3l6.69 13.71c5.42,-0.23 2.64,0.3 -1.16,-7.2 -3.94,-7.77 -2.74,-9.3 -5.52,-6.51zm-3.47 -104.42c-17.95,25.03 -5.27,76.04 1.75,102.39 3.27,-8.09 -18.12,-51.41 -3.32,-93.87 3.41,-9.78 5.49,-6.64 1.57,-8.52zm1.9 -5.44l0.94 1.68 -0.2 -0.6c-0.07,-0.11 -0.5,-0.72 -0.74,-1.09zm2.16 -2.69l0.11 -0.03c0.22,0.18 0.66,0.24 0.66,0.52 0,0.17 0.41,0.32 0.41,0.32 -0.03,-0.01 -0.49,-0.32 -1.17,-0.81zm6.02 -10.16c-5.11,2.42 -2.82,2.01 -3.15,6.47 0.86,0.09 -0.51,2.31 2.39,-3.14 2.55,-4.79 3.87,-1.86 0.75,-3.33zm4.36 -6.1c-4.14,-0.49 -1.3,-0.68 -1.33,2.55 2.34,0.79 -1.92,4.92 1.32,-0.72 2.53,-4.41 3.84,0.38 0.01,-1.83zm22.1 -24.16c-6.95,3.77 -11.65,9.45 -16.75,15.93l1.62 1.34c8.2,-11.11 16.45,-13.5 15.13,-17.27zm3.69 -2.53c9.56,-4.11 4.42,-2.99 4.25,-3.85 -9.22,3.08 -2.66,-0.24 -4.25,3.85l-1.39 -0.25c1.71,3.41 0.47,3.86 1.39,0.25zm13.22 -8.86c-3.44,0.11 -3.12,-2.97 -2.79,1.32 -4.41,3.86 3.34,2.49 -4.33,3.62 5.14,-1.62 1.82,-0.02 5.53,-2.69 4.96,-3.56 2.44,0.14 1.6,-2.25zm10.4 -6.11c-5.26,0.52 -3.6,-2.86 -7.09,3.36 1.92,3.1 -1.18,1.89 3.74,-0.71 5.02,-2.65 3.33,-1.88 3.35,-2.66zm3.7 -2.05l-0.63 -0.52 0.63 0.52zm4.11 -2.05l-0.67 -0.68 0.67 0.68zm13.14 -6.96l-9.74 4.25c-0.21,5.17 -2.66,2.83 5.6,-0.84 10.07,-4.47 6.62,-1.75 4.14,-3.42zm9.83 -4.66l-6.79 2.52c2.54,1.55 -1.08,2.05 4.44,0.38 0.34,-0.1 1.38,-0.68 1.61,-0.87 4.34,-3.61 4.45,1.11 0.74,-2.03zm10.38 -3.54l-8 1.89 2.72 0.5c0.22,-0 1.04,0.08 1.29,0.06 0.24,-0.02 0.97,-0.07 1.21,-0.12 0.4,-0.08 1.56,-0.55 1.83,-0.7 4.74,-2.71 4.93,1.08 0.94,-1.63zm10.36 -3.64l-7.36 1.55c2.89,1.78 -0.92,1.63 4.8,0.61 10.47,-1.86 4.16,-1.23 2.56,-2.17zm15.85 -6.82l-12.3 4.37c2.93,2.57 -4.69,3.53 6.77,-0.26 12.94,-4.29 9.11,-1.25 5.53,-4.11zm17.43 -4.99l-14.35 3.2c4.4,2.63 -2.67,1.08 3.73,0.84 1.17,-0.04 3.2,-0.41 4.44,-0.74 11.34,-3.06 10.75,-0.38 6.18,-3.29zm10.94 8.13l0.98 -9.16c-4.57,-2.23 -1.88,-2.49 -8.28,-1.5 2.82,3.34 6.48,-1.72 6.94,18.44l0.36 -7.78zm0.95 79.86c0.65,-11.68 2.94,-23.52 3.34,-35.94 0.39,-12.19 -1.14,-23.84 -1.48,-35.82 -2.62,2.88 -1.31,-0.23 -1.83,5.44 -0.14,1.56 0.29,7.8 0.37,9.87l-0.58 38.41c-0.77,5.95 -2.84,11.5 0.19,18.04zm-12.44 35.13c4.19,-4.8 10.55,-24.53 9.67,-32.09l-8.63 25.15c-3.66,9.95 -4.85,5.04 -1.03,6.94zm-2.09 4.06l-0.76 -0.25c-0.14,-0.16 -0.42,-0.69 -0.42,-0.48 0,0.12 -0.22,-0.28 -0.21,-0.28 0.06,0.03 0.85,0.58 1.38,1zm-2.13 4.07l-0.68 -0.46 0.68 0.46zm-3.36 9.02c2.03,-3.86 0.97,-0.7 0.63,-5.56l-0.63 5.56zm-2.82 1.14l0.81 0.21c-0.3,-0.12 -0.86,-0.69 -0.88,-0.37 -0.01,0.22 -0.6,-0.24 -0.61,-0.24 -4.97,-0.15 0.09,0.09 0.69,0.41zm-5.66 8.13c3.64,1.69 1.03,1.05 2.45,-1.85l0.24 -5.69c-2.02,6.42 -5.87,6.63 -2.69,7.54zm-26.72 27.74c9.36,-3.51 17.07,-12.96 22.89,-21.58l0.29 -4.45c-5.52,9.88 -9.68,14.26 -18.46,21.28 -5.87,4.7 -5.75,2.31 -4.73,4.75zm-8.03 6.44c2.82,-0.69 3.13,2.18 2.17,-1.82 2.28,-2.68 0.66,-3.14 3.39,-4.45 -3.85,2.48 -0.33,-1.24 -4.39,3.46 -3.76,4.35 -2.19,-0.15 -1.17,2.82zm-5.92 4.43l3.26 -1.69c-3.05,-2.74 2.54,-2.73 -2.18,-0.52 -5.74,2.69 -1.78,-0.22 -1.08,2.21zm-10.46 5.29l8.39 -2.98c-3.42,-2.04 1.58,-2.44 -5.43,0.38 -6.21,2.5 -4.19,0.01 -2.96,2.6zm-3.98 2.07l0.34 0.68c-0.31,-0.44 -0.91,-1.33 -0.91,-1.34 0,0 -0.08,-0.13 -0.07,-0.13 0.01,0.01 0.23,0.26 0.65,0.79zm-3.99 2.14l0.61 0.63c-0.25,-0.27 -0.73,-1.15 -0.74,-0.8l0.13 0.17zm-18.08 8.44c5.65,-0.61 10.1,-2.94 14.64,-5.81 -0.85,-4.77 1.93,-2.58 -7.29,1.24 -0.66,0.27 -4.34,1.74 -5.69,2.54 -4.4,2.61 -5.19,-0.84 -1.67,2.03zm-16.86 7.51l13.71 -5.15c-2.25,-1.64 2.9,-3.53 -7.53,1.45 -0.07,0.03 -3.39,1.77 -3.79,2 -6.97,3.98 -2.38,-0.3 -2.39,1.69zm-6.11 4.01c3.06,-0.07 2.97,2.91 2.52,-1.14 -2.3,-4.33 3.44,-2.51 -1.53,-0.46 -5.27,2.17 -1.86,-0.23 -1,1.6zm-3.54 3.14l0.16 -0.06 -0.16 0.06 -0.04 0.13 0.04 -0.13zm-2.15 4.84l-0.91 -1.25 0.91 1.25zm-4.25 76.4c5.34,-6.18 3.06,-60.87 2,-72.52 -4.21,-12.4 -1.89,47.94 -2.02,56.36 -0.06,3.71 -0.34,5.97 -0.59,9.44 -0.55,7.54 -1.91,4.52 0.61,6.72zm-3.96 6.1c4.09,1.27 1.28,0.8 1.18,-2.65 -8.38,-2.29 10.33,-4.86 -5.63,4.07l1.21 0.94 3.25 -2.36zm-11.08 10.85c3.19,-1.44 2.29,-0.13 3.11,-3.18 0,-4.37 -1.31,-3.95 2.47,-2.98 -0.66,0.13 -1.86,0.62 -3.6,2.27 -4.2,3.97 -4.97,-0.44 -1.98,3.88zm-158.48 -11.45c1.12,4.72 -0.77,1.71 3.19,6.54 5.82,7.11 15.52,7.97 24.16,8.15 28.12,0.58 109.46,1.17 129.1,-1.77l-19.24 -1.28c-20.43,0.04 -118.21,2.61 -128.02,-3.02 -6.65,-3.82 -7.65,-9.43 -9.19,-8.62zm3.07 -153.89c-12.97,6.26 -9.55,53.7 -9.55,71.15 -0,14.2 -2.96,72.2 3.61,79.28 5.45,0.28 0.66,0.11 0.13,-4.37l-0.9 -30.19c0.03,-14.22 0,-28.46 0.03,-42.68 0.04,-26.2 -3.5,-50.47 5.46,-68.85 2.44,-5.02 5,-3.57 1.22,-4.33zm4.48 -6.1c-4.58,-0.27 -1.31,-0.6 -1.46,2.4 2.48,1.28 -2,4.63 1.48,-0.53 2.77,-4.1 3.65,0.25 -0.02,-1.86zm5.95 -8.13c-4.13,-0.66 -1.17,-0.58 -1.93,2.2l-1.08 5.36c4.66,-9.3 6.09,-5.93 3.01,-7.56zm5.92 -8.13c-4.08,-1.09 -1.14,-0.62 -1.98,2.08l-0.91 5.49c4.73,-9.91 8.05,-5.32 2.88,-7.57zm6.03 -8.13c-3.84,-1.17 -1.03,-0.7 -2.42,1.96l-0.39 5.57c3.31,-9.54 6.1,-6.31 2.8,-7.53zm5.84 -8.13c-7.62,2.18 -1.75,-0.39 -2.8,4.64 1.97,0.42 -1.64,3.5 2.04,-2.06 2.43,-3.67 4.41,-2.1 0.76,-2.58zm4.29 -6.1c-3.86,-1.2 -1.12,-0.59 -1.03,2.38 1.9,0.22 -1.88,5.39 1.13,-0.86 1.86,-3.86 4.77,-0.16 -0.1,-1.52zm4.28 -6.1c-4.22,-0.22 -1.11,-0.57 -1.23,2.54 2.02,0.6 -1.7,4.92 1.35,-0.73 2.31,-4.28 3.85,0.15 -0.12,-1.81zm5.89 -13.48c-3.68,6.74 -2.63,3.85 -3.08,10.07 1.66,0.29 -1.4,5.98 2.54,-3.38 4.61,-10.98 2.26,-4.08 0.54,-6.69zm10.1 -79.83c-5.55,16.86 -6.32,14.33 -6.15,36.41 0.11,14.52 -1.73,27.41 -1.92,39.92 2.12,5.03 2.16,5.24 4.05,-13.37 0.91,-8.98 0.46,-13.74 0.14,-22.48 -1.15,-31.92 4.33,-29.48 5.87,-40.64 -2.73,-3.11 0.32,-1.47 -2,0.17zm-9.14 -18.84c0.72,7.42 3.3,10.57 6.92,16.83 2.44,-4.53 -0.27,-6.04 -2.44,-9.71 -0.83,-1.41 -2.01,-3.35 -2.99,-4.94 -4.25,-6.94 1.57,-3.44 -1.49,-2.18zm-2.05 -3.99l-0.82 0.31c0.45,-0.34 1.35,-0.99 1.37,-0.99 0,0 0.16,-0.07 0.16,-0.07 0,0.02 -0.24,0.27 -0.72,0.75zm-2.05 -4.09l-0.82 0.33 0.82 -0.33zm-2.04 -3.98l-0.8 0.25c0.47,-0.32 1.4,-0.94 1.42,-0.94 0,0 0.16,-0.06 0.16,-0.06 -0,0.02 -0.28,0.29 -0.78,0.75zm-2.01 -4.25l-0.84 0.43c0.48,-0.34 1.43,-1 1.45,-1.01 0,0 0.17,-0.09 0.17,-0.09 -0,0.01 -0.25,0.23 -0.77,0.66zm-2.04 -3.92l-0.78 0.29c0.47,-0.26 1.4,-0.76 1.41,-0.76 0,0 0.15,-0.06 0.15,-0.06 -0.01,0.01 -0.22,0.17 -0.79,0.54zm-23.18 37.83c3.28,-13.58 6.54,-27.29 7.94,-43.51l12.18 1.91c1.98,-0.18 6.77,3.02 -0.81,-1.62 -18.24,-11.18 -14.27,14.51 -17.64,27.6 -0.58,2.27 -1.81,5.47 -2.21,8.21 -1.06,7.26 -0.32,-6.26 -0.25,3.06 0.02,2.93 0.03,2.5 0.79,4.36zm-4.43 7.17l2.86 -5.23c-3.64,-1.99 0.41,-3.55 -2.79,1.39 -5.44,8.41 -2.63,2.07 -0.07,3.84zm-2.03 4.06l-0.76 -0.42c-0.16,-0.14 -0.49,-0.65 -0.49,-0.43 0,0.12 -0.26,-0.24 -0.25,-0.23 0.06,0.04 -0.39,-0.33 1.5,1.09zm-2.12 4.07l-0.67 -0.47 0.67 0.47zm-5.97 10.16c6.16,-3.55 2.74,-1.85 3.25,-6.78 -0.95,-0.05 0.13,-2.01 -2.64,3.15 -2.64,4.92 -3.98,1.73 -0.61,3.62zm-3.95 6.1c3.95,1.04 1.15,0.64 1.09,-2.56 -2.62,-0.92 1.87,-5.87 -1.29,0.78 -2.08,4.37 -4.89,-0.25 0.2,1.78zm-8.27 10.16c3.64,-1.26 1.49,0.24 4.47,-4.02l0.41 -4.8c-4.17,9.94 -6.09,4.17 -8.05,13.03 -0.43,-7.29 -0.48,-0.32 3.17,-4.21zm-23.99 -88.01c5.56,-4.25 1.25,8.45 -2.29,-5.53 -1.25,-4.95 -1.06,-7.07 -1.06,-12.08 0.01,-14.34 2.69,-20.6 -0.73,-22.44 -4.42,2.39 -2.11,32.07 -1.53,33.89 2.54,7.97 1.19,3.97 5.6,6.16zm44.89 1.78c6.26,-2.25 -23.04,-0.56 -31.09,-0.7 -12.69,-0.23 -8.77,-1.06 -10.56,1.47 13.15,1.21 28.96,2.02 41.66,-0.77zm-0.1 11.01l0.34 9.83 0.28 4.8 2.84 -24.71 0.35 1.96c2.93,10.26 -3.74,8.05 -3.8,8.12zm-1.59 18.06c2.22,8.75 0.85,-0.1 0.85,-0.12 -0.72,-3.26 -0.16,-2.02 -1.65,-4.57l0.81 4.68zm-6.56 16.34c1.76,5.14 0.69,2.18 3.45,-4.31 4.72,-11.11 3.75,-6.34 0.56,-7.73l-4.01 12.05zm-1.47 4.34l-0.84 -1.55 0.84 1.55zm-1.9 4.17c0.13,0.13 0.41,0.22 0.4,0.41 -0,0.1 0.2,0.22 0.19,0.22 -0.06,-0.04 -0.57,-0.38 -1.46,-1.09l0.86 0.47zm-2.77 3.79c0.24,0.14 0.7,0.14 0.7,0.42 0,0.17 0.44,0.26 0.43,0.26 -0.03,-0.01 -0.64,-0.31 -1.25,-0.64l0.11 -0.04zm-3.25 7.1c1.68,0.43 -0.26,6.45 1.41,-0.99 1.12,-5.01 1.67,-0.35 -0.55,-3.59 -2.39,2.41 -0.9,-0.24 -0.85,4.58zm-3.18 2.96c0.26,0.12 0.76,0.07 0.77,0.35 0.01,0.19 0.52,0.23 0.52,0.23 6,-1.45 -0.45,-0.27 -0.74,-0.43l-0.55 -0.15zm-5.58 8.44c1.31,0.24 -2.08,5.86 2.49,-1.84 4.68,-7.88 1.78,-2.46 0.78,-4.75l-3.27 6.59zm17.92 21.95c0.4,-8.73 -3.44,7.5 -23.23,1.57 -5.59,-18.06 6.43,-16.2 2.54,-20.95 -18.09,18.79 2.29,33.3 20.68,19.38zm4.07 -2.11c-0.32,-0.36 -0.95,-1.09 -0.96,-1.1 -0,-0 -0.11,-0.13 -0.11,-0.13 0,0 0.09,0.09 0.55,0.58l0.52 0.65zm6.1 -3.72c5.23,-4.3 -3.79,-2.67 4.76,-3.54l-6.93 3.64c-0.06,0.05 -0.28,0.44 -0.32,0.48 -0.03,0.04 -0.24,0.29 -0.22,0.45 3.51,0.1 3.81,2.18 2.71,-1.04zm13.55 -12.39l1.16 -4.41c-2.89,5.37 -2.65,4.07 -5.6,7.95 -4.17,5.51 -3.84,0.9 -2.85,5.17l7.29 -8.71zm7.81 -12.53c-0.64,0.22 -0.18,-0.69 -2.51,3.32 -2.6,4.48 -3.92,1.76 -0.98,3.31 6.42,-3.17 3.05,-1.91 3.48,-6.63zm3.11 -3.22c-0.23,-0.16 -0.68,-0.77 -0.69,-0.49 -0,0.18 -0.45,-0.33 -0.45,-0.33 0.01,-0 0.37,0.16 0.95,0.51l0.18 0.32zm-0.26 -9.7c-5.32,5.83 -2.45,-4.8 -0.31,2.39 1.99,6.69 0.81,2.22 2.6,4.96 0.46,-1.71 0.75,-2.97 0.47,-3.94 -0.85,-2.99 0.15,-1.91 -2.76,-3.41zm-3.53 -2.8l-0.35 0.12 0.35 -0.12zm-5.45 6.74c2.08,0.88 -1.02,3.62 2.07,-1.65 3.48,-5.92 3.45,1.35 0.8,-3.16 -5.01,2.46 -2.47,-0.66 -2.87,4.81zm-2.03 3.85l-0.67 -0.45 0.67 0.45zm-17.28 19.76c-0.38,5.07 0.06,1.1 2.68,-0.93 2.44,-1.9 3.26,-2.88 5.37,-5.14 10.6,-11.38 8.52,-9.24 6.29,-10.08 -3.47,2.46 -13.55,13.92 -14.35,16.15zm-18.56 8.15c2.95,1.63 5.98,1.09 12.79,-3.24 6.19,-3.93 2.44,0.53 2.05,-1.78 -7.37,0.78 -7.24,2.77 -14.85,5.02z"/>
   <path class="fil1" d="M108.15 114.82l-2.64 4.42 -0.02 29.87c3.36,0 2.18,-0.68 2.18,3.31l56.18 0.02 1.96 -2.79 0.06 -34.92c-3.66,0 -2.21,0.71 -2.61,-3.92l-0.49 0.17 -2.1 -1.84 -50.35 -0.17 -2.17 5.85z"/>
   <polygon class="fil1" points="14.47,40.62 36.64,40.11 37.56,15 13.42,14.85 "/>
   <path class="fil2" d="M105.51 119.25l-0.22 -4.36 0.2 34.23 0.02 -29.87zm58.34 33.2l-56.18 -0.02c-8.25,2.92 37.1,1.03 43.2,1.06l12.98 -1.04zm2.02 -37.71l-0.06 34.92c2.85,7.41 2.6,-7.61 2.85,-16.46 0.13,-4.8 0.09,-7.17 -0.56,-11.95 -1.24,-9.05 2.09,-14 -2.22,-6.51zm-3.1 -3.75l0.49 -0.17 -0.49 0.17zm-54.62 3.84l2.17 -5.85 50.35 0.17c2.16,-1.63 2.34,0.48 0.33,-1.91 -10.97,0.11 -51.28,-2.38 -53.85,2.6 -3.79,7.36 0.74,4.52 1,4.99z"/>
   <path class="fil2" d="M36.64 40.11l-22.17 0.51c-3.74,-2.55 -2.08,-0.44 -3.44,-5 -0.29,-0.96 -0.67,-6.96 -0.67,-8.15 -0,-18.14 3.2,-13.87 27.54,-15.58 -8.55,0.01 -18.68,-1.4 -26.06,2.11l-0.38 26.51c7.84,1.79 20.62,2.02 28.12,-0.56l1 -25.38c0.36,4.4 0.05,8.68 -0.06,13 -0.27,10.75 1.48,4.15 -1.2,9.63 -5.15,10.53 7.39,-4.96 -2.68,2.9z"/>
  </g>
 </g>
</svg>
