<?xml version="1.0" encoding="UTF-8"?>
<!DOCTYPE svg PUBLIC "-//W3C//DTD SVG 1.1//EN" "http://www.w3.org/Graphics/SVG/1.1/DTD/svg11.dtd">
<!-- Creator: CorelDRAW -->
<svg xmlns="http://www.w3.org/2000/svg" xml:space="preserve" width="0.693398in" height="0.680579in" version="1.1" style="shape-rendering:geometricPrecision; text-rendering:geometricPrecision; image-rendering:optimizeQuality; fill-rule:evenodd; clip-rule:evenodd"
viewBox="0 0 88.29 86.65"
 xmlns:xlink="http://www.w3.org/1999/xlink"
 xmlns:xodm="http://www.corel.com/coreldraw/odm/2003">
 <defs>
  <style type="text/css">
   <![CDATA[
    .fil2 {fill:#040504}
    .fil0 {fill:#232424}
    .fil1 {fill:#FEFEFE}
   ]]>
  </style>
 </defs>
 <g id="Layer_x0020_1">
  <metadata id="CorelCorpID_0Corel-Layer"/>
  <g id="_1972668900112">
   <path class="fil0" d="M29.01 77.52l-0.67 -0c-0.51,0.99 -0.33,0.69 -0.39,-2.09 -0.02,-1.14 -0.02,-2.29 -0.01,-3.43 0.02,-2.41 0.01,-4.81 0.01,-7.21 0.01,-3.91 -0.36,-10.64 0.2,-14.19l15.43 -0.14c0.56,2.66 0.58,25.91 -0.22,27.62l-14.81 0.16c0.42,-0.09 0.23,-0.4 0.46,-0.71zm13.44 -0.01c0,1.76 0.95,0.03 0.96,0.02l-0.96 -0.02zm-14.23 -26.5l15.27 -0.02c-0.09,-0.1 -0.26,-0.33 -0.33,-0.22l-13.88 -0.32c-1.85,0.53 -0.43,0.1 -1.06,0.57zm-18.87 -11.04c0.22,-1.88 3.68,-4.36 6.13,-6.81 2.36,-2.35 4.39,-4.47 6.74,-6.84l10.14 -10.21c1.21,-1.4 1.89,-2.25 3.29,-3.41l23.31 23.27c1.54,1.63 3.36,2.78 3.39,5.88 0.04,3.96 -0.76,15.81 0.39,18.34 3.09,-0.17 2.26,-1.9 2.26,-7.7 0,-3.38 0.02,-6.77 -0.01,-10.16 2.66,1.64 4.13,5.52 7.82,-0.66 2.52,-4.21 -2.97,-8.27 -8.13,-13.55l-22.46 -22.54c-8.91,-8.67 -6.19,-5.97 -12.26,-0.36 -2.92,2.7 -9.75,10.3 -11.58,11.24 0.24,-2.15 0.43,-4.69 -0.24,-6.74l-9.13 -0.01c-0.11,0.02 -0.26,0.08 -0.34,0.11 -1.76,0.46 -0.52,13.27 -0.67,16.39 -0.11,2.26 -0.94,2.43 -3.6,4.82 -1.44,1.29 -2.84,2.71 -4.41,3.9l0 4.57c1.87,-1.28 23.56,-23.29 26.92,-26.73l8.7 -9.44c1.99,1.01 26.13,26.63 32.11,32.79 3.6,3.7 3.04,2.85 1.38,5.26 -2.03,-1.02 -13.55,-13.55 -16.3,-16.23 -2.17,-2.11 -15.6,-16.01 -16.73,-16.11 -2.04,-0.18 -15.34,14.64 -16.73,16.11l-16.8 16.34 -2.55 -1.86 0 4.03 0.45 0c1.11,-0.76 -0.39,0.13 1.46,0.5 2.17,0.44 2.3,-1.72 4.06,-2.62 0.82,-0.42 0.08,-0.29 0.97,-0.22 0.97,6.37 -1.21,34.46 1.14,37.42 1.52,1.92 5.91,1.15 8.48,1.18l26.7 0.04c3.72,-0.12 2.1,-3.11 2.14,-15.18 0.06,-16.56 1.71,-16.08 -4.65,-15.96 -4.01,0.08 -12.98,-0.68 -14.22,1.1 -1.27,3.03 0.54,23.3 -0.53,28.06 -2.96,0.58 -14.83,0.68 -16.88,-0.46 -0.71,-2.75 -0.35,-26.3 -0.33,-32.69 0,-1.55 -0.3,-3.58 0.57,-4.87zm-2.36 1.84c-0.74,-0.81 -0.24,-0.62 -1.05,0.12l1.05 -0.12zm2.39 35.26c-0.03,0.57 -0.15,0.42 0.44,0.39l-0.44 -0.39zm36.39 -27.14c-0.09,-0.86 0.16,-0.65 -0.56,-0.81l-0.14 -0.54 0.14 0.54c-0.28,1.05 -0.5,0.81 0.56,0.81zm-36.57 30.14c-0.18,-0.76 0.07,-0.6 -0.67,-0.58 0,0.75 -0.17,0.51 0.67,0.58zm-1.35 -1.35c0.06,-0.85 0.25,-0.58 -0.61,-0.78 0.07,0.95 -0.22,0.78 0.61,0.78zm2.84 -66.43l4.92 -0.02c0.07,2.97 0.52,6.66 -0.65,8.06 -0.61,0.73 -3.71,3.72 -4.29,4.14l0.03 -12.17z"/>
   <polygon class="fil1" points="28.34,77.52 29.01,77.52 42.45,77.52 43.41,77.53 43.5,50.99 28.22,51.01 "/>
   <path class="fil0" d="M54.65 73.66l-0.72 1.31c0.69,-0.86 0.42,0.49 0.72,-1.31zm32.91 -30.3l0.31 -0.43 -0.2 -1.01c-0.2,-2.44 0.49,-1.48 -0.76,-4.19 -6.19,-1.7 -5.88,2.48 -10.94,13.88l-2.32 5.4c-0.44,0.66 -0.06,0.3 -0.6,0.67 -1.6,0.78 -2.99,0.14 -4.44,1.88 -0.83,0.99 -1.55,3.1 -2.28,4.09 -0.96,1.3 -5.55,4.32 -7.35,5.8 -2.23,1.84 -4.11,4.79 -5.65,7.11 -0.78,1.17 -4.97,7.97 -3.13,9.19l28.98 0.13c0.86,-0.17 -1.21,0.5 0.65,-0.18 1.27,-0.47 1.32,-0.85 1.4,-3.06 0.14,-3.79 -0.25,-13.86 0.1,-16.43 0.75,-5.42 0.03,-3.21 -0.72,-4.77 -0.81,-1.66 2.11,-7.76 2.91,-9.52l3.42 -8.45c0.72,-0.75 -0.08,-0.6 0.63,-0.12zm-31.08 28.24c-0.88,0.86 -0.48,0.44 -1.26,1.68 1.32,-0.98 0.65,0.04 1.26,-1.68zm4.63 -4.2c-1.11,0.67 -0.91,0.46 -1.71,1.16 1.85,-0.47 0.74,0.12 1.71,-1.16zm1.7 -1.27c-0.89,0.37 -0.87,0.37 -1.27,0.75 2.22,-0.32 0.29,0.25 1.27,-0.75zm0.55 -0.28c0.84,0.1 0.56,0.26 0.73,-0.62 -0.89,0.13 -0.73,-0.15 -0.73,0.62zm2.43 -1.85c-0.78,0.17 -0.68,-0.09 -0.57,0.6 -0.81,-0.23 -0.65,-0.42 -0.65,0.36l0.65 -0.36c0.84,0.27 0.57,0.36 0.57,-0.6zm0.36 -0.89c0.7,-0.07 0.54,0.12 0.47,-0.58l-0.47 0.58zm0.97 -1.72c0.83,-0.2 0.67,0.07 0.58,-0.73 -0.77,0 -0.49,-0.16 -0.58,0.73zm0.42 -0.85c0.79,-0.23 0.62,0.04 0.59,-0.74 -0.79,0 -0.51,-0.17 -0.59,0.74zm1.75 -1.9c0.82,0.07 0.55,0.24 0.74,-0.62 -0.91,0.1 -0.74,-0.18 -0.74,0.62zm3.73 -1.13c0.86,-0.19 0.67,0.07 0.57,-0.8 -0.8,0 -0.51,-0.16 -0.57,0.8zm0.36 -1.45c0.61,0.23 0.45,0.28 0.3,-0.37l-0.3 0.37zm0.93 -1.47c0.94,-0.15 0.74,0.12 0.58,-0.82 -0.83,0 -0.54,-0.17 -0.58,0.82zm0.37 -1.42c0.62,0.16 0.45,0.24 0.32,-0.42l-0.32 0.42zm1.31 -2.58c0.78,-0.17 0.6,0.07 0.51,-0.73 -0.73,0 -0.47,-0.15 -0.51,0.73zm1.28 -2.98c0.83,-0.07 0.65,0.15 0.5,-0.7 -0.72,0 -0.47,-0.15 -0.5,0.7zm1.31 -2.79c0.9,-0.16 0.73,0.11 0.57,-0.77 -0.78,0 -0.5,-0.16 -0.57,0.77zm0.36 -1.26c0.7,0.03 0.54,0.19 0.42,-0.53l-0.42 0.53zm0.9 -1.71c0.94,-0.13 0.73,0.13 0.58,-0.82 -0.83,0 -0.53,-0.17 -0.58,0.82zm0.35 -1.48c0.56,0.09 0.43,0.19 0.33,-0.38l-0.33 0.38zm2.58 -3.18c-0.93,0.14 -0.8,-0.14 -0.58,0.7 -0.77,-0.2 -0.6,-0.32 -0.41,0.47 -0.69,-0.14 -0.45,-0.25 -0.59,0.52 0.9,0 0.81,0.26 0.59,-0.52l0.41 -0.47 0.58 -0.7zm2.69 -0.41c0.09,0.84 -0.14,0.66 0.69,0.54 0,-0.75 0.16,-0.5 -0.69,-0.54zm2.21 5.33l0.63 -0.56c-0.69,0.16 -0.41,-0.73 -0.63,0.56zm-0.28 1.45c-0.92,0.12 -0.75,-0.14 -0.57,0.75 0.77,0 0.49,0.16 0.57,-0.75zm-0.38 0.98c-0.88,0.09 -0.68,-0.14 -0.52,0.75 0.75,0 0.48,0.15 0.52,-0.75zm-1.24 3.49l-0.3 0.35 0.3 -0.35zm-0.51 0.62c-0.84,0.19 -0.67,-0.07 -0.56,0.76 0.77,0 0.49,0.16 0.56,-0.76zm-0.34 1.42c-0.6,-0.07 -0.45,-0.18 -0.35,0.43l0.35 -0.43zm-0.88 1.85c-0.76,0.04 -0.58,-0.14 -0.44,0.64 0.65,0 0.42,0.13 0.44,-0.64zm-0.87 1.9c-0.93,0.09 -0.73,-0.15 -0.54,0.79 0.78,0 0.5,0.16 0.54,-0.79zm-2.69 7.14c-0.09,0.87 -0.27,0.58 0.59,0.84 -0.12,-0.99 0.19,-0.84 -0.59,-0.84zm1.86 3.34c-0.85,-0.12 -0.62,-0.24 -0.38,0.63l0.38 -0.63zm-0.96 2.72c0.67,-0.45 0.33,0.61 0.57,-0.67 -0.67,-0.01 -0.46,-0.68 -0.57,0.67zm-31.69 16c0.9,-0.2 0.7,0.08 0.57,-0.86 -0.83,0 -0.51,-0.16 -0.57,0.86zm0.35 -1.4c0.59,0.04 0.43,0.16 0.36,-0.46l-0.36 0.46zm0.55 -0.72c0.83,-0.12 0.65,0.12 0.54,-0.7 -0.71,0 -0.45,-0.15 -0.54,0.7zm1.97 -4.21c0.7,-0.03 0.57,0.17 0.52,-0.48l-0.52 0.48zm0.55 -0.46c0.84,-0.16 0.69,0.1 0.58,-0.69 -0.73,0 -0.46,-0.15 -0.58,0.69zm8.85 -6.57l-0.73 0.36c-0.84,-0.23 -0.54,-0.31 -0.54,0.67 0.82,-0.2 0.71,0.07 0.54,-0.67 0.77,0.19 0.56,0.36 0.73,-0.36l0.44 -0.17c-0.05,-0.19 -0.91,0.15 0.36,-0.88 0.58,-0.47 0.7,-0.25 0.85,-0.23 -0.91,-0.11 -0.64,-0.31 -0.81,0.6l0.81 -0.6 0.48 -0.18c-0.09,-0.55 -0.54,0.18 0.19,-0.5 0.7,-0.65 -0.05,-0.96 0.22,0.08 0.95,-0.14 0.77,0.16 0.77,-0.67 -0.27,-0.44 -0.87,0.12 0.2,-0.32 1,-0.41 -0.16,-0.88 0.31,0.09 0.89,-0.13 0.73,0.15 0.73,-0.62 -0.11,-0.29 -1.12,0.16 0.23,-0.34 1.05,-0.39 -0.16,-0.95 0.32,0.12l1.69 -0.04c-0.14,-0.1 -0.29,-0.28 -0.38,-0.34l-0.93 -0.34c0.73,0.14 3.94,0.67 2.56,1.07 0,0.7 -0.15,0.46 0.66,0.5 0.07,-0.05 0.18,-0.13 0.2,-0.14l0.16 -0.05c0,0.73 -0.15,0.46 0.72,0.56 0.35,-0.48 -0.26,-0.56 0.85,0.02 1.15,0.6 0.75,-0.14 0.32,0.49l0.56 0.42c0.09,-0.05 0.23,-0.14 0.26,-0.15l0.29 -0.12c0,-0.04 -0.04,0.06 -0.07,0.07 0,0.77 -0.16,0.49 0.76,0.57 0.42,-0.62 -1.04,-0.99 0.95,-0.1 1.28,0.57 1.2,0.11 0.31,0.52 0,0.68 -0.14,0.44 0.66,0.47 0.72,-0.68 -0.04,-0.59 2.8,1.29 0.09,3.28 0.16,6.5 0.18,9.78 0.01,1.63 0.31,3.27 -1.14,3.66 -0.09,0.02 -5.71,0.65 -3.31,-0.13 0,-0.85 0.23,-0.67 -0.57,-0.67 -0.71,1.76 0.2,-0.42 -0.73,-1.87 -0.46,-0.02 -0.25,0.08 -0.78,0.2 -2.23,0.52 1.53,1.07 -0.44,0.07 -0.66,0 -0.45,-0.15 -0.48,0.58 0.56,0.75 0.16,-0.35 0.29,0.92 0.07,0.74 0.11,1.31 -0.16,0.11 -0.87,0 -0.66,-0.22 -0.66,0.62 0.84,0.54 1.46,0.27 -1.96,0.2 -9.9,-0.2 -9.22,1.14 -7.83,-4.15l-0.07 0.69 0.63 -0.61c-0.18,-0.35 -0.86,0.61 -0.09,-1.36 0.49,-1.24 0.01,-1.18 0.55,-0.27l0.39 -0.55c-0.48,-0.69 -0.63,0.84 -0.25,-0.9l0.13 0.48c0.71,0 0.48,0.16 0.52,-0.65l-0.19 -0.28c0.79,0 0.51,0.16 0.57,-0.77 -1.63,-0.96 0.06,0.87 -0.8,-1 -4.37,1.05 0.97,1.76 -1.49,0.72 -0.73,0 -0.47,-0.15 -0.57,0.7 0.25,0.22 0.27,0.23 0.28,0.23 0,0 -0.05,-0.03 -0.05,-0.06 0,-0.04 -0.06,-0.07 -0.09,-0.1 -0.81,0 -0.52,-0.17 -0.59,0.77 0.88,0.44 0.4,-0.33 0.01,0.86l-1.6 4.21c-0.65,0.36 -0.32,-0.57 -0.59,0.67 0.38,0.7 0.77,-0.75 0.28,1.32l-6.8 -0.05c1.34,0.23 2.21,0.24 3.59,0.26 2.47,0.02 2.64,-0 3.16,-0.78 -1.01,0.06 -2.68,0.19 -3.64,0.16 -0.56,-0.02 -1.11,-0.07 -1.61,-0.29 -1.04,-0.45 0.07,1.44 -0.68,-0.51 -0.08,-0.2 -0.26,-0.17 -0.32,-0.31 -0.69,1.14 -1.04,-1.51 -0.49,1.48 -0.06,-0.52 -0.19,-3.31 0.57,-1.85 0.63,0 0.42,0.14 0.46,-0.58l-0.2 -0.38c0.82,0 0.53,0.17 0.59,-0.8 -0.05,-0.03 -0.3,-0.18 -0.31,-0.19 -0,-0 0.05,0.08 0.05,0.05 -0,-0.05 0.07,0.06 0.1,0.09 0.82,0 0.53,0.17 0.6,-0.78 -0.12,-0.07 -0.23,-0.14 -0.24,-0.15l0.21 0.13c0.64,0 0.43,0.14 0.51,-0.56 -0.26,-0.36 -0.99,0.7 0.05,-1.03l0.82 -0.51 0.16 -0.49 0.54 -0.81c-1.05,0 -0.82,-0.24 -0.54,0.81 0.02,-0.14 0.21,-0.7 0.39,-0.99 0.76,-1.23 -0.21,-0.7 0.45,-0.36 0.78,0 0.5,0.17 0.64,-0.73 -0.84,-0.17 -0.45,0.03 0.18,-0.57 0.87,-0.84 0.06,-0.48 0.63,-0.29 0.66,0 0.5,0.13 0.25,-0.51 0.71,-0.07 0.53,0.1 0.36,-0.65 0.71,0.14 0.45,0.25 0.66,-0.52 -0.82,0.12 -0.71,-0.15 -0.66,0.52 -0.63,0.06 -0.43,-0.09 -0.36,0.65 -0.36,-0.94 -0.32,-0.35 1.36,-1.71 0.07,-0.06 0.17,-0.14 0.24,-0.2 0.07,-0.06 0.16,-0.14 0.23,-0.21 0.88,-0.8 1.4,-1.84 2.21,-1.81zm7.35 -7.01c2.15,-4.03 3.36,-1.13 10.46,1.2l-1.26 3.34c-2.41,-0.77 -7.58,-2.84 -9.2,-4.53zm6.21 -3.82c0.56,-2.72 5.03,-12.04 6.46,-15.64 0.8,-2.02 0.97,-4.04 3.08,-3.65 1.22,1.77 -2.31,8.11 -3.22,10.34 -1.17,2.84 -2.83,7.65 -4.14,10.08l-2.18 -1.12z"/>
   <path class="fil1" d="M-0 39.48l0 0.14 2.55 1.86 16.8 -16.34c1.38,-1.47 14.68,-16.3 16.73,-16.11 1.13,0.1 14.56,14 16.73,16.11 2.76,2.68 14.27,15.21 16.3,16.23 1.66,-2.41 2.22,-1.55 -1.38,-5.26 -5.98,-6.16 -30.12,-31.78 -32.11,-32.79l-8.7 9.44c-3.35,3.43 -25.04,25.45 -26.92,26.73z"/>
   <path class="fil1" d="M66.51 66.27c0,0.77 0.16,0.49 -0.73,0.62 0.2,0.82 0.12,0.24 -0.5,0.23 0,0.83 0.18,0.53 -0.77,0.67 0.27,0.54 0.19,0.21 -0.41,0.42l-0.48 0.18 -0.81 0.6c0.2,0.85 0.14,0.23 -0.41,0.51l-0.44 0.17c-0.17,0.72 0.04,0.55 -0.73,0.36 0.17,0.73 0.28,0.46 -0.54,0.67 -0.19,0.86 -0.86,1.54 -1.75,1.73 -0.21,0.77 0.05,0.66 -0.66,0.52 0.17,0.75 0.35,0.57 -0.36,0.65 0.25,0.64 0.41,0.51 -0.25,0.51 -0.47,0.94 0.02,0.62 -0.81,0.86 -0.14,0.9 0.14,0.73 -0.64,0.73 -0.03,0.68 0.63,0.56 -0.29,0.54l-0.54 0.81 -0.16 0.49 -0.88 1.54c-0.08,0.7 0.13,0.56 -0.51,0.56l0.03 0.01c-0.06,0.96 0.22,0.78 -0.6,0.78l0.16 0.05c-0.06,0.97 0.23,0.8 -0.59,0.8l0.2 0.38c-0.03,0.71 0.17,0.58 -0.46,0.58l-0.08 0.37c0.06,0.14 0.25,0.11 0.32,0.31 0.76,1.94 -0.36,0.06 0.68,0.51 0.5,0.22 1.05,0.27 1.61,0.29 0.97,0.04 2.63,-0.1 3.64,-0.16l-0.23 -0.74c0.27,-1.23 -0.07,-0.31 0.59,-0.67 -0.12,-1.52 0.74,-4.02 1.59,-5.07 0.06,-0.94 -0.22,-0.77 0.59,-0.77l-0.14 -0.08c0.1,-0.86 -0.16,-0.7 0.57,-0.7 0.28,-1.03 -0.42,-1.18 1.79,-1.27 0.63,0.77 0.6,-0.19 0.5,1.55 -0.06,0.93 0.22,0.77 -0.57,0.77l0.19 0.28c-0.04,0.81 0.19,0.65 -0.52,0.65l0.12 0.42 -0.39 0.55 -0.46 1.63 -0.63 0.61 -0.22 3.05c2.93,-0.22 7.46,-0.54 10.09,0.21 0,-0.85 -0.2,-0.62 0.66,-0.62l-0.13 -1.03c0.03,-0.72 -0.18,-0.58 0.48,-0.58 0.22,-0.52 0.23,-1.64 1.76,-0.6 0.77,0.52 0.77,1.32 0.18,2.2 0.8,0 0.57,-0.18 0.57,0.67l3.73 -0.29 0.07 -12.59c-0.59,-1.11 -1.19,-1.09 -2.33,-1.71 -0.8,-0.02 -0.66,0.21 -0.66,-0.47l-1.25 -0.42c-0.92,-0.07 -0.76,0.21 -0.76,-0.57l-0.48 0.21 -0.56 -0.42c-1.51,-0.24 -0.49,0.27 -1.18,-0.51 -0.87,-0.09 -0.72,0.17 -0.72,-0.56l-0.35 0.19c-0.8,-0.04 -0.66,0.2 -0.66,-0.5l-1.25 -0.4 -1.69 0.04c0.16,0.82 0.11,0.22 -0.55,0.22z"/>
   <path class="fil2" d="M0.45 43.65l1.11 1.12c1.57,-0 1.98,-0.25 2.87,-1.06l1.51 -1.8c0.8,-0.74 0.31,-0.92 1.05,-0.12 -0.82,3.02 -0.78,34.72 0.25,36.14 0.86,0.2 0.67,-0.07 0.61,0.78 0.12,0.82 -0.16,0.56 0.68,0.77 0.73,-0.02 0.49,-0.18 0.67,0.58 1.46,0.88 22.67,0.43 27.3,0.43 1.56,-0 3.11,-0.01 4.67,0 1.11,0.01 3.65,0.26 4.29,-0.37l0.22 -0.63c0.02,-0.08 0.07,-0.24 0.08,-0.34 0.46,-2.84 0.06,-28.72 -0,-29.22 -1.06,0 -0.84,0.24 -0.56,-0.81l-0.14 -0.54c-2.44,-0.79 -8.51,-0.34 -11.54,-0.35 -5.27,-0.01 -7.86,-1.12 -7.83,4.66 0.03,7 -0.63,18.22 0.19,24.68l-16.07 -0.11c-0.59,0.03 -0.46,0.18 -0.44,-0.39l-0.03 -37.1c-0.88,1.28 -0.57,3.31 -0.57,4.87 -0.02,6.38 -0.38,29.93 0.33,32.69 2.05,1.15 13.92,1.05 16.88,0.46 1.08,-4.76 -0.73,-25.03 0.53,-28.06 1.24,-1.79 10.22,-1.03 14.22,-1.1 6.36,-0.12 4.71,-0.6 4.65,15.96 -0.04,12.07 1.57,15.06 -2.14,15.18l-26.7 -0.04c-2.57,-0.03 -6.96,0.75 -8.48,-1.18 -2.34,-2.96 -0.17,-31.05 -1.14,-37.42 -0.89,-0.07 -0.15,-0.2 -0.97,0.22 -1.76,0.9 -1.89,3.06 -4.06,2.62 -1.85,-0.37 -0.35,-1.26 -1.46,-0.5z"/>
   <path class="fil2" d="M87.88 42.93l-0.22 -0.81c0.22,-1.29 -0.06,-0.4 0.63,-0.56 -0.06,-2.51 -0.29,-3.91 -2.15,-4.23 -0.83,0.12 -0.6,0.3 -0.69,-0.54 -0.48,-0.15 -0.73,-0.26 -1.34,-0.21 -1.14,0.1 -0.96,0.08 -1.34,0.62l-0.58 0.7 -0.41 0.47c0.22,0.79 0.31,0.52 -0.59,0.52l-0.66 1.11c0.1,0.58 0.23,0.47 -0.33,0.38l0.22 0.66c0.16,0.95 0.36,0.69 -0.58,0.82l-0.48 1.19c0.12,0.71 0.29,0.56 -0.42,0.53l0.21 0.48c0.16,0.88 0.33,0.62 -0.57,0.77 -0.84,1.05 -0.73,0.82 -0.81,2.09 0.14,0.84 0.33,0.63 -0.5,0.7 -0.65,1.18 -0.69,0.85 -0.77,2.24 0.09,0.8 0.26,0.56 -0.51,0.73l-0.99 2.15c0.13,0.66 0.3,0.59 -0.32,0.42l0.22 0.6c0.16,0.94 0.35,0.67 -0.58,0.82l-0.63 1.09c0.15,0.65 0.32,0.6 -0.3,0.37l0.2 0.64c0.11,0.88 0.3,0.61 -0.57,0.8l0.05 0.17c-1.24,-0.14 -2.14,-0.43 -3.03,0.34 -0.19,0.86 0.08,0.69 -0.74,0.62 -0.76,0.21 -0.24,-0.3 -0.81,0.35 -0.64,0.72 -0.09,-0.11 -0.36,0.81 0.04,0.78 0.21,0.52 -0.59,0.74l0.16 0.11c0.09,0.8 0.25,0.53 -0.58,0.73l-0.5 1.15c0.07,0.7 0.23,0.5 -0.47,0.58 -0.35,0.45 -0.29,0.2 -0.36,0.89 0,0.96 0.27,0.87 -0.57,0.6l-0.65 0.36c-0.6,0.03 -0.67,-0.56 -0.48,0.26 -0.17,0.88 0.11,0.72 -0.73,0.62 -0.67,0.03 -0.6,-0.64 -0.55,0.28 -0.99,0.99 0.95,0.43 -1.27,0.75 -0.56,0.28 -0.56,-0.3 -0.42,0.52 -0.97,1.28 0.13,0.69 -1.71,1.16l-2.91 3.03c-0.62,1.72 0.05,0.7 -1.26,1.68 -0.81,-0.21 -0.25,-0.15 -0.57,0.39 -0.3,1.81 -0.03,0.46 -0.72,1.31 -0.84,-0.11 -0.24,-0.13 -0.24,0.58 0.11,0.79 0.26,0.53 -0.58,0.69l-0.03 -0.02c0.06,0.65 0.18,0.45 -0.52,0.48 -0.85,1.33 -1.34,1.97 -1.43,3.51 0.1,0.82 0.28,0.58 -0.54,0.7l-0.2 0.26c0.07,0.62 0.23,0.5 -0.36,0.46l0.22 0.54c0.13,0.94 0.34,0.66 -0.57,0.86 -3.43,4.81 5.66,3.41 13.13,3.41 21.2,0 19.1,2.44 19.03,-9.35 -0.02,-3.19 0.51,-7.21 -0.47,-10.06 0.1,-1.35 -0.11,-0.68 0.57,-0.67l0.02 -1.42c-0.24,-0.87 -0.47,-0.75 0.38,-0.63 -0.08,-1.59 -0.24,-2.1 -1.27,-2.5 -0.85,-0.26 -0.67,0.03 -0.59,-0.84 0.68,-1.82 2.14,-4.72 2.15,-6.36 -0.19,-0.94 -0.39,-0.69 0.54,-0.79l0.42 -1.26c-0.13,-0.78 -0.31,-0.6 0.44,-0.64l0.53 -1.42c-0.1,-0.61 -0.25,-0.49 0.35,-0.43l-0.22 -0.66c-0.11,-0.83 -0.28,-0.57 0.56,-0.76l0.21 -0.26 0.3 -0.35c0.28,-1 0.68,-1.7 0.72,-2.75 -0.16,-0.89 -0.35,-0.66 0.52,-0.75l-0.19 -0.23c-0.18,-0.89 -0.36,-0.63 0.57,-0.75l0.19 -0.21c-0.71,-0.48 0.09,-0.63 -0.63,0.12l-3.42 8.45c-0.8,1.76 -3.72,7.86 -2.91,9.52 0.75,1.55 1.47,-0.65 0.72,4.77 -0.35,2.56 0.03,12.64 -0.1,16.43 -0.08,2.2 -0.12,2.59 -1.4,3.06 -1.85,0.68 0.21,0.01 -0.65,0.18l-28.98 -0.13c-1.84,-1.21 2.35,-8.01 3.13,-9.19 1.55,-2.33 3.42,-5.27 5.65,-7.11 1.8,-1.48 6.39,-4.49 7.35,-5.8 0.73,-0.99 1.45,-3.1 2.28,-4.09 1.46,-1.74 2.85,-1.1 4.44,-1.88 0.54,-0.37 0.16,-0.01 0.6,-0.67l2.32 -5.4c5.07,-11.4 4.75,-15.58 10.94,-13.88 1.25,2.71 0.56,1.75 0.76,4.19l0.2 1.01z"/>
   <path class="fil1" d="M75.53 58.84l2.18 1.12c1.31,-2.42 2.98,-7.23 4.14,-10.08 0.91,-2.23 4.44,-8.57 3.22,-10.34 -2.12,-0.39 -2.29,1.63 -3.08,3.65 -1.43,3.6 -5.9,12.92 -6.46,15.64z"/>
   <path class="fil1" d="M10.66 24.46c0.59,-0.42 3.68,-3.41 4.29,-4.14 1.17,-1.39 0.72,-5.09 0.65,-8.06l-4.92 0.02 -0.03 12.17z"/>
   <path class="fil1" d="M69.32 62.66c1.62,1.7 6.79,3.77 9.2,4.53l1.26 -3.34c-7.1,-2.33 -8.31,-5.23 -10.46,-1.2z"/>
   <path class="fil2" d="M28.34 77.52l-0.11 -26.51c0.62,-0.46 -0.8,-0.04 1.06,-0.57l13.88 0.32c0.07,-0.11 0.25,0.12 0.33,0.22l-0.09 26.54c-0.01,0.01 -0.96,1.74 -0.96,-0.02l-13.44 0.01c-0.23,0.31 -0.04,0.62 -0.46,0.71l14.81 -0.16c0.8,-1.71 0.78,-24.96 0.22,-27.62l-15.43 0.14c-0.55,3.55 -0.19,10.28 -0.2,14.19 -0.01,2.41 0.01,4.81 -0.01,7.21 -0.01,1.14 -0.02,2.3 0.01,3.43 0.06,2.78 -0.12,3.09 0.39,2.09z"/>
   <path class="fil2" d="M61.75 75.54c2.46,1.05 -2.89,0.33 1.49,-0.72 0.86,1.87 -0.84,0.04 0.8,1 0.1,-1.74 0.13,-0.78 -0.5,-1.55 -2.21,0.09 -1.51,0.24 -1.79,1.27zm1.91 1.33l-0.19 -0.28 0.19 0.28zm-0.4 1.07l-0.12 -0.42 -0.13 -0.48c-0.38,1.74 -0.23,0.2 0.25,0.9zm-0.86 2.18l0.46 -1.63c-0.54,-0.91 -0.07,-0.96 -0.55,0.27 -0.77,1.97 -0.09,1.01 0.09,1.36zm9.23 3.87c-2.63,-0.75 -7.16,-0.43 -10.09,-0.21l0.22 -3.05 0.07 -0.69c-1.39,5.29 -2.07,3.95 7.83,4.15 3.43,0.07 2.81,0.34 1.96,-0.2zm0.53 -1.65l0.13 1.03c0.27,1.2 0.23,0.63 0.16,-0.11 -0.13,-1.26 0.27,-0.16 -0.29,-0.92zm2.42 1.02c0.6,-0.88 0.59,-1.68 -0.18,-2.2 -1.53,-1.04 -1.54,0.08 -1.76,0.6 1.96,1 -1.8,0.45 0.44,-0.07 0.53,-0.12 0.31,-0.22 0.78,-0.2 0.92,1.45 0.02,3.63 0.73,1.87zm2.03 -13.92c1.14,0.62 1.74,0.6 2.33,1.71l-0.07 12.59 -3.73 0.29c-2.41,0.78 3.21,0.15 3.31,0.13 1.45,-0.38 1.15,-2.02 1.14,-3.66 -0.02,-3.28 -0.09,-6.5 -0.18,-9.78 -2.83,-1.88 -2.08,-1.97 -2.8,-1.29zm-1.92 -0.89l1.25 0.42c0.89,-0.41 0.97,0.06 -0.31,-0.52 -1.99,-0.89 -0.52,-0.53 -0.95,0.1zm-1.24 -0.36l0.48 -0.21c0.03,-0.01 0.08,-0.1 0.07,-0.07l-0.29 0.12c-0.03,0.02 -0.17,0.1 -0.26,0.15zm-1.74 -0.93c0.69,0.77 -0.33,0.27 1.18,0.51 0.43,-0.63 0.83,0.11 -0.32,-0.49 -1.11,-0.58 -0.5,-0.49 -0.85,-0.02zm-1.07 -0.37l0.35 -0.19 -0.16 0.05c-0.02,0.01 -0.13,0.1 -0.2,0.14zm-1.9 -0.89l1.25 0.4c1.38,-0.41 -1.82,-0.93 -2.56,-1.07l0.93 0.34c0.1,0.06 0.25,0.24 0.38,0.34zm-2.24 0.26c0.66,-0 0.7,0.59 0.55,-0.22 -0.48,-1.07 0.73,-0.51 -0.32,-0.12 -1.35,0.5 -0.34,0.06 -0.23,0.34zm-1.23 0.85c0.62,0.01 0.7,0.59 0.5,-0.23 -0.46,-0.98 0.69,-0.51 -0.31,-0.09 -1.06,0.44 -0.47,-0.12 -0.2,0.32zm-1.19 1.09c0.61,-0.21 0.69,0.12 0.41,-0.42 -0.28,-1.04 0.48,-0.73 -0.22,-0.08 -0.73,0.68 -0.28,-0.04 -0.19,0.5zm-1.69 1.29c0.54,-0.29 0.61,0.34 0.41,-0.51 0.16,-0.91 -0.11,-0.71 0.81,-0.6 -0.15,-0.02 -0.28,-0.24 -0.85,0.23 -1.27,1.04 -0.41,0.7 -0.36,0.88zm-4.48 4.09c-0.08,-0.74 -0.28,-0.58 0.36,-0.65 -0.05,-0.67 -0.16,-0.4 0.66,-0.52 0.89,-0.19 1.56,-0.87 1.75,-1.73 0,-0.98 -0.3,-0.9 0.54,-0.67l0.73 -0.36c-0.81,-0.03 -1.33,1.01 -2.21,1.81 -0.07,0.06 -0.16,0.15 -0.23,0.21 -0.07,0.06 -0.17,0.14 -0.24,0.2 -1.68,1.36 -1.72,0.77 -1.36,1.71zm-1.06 1.38c0.82,-0.25 0.34,0.08 0.81,-0.86 -0.57,-0.19 0.24,-0.55 -0.63,0.29 -0.63,0.6 -1.02,0.4 -0.18,0.57zm-1.48 2.09c-0.28,-1.05 -0.51,-0.81 0.54,-0.81 0.92,0.02 0.26,0.13 0.29,-0.54 -0.65,-0.33 0.31,-0.87 -0.45,0.36 -0.18,0.29 -0.37,0.85 -0.39,0.99zm-1.04 2.03l0.88 -1.54 -0.82 0.51c-1.04,1.72 -0.31,0.67 -0.05,1.03zm-0.47 0.57l-0.03 -0.01 -0.21 -0.13c0.01,0.01 0.12,0.07 0.24,0.15zm-0.43 0.83l-0.16 -0.05c-0.03,-0.03 -0.1,-0.14 -0.1,-0.09 0,0.03 -0.05,-0.05 -0.05,-0.05 0.01,0.01 0.27,0.16 0.31,0.19zm-0.39 1.17l-0.2 -0.38 0.2 0.38zm-0.54 0.95l0.08 -0.37c-0.75,-1.46 -0.63,1.34 -0.57,1.85 -0.55,-2.99 -0.2,-0.34 0.49,-1.48zm6.04 0.22l0.23 0.74c-0.52,0.78 -0.69,0.8 -3.16,0.78 -1.38,-0.01 -2.24,-0.03 -3.59,-0.26l6.8 0.05c0.49,-2.07 0.1,-0.61 -0.28,-1.32zm2.18 -5.74c-0.85,1.05 -1.71,3.55 -1.59,5.07l1.6 -4.21c0.39,-1.19 0.87,-0.42 -0.01,-0.86zm0.45 -0.85l0.14 0.08c0.03,0.03 0.09,0.06 0.09,0.1 -0,0.02 0.05,0.06 0.05,0.06 -0.01,-0.01 -0.02,-0.01 -0.28,-0.23z"/>
  </g>
 </g>
</svg>
