<?xml version="1.0" encoding="UTF-8"?>
<!DOCTYPE svg PUBLIC "-//W3C//DTD SVG 1.1//EN" "http://www.w3.org/Graphics/SVG/1.1/DTD/svg11.dtd">
<!-- Creator: CorelDRAW -->
<svg xmlns="http://www.w3.org/2000/svg" xml:space="preserve" width="0.738878in" height="0.677913in" version="1.1" style="shape-rendering:geometricPrecision; text-rendering:geometricPrecision; image-rendering:optimizeQuality; fill-rule:evenodd; clip-rule:evenodd"
viewBox="0 0 162.89 149.45"
 xmlns:xlink="http://www.w3.org/1999/xlink"
 xmlns:xodm="http://www.corel.com/coreldraw/odm/2003">
 <defs>
  <style type="text/css">
   <![CDATA[
    .fil2 {fill:#040504}
    .fil1 {fill:#232424}
    .fil4 {fill:#6B6C6C}
    .fil3 {fill:#979797}
    .fil0 {fill:#FEFEFE}
   ]]>
  </style>
 </defs>
 <g id="Layer_x0020_1">
  <metadata id="CorelCorpID_0Corel-Layer"/>
  <g id="_1936591853920">
   <path class="fil0" d="M20.42 128.64l-0.75 -0.69c-1.36,-1.31 -1.17,-1.08 -1.23,-3.68l0.18 -12.29c0.56,-2.29 1.52,-2.06 1.52,-2.06l2.48 -0.47c14.97,-0.87 12.43,1.05 12.4,8.89 -0.01,3.2 0.22,7.01 -0.31,9.71 -3.71,1.14 -9.69,0.61 -14.28,0.59zm-0.77 -47.86c4.31,-0.3 10.81,-0.94 14.3,0.54 2.06,2.9 1.73,14.15 0.46,17.9 -3.58,1.24 -9.21,0.74 -13.22,0.51l-1.44 -0.84c-2.33,-1.28 -1.71,-16.11 -0.1,-18.1zm15.26 -12.4c-0.06,1.44 0.35,1.14 -0.88,1.24 0.44,1.18 0.69,0.9 -0.53,0.97 -12,1.09 -14.82,1.14 -14.99,-4.39l0.11 -12.28c0.39,-1.41 1.25,-2.01 2.1,-2.2 1.58,-0.36 12.6,-1.33 13.91,1.68 0.46,1.06 0.28,0.6 0.41,1.74l-0.14 13.23zm-25.77 75.38l34.71 -0.05 0.01 -103.99 -34.75 0.05 0.04 103.99z"/>
   <path class="fil1" d="M64.36 108.7l-0.58 0.46c1.15,2.27 1.3,32.89 -0.04,34.74 -1.73,1.1 -13.47,1.19 -15.22,-0.01 -0.51,-0.69 -0.22,0.17 -0.6,-1.48l-0.18 -6.43c0.21,-19.45 -0.75,-127.04 0.43,-131.81 2.6,-0.98 67.85,-1.11 71.84,-0.09 0.96,5.08 0.09,44.03 0.26,55.5 0.12,8.03 1.53,5.9 -0.49,5.85 0.16,1.54 -0.29,1.33 1.12,0.98 -0.34,1.38 -0.55,0.94 0.97,1.08 0,-1.63 0.47,-1.45 -0.97,-1.08l1.49 -0.64c0.06,-0.23 0.32,-0.23 0.48,-0.34l0.06 -64.24c-0.46,1.49 -0.65,1.03 1,1.03 -0.18,-1.45 0.27,-1.25 -1,-1.03 0.44,-1.47 0.68,-1.03 -0.9,-1.2 -0.98,1.64 0.82,0.32 -1.72,0.63l-74.96 0.05c-1.41,9.35 1.15,27.32 -1.09,35.11l-38.7 0.26 -0.34 108.1c1.46,-6.02 0.46,-94.73 0.15,-107.87 -1.95,1.98 -0.98,9.58 -0.98,12.26l0.01 40.42c0.02,17.79 -0.35,35.89 0.03,53.64 -0.16,0.14 -0.44,0.1 -0.53,0.37 -0.48,1.47 -0.13,0.13 -1,0.66 -4.3,2.63 1.18,-1.09 -1.31,0.74l3.63 -0.23c-5.58,1.48 -3.69,-1.69 -4.21,3.56 23.65,-0.96 58.93,0.34 85.69,-0.03 3.52,-0.05 3.65,-1.03 3.58,0.71 1.71,-0.14 1.2,0.32 1.53,-1.38 -1.02,-0.72 -0.86,0.35 -0.48,-2.5 -1.24,0.03 -1.9,0.11 -3.12,-0.06 -1.35,-0.18 -1.17,-0.3 -1.57,-0.55 -1.6,-2.03 -0.93,-9.31 -0.91,-12.33l-0.25 -10.27c-0.93,-2.35 0.61,-0.87 -1.8,-1.95 -1.86,2.66 -0.77,18.76 -1.15,24.92 0.81,-4.12 0.98,-20.28 0.03,-24.1 -1.75,1.99 -0.8,20.94 -0.73,23.62l-13.96 -0.06c2.06,1.42 4.3,1.11 6.98,1.09 3.11,-0.02 4.67,0.15 7.68,-0.23l-14.77 -0.13 -0.63 -29.09c0.46,-5.3 2.04,-3.51 13.61,-3.53 9.36,-0.02 11.25,1.26 11.91,-2.8 -4.51,-1.41 -21.23,-0.01 -27.47,-0.22l-0.8 -0.12zm-55.25 -68.94l34.75 -0.05 -0.01 103.99 -34.71 0.05 -0.04 -103.99z"/>
   <path class="fil0" d="M117.54 95.6c-0.55,0.89 0.64,0.85 -0.95,0.7 -0.25,1.37 0.19,1.13 -0.97,1.13 -0.01,1.33 1.06,1.27 -0.44,1.07 -0.24,1.45 0.22,1.19 -1.03,1.19 0.01,1.44 0.97,1.03 -0.33,1.16 -0.14,1.53 0.31,1.24 -1.03,1.24l-1.84 4.74 -0.75 0.63 -0.04 0.57 -0.77 0.84 0.01 0.44c-0.09,1.23 0.27,0.99 -0.84,0.99l0.09 0.41c-0.08,1.37 0.32,1.11 -0.87,1.11l0.2 0.87 -0.63 0.79 -0.94 2.37c-0.05,1.4 0.37,1.16 -0.8,1.16 -0.67,5.14 -3.47,9.33 -3.6,16.03 -0.05,2.58 0.46,7.2 1.27,9.04 1.52,3.46 3.31,2.22 7.51,2.6l-0.49 -4.05c-1.13,-0.75 -0.7,1.14 -0.96,-1.3 0.02,-4.93 -0.9,-6.31 4.06,-5.72l1.76 10.42c1.13,0.16 3.47,0.55 4.57,0.35 2.07,-0.37 2.84,1.35 2.08,-1.56 -0.89,-3.85 -1.72,-14.77 -0.15,-18.86 1.33,-3.49 4.09,-2.62 4.47,0.43l-0.82 14.46 0.99 1.25 -0.23 1.61c1.41,0 0.82,-0.26 0.91,1.62l-0.31 0.37 0.51 0.88 10.41 -0.5c-1.44,-1.01 -0.69,-0.05 -0.66,-1.61 -1.42,0 -0.93,0.3 -1.03,-1.33 -1.56,-1.83 -2.06,-3.48 -2,-5.92l-1 -1.53c0.59,-2.84 1.35,-2.91 4.01,-2.38l0.07 2.61c1.31,0 0.81,-0.26 0.95,1.33 1.58,0.83 0.51,-0.16 0.48,1.79 1.18,0 0.74,-0.24 0.94,1.15l-0.2 0.18c1.35,0 0.87,-0.28 1.04,1.29l0.17 -0.1 0.77 0.58c0.71,1.18 0.36,0.21 0.23,1.83 1.43,0 0.9,-0.3 1.17,1.36l-0.08 0.07c0.98,0.29 0.91,-1.34 0.74,0.7l8.08 0.03 1.31 -0.03c0.03,-1.28 0.55,-0.35 -0.52,-2.23l-0.21 0.21c-0.63,-0.76 -0.66,-0.88 -1.28,-2.42 -1.98,-1.02 -1,-0.8 -1.14,-2.4 -1.34,0 -0.86,0.28 -1.02,-1.27l0.26 -0.09c-1.43,0 -0.92,0.3 -1.03,-1.38 -1.43,-1.6 -1.28,-1.55 -1.36,-3.56 -1.29,0 -0.81,0.25 -0.86,-1.34l-0.21 -0.63 -0.57 -0.88c-2.17,-9.47 -2.46,-12.89 -1.86,-23.41l-2.65 -1.08c-1.66,-0.07 -1.38,0.43 -1.38,-0.96 -2.72,0.03 -2.02,-0.32 -4.53,-1.17l-0.88 -0.66 -2.55 -0.86c-1.2,-0.04 -0.95,0.3 -0.95,-0.79l-7.56 -2.89c-1.43,-0.07 -1.17,0.35 -1.17,-0.88l-2.86 -0.65 -0.72 0.85z"/>
   <path class="fil1" d="M110.8 144.67l-1.6 0.62c-14.75,2.87 -6.03,-26.84 0.5,-38.42 0.79,-1.39 1.54,-2.58 2.4,-4.14 4.18,-7.56 4.39,-10.09 11.48,-6.65 4.52,2.19 16.35,6.13 19.89,9.03 0.36,8.75 -0.74,13.32 1.94,21.92 1.36,4.36 4.4,12.47 8.01,15.26l-1.37 -0.44c1.07,1.88 0.55,0.95 0.52,2.23 0.58,1.93 0.03,1.89 0.16,0.83l-9.27 0.32 -1.02 -1.86 -2.07 -2.38c-0.53,-0.75 -1.07,-1.46 -1.73,-2.65 -1.16,-2.08 -1.81,-4.13 -2.29,-6.5 -2.56,0.97 -2.19,-1.04 -2.44,2.29 -0.16,2.11 3.75,7.55 3.81,10.93l-9.98 0.24c-5.8,-7.66 -1.92,-17.76 -2.35,-20.53 -0.63,-4.05 0.5,-1.48 -2.37,-2.34 -3.27,10.88 0.3,18.92 -0.13,22.65l-7.36 0.19c-1.4,-2.05 -1.62,-3.45 -1.94,-5.37 -1.3,-7.82 0.36,-4.89 -3.5,-5.82 0.1,2.49 0.2,4.19 0.5,5.72l0.58 3.47c-0.1,1.55 -0.05,0.83 -0.4,1.37zm11.02 -1.86c0.76,2.92 -0.01,1.19 -2.08,1.56 -1.1,0.2 -3.44,-0.19 -4.57,-0.35 1.95,2.4 4.61,1.69 7.74,1.08 -0.02,-4 -0.06,-1.45 -1.09,-2.29zm3.5 -3.97c0.29,2.27 -0.06,1.03 0.99,1.25l-0.99 -1.25zm0.76 2.86c-0.3,1.78 -0.72,1.32 0.91,1.62 -0.09,-1.88 0.5,-1.62 -0.91,-1.62zm1.1 2.86l-0.51 -0.88c-0.47,1.34 -0.84,1.21 0.51,0.88 2.04,1.22 6.61,1.41 8.6,0.64l1.23 -0.71c0.17,-0.1 0.43,-0.25 0.58,-0.43l-10.41 0.5zm9.75 -2.11c0.05,-1.38 0.36,-0.91 -1.03,-1.33 0.1,1.63 -0.38,1.33 1.03,1.33zm-3.03 -7.25c-0.08,-2.73 0.14,-0.98 -1,-1.53l1 1.53zm3.09 -1.29c-0.3,1.54 -0.61,1.1 0.95,1.33 -0.14,-1.6 0.35,-1.33 -0.95,-1.33zm1.43 3.13c-0.28,1.38 -0.53,0.94 0.94,1.15 -0.21,-1.39 0.23,-1.15 -0.94,-1.15zm0.74 1.33c-0.13,1.4 -0.42,0.93 1.04,1.29 -0.17,-1.57 0.31,-1.29 -1.04,-1.29zm1.21 1.19l0.77 0.58 -0.77 -0.58zm1 2.41c-0.04,1.44 -0.35,0.92 1.17,1.36 -0.26,-1.66 0.26,-1.36 -1.17,-1.36zm9.9 2.16l-8.08 -0.03c1.74,1.49 3.41,1.79 5.92,1.03 3.03,-0.92 1.12,-0.41 2.15,-1zm-0.7 -4.46c0.62,1.54 0.65,1.65 1.28,2.42 -0.47,-4.17 0.39,-0.49 -1.28,-2.42zm-1.14 -2.4c0.22,-1.46 0.5,-1 -1.02,-1.27 0.15,1.55 -0.32,1.27 1.02,1.27zm-0.75 -1.37c0.23,-1.55 0.54,-1.07 -1.03,-1.38 0.1,1.67 -0.4,1.38 1.03,1.38zm-2.39 -4.94c0.3,-1.58 0.66,-1.19 -0.86,-1.34 0.06,1.59 -0.43,1.34 0.86,1.34zm-1.08 -1.97c0.3,-1.25 0.63,-1.07 -0.57,-0.88l0.57 0.88zm-5.07 -25.37c-0.27,-1.52 0.17,-1.18 -1.38,-0.96 0,1.38 -0.28,0.88 1.38,0.96zm-5.91 -2.13c0.01,-1.11 0.26,-0.84 -0.88,-0.66l0.88 0.66zm-3.43 -1.52c0.02,-1.32 0.34,-1.06 -0.95,-0.79 0,1.09 -0.24,0.75 0.95,0.79zm-8.51 -3.68c-0.2,-1.32 0.17,-1.01 -1.17,-0.88 0,1.23 -0.26,0.81 1.17,0.88zm-4.03 -1.53l-0.72 0.85 0.72 -0.85zm-1.67 1.55c-1.45,0.24 -1.22,-0.21 -0.97,1.13 1.17,0 0.72,0.24 0.97,-1.13zm-1.42 2.2c-1.42,0.33 -1.16,-0.13 -1.03,1.19 1.25,0 0.79,0.26 1.03,-1.19zm-1.36 2.35c-1.41,0.3 -1.11,-0.14 -1.03,1.24 1.34,0 0.88,0.29 1.03,-1.24zm-2.87 5.98l-0.75 0.63 0.75 -0.63zm-0.78 1.2c-1.19,-0.06 -0.94,-0.34 -0.77,0.84l0.77 -0.84zm-0.76 1.28c-1.23,0.09 -0.96,-0.24 -0.84,0.99 1.11,0 0.75,0.25 0.84,-0.99zm-0.75 1.4c-1.28,0.22 -1,-0.16 -0.87,1.11 1.19,0 0.79,0.25 0.87,-1.11zm-0.66 1.98c-1.05,-0.1 -0.78,-0.31 -0.63,0.79l0.63 -0.79zm-1.56 3.16c-1.43,0.03 -1.09,-0.3 -0.8,1.16 1.17,0 0.75,0.24 0.8,-1.16zm3.89 24.77c-0.18,-2.71 0.16,-1.2 -0.96,-1.3 0.26,2.45 -0.17,0.55 0.96,1.3zm43.12 -4.6c-0.12,-0.13 -0.29,-0.52 -0.34,-0.41 -0.16,0.4 -3.94,-5.8 -4.99,-9.55 -5.82,-20.77 4.07,-26.27 0.62,-34.57 -1.24,-2.98 -1.57,-1.81 -3.91,-3.79l4.71 -18.66 1 -1.37c-1.09,-1.86 0.06,-4.54 0.8,-8.1 0.53,-2.54 4.38,-14.85 -5.11,-13.97 -3.27,0.3 -4.15,2.4 -5.69,5.43l-13.89 29.64c-15.2,1.05 -6.16,0.59 -14.58,16.16l-1.95 2.45 -5.19 10.33c-6.11,12.98 -10.19,25.37 -3.47,37.8 7.69,1.62 21.78,0.5 30.7,0.61 4.05,0.05 26.55,1.7 29.9,-1.87 -0.51,-3.48 -7.03,-6.73 -8.63,-10.12zm9.46 9.51l-0.96 -1.39c-0.53,-1.29 0.61,-0.08 -0.75,-1.2 -0.77,-0.63 -0.53,-0.36 -1.82,-1.09 1.03,1.11 0.46,0.58 1.47,1.45 0.09,0.08 0.83,0.61 1.1,0.83 -0.48,1.81 -0.86,1.39 0.96,1.39zm-62.71 -0.12c0.16,-1.47 0.46,-0.99 -1.04,-1.35 0.11,1.64 -0.38,1.35 1.04,1.35zm1.18 -29.28c1.61,-0.27 1.24,0.19 0.97,-1.47 -1.43,0 -0.89,-0.28 -0.97,1.47zm2.19 -5.14c1.48,-0.39 1.15,0.09 1.02,-1.42 -1.45,0 -0.93,-0.3 -1.02,1.42zm0.68 -1.94c1.26,-0.2 1.01,0.18 0.9,-1.04 -1.19,0 -0.82,-0.27 -0.9,1.04zm0.71 -1.69l0.75 -0.85 -0.75 0.85zm0.76 -1.28c1.19,-0.08 0.91,0.23 0.83,-0.97 -1.1,0 -0.75,-0.25 -0.83,0.97zm0.81 -0.97c1.42,-0.4 1.12,0.07 1.03,-1.33 -1.4,0 -0.91,-0.29 -1.03,1.33zm2.17 -3.67c1.42,-0.43 1.13,0.06 1.06,-1.32 -1.4,0 -0.91,-0.3 -1.06,1.32zm2.21 -3.67c1.53,-0.36 1.23,0.13 1.05,-1.37 -1.42,0 -0.91,-0.3 -1.05,1.37zm2.92 -6.4c1.35,-0.07 0.99,0.24 0.72,-1.19l-0.72 1.19zm1.51 -5.49c1.47,-0.29 1.11,0.14 0.9,-1.41 -1.36,0 -0.84,-0.27 -0.9,1.41zm0.61 -2.19l0.77 -0.61 -0.77 0.61zm10.36 -3.94c1.35,-0.17 1.06,0.21 0.87,-1.15 -1.2,0 -0.78,-0.25 -0.87,1.15zm0.66 -2.13c1.04,0.13 0.81,0.35 0.63,-0.7l-0.63 0.7zm1.61 -2.62c1.6,-0.27 1.28,0.2 1,-1.38 -1.39,0 -0.89,-0.28 -1,1.38zm0.63 -2.43c1.09,0.2 0.8,0.37 0.58,-0.77l-0.58 0.77zm2.32 -4.19c1.55,-0.25 1.23,0.2 1.01,-1.32 -1.38,0 -0.89,-0.29 -1.01,1.32zm0.72 -1.47c1.47,-0.36 1.15,0.11 1.01,-1.37 -1.4,0 -0.9,-0.29 -1.01,1.37zm0.67 -1.95c1.24,-0.09 0.95,0.24 0.82,-1.02 -1.12,0 -0.75,-0.24 -0.82,1.02zm0.7 -1.74c1.05,0 0.78,0.25 0.71,-0.83l-0.71 0.83zm0.71 -1.56c1.02,-0.01 0.79,0.25 0.73,-0.76l-0.73 0.76zm0.73 -1.49c1.14,0.05 0.89,0.31 0.7,-0.83l-0.7 0.83zm5.9 -11.17c1.33,-0.34 1.07,0.11 1.05,-1.13 -1.31,0 -0.89,-0.3 -1.05,1.13zm3.31 -3.02l1.05 -1.13 -1.05 1.13zm7.86 1.75l0.69 0.75 -0.69 -0.75zm0.4 8.26c1.09,-0.65 0.63,1.08 0.99,-1.41 -1.14,0.32 -0.85,-1.02 -0.99,1.41zm-5.97 25.37l1.06 -1.29c-1.22,0.52 -1,-1.13 -1.06,1.29zm-0.69 3.08l1.02 -1.26c-1.1,0.35 -0.76,-1.32 -1.02,1.26zm0.24 0.96c-1.59,1.84 -1.56,-2.96 -0.73,1.35 0.04,0.2 0.15,0.52 0.21,0.72 0.07,0.24 0.33,0.5 0.51,0.74l0.02 -2.81zm2.89 5.75c-0.06,1.13 -0.32,0.8 0.84,0.91 -0.08,-1.17 0.25,-0.91 -0.84,-0.91zm-1.63 30.08c0.23,2.35 -0.1,1.03 1,1.23l-1 -1.23zm0.67 3.24c0.09,2.48 -0.12,0.8 1.04,1.41l-1.04 -1.41zm0.98 2.51c-0.35,1.53 -0.7,1.19 0.79,1.22 -0.05,-1.45 0.39,-1.22 -0.79,-1.22zm1.73 3.62c-0.1,0.98 -0.32,0.76 0.65,0.67l-0.65 -0.67zm1.92 3.94l0.96 0.86 -0.96 -0.86zm3.1 3.64l0.68 0.67 -0.68 -0.67zm-35.88 -50.66c0.2,-5.8 9.18,-0.65 12.51,0.56 4.21,1.53 9.41,3.72 12.87,5.41 0.58,3.16 0.16,3.69 -0.66,6.57 -1.55,-0.29 -24.87,-8.48 -24.72,-12.53zm11.01 -5.91c2.34,-5.64 4.7,-11.49 7.34,-16.84 1.5,-3.04 2.8,-5.16 4.22,-8.16 2.14,-4.5 2.11,-6.18 5.16,-6.69 2.9,3.45 -0.96,13.36 -2.08,17.94 -1.31,5.37 -2.4,13.2 -4.53,17.84l-10.11 -4.08z"/>
   <path class="fil2" d="M48.53 143.89c1.76,1.2 13.49,1.12 15.22,0.01 1.33,-1.86 1.18,-32.47 0.04,-34.74l-0.04 34.74 -15.22 -0.01 -0.06 -139.39 71.12 -0.05 0.19 60.98c2.02,0.05 0.61,2.18 0.49,-5.85 -0.16,-11.47 0.7,-50.42 -0.26,-55.5 -3.99,-1.03 -69.25,-0.89 -71.84,0.09 -1.18,4.78 -0.22,112.36 -0.43,131.81l0.18 6.43c0.38,1.65 0.09,0.78 0.6,1.48zm73.34 -76.39l1.91 -0.9 0.15 -64.36c-1.65,0 -1.46,0.46 -1,-1.03l-0.06 64.24c-0.16,0.11 -0.42,0.11 -0.48,0.34l-1.49 0.64c1.44,-0.36 0.97,-0.55 0.97,1.08zm-116.5 -31.23c0.31,13.15 1.31,101.85 -0.15,107.87l0.34 -108.1 38.7 -0.26c2.24,-7.79 -0.32,-25.76 1.09,-35.11l74.96 -0.05c2.53,-0.31 0.73,1.01 1.72,-0.63l-77.31 1.01c-1.9,2.72 -0.77,28.18 -0.74,33.68 -6.56,-0.18 -13.28,-0.04 -19.85,-0.05l-17.37 0.22c-1.58,0.66 -0.79,-0.01 -1.4,1.41zm-3.78 108.1c-1.69,0.54 -0.56,-2.02 -1.49,1.39 -0.88,3.23 4.08,2.77 5.61,2.77 19.98,-0.08 72.5,0.92 84.57,-0.15 0.07,-1.74 -0.06,-0.76 -3.58,-0.71 -26.75,0.36 -62.03,-0.93 -85.69,0.03 0.52,-5.25 -1.37,-2.08 4.21,-3.56l-3.63 0.23zm85.03 -0.47l-0.15 -23.3c-0.35,-1.25 0.07,-1.57 -1.67,-2.03 -3.08,-0.82 -1.98,0.62 -2.26,1.61 0.95,3.81 0.78,19.98 -0.03,24.1 0.38,-6.17 -0.71,-22.26 1.15,-24.92 2.41,1.08 0.86,-0.4 1.8,1.95l0.25 10.27c-0.02,3.01 -0.69,10.29 0.91,12.33 0.41,0.25 0.22,0.37 1.57,0.55 1.22,0.17 1.89,0.09 3.12,0.06 -0.38,2.84 -0.54,1.77 0.48,2.5l0.05 -2.96 -5.23 -0.15zm-18.77 -0.16l0.39 -31.23c5.13,0.14 10.28,0.06 15.42,0.08 5.05,0.02 12,1.47 9.19,-4.17 -3.9,-1.2 -25.1,-1.51 -28.49,0.29l0.8 0.12c6.24,0.21 22.96,-1.19 27.47,0.22 -0.66,4.06 -2.56,2.79 -11.91,2.8 -11.57,0.02 -13.15,-1.76 -13.61,3.53l0.63 29.09 14.77 0.13c-3.01,0.39 -4.56,0.21 -7.68,0.23 -2.68,0.02 -4.93,0.33 -6.98,-1.09z"/>
   <path class="fil0" d="M130.87 81.6l10.11 4.08c2.13,-4.64 3.23,-12.47 4.53,-17.84 1.11,-4.58 4.98,-14.49 2.08,-17.94 -3.05,0.51 -3.02,2.19 -5.16,6.69 -1.43,3 -2.72,5.12 -4.22,8.16 -2.64,5.34 -4.99,11.2 -7.34,16.84z"/>
   <path class="fil2" d="M150.53 67.68c0.69,-3.87 2.4,-7.78 1.97,-11.69 0.14,-2.43 -0.15,-1.08 0.99,-1.41l-0.69 -6.1 -0.69 -0.75c-1.73,-2.77 -2.48,-3 -6.81,-2.88l-1.05 1.13c-2.17,0.39 -1.72,-0.62 -2.27,1.89 0.03,1.23 0.29,0.79 -1.05,1.13l-5.2 10.34c0.19,1.14 0.44,0.88 -0.7,0.83l-0 0.73c0.07,1.01 0.3,0.75 -0.73,0.76l-0 0.73c0.07,1.08 0.34,0.83 -0.71,0.83l0.12 0.71c0.14,1.26 0.43,0.93 -0.82,1.02l0.34 0.59c0.14,1.48 0.46,1.01 -1.01,1.37l0.29 0.15c0.22,1.53 0.54,1.07 -1.01,1.32l-1.74 3.41c0.21,1.14 0.51,0.97 -0.58,0.77l0.37 1.05c0.27,1.58 0.59,1.11 -1,1.38l-0.99 1.93c0.18,1.04 0.41,0.83 -0.63,0.7l0.21 0.98c0.18,1.36 0.48,0.98 -0.87,1.15 -3.6,0.74 -6.25,-1.89 -9.59,3.33l-0.77 0.61 0.29 0.78c0.21,1.55 0.57,1.12 -0.9,1.41l-0.78 4.3c0.27,1.44 0.62,1.13 -0.72,1.19l-1.87 5.03c0.18,1.5 0.49,1.01 -1.05,1.37 -1.7,0.57 -0.55,-0.05 -0.76,1.5 -1.31,-0.57 -0.82,-0.51 -0.39,0.85 0.06,1.38 0.36,0.89 -1.06,1.32 -1.94,0.99 -1.01,0.75 -1.14,2.35 0.09,1.4 0.39,0.92 -1.03,1.33l0.02 0.01c0.08,1.2 0.36,0.88 -0.83,0.97l-0.01 0.43 -0.75 0.85 0.19 0.65c0.11,1.22 0.37,0.84 -0.9,1.04l0.34 0.52c0.14,1.51 0.47,1.03 -1.02,1.42 -1.48,1.85 -1.26,1.53 -1.22,3.67 0.27,1.66 0.64,1.2 -0.97,1.47 -3.09,3.87 -6.29,22.89 -2.21,27.93 1.5,0.35 1.19,-0.12 1.04,1.35 0.96,4.86 7.41,3.78 12.87,3.77 11.62,-0.03 42.43,1.18 49.32,-1.26l0.52 -2.39c-1.83,0 -1.44,0.42 -0.96,-1.39 -0.28,-0.23 -1.01,-0.75 -1.1,-0.83 -1.01,-0.87 -0.44,-0.34 -1.47,-1.45 -0.39,-1.34 -1.53,-1.92 -2.93,-3.02l-0.68 -0.67c-0.33,-0.46 -0.53,-0.89 -0.99,-1.29 -1.02,-0.89 -0.41,-0.37 -1.33,-0.85l0.18 -0.63 -0.96 -0.86 -1.28 -3.27c-0.97,0.09 -0.75,0.31 -0.65,-0.67l-0.94 -2.4c-1.49,-0.03 -1.14,0.31 -0.79,-1.22l0.06 -1.1c-1.16,-0.61 -0.95,1.08 -1.04,-1.41l0.34 -2.01c-1.1,-0.2 -0.78,1.12 -1,-1.23 0.77,-5.01 -0.53,-10.58 0.56,-15.81 1.02,-4.87 3.75,-8.16 1.9,-13.35 -1.16,-0.11 -0.9,0.21 -0.84,-0.91 -0.59,-2.09 -0.52,-2.46 -2.91,-2.93 -0.18,-0.24 -0.44,-0.5 -0.51,-0.74 -0.06,-0.2 -0.17,-0.52 -0.21,-0.72 -0.83,-4.3 -0.85,0.49 0.73,-1.35l-0.24 -0.96c0.26,-2.58 -0.08,-0.91 1.02,-1.26l-0.33 -1.82c0.06,-2.42 -0.16,-0.77 1.06,-1.29 0.71,-3.69 2.34,-7.25 1.94,-11.02l-4.71 18.66c2.35,1.99 2.68,0.82 3.91,3.79 3.45,8.3 -6.44,13.8 -0.62,34.57 1.05,3.74 4.83,9.94 4.99,9.55 0.05,-0.11 0.21,0.28 0.34,0.41 1.6,3.39 8.12,6.65 8.63,10.12 -3.35,3.56 -25.85,1.92 -29.9,1.87 -8.92,-0.11 -23,1.01 -30.7,-0.61 -6.72,-12.44 -2.64,-24.82 3.47,-37.8l5.19 -10.33 1.95 -2.45c8.42,-15.57 -0.62,-15.11 14.58,-16.16l13.89 -29.64c1.54,-3.02 2.42,-5.13 5.69,-5.43 9.49,-0.87 5.64,11.43 5.11,13.97 -0.75,3.56 -1.89,6.24 -0.8,8.1z"/>
   <path class="fil1" d="M63.07 81l3.74 0.01c-0.05,3.11 0.39,6.01 -0.78,8.26l-2.2 -0c-1.26,-2.27 -0.76,-5.13 -0.75,-8.27zm-4.51 0.6c-0,13.99 -0.8,12.27 7.47,12.26 6.65,-0.01 5.32,-1.1 5.27,-7.84 -0.07,-9.8 1.77,-9.67 -8.95,-9.68 -3.67,-0.01 -3.77,1.86 -3.79,5.26z"/>
   <path class="fil1" d="M62.99 22.96l3.77 -0.01 0 3.53 -0.03 1.47 0.18 3.04 -3.86 0 -0.07 -8.04zm-3.99 -4.39c-0.77,3.39 -1.59,13.08 0.4,15.86 0.96,1.08 1.37,1.32 5.14,1.35l4.29 -0.43c3.79,-1.16 2.47,-5.89 2.45,-13.28 -0.01,-5.12 -6.21,-3.84 -12.28,-3.5z"/>
   <path class="fil0" d="M144.59 100.04c0.82,-2.87 1.24,-3.4 0.66,-6.57 -3.47,-1.69 -8.66,-3.87 -12.87,-5.41 -3.33,-1.21 -12.31,-6.36 -12.51,-0.56 -0.14,4.05 23.18,12.24 24.72,12.53z"/>
   <path class="fil1" d="M19.66 80.78c-1.61,2 -2.24,16.82 0.1,18.1l1.44 0.84c0,-1.75 0.36,-1.31 -1.44,-0.84l14.24 0c-0.15,-3.61 0.56,-13.96 -0.71,-17.01 -3.36,-1.05 -9.51,-0.6 -13.64,-0.37l0.02 -0.73zm10.4 4.37l0.77 -0.17c0.37,1.16 -0.05,10.23 0.42,10.51l-1.14 -0.38 -0.1 0.73 -6.86 0.1 0.05 -0.84 -0.95 0.25c-0.02,-0.01 -0.33,-8.1 -0.08,-9.27 0.66,-3 4.47,-1.85 7.9,-1.86l-0.59 1.09 0.56 -0.14z"/>
   <path class="fil1" d="M23.09 124.58l-0.02 -11.01c-2.04,2.2 -1.2,8.26 -0.79,11.12 -0.21,-2.89 -1.04,-9.3 0.82,-11.01 1.29,-1.21 9.38,-1.48 7.21,-0.11l-0.01 11c2.13,-2.35 1.28,-7.33 0.99,-11.13l-0.09 11.23c-1.85,0.32 -3.02,0.44 -4.92,0.45 -1.45,0.01 -4.81,0.47 -3.19,-0.55zm-3.42 3.37l0.75 0.69 2.93 -0.86c7.82,-0.57 10.22,2.16 10.65,-4.25l-0.2 -11.08c-0.17,-1.2 -0.42,-1.52 -0.61,-2.16l-12.79 0.37c-1.58,2.41 -0.98,13.97 -1.02,17.08l0.29 0.21z"/>
   <path class="fil1" d="M101.44 60.12c-0.01,-2.81 -0.38,-6.04 0.59,-8.11l3.1 -0.05 0.05 8.18 -3.74 -0.02zm-3.43 -11.3c-1.48,1.68 -0.92,4.3 -0.91,7.06 0,1.1 -0.09,2.71 -0.03,3.74 0.17,2.98 -0.41,1.84 0.9,3.3l0.04 -14.1 0.05 14.74c3.4,0.27 7.39,0.75 10.51,-0.44l0.1 -13.93c-1.01,-0.39 -0.68,-0.52 -2.19,-0.78l-7.46 -0.15c-0.06,-0.01 -0.23,-0.05 -0.35,-0.09l9 -0.04c-1.42,-1.19 0.99,-0.11 -1.44,-0.63 -0.67,-0.14 -2.01,-0.24 -2.71,-0.25 -2.48,-0.04 -3.42,-0.3 -4.86,0.92 -1.33,-0.47 -1.12,-0.69 -0.65,0.64zm9.57 15.86c1.29,-0.05 1.05,0.31 0.94,-0.9 1.15,0.21 0.82,0.43 0.86,-0.79l-0.86 0.79c-1.29,-0.21 -0.94,-0.46 -0.94,0.9z"/>
   <path class="fil2" d="M110.8 144.67c0.36,-0.53 0.3,0.18 0.4,-1.37l-0.58 -3.47c-0.3,-1.53 -0.41,-3.23 -0.5,-5.72 3.86,0.92 2.2,-2 3.5,5.82 0.32,1.92 0.54,3.32 1.94,5.37l7.36 -0.19c0.43,-3.73 -3.14,-11.77 0.13,-22.65 2.87,0.86 1.74,-1.71 2.37,2.34 0.43,2.78 -3.45,12.87 2.35,20.53l9.98 -0.24c-0.06,-3.38 -3.97,-8.83 -3.81,-10.93 0.26,-3.33 -0.12,-1.31 2.44,-2.29 0.48,2.37 1.13,4.42 2.29,6.5 0.66,1.18 1.2,1.9 1.73,2.65l2.07 2.38 1.02 1.86 9.27 -0.32c-0.13,1.05 0.41,1.09 -0.16,-0.83l-1.31 0.03c-1.03,0.59 0.87,0.09 -2.15,1 -2.52,0.76 -4.18,0.46 -5.92,-1.03 0.17,-2.04 0.24,-0.41 -0.74,-0.7l0.08 -0.07c-1.52,-0.44 -1.21,0.08 -1.17,-1.36 0.13,-1.62 0.48,-0.65 -0.23,-1.83l-0.77 -0.58 -0.17 0.1c-1.45,-0.36 -1.17,0.11 -1.04,-1.29l0.2 -0.18c-1.47,-0.2 -1.23,0.23 -0.94,-1.15 0.03,-1.96 1.1,-0.96 -0.48,-1.79 -1.57,-0.24 -1.26,0.21 -0.95,-1.33l-0.07 -2.61c-2.67,-0.53 -3.42,-0.46 -4.01,2.38 1.14,0.55 0.92,-1.2 1,1.53 -0.06,2.45 0.44,4.09 2,5.92 1.39,0.42 1.08,-0.05 1.03,1.33 -0.03,1.56 -0.78,0.6 0.66,1.61 -0.16,0.18 -0.41,0.34 -0.58,0.43l-1.23 0.71c-1.98,0.77 -6.55,0.57 -8.6,-0.64 -1.35,0.34 -0.98,0.47 -0.51,-0.88l0.31 -0.37c-1.63,-0.29 -1.2,0.16 -0.91,-1.62l0.23 -1.61c-1.05,-0.23 -0.7,1.01 -0.99,-1.25l0.82 -14.46c-0.39,-3.05 -3.14,-3.92 -4.47,-0.43 -1.56,4.1 -0.74,15.01 0.15,18.86 1.03,0.84 1.07,-1.71 1.09,2.29 -3.13,0.61 -5.79,1.33 -7.74,-1.08l-1.76 -10.42c-4.96,-0.59 -4.04,0.78 -4.06,5.72 1.12,0.1 0.78,-1.41 0.96,1.3l0.49 4.05c-4.19,-0.37 -5.98,0.87 -7.51,-2.6 -0.81,-1.84 -1.32,-6.46 -1.27,-9.04 0.13,-6.7 2.94,-10.89 3.6,-16.03 -0.3,-1.46 -0.63,-1.13 0.8,-1.16l0.94 -2.37c-0.15,-1.1 -0.42,-0.89 0.63,-0.79l-0.2 -0.87c-0.13,-1.28 -0.41,-0.9 0.87,-1.11l-0.09 -0.41c-0.12,-1.23 -0.39,-0.89 0.84,-0.99l-0.01 -0.44c-0.17,-1.18 -0.42,-0.89 0.77,-0.84l0.04 -0.57 0.75 -0.63 1.84 -4.74c-0.08,-1.38 -0.38,-0.94 1.03,-1.24 1.3,-0.13 0.34,0.28 0.33,-1.16 -0.13,-1.32 -0.38,-0.86 1.03,-1.19 1.5,0.2 0.43,0.26 0.44,-1.07 -0.25,-1.34 -0.48,-0.89 0.97,-1.13 1.59,0.15 0.4,0.19 0.95,-0.7l0.72 -0.85 2.86 0.65c1.34,-0.13 0.97,-0.44 1.17,0.88l7.56 2.89c1.29,-0.27 0.97,-0.53 0.95,0.79l2.55 0.86c1.14,-0.18 0.89,-0.45 0.88,0.66 2.5,0.85 1.8,1.2 4.53,1.17 1.55,-0.23 1.1,-0.56 1.38,0.96l2.65 1.08c-0.6,10.52 -0.32,13.94 1.86,23.41 1.2,-0.19 0.87,-0.36 0.57,0.88l0.21 0.63c1.52,0.15 1.16,-0.24 0.86,1.34 0.09,2.01 -0.07,1.97 1.36,3.56 1.57,0.3 1.25,-0.17 1.03,1.38l-0.26 0.09c1.52,0.28 1.24,-0.19 1.02,1.27 0.14,1.61 -0.85,1.38 1.14,2.4 1.67,1.93 0.81,-1.76 1.28,2.42l0.21 -0.21 1.37 0.44c-3.6,-2.8 -6.64,-10.9 -8.01,-15.26 -2.68,-8.6 -1.58,-13.17 -1.94,-21.92 -3.54,-2.9 -15.37,-6.84 -19.89,-9.03 -7.09,-3.44 -7.29,-0.91 -11.48,6.65 -0.86,1.56 -1.61,2.75 -2.4,4.14 -6.54,11.57 -15.25,41.28 -0.5,38.42l1.6 -0.62z"/>
   <path class="fil1" d="M23.62 55.5c8.16,-1.93 9.19,0.56 7.38,10.95l-6.85 0.66c-4,-0.84 -1.43,-11.2 -1.43,-11.2l0.9 -0.41zm9.89 15.09c1.22,-0.07 0.97,0.21 0.53,-0.97 1.23,-0.1 0.81,0.2 0.88,-1.24 -1.66,0 -1.33,-0.38 -0.88,1.24l0.02 -17.17 -14.85 -0 0.82 16.51c0.04,-0.1 0.2,0.42 0.31,0.95l11.15 0.13c3.81,-0.53 1.01,-0.34 2.03,0.54z"/>
   <path class="fil1" d="M63.02 52.07l3.8 -0.12 0.04 8.18 -3.81 0.01 -0.03 -8.07zm-3.53 -3.52c-1.05,0 -0.77,-0.26 -0.8,0.81 1.39,1.33 0.36,-0.6 0.91,1.45l-0.04 12.84 10.77 0c-0.14,-3.29 -1.47,-12.66 0.86,-14.53l-0.64 -0.82 -0.85 -0.16c-1.94,-1.21 -1.76,-0.86 -4.42,-0.91 -0.18,-0 -2.71,0.12 -2.84,0.15 -1.75,0.32 -1.05,-0.03 -1.95,0.78l9.21 -0.02 0.85 0.16 -0.58 0.01 -10.27 0.03 -0.21 0.21z"/>
   <path class="fil1" d="M82.21 22.96l3.71 0.03 -0.03 8.04 -3.69 -0.08 0.02 -7.99zm-3.26 11.11c0.44,-1.43 0.6,-0.97 -1.01,-0.97 0.14,1.49 -0.31,1.3 1.01,0.97 -0.42,1.55 -0.66,1.07 1.03,1.2 -0.19,-2.67 6.13,1.65 8.91,-1.7l0.42 -0.77c0.47,-2.09 0.55,-11.32 -0.28,-12.41 -2.42,-1.81 -7.01,-1.19 -10.14,-0.88l0.06 14.56zm10.1 -14.45c0.35,-1.39 0.56,-0.94 -0.98,-1.09 0.16,1.41 -0.27,1.17 0.98,1.09 -0.03,1.17 -0.26,0.72 1.12,0.99 -0.15,-1.56 0.31,-1.34 -1.12,-0.99zm1.22 14.27c-1.08,-0.22 -0.82,-0.42 -0.7,0.69l0.7 -0.69z"/>
   <path class="fil1" d="M101.44 22.99l3.67 -0.04 0.09 8.01 -3.78 0.07 0.02 -8.05zm6.68 -3.35c-0.11,1.26 -0.34,0.81 1.13,0.96 -0.18,-1.52 0.26,-1.29 -1.13,-0.96l-0.32 -1.28c-0.74,0.46 -0.39,0.62 -2.03,0.95 -0.01,0 -2.21,0.16 -2.29,0.17 -6.09,0.22 -5.12,0.35 -5.43,3.29l0 7.41c0.06,3.4 0.09,2.79 1.02,4.33 10.92,1.43 9.46,-0.49 9.53,-8.02 0.01,-1.37 0.1,-3.1 -0.11,-4.41 -0.35,-2.16 -1.23,-1.18 -0.38,-2.43zm1.26 14.23c-1.08,-0.2 -0.81,-0.4 -0.7,0.72l0.7 -0.72zm-11.24 -15.03c1.19,0.25 1.23,0.62 0.63,-0.46l-0.63 0.46z"/>
   <path class="fil1" d="M82.19 52.95c0.63,-0.54 -0.25,-0.42 1.51,-0.89 0.23,-0.06 2.42,-0.33 2.59,-0.35l-0.4 8.93 0.76 -7.03c-0.16,-4.03 -0.36,-3.09 -3.05,-2.88 -2.73,0.22 -1.06,0.04 -2.11,1.51 1.45,-2.1 4.92,-1.65 5.54,0.11 0.47,1.35 0.05,6.65 -0.15,8.42l-5.15 -0.07c-0.83,-2.17 -0.84,-5.47 -0.64,-8.41l1.09 0.66zm-3.3 -4.23l-0.9 1.28c1.7,0 1.36,0.39 0.9,-1.28l0.11 14.78c4.14,0.61 8.02,0.7 10.5,-0.73 -0.02,-18.57 1.92,-13.16 -10.03,-14.6l9.01 -0.02c-1.42,-1.28 1.18,-0.06 -1.38,-0.65 -0.74,-0.17 -1.91,-0.25 -2.68,-0.26 -2.5,-0.04 -3.45,-0.24 -4.95,0.93 -1.22,-0.47 -1.05,-0.67 -0.57,0.55z"/>
   <path class="fil1" d="M82.19 81.65l0.01 -0.87c-1.4,-0.78 -0.61,-0.55 1.36,-0.66 1.46,-0.09 2.04,0.12 3.4,0.24l0.05 9.38 -5.28 0.29c-1.31,-2.61 -0.88,-5.82 -0.6,-8.95 0.11,0.47 0.49,0.24 1.06,0.56zm3.76 -1.15c-0.02,1.58 0.03,3.26 -0,4.83 -0.01,0.36 -0.05,1.9 -0.1,2.18 -0.24,1.27 -0.47,1.37 -0.72,1.83 -6.05,-0.1 -1.54,0.32 -2.95,-1.32l-0.7 2.41 5.21 -0.37c0.26,-5.3 0.87,-7.82 -0.74,-9.55zm-7.03 -3.07l0.13 15.52 10.26 -0.01 0.17 -15.44 -10.57 -0.06z"/>
   <path class="fil1" d="M97.17 86.01c-0,2.86 -0.71,6.66 1.65,7.7 3.7,1.64 2.71,-4.43 2.71,-6.97l0.02 -5.14c2.24,-1.46 4.16,-0.42 4.04,-4.29l-4.29 -0.97c-5.69,0 -4.13,4.07 -4.13,9.67z"/>
   <polygon class="fil0" points="23.09,124.58 30.3,124.58 30.31,113.57 23.07,113.57 "/>
   <polygon class="fil0" points="23.21,95.08 30.12,95.1 30.06,85.15 29.5,85.29 23.23,85.08 "/>
   <polygon class="fil0" points="23.58,66.1 30.03,66.18 30.01,56.32 23.64,56.22 "/>
   <path class="fil2" d="M20.42 128.64c4.6,0.03 10.57,0.56 14.28,-0.59 0.53,-2.7 0.3,-6.5 0.31,-9.71 0.03,-7.85 2.56,-9.76 -12.4,-8.89l-2.48 0.47c-0,-0 -0.96,-0.24 -1.52,2.06l-0.18 12.29c0.06,2.61 -0.13,2.37 1.23,3.68l-0.29 -0.21c0.04,-3.1 -0.56,-14.67 1.02,-17.08l12.79 -0.37c0.19,0.64 0.44,0.96 0.61,2.16l0.2 11.08c-0.43,6.41 -2.83,3.68 -10.65,4.25l-2.93 0.86z"/>
   <path class="fil2" d="M34.04 69.62c-0.45,-1.63 -0.78,-1.24 0.88,-1.24l0.14 -13.23c-0.12,-1.14 0.05,-0.68 -0.41,-1.74 -1.31,-3.01 -12.33,-2.04 -13.91,-1.68 -0.86,0.19 -1.71,0.79 -2.1,2.2l-0.11 12.28c0.18,5.53 2.99,5.47 14.99,4.39 -1.02,-0.88 1.78,-1.07 -2.03,-0.54l-11.15 -0.13c-0.11,-0.53 -0.28,-1.05 -0.31,-0.95l-0.82 -16.51 14.85 0 -0.02 17.17z"/>
   <path class="fil2" d="M89.49 77.49l-0.17 15.44 -10.26 0.01 -0.13 -15.52 10.57 0.06zm-10.97 14.84c1.8,1.99 2.29,1.6 7.37,1.51 5.56,-0.09 4.39,-0.41 4.38,-13.71 0,-4.2 -2.36,-3.69 -6.62,-3.69 -5.27,0 -5.83,-0.32 -5.85,5.12 -0.01,3.11 -0.78,8.54 0.71,10.76z"/>
   <path class="fil2" d="M98.15 18.84c-1.81,2.96 -1.68,13.15 -0.16,16.11 2.29,0.72 8.28,1.3 10.69,-0.36 -0.12,-1.12 -0.38,-0.92 0.7,-0.72l-0.13 -13.26c-1.47,-0.16 -1.25,0.3 -1.13,-0.96 -0.86,1.25 0.03,0.27 0.38,2.43 0.21,1.32 0.12,3.05 0.11,4.41 -0.07,7.53 1.39,9.45 -9.53,8.02 -0.94,-1.54 -0.97,-0.93 -1.02,-4.33l-0 -7.41c0.31,-2.94 -0.66,-3.07 5.43,-3.29 0.08,-0 2.28,-0.17 2.29,-0.17 1.64,-0.34 1.29,-0.49 2.03,-0.95l-9.02 0.03c0.6,1.08 0.56,0.71 -0.63,0.46z"/>
   <path class="fil2" d="M19.75 98.88c1.8,-0.47 1.44,-0.91 1.44,0.84 4.01,0.23 9.64,0.73 13.22,-0.51 1.27,-3.75 1.61,-15 -0.46,-17.9 -3.48,-1.47 -9.99,-0.83 -14.3,-0.54l-0.02 0.73c4.13,-0.24 10.29,-0.69 13.64,0.37 1.27,3.06 0.56,13.4 0.71,17.01l-14.24 -0z"/>
   <path class="fil2" d="M79.98 35.27c1.46,0.26 2.75,0.27 4.4,0.29 0.62,0.01 2.46,0.04 2.98,-0.05 2.91,-0.48 1.4,-0.37 2.21,-0.93 -0.12,-1.11 -0.38,-0.91 0.7,-0.69l-0.11 -13.29c-1.38,-0.26 -1.15,0.18 -1.12,-0.99 -1.25,0.08 -0.82,0.32 -0.98,-1.09 -2.67,-0.3 -6.97,-0.38 -9.09,0.34 -1.93,2.49 -1.41,10.17 -1.05,14.24 1.62,0 1.45,-0.46 1.01,0.97l-0.06 -14.56c3.13,-0.31 7.73,-0.93 10.14,0.88 0.83,1.09 0.75,10.32 0.28,12.41l-0.42 0.77c-2.77,3.36 -9.1,-0.96 -8.91,1.7z"/>
   <path class="fil2" d="M58.69 49.36l0.13 14.91c2.26,0.5 3.3,0.44 5.73,0.46 8.33,0.07 6.63,-0.43 6.63,-15.61 -2.33,1.87 -1.01,11.24 -0.86,14.53l-10.77 -0 0.04 -12.84c-0.55,-2.05 0.48,-0.11 -0.91,-1.45zm11.01 -1.22l-9.21 0.02c-1.28,-0.44 -1.13,-0.83 -1,0.39l0.21 -0.21 10.27 -0.03 0.58 -0.01 -0.85 -0.16z"/>
   <path class="fil2" d="M78.89 48.72c0.46,1.67 0.81,1.28 -0.9,1.28 -0.52,4.14 -0.61,10.6 0.4,14.17l8.26 0.59c2.77,-0.33 3.36,-0.9 3.66,-3.67 0.1,-0.92 -0.03,-3.38 -0.03,-4.47 -0.07,-10.68 0.41,-8.1 -1.82,-8.46l-9.01 0.02c11.95,1.44 10.01,-3.97 10.03,14.6 -2.48,1.44 -6.36,1.34 -10.5,0.73l-0.11 -14.78z"/>
   <path class="fil0" d="M85.9 60.64l0.4 -8.93c-0.17,0.02 -2.36,0.29 -2.59,0.35 -1.77,0.46 -0.88,0.35 -1.51,0.89l-0.01 7.23 3.71 0.46z"/>
   <path class="fil0" d="M82.18 88.01c1.41,1.64 -3.1,1.22 2.95,1.32 0.24,-0.46 0.48,-0.56 0.72,-1.83 0.05,-0.27 0.09,-1.81 0.1,-2.18 0.03,-1.57 -0.01,-3.25 0,-4.83l-3.75 0.28 -0.01 0.87 -0.01 6.36z"/>
   <polygon class="fil0" points="63.05,60.13 66.86,60.12 66.82,51.94 63.02,52.07 "/>
   <polygon class="fil0" points="63.05,31 66.91,31 66.74,27.96 66.76,26.48 66.76,22.96 62.99,22.96 "/>
   <path class="fil0" d="M101.44 60.12l3.74 0.02 -0.05 -8.18 -3.1 0.05c-0.97,2.08 -0.6,5.3 -0.59,8.11z"/>
   <polygon class="fil0" points="101.42,31.04 105.19,30.96 105.1,22.95 101.44,22.99 "/>
   <path class="fil0" d="M63.07 81c-0.01,3.14 -0.5,6 0.75,8.27l2.2 0c1.17,-2.25 0.73,-5.14 0.78,-8.26l-3.74 -0.01z"/>
   <polygon class="fil0" points="82.19,30.95 85.88,31.03 85.92,22.99 82.21,22.96 "/>
   <path class="fil2" d="M30.03 66.18l-6.45 -0.09c-1.07,-1.42 -1.17,2.29 -0.67,-2.13l-0.2 -8.18 7.96 0.19c-0.06,1.98 -0.07,3.82 -0.05,5.81 0.01,0.7 0.06,2.25 -0.02,2.87 -0.18,1.46 -0.2,0.83 -0.58,1.53zm-7.31 -10.27c-0,0.01 -2.57,10.37 1.43,11.2l6.85 -0.66c1.81,-10.38 0.78,-12.88 -7.38,-10.95l-0.9 0.41z"/>
   <path class="fil2" d="M98.01 48.82l-0.04 14.1c0.44,1.49 -1.32,0.72 1.24,1.66 0.48,0.18 2.18,0.17 2.78,0.18 1.82,0.01 3.76,-0.03 5.59,-0.08 0,-1.36 -0.36,-1.11 0.94,-0.9l0.86 -0.79 0.03 -14.49c-0.9,-0.84 -0.46,-0.14 -1.74,-0.36l-9 0.04c0.12,0.03 0.28,0.08 0.35,0.09l7.46 0.15c1.52,0.26 1.18,0.39 2.19,0.78l-0.1 13.93c-3.12,1.19 -7.1,0.7 -10.51,0.44l-0.05 -14.74z"/>
   <path class="fil2" d="M23.23 85.08l6.27 0.21 0.59 -1.09c-3.42,0.01 -7.24,-1.14 -7.9,1.86 -0.26,1.17 0.06,9.26 0.08,9.27 0.47,-2.55 0.47,-3.1 0.44,-5.68 -0.01,-0.64 -0.07,-2.36 -0.01,-2.91 0.14,-1.35 0.39,-1.35 0.54,-1.66zm6.79 10.75c-3.11,-0.83 -3.74,-0.79 -6.86,0.1l6.86 -0.1zm0.04 -10.68l0.76 2.28c0.21,1.9 -0.36,3.34 0.44,8.06 -0.48,-0.28 -0.05,-9.35 -0.42,-10.51l-0.77 0.17z"/>
   <path class="fil3" d="M23.58 66.1l0.05 -9.88 6.38 0.11 0.02 9.86c0.39,-0.7 0.4,-0.07 0.58,-1.53 0.08,-0.62 0.03,-2.17 0.02,-2.87 -0.03,-1.98 -0.01,-3.83 0.05,-5.81l-7.96 -0.19 0.2 8.18c-0.49,4.43 -0.4,0.71 0.67,2.13z"/>
   <path class="fil4" d="M22.26 95.33l0.95 -0.25 -0.05 0.84c3.12,-0.89 3.75,-0.93 6.86,-0.1l0.1 -0.73 1.14 0.38c-0.8,-4.71 -0.23,-6.16 -0.44,-8.06l-0.76 -2.28 0.06 9.95 -6.91 -0.02 0.02 -10c-0.15,0.31 -0.4,0.31 -0.54,1.66 -0.06,0.54 0,2.26 0.01,2.91 0.03,2.58 0.03,3.13 -0.44,5.68z"/>
   <path class="fil2" d="M85.9 60.64l-3.71 -0.46 0.01 -7.23 -1.09 -0.66c-0.2,2.94 -0.19,6.24 0.64,8.41l5.15 0.07c0.2,-1.77 0.63,-7.06 0.15,-8.42 -0.62,-1.76 -4.09,-2.21 -5.54,-0.11 1.05,-1.47 -0.62,-1.29 2.11,-1.51 2.68,-0.21 2.89,-1.15 3.05,2.88l-0.76 7.03z"/>
   <path class="fil2" d="M82.2 80.78l3.75 -0.28c1.61,1.73 1.01,4.25 0.74,9.55l-5.21 0.37 0.7 -2.41 0.01 -6.36c-0.58,-0.32 -0.95,-0.09 -1.06,-0.56 -0.27,3.13 -0.71,6.34 0.6,8.95l5.28 -0.29 -0.05 -9.38c-1.36,-0.12 -1.93,-0.33 -3.4,-0.24 -1.98,0.12 -2.76,-0.12 -1.36,0.66z"/>
   <path class="fil2" d="M23.07 113.57l7.24 0.01c2.17,-1.38 -5.92,-1.1 -7.21,0.11 -1.86,1.71 -1.04,8.12 -0.82,11.01 -0.42,-2.86 -1.25,-8.92 0.79,-11.12zm7.23 11.01l-7.21 -0c-1.62,1.02 1.74,0.56 3.19,0.55 1.9,-0.01 3.07,-0.13 4.92,-0.45l0.09 -11.23c0.29,3.8 1.14,8.78 -0.99,11.13z"/>
  </g>
 </g>
</svg>
