<?xml version="1.0" encoding="UTF-8"?>
<!DOCTYPE svg PUBLIC "-//W3C//DTD SVG 1.1//EN" "http://www.w3.org/Graphics/SVG/1.1/DTD/svg11.dtd">
<!-- Creator: CorelDRAW -->
<svg xmlns="http://www.w3.org/2000/svg" xml:space="preserve" width="0.624276in" height="0.688508in" version="1.1" style="shape-rendering:geometricPrecision; text-rendering:geometricPrecision; image-rendering:optimizeQuality; fill-rule:evenodd; clip-rule:evenodd"
viewBox="0 0 405.57 447.29"
 xmlns:xlink="http://www.w3.org/1999/xlink"
 xmlns:xodm="http://www.corel.com/coreldraw/odm/2003">
 <defs>
  <style type="text/css">
   <![CDATA[
    .fil2 {fill:#040504}
    .fil0 {fill:#232424}
    .fil1 {fill:#FEFEFE}
   ]]>
  </style>
 </defs>
 <g id="Layer_x0020_1">
  <metadata id="CorelCorpID_0Corel-Layer"/>
  <g id="_1936666382256">
   <path class="fil0" d="M360.13 374.69l31.35 -0.08 0.08 57.14 -31.58 -0.32 0.14 -56.74zm-107.84 -0.71l93.65 0.28 -0.25 57.16 -93.54 0.03 0.14 -57.47zm-113.35 43.98l-0.06 -43.9 98.25 0.02 -0.03 57.52 -98.21 -0.05 0.05 -13.59zm177.11 -108.11c0.45,-0.24 1.14,-1.08 1.38,-0.63l74.75 0.24c4.07,7.55 2.44,45.19 1.12,52.11 -12.55,1.64 -68.44,2.24 -78.77,-0.37l0.16 -48.62c0.12,-0.42 0.53,-1.1 0.64,-1.42 0.11,-0.31 0.46,-0.89 0.72,-1.31zm-15.36 -0.89l0.78 51.6c5.59,3.04 -0.99,1.67 -6.81,1.96l-103.97 -1.43 -0.2 -52.38 113.57 -0.6 0.46 52.64c0.85,-9.26 4.46,-45.06 -3.83,-51.8zm-121.47 1.28l2.28 10.07c0.11,4.17 -0.23,8.93 -0.26,13.2 -0.28,33.97 1.65,29.05 -21.02,28.86 -7.91,-0.07 -16.64,0.03 -23.51,-0.98 -1.67,-10.44 -2.59,-43.02 0.53,-52.26 7.49,-1.62 13.08,-0.96 20.78,-0.96 5.8,0.01 17.19,-1.67 21.19,2.07zm143.46 -13.24l2.25 -4.2c-5.97,3.37 -2.23,1.23 -3.94,0.02 4.65,-3.16 11.02,-4.91 8.01,-14.8 -0.5,-1.63 -10.17,-14.26 -11.15,-15.55 -4.14,1.69 -2.79,1.76 -1.67,-2.66 -4.13,-1.71 -12.69,-13.53 -17.57,-19.24 -4.07,1.32 -3.06,1.76 -1.92,-2.41 -4.14,1.25 -3.33,1.88 -2.06,-2.27 -5.4,-2.07 -9.27,-8.83 -13.16,-12.82 -5.21,-5.35 -9.63,-7.36 -12.63,-15.16 5.03,-4.79 7.21,-6.04 11.5,-11.98 10.21,-14.11 3.96,-10.1 11.72,-12.05 -1.11,-4.49 -2.36,-4.27 1.89,-2.59 3.44,-4.78 7.23,-8.47 11.07,-12.63 2.97,-3.22 3.22,-4.12 5.94,-7.16 6.24,-6.99 0.61,-3.58 7.63,-5.27 -1.06,-4.18 -2.1,-3.79 1.92,-2.41 -1.26,-4.08 -1.97,-3.36 2.13,-2.2 -1.08,-4.25 -2.14,-3.87 1.93,-2.43 -1.29,-4.06 -2.02,-3.36 2.07,-2.21 3.56,-5.16 14.73,-18.32 20.57,-20.71 -0.92,-3.8 -1.74,-3.21 1.99,-2.23 -0.89,-3.98 -1.95,-3.63 1.82,-2.43 -1.08,-4.34 -2.21,-4.01 1.92,-2.51 -1.42,-4 -1.93,-3.07 2.24,-2.1 4.04,-7.51 8.78,-9.49 13.84,-16.5 7.56,-10.45 10.13,-9.5 16.11,-16.16 22.58,-25.17 7.26,-33.66 2.13,-42.83 -4.96,-1.74 -1.2,1.09 -6.26,-4.41 -20.95,-22.76 -32.67,-58.21 -69.58,-11.68l-16.02 18.87c-6.21,6.7 -1.28,3.51 -7.74,5.21 -8.05,13.5 -37.48,42.67 -40.29,46.45l-41.68 43.57c-4.51,-5.18 -8.28,-7.28 -14.05,-15.06 -2.39,-3.21 -4.34,-5.77 -6.94,-8.32l-23.52 -24.01c-21.19,-16.87 -13.92,-24.72 -39.95,3.13 -5.12,5.48 -10.28,14.49 -18.4,20.71 -9.46,7.25 -12.51,11.09 -19.63,19.18l-13.92 16.54c-6.74,6.22 -1.27,2.59 -6.78,3.97 1.26,4.24 2.15,3.68 -2.04,2.31 -7.61,9.44 -18.17,21.15 -26.81,29.5 -13.24,12.8 -10.47,15.46 -13.17,43.59 -3.35,34.9 -6.64,65.44 -10.7,101.9 -11.7,105.12 -14.94,96.31 52.51,82.58l35.8 -7.37c11.25,-3.58 6.56,-1.13 8.44,-8.69 -19.45,-4.68 -70.95,18.93 -93.09,13.67 -3.22,-14.22 15.64,-202.71 21.05,-211.71 3.11,-5.17 12,-15.55 17.48,-17.31 -1.7,-4.14 -2.07,-3.11 2.3,-2.03 -1.04,-4.27 -2.22,-4.01 1.81,-2.52 -1.27,-4.28 -2.14,-3.71 2.06,-2.27 -1.31,-4.41 -2.34,-3.99 1.96,-2.37 -1.47,-4.38 -2.34,-3.81 2.03,-2.3l38.99 -43.31c6.39,-5.06 5.25,-3 10.6,-8.82 25.08,-27.26 27.43,-44.61 46.32,-14.38 4.56,1.32 1.79,-0.08 5.53,3.03l33.5 40.29c-1.68,8.63 -13.05,17.91 -15.41,32.59 -7.28,45.23 37.06,61.14 64.28,44.48 4.23,-2.59 3.54,-3.03 6.43,-4.6 6.7,-3.63 7.83,-0.96 7.96,-0.9l5.86 4.22c-3.45,-6.16 -1.59,-2.57 -4.73,-4.37 5.74,-4.91 1.7,0.66 15.59,13.27l41.38 47.4c-2.79,5.28 -2.95,4.93 -6.74,8.57l-8.58 8.4c-7.75,3.8 -132.12,-0.49 -162.59,0.46 -16.79,0.53 -13.39,5.42 -13.48,34.54 -0.04,12.28 0.04,24.53 0.07,36.81 0.06,23.75 -0.72,48.13 0.27,71.78l274.86 0.17c-1.85,-24.14 -0.33,-77.4 -0.33,-106.61 0,-9.67 3.5,-27.68 -2.8,-33.69 -5.8,-5.83 -80.53,0.07 -76.44,-4.98zm75.73 -0.09c2.61,4.68 -0.68,2.46 6.29,6.27 -2.75,-5.14 -0.69,-3.3 -6.29,-6.27zm-269.41 -0.27l-3.72 3.33c3.25,-1.24 0.55,3.2 3.72,-3.33zm174.16 -32.42c3.8,5.78 2.48,4.57 6.44,8.65 -3.03,-8.9 0.21,-3.62 -6.44,-8.65zm-23.58 -25.99c3.54,4.76 3.38,4.57 6.5,8.61 3.21,4.16 1.81,3.37 5.85,6.66 -4.84,-8.78 -3.59,-9.68 -12.35,-15.27zm-28.43 -13.18c4.83,-2 4.38,-1.65 6.71,-3.87 -10.61,1.62 -1.99,-0.5 -6.71,3.87zm-12.21 6.86c-4.38,-0.97 -3.69,-2.15 -3.35,1.96l3.35 -1.96zm-31.18 1.98c0.68,-3.87 1.16,-2.69 -2.97,-1.72l2.97 1.72zm-18.08 -14.55c1.23,-4.21 1.67,-2.78 -3.19,-2.78 0.76,4.21 -0.57,3.67 3.19,2.78 1.98,4.27 -0.77,1.04 2.52,4.36 2.84,2.85 0.7,0.76 4.78,3.51l-7.3 -7.87zm-3.95 -2.42l-2.14 -1.71 2.14 1.71zm-3.62 -43.69c4.62,-0.63 3.72,0.69 2.92,-3.82 -3.96,0 -2.55,-0.83 -2.92,3.82zm5.78 -13.21l2.49 -2.02 -2.49 2.02zm4.52 -4.12c4.4,-1.37 3.48,0.16 3.55,-3.95 -4.31,0 -2.79,-0.93 -3.55,3.95zm-10.52 -23.8c3.96,5.39 4.86,6.83 8.6,10.82 -2.7,-8.62 -1.84,-6.54 -8.6,-10.82zm-23.85 -25.99c3.74,5 3.37,4.48 6.7,8.74 2.91,3.72 2.02,3.41 5.73,6.56 -4.22,-8.6 -3.83,-9.7 -12.43,-15.29zm-34.59 4.33c4.32,-3.8 5.46,-6.24 9.03,-10.39 1.37,-1.6 2.96,-3.57 4.25,-4.42 6.58,-4.34 -2.22,-2.41 8.33,-2.46 -2.88,-5.6 1.55,-2.97 -5.33,-3.33 -6.09,6.19 -12.38,11.49 -16.29,20.61zm-43.26 45.49c4.74,-3.48 2.61,-2.09 6.28,-6.46 3.02,-3.59 2.96,-3.73 6.04,-7.11 5.01,-5.5 7.57,-7.61 13.15,-14.59 -10.17,5.93 -18.82,17.23 -25.47,28.16zm-43.6 45.37c7.27,-4.51 11.5,-11.43 15.64,-17.23 -7.23,4.89 -10.62,10.97 -15.64,17.23zm-4.95 17.03l3.03 -6.95c-3.55,2.28 -3.45,-5.73 -3.03,6.95zm-2.1 19.67c2.93,-4.1 1.98,-0.97 2.88,-8.54 -0.47,0.43 -1.34,0.32 -1.45,1.27 -0.1,0.89 -1.02,1.04 -1.13,1.44 -1.35,5 -0.94,0.95 -0.3,5.82zm-15.54 171.88c-0.78,4.31 -1.66,3.41 2.65,2.69 0,-3.57 0.9,-2.69 -2.65,-2.69zm3.27 1.78c6.71,5.07 -8.27,5.37 3.37,1.76 0.27,-0.08 1.11,-0.5 1.37,-0.62 0.32,-0.14 0.83,-0.91 1.2,-1.4l-5.94 0.26zm12.6 0.46c6.6,-0.22 3.1,0.83 3.92,-2.9 -7.18,1.05 -1.9,-0.4 -3.92,2.9zm19.81 -4.28c7.34,-0.73 2.92,0.33 3.62,-2.96l-3.62 2.96zm10.51 -2.24c7.5,-0.17 3.3,0.6 3.85,-2.89 -6.97,1.15 -1.83,-0.35 -3.85,2.89zm45.73 1.02c-3.31,-0.01 -2.28,-0.79 -2.86,2.62 3.67,-0.17 2.86,0.84 2.86,-2.62zm-66.94 14.89c-8.07,0.33 -3.02,-0.43 -4.28,2.93l4.28 -2.93zm-36.44 -7.9l2.75 4.42 0.59 2.23 -0.59 -2.23c1.43,-5.6 2.74,-4.42 -2.75,-4.42zm-0.59 -1.34c1.25,-4.85 2.6,-4.16 -1.97,-3.69l1.97 3.69zm14.01 -149.38c-3.29,4.14 -2.17,2.55 -3.06,9.53 2.93,-1.53 1.85,1.27 3.19,-4.01 1.8,-7.08 0.77,-2.05 -0.14,-5.52zm9.55 -70.13l2.64 -2.2 -2.64 2.2zm48.03 -49.83c-5.9,4.45 -6.81,6.78 -11.16,12.96 6.95,-4.75 7.52,-6.25 11.16,-12.96zm43.35 -45.47c-4.1,3.16 -5.44,5.31 -8.37,8.78 -3.85,4.55 -4.41,4.97 -8.89,10.67 8.3,-5.14 12.61,-10.98 17.25,-19.45zm44.8 -6.54c-3.01,-3.93 -3.72,-5.37 -6.39,-8.13 -1.37,-1.41 -1.6,-1.7 -3.5,-3.07 -3.73,-2.69 0.38,-0.36 -4.28,-2.43 0.46,-3.14 1,-2.02 -2.48,-2.76 0,4.18 -1.21,3.72 2.48,2.76 2.3,2.96 3.16,4.12 6.15,7.13 4.79,4.84 2.38,3.08 8.02,6.5zm18.61 21.17c-0.95,4.12 -1.41,2.65 3.41,2.65 -1.13,-3.93 0.21,-3.34 -3.41,-2.65l-4.04 -7.04c-2.1,-2.87 -2.43,-3.26 -5.08,-5.5l9.12 12.54zm21.1 22.14c-3.64,-5.16 -4.19,-7.18 -8.46,-10.91 4.29,8.8 0.99,5.59 8.46,10.91zm2.96 2.02c1.97,3.05 -0.78,4.87 3.45,0.14l-3.45 -0.14zm18.72 -17.13c-4.73,4.29 -7.72,8.71 -12.75,15.1 6.98,-4.18 9.58,-6.85 12.75,-15.1zm23.85 -25.96c-4.93,4.13 -6.1,6.83 -10.72,12.92 7.62,-4.59 6.83,-4.38 10.72,-12.92zm25.64 -28.78l1.84 -2.11 2.3 -1.8 -2.3 1.8 -1.84 2.11c-2.91,3.16 -3.53,4.28 -5.88,7.28 -3.03,3.88 -3.06,3.8 -6.59,8.43 7.67,-4.85 9.36,-7.05 12.46,-15.71zm20.8 -20.51l1.52 -2.62 1.8 -2.63 1.72 -1.9 -1.72 1.9 -1.8 2.63c-3.45,0.04 -2.76,-0.71 -1.52,2.62 -4.07,-0.41 -3.16,-1.17 -2,2.87 -4.14,-1.03 -2.62,-1.61 -3.72,3.03l3.72 -3.03 2 -2.87zm28.09 -30.46l1.5 -2.49c-3.31,0 -2.64,-0.71 -1.5,2.49 -4,-0.16 -3.12,-0.98 -1.94,2.98 -3.89,-0.88 -2.99,-1.49 -2.01,2.46 -3.62,-0.84 -2.8,-1.45 -2.01,2.25 -3.75,-0.75 -2.38,-1.36 -3.54,2.69 4.97,0 4.5,1.52 3.54,-2.69 3.73,0.7 3.03,1.42 2.01,-2.25l2.01 -2.46 1.94 -2.98zm11.97 -10.91l-3.86 2.92c-3.19,-1.3 -2.59,-2.09 -2.59,1.15l2.59 -1.15c4.28,0.47 2.94,1.38 3.86,-2.92zm-0 0c3.87,0.47 2.87,1.35 3.12,-2.5 -3.87,0.18 -3.12,-0.94 -3.12,2.5zm13.02 -2.36c0.94,4.58 -0.46,3.61 4.14,2.99 0,-4.23 0.87,-2.72 -4.14,-2.99zm10.07 7.52l1.78 1.74 2.05 2.72 2.03 2.43 1.97 2.25c-0.89,4.15 -1.38,2.66 3.5,2.66 -1.14,-3.97 0.2,-3.36 -3.5,-2.66 0.73,-3.63 1.57,-3.06 -1.97,-2.25 0.99,-3.98 1.89,-3.39 -2.03,-2.43 1.17,-4.08 2.06,-3.35 -2.05,-2.72 1.28,-3.63 1.85,-3.03 -1.78,-1.74 0.54,-4.25 1.28,-3.23 -3.02,-2.09 0.83,-3.54 1.32,-2.25 -2.73,-3l2.73 3 3.02 2.09zm25.44 28.43l1.99 2.28 3.5 2.75c-1.07,-4.17 0.31,-3.58 -3.5,-2.75 0.88,-3.82 1.74,-3.25 -1.99,-2.28 1.11,-4.09 2.04,-3.31 -2.05,-2.91 1.25,-3.46 2.01,-2.72 -1.52,-2.72l1.52 2.72 2.05 2.91zm11.05 11.87c0.12,4.03 -0.82,2.58 3.28,3.99 -0.49,-4.91 0.99,-3.99 -3.28,-3.99zm5.49 22.19c-3.17,-0.37 -2.61,-1.1 -1.93,1.96l1.93 -1.96zm-2.2 1.3c-4.29,1.25 -3.41,-0.21 -3.34,3.85 4.19,0 2.73,0.91 3.34,-3.85zm-25.83 30.34c1.76,-1.75 3.3,-3.46 4.91,-5.64 0.38,-0.51 1.46,-2.09 1.8,-2.62 2.32,-3.62 0.5,-0.2 2.38,-4.25 3.52,0.69 2.73,1.34 2.06,-2.24 3.55,0.61 2.25,1.2 3.41,-2.59 -4.71,0 -4.2,-1.43 -3.41,2.59 -3.59,-0.57 -2.88,-1.3 -2.06,2.24 -5.82,4.68 -6.54,4.97 -9.09,12.51zm-28.21 30.3l4.84 -5.37c-4.26,3.19 -1.55,-1.97 -4.84,5.37zm-31.39 32.21c4.41,-3.54 -0.41,1.5 3.91,-3.39 2.67,-3.02 0.82,-0.99 3.76,-5 -7.18,4.73 -3.8,0.51 -7.68,8.39zm-27.11 30.62c3.68,-3.93 4.33,-5.44 8.33,-10.86 -6.69,4.15 -5.74,2.03 -8.33,10.86zm11.07 41.09c-3.15,-5.22 -2.79,-5.45 -6.39,-8.77 3.21,7.63 0.75,3.63 6.39,8.77zm21.52 23.82c-3.88,-6.15 -2.23,-4.53 -6.46,-8.73 2.99,7.96 0.36,3.57 6.46,8.73zm13 15.16c-2.76,-5.09 -1.5,-3.82 -5.08,-6.37 2.87,9.24 -0.01,2.46 5.08,6.37zm-60.93 -86.61c-51.15,66.02 -91.78,18.96 -67.74,-20.24 8.23,-13.41 20.9,-24.51 23.73,-28.47l33.92 37.34c3.33,3.83 7.48,7.38 10.1,11.38zm-33.48 -59.78c4.8,-5.18 7.94,-9.72 12.78,-15.27l27.41 -28.7c13.84,-13.03 52.85,-61.88 66.99,-70.51 5.1,2.26 32.73,33 37.81,39.17 8.67,10.51 1.62,15.6 -4.98,22.83l-75.35 80.67c-5.97,7.32 -12.68,13.1 -18.49,20.01l-46.16 -48.21z"/>
   <path class="fil1" d="M234.93 128.64l46.16 48.21c5.81,-6.92 12.52,-12.69 18.49,-20.01l75.35 -80.67c6.6,-7.23 13.65,-12.32 4.98,-22.83 -5.08,-6.16 -32.71,-36.9 -37.81,-39.17 -14.13,8.63 -53.15,57.48 -66.99,70.51l-27.41 28.7c-4.84,5.55 -7.98,10.09 -12.78,15.27z"/>
   <polygon class="fil1" points="138.89,431.55 237.1,431.6 237.13,374.08 138.88,374.06 138.94,417.96 "/>
   <polygon class="fil1" points="252.15,431.45 345.68,431.43 345.94,374.26 252.29,373.98 "/>
   <path class="fil1" d="M301.48 360.56l-0.78 -51.6c-14.28,3.85 -87.86,1.75 -107.86,1.22l-0.19 49.24 108.83 1.14z"/>
   <polygon class="fil1" points="392.18,309.45 316.05,309.85 316.17,359.59 391.81,359.44 "/>
   <path class="fil1" d="M268.41 188.42c-2.61,-4 -6.77,-7.54 -10.1,-11.38l-33.92 -37.34c-2.82,3.97 -15.5,15.06 -23.73,28.47 -24.04,39.2 16.59,86.26 67.74,20.24z"/>
   <path class="fil2" d="M333.43 2.53l0 -0c-0.92,4.3 0.42,3.39 -3.86,2.92l-2.59 1.15 -4.02 4.35 -1.5 2.49 -1.94 2.98 -2.01 2.46c1.01,3.68 1.72,2.96 -2.01,2.25 0.96,4.21 1.43,2.69 -3.54,2.69 -4.56,0.81 -2.27,0.09 -6.37,4.39 -2.51,2.64 -4.72,5.57 -7.16,8.54l-1.72 1.9 -1.8 2.63 -1.52 2.62 -2 2.87 -3.72 3.03 -0.01 -0.31 -10.93 11.01 -2.3 1.8 -1.84 2.11c-3.1,8.67 -4.8,10.87 -12.46,15.71 -5.52,1.28 -10.02,8.19 -13.18,13.07 -3.89,8.54 -3.1,8.33 -10.72,12.92 -5.29,1.09 -10.07,8.16 -13.13,13.05 -3.17,8.26 -5.77,10.93 -12.75,15.1 -4.14,-1.05 -1.36,-0.84 -2.52,2.17 -4.23,4.73 -1.48,2.91 -3.45,-0.14 -1.83,-4.28 0.35,-1.97 -2.96,-2.02 -7.46,-5.32 -4.17,-2.12 -8.46,-10.91 -3.39,-4.93 -3.88,-7.34 -9.22,-8.58 -4.83,0 -4.36,1.47 -3.41,-2.65l-9.12 -12.54c-3.34,-4.61 -4.12,-6.88 -9.49,-8.64 -5.64,-3.42 -3.23,-1.67 -8.02,-6.5 -2.98,-3.01 -3.85,-4.17 -6.15,-7.13 -3.69,0.96 -2.48,1.42 -2.48,-2.76 -9.03,-1.4 -23.75,16.66 -28.15,22.93 -4.65,8.47 -8.96,14.31 -17.25,19.45 -4.53,0.59 -2.19,-0.24 -6.61,4.1 -2.35,2.31 -3.85,4.44 -6.15,7.01 -4.99,5.57 -9.13,9.11 -13.34,14.91 -3.64,6.71 -4.21,8.21 -11.16,12.96l0.09 -0.27c-4.18,-1.34 -3.31,-1.92 -2.04,2.31 -6.58,2.33 -28.99,27.52 -32.28,32.64l-2.64 2.2c-6.8,11.77 -12.03,53.7 -9.55,70.13 0.91,3.48 1.93,-1.56 0.14,5.52 -1.34,5.27 -0.27,2.47 -3.19,4.01l-12.92 136.16c4.57,-0.47 3.22,-1.16 1.97,3.69l0.59 1.34c5.49,0 4.18,-1.18 2.75,4.42l0.59 2.23c9.17,10.08 14.2,6.35 28.82,4.19 1.26,-3.37 -3.79,-2.6 4.28,-2.93 11.09,1.24 50.72,-9.07 64.08,-12.27 0.58,-3.41 -0.45,-2.63 2.86,-2.62 2.05,-2.35 1.93,1.38 2.26,-4.1 0.58,-9.57 -0.03,-2.07 -1.1,-5.11 -12.48,-3.65 -29.43,3.34 -43.04,5.29 -0.54,3.49 3.65,2.72 -3.85,2.89l-6.89 -0.72c-0.7,3.29 3.72,2.23 -3.62,2.96l-15.89 1.38c-0.82,3.73 2.69,2.68 -3.92,2.9l-6.66 -0.72c-0.37,0.49 -0.87,1.26 -1.2,1.4 -0.26,0.12 -1.1,0.53 -1.37,0.62 -11.64,3.61 3.34,3.31 -3.37,-1.76l-0.61 0.91c-4.31,0.73 -3.43,1.62 -2.65,-2.69 1.17,-28.3 5.04,-58.35 8.24,-86.66 2.03,-17.96 9.65,-70.57 7.3,-85.22 -0.64,-4.88 -1.05,-0.82 0.3,-5.82 0.11,-0.39 1.02,-0.54 1.13,-1.44 0.11,-0.95 0.98,-0.84 1.45,-1.27l-0.78 -11.14c-0.42,-12.69 -0.52,-4.68 3.03,-6.95l1.92 -10.08c5.01,-6.26 8.41,-12.34 15.64,-17.23l-0.29 0.03c4.18,1.57 3.45,2.28 2.3,-2.03 4.09,1.25 3.03,1.66 1.81,-2.52 4.24,1.35 3.42,1.97 2.06,-2.27 4.34,1.46 3.4,1.98 1.96,-2.37 4.35,1.58 3.43,2.11 2.03,-2.3 4.61,-1.37 1.84,-0.08 5.63,-2.99 1.3,-0.99 2.99,-2.87 4.36,-4.33 3.48,-3.71 5.21,-5.53 8.1,-9.36 6.65,-10.93 15.3,-22.24 25.47,-28.16 6.73,-1.68 13.56,-11.47 17.78,-17.33 3.91,-9.12 10.2,-14.41 16.29,-20.61 6.87,0.36 2.44,-2.27 5.33,3.33 1.89,2.89 2.86,4.47 5.57,7.36 0.96,1.02 2.23,2.25 3.39,3.14 3.52,2.7 0.1,0.72 4,2.43l0.02 0.02c8.59,5.6 8.21,6.69 12.43,15.29 1.97,2.33 3.25,4.21 5.19,6.28 4.14,4.4 1.9,3.63 6.23,4.41 6.76,4.28 5.9,2.21 8.6,10.82 2.21,3.44 3.05,4.25 5.47,9.03 -0.07,4.1 0.84,2.58 -3.55,3.95 -2.7,-1.57 -1.08,-1.18 -2.03,2.1l-2.49 2.02 -2.86 9.38c0.8,4.52 1.7,3.19 -2.92,3.82 -7.77,11.09 -2.64,31.26 1.48,41.98l2.14 1.71 0.76 -0.36c4.85,0 4.41,-1.44 3.19,2.78l7.3 7.87c1.82,4.19 2.31,3.61 7.8,4.95 4.13,-0.97 3.65,-2.15 2.97,1.72l27.83 -0.02c-0.34,-4.11 -1.03,-2.93 3.35,-1.96 6.08,-1.59 10.11,-2.25 12.21,-6.86 4.71,-4.37 -3.9,-2.25 6.71,-3.87l2.47 -0.17c-0.13,-0.06 -1.26,-2.74 -7.96,0.9 -2.9,1.57 -2.2,2.01 -6.43,4.6 -27.22,16.66 -71.56,0.75 -64.28,-44.48 2.36,-14.68 13.73,-23.96 15.41,-32.59l-33.5 -40.29c-3.74,-3.1 -0.97,-1.71 -5.53,-3.03 -18.89,-30.22 -21.24,-12.87 -46.32,14.38 -5.36,5.82 -4.21,3.76 -10.6,8.82l-38.99 43.31c-4.37,-1.51 -3.5,-2.08 -2.03,2.3 -4.29,-1.62 -3.27,-2.04 -1.96,2.37 -4.21,-1.44 -3.34,-2.01 -2.06,2.27 -4.03,-1.49 -2.85,-1.74 -1.81,2.52 -4.37,-1.08 -4,-2.11 -2.3,2.03 -5.48,1.76 -14.37,12.14 -17.48,17.31 -5.41,9 -24.26,197.49 -21.05,211.71 22.13,5.26 73.63,-18.35 93.09,-13.67 -1.88,7.56 2.81,5.12 -8.44,8.69l-35.8 7.37c-67.46,13.73 -64.21,22.54 -52.51,-82.58 4.05,-36.46 7.35,-67.01 10.7,-101.9 2.7,-28.12 -0.06,-30.78 13.17,-43.59 8.63,-8.35 19.2,-20.07 26.81,-29.5 4.18,1.37 3.3,1.93 2.04,-2.31 5.51,-1.38 0.04,2.25 6.78,-3.97l13.92 -16.54c7.12,-8.1 10.17,-11.93 19.63,-19.18 8.11,-6.22 13.27,-15.23 18.4,-20.71 26.04,-27.85 18.77,-20 39.95,-3.13l23.52 24.01c2.59,2.55 4.55,5.11 6.94,8.32 5.78,7.78 9.54,9.88 14.05,15.06l41.68 -43.57c2.81,-3.79 32.23,-32.95 40.29,-46.45 6.46,-1.7 1.53,1.49 7.74,-5.21l16.02 -18.87c36.91,-46.53 48.63,-11.08 69.58,11.68 5.06,5.5 1.3,2.67 6.26,4.41 5.13,9.17 20.45,17.66 -2.13,42.83 -5.98,6.67 -8.56,5.71 -16.11,16.16 -5.06,7.01 -9.8,8.99 -13.84,16.5 -4.17,-0.97 -3.66,-1.89 -2.24,2.1 -4.13,-1.5 -3,-1.83 -1.92,2.51 -3.77,-1.2 -2.7,-1.55 -1.82,2.43 -3.73,-0.98 -2.91,-1.57 -1.99,2.23 -5.83,2.38 -17.01,15.55 -20.57,20.71 -4.09,-1.15 -3.36,-1.85 -2.07,2.21 -4.07,-1.45 -3.01,-1.82 -1.93,2.43 -4.11,-1.16 -3.39,-1.88 -2.13,2.2 -4.01,-1.37 -2.97,-1.77 -1.92,2.41 -7.02,1.69 -1.39,-1.71 -7.63,5.27 -2.72,3.04 -2.97,3.94 -5.94,7.16 -3.84,4.16 -7.62,7.85 -11.07,12.63 -4.24,-1.69 -3,-1.91 -1.89,2.59 -7.76,1.95 -1.52,-2.06 -11.72,12.05 -4.29,5.94 -6.46,7.19 -11.5,11.98 3,7.8 7.42,9.81 12.63,15.16 3.89,3.99 7.75,10.76 13.16,12.82 -1.27,4.15 -2.08,3.52 2.06,2.27 -1.15,4.18 -2.15,3.73 1.92,2.41 4.88,5.71 13.44,17.53 17.57,19.24 -1.11,4.42 -2.47,4.35 1.67,2.66 0.98,1.29 10.66,13.92 11.15,15.55 3.01,9.9 -3.36,11.64 -8.01,14.8 1.71,1.22 -2.04,3.35 3.94,-0.02 3.63,-2.31 5.73,-3.15 7.27,-8.33 0.97,-3.24 1.16,-2.29 0.01,-5.92 -2.09,-6.64 -0.27,-2.32 -2.88,-3.52 -5.09,-3.91 -2.21,2.87 -5.08,-6.37 -1.32,-2.94 1.42,-0.79 -2.23,-3.98 -3.7,-3.24 0.2,-0.49 -4.18,-2.21 1.28,-4.34 2.53,-4.1 -1.67,-2.66l0.16 0.05c-6.11,-5.16 -3.47,-0.76 -6.46,-8.73 -1.85,-2.46 -2.64,-4 -4.89,-6.2 -0.45,-0.44 -1.83,-1.66 -2.31,-2.02 -3.85,-2.92 0.53,-0.52 -4.06,-2.35 1.15,-4.18 2.15,-3.72 -1.92,-2.41 1.18,-4.18 2.05,-3.61 -2.06,-2.27l0.19 0.16c-5.63,-5.14 -3.18,-1.13 -6.39,-8.77l-17.09 -17.85 12.4 -14.48c2.58,-8.83 1.63,-6.71 8.33,-10.86l-0.01 -0.22c4.24,1.3 3.15,1.74 1.89,-2.59 3.98,-1.32 1.9,-0.28 5.48,-3.04 1.37,-1.06 3.01,-2.81 4.42,-4.3 4.52,-4.75 5.09,-4.66 7.01,-9.62 3.87,-7.88 0.49,-3.66 7.68,-8.39l0.05 0.29c4.06,1.2 3.11,1.71 1.92,-2.41 4.06,1.28 3.27,1.92 2.13,-2.2 4.11,1.23 3.16,1.74 1.93,-2.43 4.06,1.36 3.21,1.94 2.07,-2.21 4.28,-1.74 0.44,0.42 4.12,-2.35 2.16,-1.62 2.84,-2.39 4.51,-4.17 2.92,-3.09 4.46,-5.03 6.98,-8.34 3.29,-7.34 0.58,-2.19 4.84,-5.37l0.11 -0.47c3.78,1.11 2.91,1.65 1.99,-2.23 3.87,1.03 2.91,1.51 1.82,-2.43 4.16,1.14 3.2,1.68 1.92,-2.51 4.01,1.37 3.23,2.03 2.24,-2.1 4.13,-1.78 0.46,0.4 3.99,-2.43 2.02,-1.62 2.73,-2.48 4.36,-4.29 2.85,-3.16 4.42,-5.11 6.96,-8.46 2.54,-7.54 3.26,-7.83 9.09,-12.51 -0.82,-3.55 -1.53,-2.81 2.06,-2.24 -0.8,-4.02 -1.3,-2.59 3.41,-2.59 3.19,-0.82 1.91,0.18 4.46,-2.5 7.22,-7.59 1.79,-0.41 3.48,-6.63 -0.07,-4.06 -0.95,-2.61 3.34,-3.85l0.28 0.66c-0.68,-3.06 -1.24,-2.34 1.93,-1.96 1.03,-6.7 2.48,-14.43 -2.2,-18.21 -4.1,-1.41 -3.17,0.04 -3.28,-3.99 -0.96,-3.69 1.4,-1.22 -1.66,-4.26 -3.66,-3.63 0.53,-0.44 -4.11,-2.22l0.21 -0.36 -3.5 -2.75 -1.99 -2.28 -2.05 -2.91 -1.52 -2.72c-2.1,-4.42 -5.59,-9.89 -10.55,-11 -4.88,0 -4.39,1.49 -3.5,-2.66l-1.97 -2.25 -2.03 -2.43 -2.05 -2.72 -1.78 -1.74 -3.02 -2.09 -2.73 -3 -0.19 0.56c-4.59,0.62 -3.19,1.59 -4.14,-2.99l-9.9 -0.13c-0.25,3.84 0.75,2.97 -3.12,2.5z"/>
   <path class="fil2" d="M266.2 225.24c2.29,3.05 3.15,4.16 6.02,7.24 4.49,4.81 2.14,4.04 7.37,5.75 8.76,5.6 7.51,6.49 12.35,15.27 1.94,2.43 2.91,3.9 5.12,6.17l4.14 3.48c0.36,0.25 1.3,0.81 1.97,1.07 6.64,5.03 3.4,-0.25 6.44,8.65l6.72 8.38c-10.3,14.04 -11.62,15.6 -34.84,15.41l-152.48 -0.03c-3.17,6.53 -0.46,2.09 -3.72,3.33 -1.44,23.23 -0.45,49 -0.48,72.52l0.79 66.7c1.55,5.11 -0.17,1.66 2.46,4.76 5.04,4.4 175.27,2.01 205.37,1.98 15.98,-0.02 58.69,4.08 69.32,-1.84 4.63,-4.46 2.19,-137.47 1.95,-140.9 -6.96,-3.81 -3.68,-1.59 -6.29,-6.27l-75.73 0.09c-4.09,5.05 70.65,-0.85 76.44,4.98 6.3,6 2.8,24.02 2.8,33.69 -0,29.2 -1.52,82.47 0.33,106.61l-274.86 -0.17c-0.99,-23.65 -0.21,-48.04 -0.27,-71.78 -0.03,-12.29 -0.11,-24.53 -0.07,-36.81 0.09,-29.11 -3.31,-34.01 13.48,-34.54 30.47,-0.96 154.84,3.34 162.59,-0.46l8.58 -8.4c3.79,-3.63 3.95,-3.28 6.74,-8.57l-41.38 -47.4c-13.89,-12.61 -9.85,-18.18 -15.59,-13.27 3.15,1.8 1.28,-1.79 4.73,4.37z"/>
   <polygon class="fil1" points="179.23,310.24 139.07,310.38 138.57,359.46 179.43,359.36 "/>
   <polygon class="fil1" points="359.99,431.43 391.57,431.75 391.49,374.61 360.13,374.69 "/>
   <path class="fil2" d="M300.69 308.96c8.29,6.74 4.68,42.53 3.83,51.8l-0.46 -52.64 -113.57 0.6 0.2 52.38 103.97 1.43c5.82,-0.29 12.4,1.08 6.81,-1.96l-108.83 -1.14 0.19 -49.24c20,0.53 93.58,2.63 107.86,-1.22z"/>
   <path class="fil2" d="M316.05 309.85l76.13 -0.39 -0.37 49.98 -75.64 0.16 -0.12 -49.74zm76.13 -0.39l-74.75 -0.24c-0.24,-0.45 -0.93,0.39 -1.38,0.63 -0.27,0.42 -0.62,1.01 -0.72,1.31 -0.11,0.32 -0.52,1 -0.64,1.42l-0.16 48.62c10.34,2.6 66.22,2.01 78.77,0.37 1.32,-6.92 2.95,-44.56 -1.12,-52.11z"/>
   <path class="fil2" d="M179.23 310.24l0.2 49.12 -40.86 0.1 0.5 -49.08 40.16 -0.14zm0 0c-4,-3.74 -15.39,-2.07 -21.19,-2.07 -7.71,-0.01 -13.29,-0.66 -20.78,0.96 -3.12,9.24 -2.2,41.82 -0.53,52.26 6.86,1.01 15.6,0.91 23.51,0.98 22.66,0.19 20.74,5.11 21.02,-28.86 0.04,-4.27 0.37,-9.02 0.26,-13.2l-2.28 -10.07z"/>
  </g>
 </g>
</svg>
