<?xml version="1.0" encoding="UTF-8"?>
<!DOCTYPE svg PUBLIC "-//W3C//DTD SVG 1.1//EN" "http://www.w3.org/Graphics/SVG/1.1/DTD/svg11.dtd">
<!-- Creator: CorelDRAW -->
<svg xmlns="http://www.w3.org/2000/svg" xml:space="preserve" width="0.62089in" height="0.686882in" version="1.1" style="shape-rendering:geometricPrecision; text-rendering:geometricPrecision; image-rendering:optimizeQuality; fill-rule:evenodd; clip-rule:evenodd"
viewBox="0 0 128.56 142.23"
 xmlns:xlink="http://www.w3.org/1999/xlink"
 xmlns:xodm="http://www.corel.com/coreldraw/odm/2003">
 <defs>
  <style type="text/css">
   <![CDATA[
    .fil2 {fill:#040504}
    .fil0 {fill:#232424}
    .fil1 {fill:#FEFEFE}
   ]]>
  </style>
 </defs>
 <g id="Layer_x0020_1">
  <metadata id="CorelCorpID_0Corel-Layer"/>
  <g id="_1936664859952">
   <path class="fil0" d="M86.61 128.52c1.13,-3.22 3.79,-2.04 5.88,-6.82 -2.14,-1.49 -1.87,-1.3 -3.87,0.48 -1.49,1.32 -1.34,1.55 -3.43,2.86 -0.67,1.67 -4.27,3.82 -5.6,4.75 -5.72,3.99 -15.9,10.06 -23.37,8.92 -5.4,-0.82 -16.1,-7.11 -21.09,-10.67 -1.12,-0.8 -5.44,-3.72 -5.94,-5.1 -1.34,0.44 -1.13,0.7 -0.73,-0.65 -10.23,-6.67 -20.67,-24.59 -23.04,-36.94 -1.84,-9.59 -1.65,-18.44 -1.66,-28.71 -0.01,-6.57 -0.91,-24.66 0.3,-29.9 10.55,-3.5 18.5,-0.88 39.52,-12.96 1.18,-0.68 1.49,-0.71 2.77,-1.43 2.4,-1.33 5.21,-4.06 8.35,-5.44l0.93 -1.16c2.4,-2.28 4.33,-2.59 6.07,0.46 9.09,5.44 18.71,12.19 29.08,15.2 14.84,4.31 13.61,2.36 22.33,4.45 2.01,6.87 0.23,41.84 0.88,44.6 0.49,2.12 -0.42,1.35 1.47,1.88l1.45 -45.9c-0.39,-2.67 0.05,-0.66 -1.04,-1.44l0.11 1.69c-1.74,-5.72 -4.98,-2.82 -16.72,-5.61 -9.79,-2.33 -20.98,-7.5 -29.8,-12.94 -9.86,-6.09 -6.75,-8.14 -13.3,-6.67l-2.83 2.68c-1.21,0.95 -2.45,1.64 -3.32,2.23 -10.57,7.2 -7.66,5.89 -21.47,11.57 -25.6,10.54 -27.56,-1.68 -27.51,17.3 0.06,22.26 -2.94,49.75 8.69,69.22l4.36 7.31 2.64 3.61c1.71,0.73 3.9,4.95 8.29,8.26l2.75 2.79c0.65,0.4 1.58,0.88 2.15,1.26 0.51,0.34 0.73,0.45 1.22,0.9 0.94,0.86 0.46,0.22 0.95,1.14l8.26 5.61c8.32,1.27 13.89,13.2 36.22,-0.27 3.38,-2.04 6.6,-4.47 10.03,-6.54zm-2.28 1.62c-1.93,0.7 -1.09,0.24 -1.96,1.62l1.96 -1.62zm-2.76 2.07c-1.28,0.03 -0.81,-0.26 -1.27,1.07 1.57,-0.17 1.27,0.31 1.27,-1.07zm-2 1.54c-1.15,-0.06 -0.76,-0.3 -0.97,0.95 1.23,-0.18 0.97,0.19 0.97,-0.95zm-2.18 1.23c-1.38,-0.16 -0.93,-0.44 -1.23,0.99 1.5,-0.15 1.23,0.31 1.23,-0.99zm-1.11 1.17l-0.44 0.66 0.44 -0.66zm-6.94 3.21c-1.38,-0.23 -1.06,-0.56 -1.14,0.76 1.37,-0.04 1.14,0.37 1.14,-0.76zm-1.79 0.45l-0.71 1.07 0.71 -1.07zm-2.01 0.71c-1.95,0.37 -0.64,-0.07 -0.9,1.03l0.9 -1.03zm-11.46 0.77l1.24 0.94c-0.31,-1.19 1.01,-0.98 -1.24,-0.94zm-0.92 0.21c-0.16,-1.5 0.22,-1.15 -1.32,-0.81 0,1.24 -0.24,0.76 1.32,0.81zm-4.22 -1.29c0.2,-0.98 0.37,-0.75 -0.63,-0.56l0.63 0.56zm-2.54 -1.47c-0.29,-1.42 0.15,-1.14 -1.24,-0.96 0,1.33 -0.28,0.88 1.24,0.96zm-1.66 -0.66c-0.13,-1.25 0.22,-0.98 -1.01,-0.83 0,1.13 -0.25,0.76 1.01,0.83zm-1.02 -0.73c-0.28,-1.48 0.17,-1.18 -1.27,-0.97 0,1.32 -0.28,0.85 1.27,0.97zm-1.38 -0.75c-0.33,-1.28 0.09,-1.03 -1.15,-0.94 0,1.2 -0.25,0.77 1.15,0.94zm-3.45 -2.05c-0.22,-1.44 0.22,-1.18 -1.15,-0.97 0,1.22 -0.26,0.78 1.15,0.97zm-2.07 -1.34c-0.36,-1.35 0.09,-1.08 -1.18,-1.02 0,1.27 -0.27,0.82 1.18,1.02zm-4.15 -2.67c0.62,0.55 0.65,0.6 2.08,1.2 -1.6,-1.52 1.45,-0.63 -2.08,-1.2zm-2.72 -2.22c0.71,0.82 0.5,0.69 2.04,1.44 -1.25,-1.38 0.8,-0.6 -2.04,-1.44zm-4.21 -3.22l2.11 1.36c-1.58,-1.62 1.18,-0.86 -2.11,-1.36zm-9.05 -9.8l1.39 2.09c-0.65,-3.29 0.27,-0.43 -1.39,-2.09zm-1.6 -2.19c-0.03,-1.29 0.26,-0.81 -1.1,-1.26 0.23,1.55 -0.25,1.26 1.1,1.26zm-2.98 -4.02l0.88 1.41 0.21 0.73 -0.21 -0.73c0.46,-1.79 0.88,-1.41 -0.88,-1.41zm-1.36 -2.07l0.86 1.36 0.24 0.79 -0.24 -0.79c0.46,-1.74 0.86,-1.36 -0.86,-1.36zm0.02 -0.02c0.08,-1.17 0.33,-0.81 -0.89,-0.99 0.13,1.25 -0.24,0.99 0.89,0.99zm-5.89 -11.4c0.26,-1.1 0.54,-0.94 -0.52,-0.73l0.52 0.73zm-1.17 -4.22c0.4,-1.54 0.79,-1.26 -0.69,-1.2l0.69 1.2zm-0.71 -67.79c-1.46,0.96 -1,0.5 -1.99,1.97 1.94,-1.1 1.13,-0.51 1.99,-1.97zm11.8 -1.9c2.29,-0.22 0.85,0.11 1.14,-0.98l-1.14 0.98zm7.82 -2.02c1.82,-0.33 0.6,0.08 0.89,-1.03l-0.89 1.03zm2.12 -1.25c1.2,0.34 1.11,0.68 0.76,-0.48l-0.76 0.48zm5.64 -1.94c1.21,0.23 1.01,0.54 0.9,-0.59l-0.9 0.59zm6.37 -2.64c1.16,0.17 0.9,0.43 0.87,-0.72l-0.87 0.72zm1.46 -0.49c1.2,0.1 0.81,0.35 1.07,-0.9 -1.34,0.09 -1.07,-0.3 -1.07,0.9zm1.34 -0.83c1.07,0.08 0.75,0.31 0.85,-0.8 -1.09,0.1 -0.85,-0.21 -0.85,0.8zm3.75 -1.78c1.31,0.23 0.89,0.47 1.12,-0.93 -1.36,0.18 -1.12,-0.24 -1.12,0.93zm1.07 -1.13l0.51 -0.74 -0.51 0.74zm4.18 -2.51l-1.29 0.87 -0.81 0.26 0.81 -0.26c1.67,0.45 1.29,0.81 1.29,-0.87zm2.07 -1.44l-1.23 0.94 -0.85 0.31 0.85 -0.31c1.64,0.45 1.23,0.77 1.23,-0.94zm2.76 -2.11c-1.36,0.25 -1.13,-0.19 -1.07,1 -1.18,-0.39 -0.94,-0.68 -0.94,0.49l0.94 -0.49c1.22,0.16 0.77,0.37 1.07,-1zm1.49 -1.09c1.28,-0.01 0.79,0.26 1.21,-1.14 -1.51,0.25 -1.21,-0.22 -1.21,1.14zm6.06 -1.87l0.73 0.87 -0.73 -0.87zm4.93 4.16l-2.12 -1.28c1.61,1.58 -1.35,0.77 2.12,1.28zm0.64 0.75c0.45,1.34 -0.02,1.06 1.25,1.09 0,-1.35 0.29,-0.87 -1.25,-1.09zm2.07 1.4c0.39,1.41 -0.09,1.13 1.27,1.05 0,-1.35 0.29,-0.88 -1.27,-1.05zm3.14 1.25l0.49 0.67 -0.49 -0.67zm0.47 0.83c0.31,1.3 -0.11,1.02 1.16,0.96 0,-1.25 0.27,-0.82 -1.16,-0.96zm1.23 0.8c0.21,1.47 -0.23,1.22 1.17,0.94 0,-1.23 0.26,-0.79 -1.17,-0.94zm11.04 5.51c0.26,1.45 -0.18,1.18 1.22,0.94 0,-1.27 0.27,-0.82 -1.22,-0.94zm1.81 0.62c-0.06,1.37 -0.36,1.08 1,0.77 0,-1.08 0.23,-0.72 -1,-0.77zm3.39 1.39c0.04,1.36 -0.27,1.02 1.14,0.75 0,-1.11 0.22,-0.7 -1.14,-0.75zm1.7 0.72c0.23,1.6 -0.2,1.23 1.44,0.9 0,-1.34 0.26,-0.82 -1.44,-0.9zm2.46 0.66c0.01,1.4 -0.29,1.02 1.2,0.7l-1.2 -0.7zm3.73 1.62l-1 -0.98c0.13,1 -0.94,0.6 1,0.98zm11.13 2.01l-2.37 -0.87c1.09,1.34 -0.26,1.23 2.37,0.87zm7.45 2.56c-0.97,-1.6 -0.4,-1.02 -2,-2.02 0.88,1.47 0.07,0.87 2,2.02zm-3.35 22.34l0.44 25.48 0.62 0.52c0.4,-1 0.47,-0.71 -0.62,-0.52 1.64,-6.08 1.65,-20.09 -0.44,-25.48zm-17.19 -24l0.8 1.01c-0.02,-1.04 1.07,-0.54 -0.8,-1.01zm-3.3 -0.42c0.04,-1.38 0.3,-0.97 -1.2,-0.64l1.2 0.64zm-2.21 -0.69c0.01,-1.25 0.27,-0.91 -1.06,-0.64l1.06 0.64zm-4.94 -2.17c-0.23,-1.42 0.19,-1.15 -1.18,-0.92 0,1.21 -0.25,0.78 1.18,0.92zm-1.63 -0.61c-0.14,-1.34 0.22,-1.04 -1.13,-0.84 0,1.19 -0.25,0.78 1.13,0.84zm-1.72 -0.64c-0.06,-1.18 0.24,-0.92 -0.94,-0.73l0.94 0.73zm-8.22 -4.12c-0.13,-1.12 0.2,-0.89 -0.86,-0.83 0,1.04 -0.24,0.72 0.86,0.83zm-0.86 -0.79c-0.34,-1.37 0.1,-1.09 -1.24,-0.96 0,1.28 -0.27,0.82 1.24,0.96zm-3.45 -2.03c-0.3,-1.43 0.15,-1.15 -1.22,-1.01 0,1.3 -0.28,0.84 1.22,1.01zm-2.07 -1.34c-0.41,-1.38 0.06,-1.1 -1.26,-1.05 0,1.35 -0.29,0.87 1.26,1.05zm-4.15 -2.75c0.71,0.72 0.58,0.62 2.08,1.28 -0.93,-0.9 -0.45,-0.97 -2.08,-1.28zm-1.38 -1.35c-0.41,-1.41 0.07,-1.13 -1.23,-1.12 0,1.34 -0.29,0.86 1.23,1.12zm-4.13 -1.4l2.06 -0.08c-1.62,-1.5 -0.08,-1.77 -2.06,0.08zm-2.76 2.11l2.11 -1.32c-3.6,0.5 -0.33,-0.42 -2.11,1.32zm-1.44 1.08c-1.22,0 -0.81,-0.28 -1.1,1 1.36,-0.22 1.1,0.21 1.1,-1zm-4.08 2.85c1.48,-0.62 1.44,-0.62 2.09,-1.24 -3.59,0.61 -0.53,-0.34 -2.09,1.24zm0.07 0.25l-0.54 0.73 0.54 -0.73zm-2.17 1.07c-1.17,-0.09 -0.76,-0.32 -0.98,0.97 1.24,-0.19 0.98,0.19 0.98,-0.97zm-2.27 1.23c-1.33,-0.2 -0.9,-0.46 -1.16,0.95 1.41,-0.16 1.16,0.27 1.16,-0.95zm-1.17 0.91c-1.19,-0.12 -0.85,-0.38 -0.96,0.84 1.2,-0.1 0.96,0.25 0.96,-0.84zm-1.23 1.02l-0.47 0.59 0.47 -0.59zm-4.05 2.11c-0.99,-0.18 -0.86,-0.41 -0.58,0.53l0.58 -0.53zm-1.44 0.56c-0.97,-0.16 -0.74,-0.35 -0.62,0.63l0.62 -0.63zm-1.51 0.44c-1.24,-0.18 -0.89,-0.45 -1.02,0.81 1.27,-0.05 1.02,0.32 1.02,-0.81zm-1.58 0.49c-1.42,-0.22 -1,-0.51 -1.22,0.94 1.49,-0.11 1.22,0.34 1.22,-0.94zm-5.16 2.37c-1.43,-0.31 -1.13,-0.66 -1.16,0.71 1.37,-0.04 1.16,0.38 1.16,-0.71zm-2 0.83c-1.3,-0.29 -1.09,-0.63 -0.99,0.6l0.99 -0.6zm-2.09 0.62c-1.43,-0.35 -1.18,-0.72 -1.11,0.65l1.11 -0.65zm-18.13 64.59c-0.37,1.43 -0.76,1.23 0.6,1.06l-0.6 -1.06zm3.07 10.01c-0.27,1.49 -0.57,1.04 0.93,1.3 -0.1,-1.57 0.37,-1.3 -0.93,-1.3zm2.04 4.25c-0.14,1.29 -0.4,0.85 0.95,1.19 -0.14,-1.45 0.3,-1.19 -0.95,-1.19zm0.8 1.24c-0.08,1.24 -0.34,0.83 0.97,1.1 -0.17,-1.37 0.25,-1.1 -0.97,-1.1zm1.26 2.32c-0.21,1.26 -0.44,0.84 0.91,1.08 -0.2,-1.32 0.21,-1.08 -0.91,-1.08zm1.36 2.08c-0.23,1.3 -0.46,0.89 0.93,1.07 -0.22,-1.31 0.2,-1.07 -0.93,-1.07zm1.38 1.95c-0.09,1.33 -0.36,0.86 1.07,1.19 -0.24,-1.47 0.22,-1.19 -1.07,-1.19zm3.35 4.46c-0.34,1.35 -0.49,0.88 1.09,0.88 -0.32,-1.33 0.12,-1.14 -1.09,-0.88 -0.29,-1.36 -0.15,-1.13 -0.94,-1.86l0.94 1.86zm11.48 10.65c-0.74,-0.9 -0.52,-0.71 -2.04,-1.53 1.26,1.61 -0.94,0.76 2.04,1.53zm3.44 2.78c-0.67,-0.74 -0.52,-0.69 -2.02,-1.45 1.17,1.39 -0.8,0.62 2.02,1.45zm0.74 0.58c0.38,1.36 -0.08,1.1 1.19,1.03 0,-1.28 0.27,-0.82 -1.19,-1.03zm2.07 1.46c0.27,1.36 -0.16,1.12 1.11,0.96 0,-1.17 0.25,-0.74 -1.11,-0.96zm2.07 1.31c0.33,1.38 -0.12,1.13 1.17,1 0,-1.23 0.26,-0.78 -1.17,-1zm2.85 1.23l0.67 0.8 -0.67 -0.8zm0.61 0.84c0.38,1.37 -0.07,1.09 1.27,0.99 0,-1.33 0.28,-0.87 -1.27,-0.99zm1.38 0.73c0.35,1.35 -0.09,1.08 1.22,0.95 0,-1.28 0.27,-0.83 -1.22,-0.95zm1.38 0.7c0.3,1.44 -0.14,1.16 1.28,0.92 0,-1.28 0.26,-0.81 -1.28,-0.92zm2.18 0.58c-0.07,0.94 -0.27,0.69 0.71,0.61l-0.71 -0.61zm8.03 3.77l-0.94 -1c0.21,1.06 -0.8,0.67 0.94,1zm7.43 -1.09c1.37,0.36 1.19,0.74 1,-0.58l-1 0.58zm7 -2.82c0.95,0.14 0.76,0.35 0.6,-0.6l-0.6 0.6zm7.11 -3.8c-1.27,0.22 -1.04,-0.19 -1.03,0.91 -1.22,-0.38 -0.99,-0.7 -0.99,0.48l0.99 -0.48c1.44,0.43 1.03,0.65 1.03,-0.91zm0.03 -0.05c1.18,0.1 0.83,0.35 0.89,-0.91 -1.13,0.2 -0.89,-0.15 -0.89,0.91zm4.11 -2.85l-2.13 1.18c3.42,-0.36 0.58,0.23 2.13,-1.18zm3.45 -2.79c-1.51,0.85 -1.29,0.7 -2,1.6 2.93,-0.96 0.85,0 2,-1.6zm8.28 -2.99c-1.22,0 -0.96,-0.3 -0.79,0.89 1.06,0 0.74,0.24 0.79,-0.89zm-6.89 6.53c1.59,-0.87 1.01,-0.23 2.03,-1.59 -2.83,0.91 -0.74,-0 -2.03,1.59z"/>
   <path class="fil1" d="M53.4 66.23c-0.06,1.03 0.17,0.84 -0.8,0.42 -0.03,1.35 0.27,0.9 -1.26,1l-13.11 -0.05 -0.2 11.97c2.82,-0.25 5.61,-0.17 8.46,-0.19 8.03,-0.06 7.15,1.36 7.16,9 0,2.87 0.28,4.84 -0.54,7.49l11.63 0.14c-0.91,-3.95 -0.86,-12.84 0.11,-16.49l14.75 -0.14 -0.17 -11.53c-3.03,-0.08 -10.89,0.31 -13.41,-0.37 -0.12,-0.03 -0.39,-0.03 -0.48,-0.24 -0.08,-0.2 -0.3,-0.17 -0.44,-0.27 -1.73,-1.68 -0.69,-14.64 -0.39,-15.95l-11.63 0.05c1.14,4.1 0.79,10.77 0.31,15.15z"/>
   <path class="fil0" d="M78.14 118.68c-0.49,-1.23 -0.48,-0.76 0.92,-0.48 1.32,-3.16 2.74,-0.67 4,-5.26 -0.03,-0.01 -0.73,-1.53 -3.85,0.54 -1.28,0.85 -1.51,1.56 -2.89,2.65l-8.94 6.26c-3.87,2.32 -7.38,4.65 -12.24,2.24 -4.81,-2.38 -9.51,-4.56 -13.66,-7.74 -6.22,-4.76 -6.35,-5.3 -11.06,-10.39 -7.23,-7.83 -11.96,-17.83 -12.98,-29 -0.55,-6.01 -2.23,-36.83 0.06,-40.04 1.06,-1.04 14.27,-3.59 20.98,-6.67 3.9,-1.79 6.43,-2.58 9.43,-4.45 2.02,-1.26 7.53,-4.95 9.2,-5.41 -2.96,0.26 0.07,-0.22 -1.64,1.18l2.14 -1.23c-0.39,-0.71 -0.6,-0.12 0.13,-1.14 2.55,-0.37 -0.03,-0.71 4.73,2.31l14.94 7.87c7.47,3.28 14.66,5.18 23.13,7.22 0.88,6.56 -0.49,30.41 0.74,32.75 2.03,-0.67 2.52,1.8 2.34,-7.05 -0.06,-3.02 0.06,-5.82 0.02,-8.93 -0.07,-6.35 0.01,-12.64 -0.15,-19 -7.21,-0.73 -18.5,-5.06 -24.57,-7.31 -8.65,-3.21 -19.33,-11.22 -20.71,-11.06 -3.38,1.6 -5.69,3.93 -9.17,6.05 -3.17,1.93 -6.68,3.59 -10.06,5.11 -3.42,1.54 -7.66,2.89 -11.23,3.91 -16.4,4.71 -13.83,-1.01 -13.56,22.98 0.32,28.19 0.52,45.23 24.8,64.09 6.09,4.73 5.48,3.55 10.44,6.22 14.09,7.57 15.01,1.49 28.69,-6.19zm-1.37 1.18c-2.51,0.92 -1.01,0.25 -1.99,1.55l1.99 -1.55zm-2.81 2c-1.33,-0.07 -0.86,-0.34 -1.24,1.06 1.53,-0.19 1.24,0.28 1.24,-1.06zm-2.15 1.38c-1.31,-0.15 -0.87,-0.41 -1.16,0.97 1.43,-0.18 1.16,0.26 1.16,-0.97zm-4.67 2.88c-1.35,-0.21 -0.97,-0.49 -1.11,0.9 1.37,-0.08 1.11,0.32 1.11,-0.9zm-1.38 0.66c-1.46,-0.24 -1.05,-0.55 -1.22,0.92 1.49,-0.07 1.22,0.37 1.22,-0.92zm-11.35 1.68c0.25,-0.98 0.4,-0.75 -0.6,-0.52l0.6 0.52zm-3.79 -2.16c-0.32,-1.43 0.13,-1.12 -1.3,-0.96 0,1.34 -0.28,0.87 1.3,0.96zm-1.38 -0.67c-0.28,-1.45 0.16,-1.14 -1.29,-0.97 0,1.35 -0.28,0.88 1.29,0.97zm-1.38 -0.73c-0.34,-1.35 0.1,-1.08 -1.23,-0.96 0,1.29 -0.27,0.84 1.23,0.96zm-3.5 -1.99c-0.35,-1.43 0.12,-1.16 -1.22,-1.04 0,1.35 -0.29,0.89 1.22,1.04zm-2.4 -1.31c-0.14,-1.24 0.22,-0.99 -0.95,-0.93 0,1.11 -0.25,0.74 0.95,0.93zm-3.79 -2.74l2.1 1.24c-1.64,-1.58 1.34,-0.72 -2.1,-1.24zm-4.15 -3.43c1.14,1.08 1.88,1.38 3.49,2.48 -1.44,-2.11 -0.58,-1.55 -3.49,-2.48zm-7.46 -8.41c1.1,1.73 0.84,1.52 1.97,2.76 -0.91,-2.76 0.07,-1.14 -1.97,-2.76zm-2.15 -2.76l1.21 2.12c-0.43,-3.66 0.4,-0.36 -1.21,-2.12zm-0.55 -0.75c0.03,-1.14 0.28,-0.77 -0.93,-0.95 0.18,1.2 -0.18,0.95 0.93,0.95zm-1.19 -2.14c0.16,-1.42 0.44,-0.95 -1.05,-1.25 0.17,1.54 -0.3,1.25 1.05,1.25zm-4.87 -9.59c0.25,-1.48 0.55,-1.03 -0.93,-1.33 0.09,1.6 -0.4,1.33 0.93,1.33zm-0.97 -1.82c0.33,-1.43 0.68,-1.15 -0.69,-1.13l0.69 1.13zm-3.47 -53.34c1.12,0.09 0.82,0.31 0.62,-0.87l-0.62 0.87zm0.68 -0.69l1.39 -1.46c-1.65,0.29 -1.19,-0.2 -1.39,1.46zm11.31 -3.83c1.62,-0.46 0.63,-0 0.79,-1.03l-0.79 1.03zm2.18 -1.14c1.25,0.25 1.07,0.6 0.96,-0.55l-0.96 0.55zm2.18 -0.51c1.41,0.34 1.11,0.67 1.11,-0.71 -1.33,0.03 -1.11,-0.37 -1.11,0.71zm2.09 -0.67c1.45,0.32 1.14,0.67 1.16,-0.72 -1.38,0.04 -1.16,-0.38 -1.16,0.72zm1.93 -0.96c1.07,0.23 0.92,0.51 0.73,-0.51l-0.73 0.51zm3.82 -0.85c1.49,0.2 1.05,0.52 1.34,-0.95 -1.62,0.08 -1.34,-0.41 -1.34,0.95zm4.59 -2.51c0.99,0.15 0.76,0.36 0.67,-0.64l-0.67 0.64zm5.28 -2.28c1.25,0.11 0.84,0.37 1.14,-0.92 -1.38,0.17 -1.14,-0.26 -1.14,0.92zm1.21 -0.73c1.25,-0.01 0.8,0.27 1.22,-1.02 -1.5,0.16 -1.22,-0.29 -1.22,1.02zm2.16 -1.33c1.32,0.11 0.87,0.38 1.21,-1.02 -1.49,0.18 -1.21,-0.28 -1.21,1.02zm2.02 -1.37c1.39,0.09 0.91,0.38 1.26,-1.09 -1.56,0.21 -1.26,-0.27 -1.26,1.09zm2.82 -2.06c1.3,0.06 0.83,0.33 1.2,-1.06 -1.48,0.23 -1.2,-0.24 -1.2,1.06zm4.66 -1.02l1.12 1.03c0,-1.2 0.25,-0.75 -1.12,-1.03zm3.33 2.39l-1.26 -0.89c0,1.68 -0.39,1.34 1.26,0.89l0.87 0.27 -0.87 -0.27zm2.93 1.71c0.33,1.45 -0.14,1.17 1.24,1.04 0,-1.35 0.29,-0.89 -1.24,-1.04zm1.33 0.84c0.23,1.35 -0.18,1.12 1.09,0.9 0,-1.14 0.24,-0.72 -1.09,-0.9zm4.23 1.89c-0.14,1.05 -0.37,0.82 0.68,0.67l-0.68 -0.67zm1.24 0.72c0.01,1.06 -0.24,0.8 0.85,0.69l-0.85 -0.69zm1.53 0.66c0.04,1.03 -0.21,0.77 0.87,0.63l-0.87 -0.63zm2.98 1.45c0.07,1.43 -0.29,1.12 1.15,0.82 0,-1.17 0.24,-0.76 -1.15,-0.82zm25.37 44.22l1.21 -1.52c-1.31,0.84 -0.34,-1.29 -1.21,1.52zm-4.46 -33.34c1.5,2.34 0.89,2.57 0.91,7.74l0.9 24.02c2.04,-8.08 -1.28,-23.51 0.16,-31.12 -0.65,-0.54 -1.53,-0.5 -1.97,-0.64zm-4.35 -0.56c-0.03,-1.47 0.28,-1.08 -1.27,-0.71 0,1.14 -0.21,0.68 1.27,0.71zm-3.55 -1.67l0.81 1.04c-0.15,-1.04 1.02,-0.5 -0.81,-1.04zm-10.85 -3.16c-0.16,-1.34 0.2,-1.02 -1.2,-0.8 0,1.19 -0.24,0.75 1.2,0.8zm-3.23 -1.39c-0.32,-1.4 0.12,-1.09 -1.31,-0.93 0,1.33 -0.27,0.85 1.31,0.93zm-2.18 -0.6c0.16,-1.08 0.36,-0.82 -0.74,-0.6l0.74 0.6zm-7.6 -4.18c-0.23,-1.33 0.16,-1.04 -1.15,-0.93 0,1.23 -0.26,0.81 1.15,0.93zm-5.43 -3.35c0.61,0.5 0.75,0.6 2.14,1.14 -1.61,-1.43 1.49,-0.7 -2.14,-1.14zm-1.66 -0.63l-0.4 -0.72 0.4 0.72zm-2.41 -0.95l2.06 0.01c-0.22,-0.18 -0.5,-0.86 -0.69,-0.52 -0.15,0.27 -0.51,-0.07 -0.69,-0 -0.23,0.08 -0.47,0.33 -0.69,0.51zm-2.86 1.82c-1.34,-0.06 -0.86,-0.34 -1.24,1.09 1.53,-0.21 1.24,0.26 1.24,-1.09zm-2.03 1.52c-1.19,-0.05 -0.8,-0.31 -1.02,0.95 1.28,-0.17 1.02,0.22 1.02,-0.95zm-2.21 1.24c-1.34,-0.2 -0.91,-0.46 -1.18,0.95 1.44,-0.16 1.18,0.28 1.18,-0.95zm-1.17 0.95c-1.07,-0.05 -0.75,-0.29 -0.87,0.83 1.1,-0.12 0.87,0.2 0.87,-0.83zm-6.85 3.34c-1.25,-0.14 -0.86,-0.4 -1.13,0.85 1.38,-0.06 1.13,0.35 1.13,-0.85zm-1.62 0.54c-1.31,-0.13 -0.89,-0.4 -1.19,0.92 1.45,-0.12 1.19,0.32 1.19,-0.92zm-5.21 2.27c-1.51,-0.33 -1.16,-0.68 -1.24,0.8 1.47,-0.05 1.24,0.4 1.24,-0.8zm-2.03 0.74c-1.56,-0.29 -1.23,-0.69 -1.33,0.74 1.55,-0.04 1.33,0.45 1.33,-0.74zm-14.8 3.95c-1.38,-0.09 -1.01,-0.43 -1.24,0.83 1.46,-0.16 1.24,0.31 1.24,-0.83zm-0.12 46.58c0.12,1.86 -0.2,0.81 0.97,1.11l-0.97 -1.11zm2.47 6.61c-0.21,1.12 -0.49,0.94 0.58,0.79l-0.58 -0.79zm0.23 1.69c-0.24,1.5 -0.55,1.06 0.95,1.3 -0.08,-1.58 0.39,-1.3 -0.95,-1.3zm2.05 4.32c-0.2,1.28 -0.44,0.86 0.92,1.12 -0.18,-1.37 0.25,-1.12 -0.92,-1.12zm0.7 1.21c-0.03,1.29 -0.31,0.81 1.03,1.27 -0.16,-1.56 0.32,-1.27 -1.03,-1.27zm1.36 2.27c-0.24,1.3 -0.47,0.88 0.92,1.09 -0.21,-1.32 0.21,-1.09 -0.92,-1.09zm1.36 2.05c-0.13,1.26 -0.37,0.81 1,1.11 -0.26,-1.36 0.18,-1.11 -1,-1.11zm3.14 3.87c-0.79,-1.52 -0.63,-1.31 -1.49,-2.04 0.83,3.05 -0.08,0.72 1.49,2.04zm9.56 9.27l-1.98 -1.65c0.97,1.46 -0.59,0.73 1.98,1.65zm1.47 1.05c0.36,1.42 -0.11,1.15 1.2,1.07 0,-1.28 0.27,-0.81 -1.2,-1.07zm2.07 1.53c0.23,1.37 -0.2,1.14 1.07,0.94 0,-1.13 0.24,-0.71 -1.07,-0.94zm2.07 1.34c0.32,1.33 -0.11,1.07 1.14,0.96 0,-1.2 0.26,-0.77 -1.14,-0.96zm3.09 1.19c-0.21,0.88 -0.38,0.68 0.53,0.59l-0.53 -0.59zm0.99 0.76c-0.03,1.13 -0.31,0.89 0.8,0.75l-0.8 -0.75zm0.97 0.75c0.19,1.4 -0.21,1.11 1.19,0.89 0,-1.23 0.26,-0.8 -1.19,-0.89zm2.18 0.62c-0.14,0.91 -0.33,0.71 0.58,0.58l-0.58 -0.58zm3.82 2.19c0.27,1.54 -0.17,1.19 1.42,0.9 0,-1.33 0.26,-0.81 -1.42,-0.9zm6.15 0.14c1.48,0.27 1.1,0.6 1.26,-0.85 -1.51,0.07 -1.26,-0.39 -1.26,0.85zm1.65 -0.55c1.24,0.1 0.83,0.36 1.16,-0.91 -1.4,0.15 -1.16,-0.28 -1.16,0.91zm2.61 -1.47c1.27,0.14 0.87,0.39 1.08,-0.94 -1.35,0.11 -1.08,-0.28 -1.08,0.94zm3.37 -2.32l0.66 -0.81 -0.66 0.81zm2.98 -1.7c1.29,0.07 0.83,0.33 1.17,-1.06 -1.44,0.26 -1.17,-0.2 -1.17,1.06zm4.62 -3.82c-1.53,0.86 -1.21,0.58 -2,1.61 2.86,-0.96 0.86,-0.03 2,-1.61zm1.43 3.59c1.6,-0.84 1.05,-0.3 2.06,-1.4 -3.22,0.66 -0.43,-0.31 -2.06,1.4z"/>
   <path class="fil0" d="M51.35 67.65c1.53,-0.1 1.23,0.35 1.26,-1 0.97,0.41 0.73,0.6 0.8,-0.42l-0.8 0.42c-0.61,-0.7 -1.38,0.18 0.15,-0.51l0.3 -16.11 2.36 -0.3c-3.24,0.71 2.6,-1.09 -1.24,0.48 -3.74,1.52 0.56,-1.74 -1.08,0.87l11.63 -0.05 0.19 2.74c-0.01,20.81 0.61,10.66 14.89,13.69 1.22,2.91 1.03,9.22 0.2,12.33 -6.76,1.81 -6.82,-1.15 -14.78,1.57l-0.47 14.64 -11.63 -0.14c0.8,0.93 0.43,0.74 1.67,1.24 1.87,0.75 8.14,0.17 9.91,-0.25 -3.56,0.43 -8.2,0.87 -11.63,-0.13l-0.62 -15.51c-2.15,-1.32 -4.23,-1.01 -7.34,-0.95 -1.23,0.03 -3.2,0.28 -4.2,0.23 -4.5,-0.23 -3.7,-2.72 -3.64,-7.3 0.01,-0.89 -0.06,-2.73 0.05,-3.48 0.35,-2.43 -0.98,-2.46 7.79,-2.54 8.19,-0.07 6.3,-1.15 6.25,0.47zm-15.4 -2.97c1.48,-0.73 0.34,0.13 0.62,-1.16l-0.62 1.16c-1.37,-0.32 -0.93,-0.55 -1.14,0.92 1.91,-0.14 0.34,-1.21 0.44,2.68l-0.02 12.59c0.35,1.67 -1.78,2.32 6.41,2.17 2.73,-0.05 5.93,-0.48 8.37,0.54 1.53,8.59 -1.92,15.08 2.78,15.95l12.23 -0.01c1.49,-0.35 1.85,-0.33 2.32,-2.26l0.26 -6.11c-0.04,-2.62 -0.17,-5.14 0.09,-7.73 3.88,-0.91 11.11,1.22 13.74,-1.47 2.09,-2.09 1.57,-14.13 0.81,-16.8 -4.83,-2.32 -10.16,0.77 -14.4,-1.73 -0.86,-4.61 1.41,-11.61 -1.08,-15.3 -0.97,-0.85 -14.2,-1.43 -15.68,-0.02 -1.95,1.87 0.2,13.81 -1.17,15.47 -1.96,1.15 -13.84,1.15 -13.96,1.14zm47.07 16.8c-1.55,0.92 -1.04,0.35 -2.02,2 1.83,-0.96 1.13,-0.36 2.02,-2zm-14.46 3.57l0.09 -1.73c-1.23,1.12 -1.11,-1.17 -0.65,0.89 0.02,0.08 0.13,0.35 0.15,0.43 0.04,0.1 0.26,0.28 0.41,0.41zm-19.31 0.09c0.94,-1 1.27,1.62 0.48,-0.83 -1.01,-3.18 1.96,1.56 -0.6,-0.85l0.12 1.68zm0.01 -23.32l-0.02 1.85c0.92,-1.25 0.89,1.76 0.44,-0.92 -0.01,-0.09 -0.1,-0.38 -0.12,-0.46 -0.03,-0.1 -0.19,-0.31 -0.3,-0.46zm17.24 -14.86c0.33,1.54 -0.13,1.06 1.42,1.39 -0.24,-1.66 0.24,-1.2 -1.42,-1.39zm2.07 15.9c-1.03,0.4 -1.73,-0.25 0.01,0.76l-0.01 -0.76z"/>
   <path class="fil2" d="M56.17 1.45l-0.1 -0.13c-0.41,1.41 0.07,1.13 -1.21,1.14 -1.63,0.45 -0.49,-1.76 -1.49,1.09 -0.29,1.37 0.15,1.16 -1.07,1l-0.94 0.49c-0.96,0.21 -0.98,-0.75 -0.75,0.62 0,1.7 0.41,1.39 -1.23,0.94l-0.85 0.31 0.01 0.19c0,1.68 0.38,1.32 -1.29,0.87l-0.81 0.26 -1.57 0.64 -0.51 0.74 0.04 0.2c-0.22,1.4 0.2,1.16 -1.12,0.93 -2.05,0.2 -0.59,-0.54 -2.9,0.98 -0.1,1.12 0.22,0.88 -0.85,0.8l-0.27 -0.06c-0.26,1.25 0.13,1 -1.07,0.9l-0.59 -0.23c0.03,1.15 0.29,0.89 -0.87,0.72l-5.46 2.05c0.11,1.14 0.31,0.82 -0.9,0.59l-4.88 1.46c0.35,1.16 0.44,0.81 -0.76,0.48l-1.23 0.23c-0.3,1.11 0.93,0.7 -0.89,1.03l-6.69 1.04c-0.28,1.09 1.15,0.75 -1.14,0.98 -2.73,-0.36 -10.28,0 -11.8,1.9 -0.85,1.46 -0.04,0.87 -1.99,1.97 -1.63,0.06 -0.79,29.61 -0.79,33.13 0,11.78 0,20.67 2.79,31.48 1.48,-0.06 1.09,-0.34 0.69,1.2l0.64 3.49c1.06,-0.22 0.79,-0.37 0.52,0.73 0.82,2.65 3.51,8.79 4.99,10.41 1.23,0.19 0.98,-0.18 0.89,0.99l-0.02 0.02c1.72,0 1.32,-0.37 0.86,1.36l0.24 0.79 0.26 -0.08c1.76,0 1.34,-0.38 0.88,1.41l0.21 0.73c0.17,1.13 -0.14,0.97 0.9,0.54l-0.11 0.09c1.36,0.45 1.07,-0.03 1.1,1.26 0.28,1.19 -0.39,0.37 0.48,1.43 0.94,1.16 0.09,0.26 1.17,0.83l-0.05 -0.07c1.66,1.66 0.74,-1.2 1.39,2.09l7.66 7.71c3.29,0.5 0.52,-0.26 2.11,1.36l-0.07 -0.04c0.52,1.01 -0.3,0.33 0.81,1.21 0.86,0.69 0.39,0.28 1.37,0.69 2.84,0.84 0.78,0.06 2.04,1.44l0.11 -0.03c-0.37,1.04 -0.55,0.76 0.57,0.82 3.54,0.57 0.49,-0.31 2.08,1.2 -0.08,1.44 -0.22,0.43 0.89,0.45 1.27,-0.07 0.83,-0.33 1.18,1.02 -0.22,1.32 -0.21,0.37 0.92,0.37 1.36,-0.22 0.93,-0.47 1.15,0.97 0.6,1.76 -0.25,0.51 1.47,0.78 -0.57,1.22 -0.47,0.72 0.83,0.33 1.24,-0.09 0.82,-0.35 1.15,0.94l0.11 -0.23c1.44,-0.21 1,-0.5 1.27,0.97l0.01 -0.11c1.23,-0.15 0.88,-0.41 1.01,0.83l0.41 -0.3c1.39,-0.18 0.95,-0.46 1.24,0.96l1.91 0.91c1,-0.2 0.83,-0.42 0.63,0.56l2.9 0.48c1.55,-0.34 1.16,-0.69 1.32,0.81l0.92 -0.21c2.25,-0.04 0.93,-0.24 1.24,0.94l9.32 -0.68c0.26,-1.1 -1.05,-0.66 0.9,-1.03l1.3 0.36 0.71 -1.07 0.65 0.31c0.08,-1.32 -0.24,-0.99 1.14,-0.76 2.54,-0.27 4.16,-1.55 6.49,-2.54l0.44 -0.66 -0.11 -0.19c0.3,-1.43 -0.15,-1.15 1.23,-0.99 1.56,0.09 0.78,0.9 1.22,-0.27 0.21,-1.25 -0.18,-1.01 0.97,-0.95 0.9,-0.13 1.17,0.8 0.73,-0.48 0.46,-1.33 -0.01,-1.04 1.27,-1.07 1,-0.02 0.99,0.99 0.8,-0.45 0.87,-1.39 0.03,-0.93 1.96,-1.62 1.26,-0.29 0.32,0.39 1.42,-0.48 1.02,-0.81 0.35,-0.27 0.86,-1.14l-0.1 -0.01c1.29,-1.59 -0.8,-0.68 2.03,-1.59 1.75,-0.98 3.21,-2.27 4.07,-4.06 -0.17,-1.2 -0.42,-0.89 0.79,-0.89l-0.46 -1.85c-2.89,0.05 -3.32,0.21 -4.92,1.53l-2.85 3.39 -0.06 -0.08c-1.15,1.6 0.93,0.64 -2,1.6 -1.55,0.56 -0.87,-0.76 -1.45,1.19 -1.55,1.41 1.3,0.82 -2.13,1.18l-1.09 0.76c-0.07,1.25 0.28,1.01 -0.89,0.91l-0.03 0.05c0,1.56 0.41,1.34 -1.03,0.91l-0.99 0.48 -4.48 1.82c0.16,0.94 0.35,0.74 -0.6,0.6 -2.06,0.64 -3.85,1.51 -6,2.24 0.19,1.32 0.37,0.95 -1,0.58l-7.43 1.09c-1.75,-0.32 -0.74,0.06 -0.94,-1l-6.37 -2.16c-0.98,0.08 -0.79,0.33 -0.71,-0.61l-0.9 0.35c-1.42,0.23 -0.97,0.51 -1.28,-0.92l-0.16 0.26c-1.31,0.13 -0.87,0.4 -1.22,-0.95l-0.11 0.26c-1.34,0.1 -0.89,0.38 -1.27,-0.99l0.06 -0.04 -0.67 -0.8c-0.94,-0.72 -0.06,-0.34 -1.67,-0.23 -1.3,0.13 -0.85,0.38 -1.17,-1 0.25,-1.26 0.24,-0.38 -0.97,-0.35 -1.27,0.16 -0.84,0.4 -1.11,-0.96 0.14,-1.41 0.21,-0.41 -0.88,-0.43 -1.27,0.07 -0.81,0.33 -1.19,-1.03 0.34,-1.31 0.2,-0.36 -0.74,-0.58 -2.83,-0.82 -0.85,-0.05 -2.02,-1.45 -0.44,-1.3 0.25,-0.49 -1.41,-1.34 -2.97,-0.78 -0.78,0.07 -2.04,-1.53l-0.04 0.09c0.47,-1.32 0.63,-1.02 -0.73,-0.65 -0.07,-0.15 -0.21,-0.54 -0.25,-0.43 -0.01,0.01 -5.35,-6.69 -7.33,-7.24 -1.58,0 -1.43,0.48 -1.09,-0.88l-0.94 -1.86c-0.88,-1.69 -0.11,-1.06 -1.33,-1.4 -1.43,-0.33 -1.16,0.14 -1.07,-1.19 -0.04,-1.09 1,-0.9 -0.45,-0.88 -1.39,-0.19 -1.16,0.23 -0.93,-1.07 -0.06,-1.24 1.01,-0.96 -0.45,-1 -1.35,-0.24 -1.12,0.18 -0.91,-1.08 0.05,-1.52 0.9,-1.02 -0.29,-1.22 -1.31,-0.27 -1.05,0.14 -0.97,-1.1l0.15 -0.05c-1.34,-0.34 -1.09,0.1 -0.95,-1.19l-1.11 -2.95c-1.5,-0.26 -1.2,0.19 -0.93,-1.3 0.07,-2.9 -1.81,-5.79 -2.46,-8.95 -1.36,0.17 -0.97,0.37 -0.6,-1.06 -0.26,-4.09 -1.41,-8.48 -1.74,-13.03l-0.26 -47.29c7.35,-0.73 12.47,-1.88 19.01,-3.62 -0.07,-1.37 -0.33,-1.01 1.11,-0.65l1.1 -0.02c-0.11,-1.23 -0.32,-0.88 0.99,-0.6l0.84 -0.12c0.03,-1.37 -0.28,-1.02 1.16,-0.71l3.94 -1.42c0.22,-1.45 -0.2,-1.17 1.22,-0.94l0.56 0.32c0.13,-1.26 -0.22,-1 1.02,-0.81l0.89 0.2c-0.12,-0.99 -0.35,-0.8 0.62,-0.63l0.86 -0.03c-0.28,-0.95 -0.41,-0.71 0.58,-0.53l3.58 -1.52 0.47 -0.59 0.27 -0.18c0.11,-1.22 -0.23,-0.96 0.96,-0.84l0.01 0.04c0.25,-1.41 -0.18,-1.15 1.16,-0.95 1.62,0.1 0.88,0.88 1.29,-0.26 0.21,-1.29 -0.19,-1.06 0.98,-0.97l1.63 -0.34 0.54 -0.73 -0.07 -0.25c1.56,-1.58 -1.5,-0.64 2.09,-1.24 1.12,-0.3 1.01,0.54 0.89,-0.6 0.28,-1.28 -0.13,-1 1.1,-1 3.08,-0.65 0.99,-0.02 1.39,-1.2l0.06 0.12c1.78,-1.74 -1.5,-0.82 2.11,-1.32 0.92,-0.48 1.15,0.38 0.65,-0.79 1.99,-1.85 0.44,-1.59 2.06,-0.08 0.03,1.34 -0.2,0.3 0.84,0.37 1.31,-0.01 0.82,-0.29 1.23,1.12l0.05 -0.11c0.46,1.54 -1.62,0.22 1.33,1.46 1.62,0.31 1.15,0.38 2.08,1.28 -0.29,1.39 -0.2,0.41 0.81,0.41 1.32,-0.04 0.85,-0.33 1.26,1.05 -0.34,1.05 -0.24,0.35 0.85,0.33 1.37,-0.14 0.92,-0.42 1.22,1.01 0.82,1.18 0.54,0.83 2.21,1.07 1.34,-0.13 0.9,-0.41 1.24,0.96l-0 -0.04c1.06,-0.06 0.74,-0.29 0.86,0.83l7.28 3.39c1.18,-0.19 0.88,-0.45 0.94,0.73l0.58 -0.2c1.35,-0.19 0.99,-0.49 1.13,0.84l0.45 -0.31c1.37,-0.24 0.95,-0.5 1.18,0.92l3.89 1.53c1.32,-0.27 1.07,-0.61 1.06,0.64l1.01 0.04c1.5,-0.32 1.25,-0.73 1.2,0.64l3.3 0.42c1.88,0.48 0.79,-0.03 0.8,1.01 6.07,1.09 9.6,1.87 16.28,2.1l0.1 20.88c2.09,5.39 2.08,19.4 0.44,25.48 1.09,-0.19 1.02,-0.48 0.62,0.52l3.31 -0.4c1.55,-6.03 -0.34,-37.1 -0.22,-46.39l-1.45 45.9c-1.9,-0.53 -0.98,0.24 -1.47,-1.88 -0.64,-2.76 1.13,-37.73 -0.88,-44.6 -8.72,-2.08 -7.49,-0.14 -22.33,-4.45 -10.38,-3.01 -20,-9.77 -29.08,-15.2 -1.74,-3.05 -3.67,-2.74 -6.07,-0.46l-0.93 1.16c-3.14,1.39 -5.95,4.11 -8.35,5.44 -1.28,0.71 -1.59,0.75 -2.77,1.43 -21.02,12.08 -28.97,9.46 -39.52,12.96 -1.21,5.24 -0.31,23.33 -0.3,29.9 0.01,10.27 -0.17,19.12 1.66,28.71 2.37,12.35 12.8,30.27 23.04,36.94 -0.4,1.34 -0.61,1.09 0.73,0.65 0.5,1.39 4.82,4.3 5.94,5.1 4.99,3.56 15.69,9.85 21.09,10.67 7.47,1.14 17.65,-4.93 23.37,-8.92 1.33,-0.93 4.93,-3.08 5.6,-4.75 2.09,-1.32 1.94,-1.54 3.43,-2.86 2,-1.78 1.73,-1.97 3.87,-0.48 -2.09,4.78 -4.75,3.6 -5.88,6.82 -3.43,2.07 -6.65,4.5 -10.03,6.54 -22.33,13.47 -27.9,1.55 -36.22,0.27l-8.26 -5.61c-0.49,-0.93 -0.02,-0.28 -0.95,-1.14 -0.49,-0.45 -0.71,-0.56 -1.22,-0.9 -0.57,-0.38 -1.51,-0.87 -2.15,-1.26l-2.75 -2.79c-4.39,-3.31 -6.58,-7.53 -8.29,-8.26l-2.64 -3.61 -4.36 -7.31c-11.62,-19.47 -8.63,-46.97 -8.69,-69.22 -0.05,-18.99 1.9,-6.77 27.51,-17.3 13.81,-5.68 10.9,-4.37 21.47,-11.57 0.87,-0.59 2.11,-1.27 3.32,-2.23l2.83 -2.68c6.55,-1.47 3.44,0.59 13.3,6.67 8.82,5.44 20.01,10.61 29.8,12.94 11.75,2.8 14.99,-0.11 16.72,5.61l-0.11 -1.69 0.23 -0.11c-1.93,-1.16 -1.12,-0.55 -2,-2.02 -1.33,-1.24 -3.68,-0.86 -5.46,-0.54 -2.63,0.35 -1.28,0.47 -2.37,-0.87l-8.76 -1.14c-1.94,-0.39 -0.87,0.01 -1,-0.98l-1.53 0.07c-1.48,0.32 -1.19,0.7 -1.2,-0.7l-1.01 0.24c-1.65,0.34 -1.21,0.7 -1.44,-0.9l-0.56 0.02c-1.41,0.28 -1.09,0.61 -1.14,-0.75l-2.39 -0.62c-1.37,0.31 -1.06,0.61 -1,-0.77l-0.6 0.32c-1.39,0.24 -0.95,0.51 -1.22,-0.94 -2.05,-1.62 -7.56,-4.31 -9.87,-4.57 -1.4,0.28 -0.96,0.53 -1.17,-0.94l-0.07 0.16c-1.27,0.06 -0.85,0.34 -1.16,-0.96l0.02 -0.16 -0.49 -0.67 -1.87 -0.2c-1.35,0.08 -0.88,0.36 -1.27,-1.05 0.32,-1.03 0.23,-0.34 -0.82,-0.32 -1.27,-0.03 -0.79,0.25 -1.25,-1.09 0.39,-0.89 0.27,-0.34 -0.64,-0.75 -3.47,-0.51 -0.51,0.3 -2.12,-1.28 -0.42,-1.51 -0.68,-1.22 -2.08,-2.01l-0.73 -0.87c-0.98,-0.47 -0.59,-0.79 -2.59,-0.45 -2.75,0.47 -1.93,1.02 -2.16,1.31z"/>
   <path class="fil0" d="M116.88 106.33c1.5,-0.19 1.23,0.27 1.23,-1.03 -0.09,-0.43 -0.26,-0.13 1.5,-0.97 0.81,-0.38 1.79,-0.8 2.49,-1.02 2.48,-0.76 4.03,-0.35 5.75,-1.71 -1.56,-1.44 1.01,-0.5 -2.99,-1.3 -1.04,-0.2 -2.28,-0.26 -3.49,-0.47l1.42 -0.08 -1.21 -1.01c-1.31,1.06 0.49,0.69 -1.54,0.23 -0.17,-0.04 -1.01,-0.44 -1.39,-0.64 -2.39,-1.26 -2.9,-0.91 -1.81,-1.56l-0.84 -0.93c-0.55,1.18 -0.12,1.31 -0.47,0.1 -1.36,0.34 -1.27,0.71 -0.81,-0.57 -1.39,0.38 -1.28,0.73 -0.77,-0.61 -1.36,0.52 -0.98,0.61 -0.59,-0.81 -1.03,-0.08 -1.64,0.15 0.09,-0.06 -0.27,-1.45 0.19,-1.19 -1.07,-1.19 -0.43,0.2 0.4,2.17 -0.58,-0.34 -0.66,-1.7 -1.42,0.29 0.2,-0.55 -0.18,-1.46 0.27,-1.19 -0.98,-1.19 -0.05,0.04 -0.16,0.11 -0.16,0.12l0.14 -0.12c0.01,-0.11 0.17,-0.13 0.26,-0.19 -0.13,-1.43 0.3,-1.17 -0.92,-1.17 -0.47,-2.7 -0.89,0.49 -2.11,-5.27 -0.08,-0.38 -0.52,-2.68 -0.54,-2.92l0.19 -1.73c-0.26,1.3 -0.56,1.07 0.71,0.9l-0.71 -0.9 -0.57 -0.63c-1.03,1.51 -1.21,1.76 -1.8,4.09 -0.55,2.18 -0.09,4.7 -0.97,1.9 -1.21,0 -0.7,-0.22 -0.74,1.43 2.02,1.58 0.19,-1.41 0.38,0.77 0,0.01 -0.07,0.04 -0.08,0.04l-0.37 -0.23 -0.68 1.13c0.1,0.12 0.25,0.34 0.28,0.38l0.2 0.4c0,-0.06 -0.14,-0.06 -0.14,-0.12 -1.25,0 -0.79,-0.25 -0.91,1.25l0.25 0.16c-1.31,0 -0.85,-0.28 -1,1.22 0.21,0.1 0.33,0.16 0.34,0.16l-0.23 -0.12c-0,-0.11 -0.19,-0.1 -0.29,-0.15l-0.2 0.84 -0.87 1.33c1.7,0 1.32,0.38 0.87,-1.33 -0,0.06 0.02,0.92 -0.98,2.02 -2.19,2.38 -0.96,0.87 -1.41,0.71l-0.69 0.69c0.1,0.37 1.92,-0.77 -0.68,1.34 -0.97,0.78 -0.82,1.93 -0.71,-0.02 -1.54,0.22 -1.26,-0.26 -1.26,1.07 0.84,1.16 1.48,-0.8 -0.27,0.57 -1.13,0.89 -2.26,0.97 -3.55,0.45l-0.88 1.03 1.15 0.17c-2.99,0.4 -5.2,0.79 -6.88,0.18l-0.75 0.39c1.2,2.25 0.35,1.3 0.01,2.01l0.68 0.08 1.4 0.84c0,-1.72 0.36,-1.3 -1.4,-0.84 0.71,-0.11 2.58,-0.12 3.77,0.14 2.8,0.62 3.4,-0.01 1.32,1.18l0.76 0.42c0.7,-0.32 -0.7,-1.55 2.57,-0.21 2.87,1.18 0.67,0.68 0.37,1.03l0.68 0.61c2.68,-1.46 -0.12,-0.08 1.87,0.24 0,1.18 -0.25,0.75 1.13,0.95 0.36,-1.3 -0.24,-0.46 1,0.37 0.21,0.14 1.83,0.99 1.73,1.2l-0.6 0.7 -0.74 -0.81 1.23 1.43c0.84,-0.17 -0.04,-1.61 1.42,0.74 1.23,1.99 0.89,0.54 -0.01,1.25l0.84 0.73 0.04 0.01c0.11,1.52 -0.34,1.24 0.95,1.24l-0.32 0.56c0.05,1.34 -0.36,1.12 0.74,1.12 0,-0 0.41,-3.75 1.74,4.12 1.21,7.19 0.71,5.41 -0.35,5.38 0.11,1.64 -0.32,1.16 1.31,1.42 0.15,-0.18 0.46,-0.47 0.54,-0.59 0.95,-1.48 0.75,-2.15 0.98,-4.25 0.22,-2.04 0.07,-6.88 1.17,-3.93 1.2,0 0.69,0.22 0.73,-1.4 -2.01,-1.59 -0.21,1.32 -0.44,-0.79 -0.23,-2.21 0.47,0.04 0.5,0.11l0.68 -0.97 -0.49 -0.88c-0,-0.08 0.14,0.07 0.16,0.13 1.31,0 0.84,0.27 0.95,-1.28 -0.45,-0.27 -0.48,-0.28 -0.49,-0.28 -0,-0 0.11,0.13 0.11,0.08 -0,-0.08 0.13,0.1 0.2,0.14 1.24,0 0.82,0.27 0.98,-1.12 -1.14,-0.76 -1.09,0.62 -0.07,-0.69 1.22,-1.56 -0.17,-0.38 0.7,-0.2l3.44 -3.53c-2.43,0.85 -2.17,0.8 -3.43,2.87 0.64,-1.75 0.38,-1.52 2.16,-2.83 3.07,-2.28 2.09,-2.15 1.99,-0.65zm-21.92 -4.83c5.7,-3.28 9.89,-5 11.32,-14.04l2.24 5.08c2.26,4.51 5.31,6.58 9.91,8.95 -2.79,1.76 -5.15,2.26 -7.47,5.13 -2.19,2.72 -2.58,5.15 -4.3,7.98 -1.99,-9.9 -9.16,-10.99 -11.7,-13.11z"/>
   <path class="fil2" d="M57.59 20.86l-0.07 -0.2c0.22,-0.19 0.46,-0.43 0.69,-0.51 0.18,-0.07 0.54,0.27 0.69,0 0.18,-0.34 0.47,0.34 0.69,0.52l-0.06 0.21 0.4 0.72 1.66 0.63c3.63,0.44 0.53,-0.3 2.14,1.14 1.06,2.12 0.66,1.04 2.13,1.29 1.31,-0.11 0.91,-0.4 1.15,0.93l6.86 3.58c1.1,-0.22 0.9,-0.48 0.74,0.6l0.87 -0.32c1.43,-0.16 1,-0.48 1.31,0.93l2.03 0.59c1.39,-0.22 1.04,-0.54 1.2,0.8 2.09,1.16 8.37,3.24 10.85,3.16 1.83,0.55 0.66,-0 0.81,1.04l1.47 -0.08c1.55,-0.37 1.24,-0.76 1.27,0.71l4.35 0.56c0.44,0.14 1.32,0.1 1.97,0.64 -1.45,7.61 1.88,23.04 -0.16,31.12 0.06,2.1 0.55,1.46 2.65,1.58 0.88,-2.81 -0.1,-0.68 1.21,-1.52 0.05,-3.9 0.38,-32.16 -0.21,-33.55 -1,-2.35 -9.52,-3.45 -12.28,-4.26 -2.97,-0.87 -10.93,-3.97 -12.95,-4.07 -1.43,0.31 -1.08,0.61 -1.15,-0.82l-2.12 -0.82c-1.08,0.14 -0.83,0.4 -0.87,-0.63l-0.68 0.03c-1.09,0.11 -0.84,0.37 -0.85,-0.69l-0.56 -0.04c-1.05,0.15 -0.82,0.37 -0.68,-0.67 -2.28,-1.22 -0.96,-0.76 -3.13,-0.98 -1.28,0.21 -0.86,0.45 -1.09,-0.9l-0.09 0.2c-1.37,0.13 -0.91,0.41 -1.24,-1.04l-2.07 -1.45 -0.87 -0.27c-1.65,0.45 -1.26,0.79 -1.26,-0.89 -0.02,-1.5 0.23,-0.41 -0.95,-0.47l-1.12 -1.03c-0.62,-1.01 1.38,-0.54 -1.5,-0.72 -3.24,-0.21 -1.78,0.43 -1.96,0.69 -0.37,1.38 0.09,1.11 -1.2,1.06 -1.7,0.38 -0.72,-1.68 -1.56,0.97 -0.35,1.47 0.13,1.18 -1.26,1.09 -0.98,-0.01 -1.08,-0.96 -0.81,0.36 -0.34,1.39 0.11,1.12 -1.21,1.02 -1.13,-0.03 -1.14,-0.93 -0.94,0.31 -0.42,1.29 0.03,1.01 -1.22,1.02l-0.08 -0.19c-0.3,1.29 0.12,1.03 -1.14,0.92 -2.45,0.22 -2.32,0.58 -4.62,1.64 0.09,1 0.32,0.79 -0.67,0.64l-3.24 1.56c-0.3,1.47 0.15,1.15 -1.34,0.95l-3.09 0.34c0.19,1.02 0.33,0.74 -0.73,0.51l-0.77 0.24c-0.02,1.39 0.29,1.05 -1.16,0.72l-0.98 -0.04c-0,1.38 0.3,1.04 -1.11,0.71l-1.22 -0.04c0.1,1.15 0.29,0.8 -0.96,0.55l-1.39 0.11c-0.16,1.03 0.83,0.57 -0.79,1.03 -2.65,-0.17 -2.67,0.11 -5.39,0.77 -0.97,0.23 -1.89,0.36 -2.82,0.67 -2.1,0.68 -1.22,0.15 -1.7,0.94l-1.39 1.46 -0.06 -0.17c0.2,1.17 0.5,0.96 -0.62,0.87 -0.71,14.76 -0.72,39 2.78,52.22 1.37,-0.02 1.02,-0.3 0.69,1.13l0.04 0.5c1.48,0.3 1.18,-0.15 0.93,1.33 -0.07,2.08 2.38,7.63 3.82,8.34 1.49,0.3 1.2,-0.16 1.05,1.25 -0.09,1.52 -0.89,0.78 0.26,1.19 1.21,0.18 0.95,-0.18 0.93,0.95 0.17,0.96 -0.77,1.15 0.55,0.75 1.61,1.76 0.78,-1.54 1.21,2.12 0.55,0.87 -0.38,0.95 0.94,0.64 2.04,1.61 1.06,-0 1.97,2.76l5.49 5.66c2.91,0.93 2.04,0.37 3.49,2.48 -0.23,1.42 -0.22,0.42 0.66,0.95 3.44,0.52 0.45,-0.34 2.1,1.24 -0.38,1.36 -0.22,0.39 0.74,0.57 1.17,-0.07 0.81,-0.32 0.95,0.93 0.41,1.15 -0.32,0.36 1.18,0.26 1.34,-0.12 0.88,-0.38 1.22,1.04 0.96,1.69 0.73,0.92 2.28,1.03 1.32,-0.12 0.88,-0.39 1.23,0.96l0.09 -0.24c1.44,-0.17 1,-0.47 1.29,0.97l0.08 -0.29c1.43,-0.16 0.98,-0.47 1.3,0.96l3.19 1.64c1,-0.23 0.85,-0.45 0.6,0.52 3.73,0.82 6.85,1.25 10.13,-0.77 0.17,-1.47 -0.24,-1.16 1.22,-0.92l0.27 0.24c0.14,-1.39 -0.25,-1.11 1.11,-0.9 1.75,-0.3 2.66,-0.32 3.51,-1.9 0.29,-1.38 -0.15,-1.12 1.16,-0.97 1.13,0.03 1.24,0.73 0.91,-0.33 0.39,-1.4 -0.08,-1.12 1.24,-1.06 1.04,-0.02 1.01,0.97 0.83,-0.44 0.98,-1.31 -0.53,-0.63 1.99,-1.55 2.96,-0.58 0.94,-0.01 1.37,-1.18 1.35,0.32 1.3,0.76 0.92,-0.48l-0.09 -0c1.63,-1.71 -1.16,-0.73 2.06,-1.4 2.15,-1.5 2.5,-1.24 2.73,-4.52 -2.75,-1.09 -5.52,-0.14 -6.22,2.32 -1.13,1.58 0.86,0.65 -2,1.61 -1.54,0.52 -0.93,-0.81 -1.45,1.15 -0.35,1.39 0.11,1.13 -1.17,1.06 -1.85,0.39 0.11,-0.78 -2.32,0.9l-0.66 0.81 -2.3 1.38c-0.21,1.33 0.19,1.08 -1.08,0.94l-1.45 0.56c-0.33,1.27 0.09,1.01 -1.16,0.91l-0.4 -0.3c-0.16,1.45 0.23,1.12 -1.26,0.85l-4.73 0.76c-1.59,0.29 -1.15,0.64 -1.42,-0.9l-3.24 -1.61c-0.91,0.13 -0.73,0.33 -0.58,-0.58l-0.99 0.27c-1.39,0.22 -0.99,0.51 -1.19,-0.89l-0.17 0c-1.11,0.14 -0.83,0.38 -0.8,-0.75l-0.46 -0.17c-0.9,0.08 -0.73,0.29 -0.53,-0.59 -1.42,-0.64 -0.41,-0.29 -1.94,-0.22 -1.26,0.11 -0.83,0.36 -1.14,-0.96 0.06,-1.34 0.23,-0.37 -1,-0.4 -1.27,0.2 -0.85,0.43 -1.07,-0.94 0.11,-1.47 0.21,-0.42 -0.87,-0.46 -1.31,0.08 -0.84,0.35 -1.2,-1.07 -0.77,-2.53 0.04,-0.62 -1.47,-1.05 -2.58,-0.91 -1.02,-0.19 -1.98,-1.65 -0.35,-1.59 -2.32,-2.6 -3.67,-3.95 -0.91,-0.91 -1.18,-1.36 -1.99,-2.23 -1.27,-1.37 -0.58,-1.17 -1.92,-1.44 -1.57,-1.32 -0.66,1.01 -1.49,-2.04 -0.24,-0.94 0.66,-1.07 -0.65,-0.72 -1.37,-0.29 -1.13,0.15 -1,-1.11 -0.06,-1.2 1,-0.92 -0.45,-0.96 -1.39,-0.21 -1.16,0.21 -0.92,-1.09 0.01,-1.18 0.81,-1.22 -0.33,-1.01 -1.34,-0.45 -1.06,0.02 -1.03,-1.27l0.21 -0.09c-1.35,-0.27 -1.12,0.16 -0.92,-1.12 -0.12,-1.9 0.62,-0.98 -1.1,-3.02 -1.51,-0.24 -1.2,0.2 -0.95,-1.3l0.35 -0.9c-1.07,0.15 -0.79,0.33 -0.58,-0.79l-1.5 -5.5c-1.16,-0.3 -0.84,0.75 -0.97,-1.11 0.48,-3.94 -1.13,-16.29 -1.13,-22.15 0.01,-7.87 0.05,-15.75 0.01,-23.61 0.23,-1.26 -0.13,-0.92 1.24,-0.83 4,0.49 10.02,-1.85 13.47,-3.2 0.1,-1.43 -0.23,-1.03 1.33,-0.74l0.79 0.06c0.08,-1.48 -0.28,-1.13 1.24,-0.8l4.01 -1.35c0.3,-1.33 -0.12,-1.05 1.19,-0.92l0.49 0.31c0.27,-1.25 -0.12,-0.99 1.13,-0.85 2.28,-0.14 4.18,-1.24 5.99,-2.52 0.12,-1.12 -0.2,-0.88 0.87,-0.83l-0.01 -0c0.27,-1.4 -0.16,-1.15 1.18,-0.95 1.5,0.06 0.89,0.92 1.19,-0.29 0.22,-1.26 -0.17,-1.01 1.02,-0.95 1.07,-0.08 1.18,0.52 0.79,-0.43 0.38,-1.42 -0.09,-1.14 1.24,-1.09 0.98,0.01 1.12,0.99 0.79,-0.38 1.71,-1.41 -1.33,-0.93 1.64,-1.18 -1.67,0.46 -7.18,4.15 -9.2,5.41 -2.99,1.87 -5.52,2.66 -9.43,4.45 -6.71,3.08 -19.92,5.64 -20.98,6.67 -2.28,3.22 -0.61,34.03 -0.06,40.04 1.03,11.18 5.75,21.17 12.98,29 4.7,5.09 4.84,5.63 11.06,10.39 4.15,3.18 8.85,5.36 13.66,7.74 4.86,2.41 8.37,0.08 12.24,-2.24l8.94 -6.26c1.38,-1.09 1.61,-1.8 2.89,-2.65 3.12,-2.07 3.82,-0.55 3.85,-0.54 -1.27,4.59 -2.68,2.11 -4,5.26 -1.39,-0.27 -1.41,-0.75 -0.92,0.48 -13.69,7.68 -14.6,13.76 -28.69,6.19 -4.96,-2.67 -4.35,-1.49 -10.44,-6.22 -24.28,-18.85 -24.48,-35.9 -24.8,-64.09 -0.27,-23.98 -2.84,-18.27 13.56,-22.98 3.56,-1.02 7.8,-2.37 11.23,-3.91 3.38,-1.52 6.89,-3.18 10.06,-5.11 3.47,-2.11 5.78,-4.44 9.17,-6.05 1.38,-0.15 12.06,7.85 20.71,11.06 6.06,2.25 17.36,6.58 24.57,7.31 0.16,6.37 0.07,12.65 0.15,19 0.04,3.11 -0.09,5.91 -0.02,8.93 0.19,8.85 -0.3,6.38 -2.34,7.05 -1.23,-2.34 0.14,-26.19 -0.74,-32.75 -8.46,-2.04 -15.66,-3.95 -23.13,-7.22l-14.94 -7.87c-4.76,-3.02 -2.18,-2.68 -4.73,-2.31 -0.73,1.01 -0.52,0.42 -0.13,1.14z"/>
   <path class="fil1" d="M94.96 101.5c2.54,2.13 9.71,3.21 11.7,13.11 1.72,-2.83 2.11,-5.27 4.3,-7.98 2.32,-2.87 4.68,-3.37 7.47,-5.13 -4.61,-2.37 -7.66,-4.44 -9.91,-8.95l-2.24 -5.08c-1.43,9.04 -5.61,10.75 -11.32,14.04z"/>
   <path class="fil2" d="M34.8 65.6c-1.43,1.6 -0.74,5.89 -0.74,8.29 -0,3.97 -0.72,6.68 1.33,9.04 2.62,1.71 10.07,1.15 13.74,0.54 2.56,2.4 -0.42,-2.33 0.6,0.85 0.78,2.46 0.46,-0.16 -0.48,0.83 0.18,8.44 -2.07,15.03 4.83,15.44 1.37,0.08 3.37,-0.04 4.82,-0.04 4.41,-0.02 5.77,0.42 8.95,-1.13 1.22,-4.42 0.71,-9.58 0.7,-14.36 -0.14,-0.13 -0.37,-0.31 -0.41,-0.41 -0.03,-0.08 -0.14,-0.35 -0.15,-0.43 -0.46,-2.06 -0.58,0.23 0.65,-0.89 3.19,0.8 9.24,0.84 12.34,0.15 0.99,-1.65 0.48,-1.08 2.02,-2 2.06,-2.8 0.59,-14.92 -0.38,-17.43 -3.71,-1.04 -9.6,-0.67 -14.05,-0.44 -1.74,-1.01 -1.03,-0.37 -0.01,-0.76 -0.01,-2.76 1.06,-13.63 -0.65,-14.51 -1.56,-0.33 -1.09,0.14 -1.42,-1.39 -2.87,-1.49 -14.29,-0.4 -16.57,0.61 -1.08,4.28 -0.56,9.39 -0.67,14.25 0.11,0.15 0.27,0.36 0.3,0.46 0.02,0.09 0.1,0.38 0.12,0.46 0.45,2.69 0.48,-0.32 -0.44,0.92l-12.67 -0.15c-0.28,1.3 0.86,0.43 -0.62,1.16 0.12,0.01 11.99,0.02 13.96,-1.14 1.36,-1.66 -0.79,-13.6 1.17,-15.47 1.47,-1.41 14.7,-0.83 15.68,0.02 2.5,3.7 0.22,10.69 1.08,15.3 4.24,2.5 9.57,-0.59 14.4,1.73 0.76,2.67 1.28,14.71 -0.81,16.8 -2.64,2.69 -9.87,0.56 -13.74,1.47 -0.25,2.6 -0.13,5.12 -0.09,7.73l-0.26 6.11c-0.48,1.93 -0.84,1.91 -2.32,2.26l-12.23 0.01c-4.7,-0.87 -1.25,-7.37 -2.78,-15.95 -2.44,-1.01 -5.64,-0.59 -8.37,-0.54 -8.19,0.15 -6.06,-0.49 -6.41,-2.17l0.02 -12.59c-0.1,-3.88 1.47,-2.82 -0.44,-2.68z"/>
   <path class="fil2" d="M51.35 67.65c0.05,-1.62 1.94,-0.54 -6.25,-0.47 -8.77,0.07 -7.44,0.1 -7.79,2.54 -0.11,0.76 -0.04,2.59 -0.05,3.48 -0.06,4.58 -0.86,7.07 3.64,7.3 1,0.05 2.97,-0.21 4.2,-0.23 3.11,-0.06 5.2,-0.37 7.34,0.95l0.62 15.51c3.43,1 8.07,0.56 11.63,0.13 -1.77,0.43 -8.04,1 -9.91,0.25 -1.24,-0.5 -0.87,-0.31 -1.67,-1.24 0.82,-2.65 0.54,-4.62 0.54,-7.49 -0.01,-7.64 0.87,-9.05 -7.16,-9 -2.85,0.02 -5.63,-0.06 -8.46,0.19l0.2 -11.97 13.11 0.05zm13.37 -16.62c-0.31,1.31 -1.34,14.27 0.39,15.95 0.14,0.1 0.36,0.07 0.44,0.27 0.09,0.2 0.35,0.21 0.48,0.24 2.52,0.68 10.38,0.29 13.41,0.37l0.17 11.53 -14.75 0.14c-0.97,3.65 -1.02,12.54 -0.11,16.49l0.47 -14.64c7.97,-2.72 8.02,0.24 14.78,-1.57 0.84,-3.11 1.03,-9.42 -0.2,-12.33 -14.28,-3.03 -14.9,7.12 -14.89,-13.69l-0.19 -2.74zm-12.11 15.62l0.8 -0.42c0.48,-4.37 0.83,-11.05 -0.31,-15.15 1.64,-2.61 -2.66,0.65 1.08,-0.87 3.84,-1.57 -1.99,0.23 1.24,-0.48l-2.36 0.3 -0.3 16.11c-1.53,0.69 -0.76,-0.19 -0.15,0.51z"/>
   <path class="fil2" d="M84.41 100.47l0.01 2.01c0.34,-0.71 1.2,0.25 -0.01,-2.01zm2.09 2.92l3.68 0.48c2.08,-1.18 1.48,-0.55 -1.32,-1.18 -1.19,-0.26 -3.06,-0.26 -3.77,-0.14 1.77,-0.46 1.4,-0.88 1.4,0.84zm7.38 1.73c0.3,-0.35 2.5,0.15 -0.37,-1.03 -3.27,-1.35 -1.87,-0.11 -2.57,0.21l2.94 0.82zm2.54 0.85c-1.98,-0.32 0.82,-1.7 -1.87,-0.24 1.36,0.65 0.31,0.29 1.87,0.24zm2.51 2.41l0.74 0.81 0.6 -0.7c0.09,-0.21 -1.53,-1.06 -1.73,-1.2 -1.24,-0.82 -0.63,-1.66 -1,-0.37 0.47,1.26 0.1,0.64 1.39,1.45zm2.64 3.43c0.9,-0.71 1.24,0.73 0.01,-1.25 -1.46,-2.35 -0.58,-0.91 -1.42,-0.74l1.41 1.99zm0.87 0.74l-0.04 -0.01 0.04 0.01zm0.64 1.8l0.32 -0.56 -0.32 0.56zm2.13 10.62c1.07,0.02 1.57,1.8 0.35,-5.38 -1.33,-7.86 -1.74,-4.12 -1.74,-4.12l1.39 9.5zm4 -7.34c-1.1,-2.96 -0.95,1.89 -1.17,3.93 -0.23,2.1 -0.03,2.77 -0.98,4.25 -0.08,0.13 -0.39,0.42 -0.54,0.59 2.39,0.42 1.93,-1.03 2.21,-3.41 0.22,-1.82 0.52,-3.58 0.49,-5.36zm0.79 -2.08c-0.03,-0.07 -0.73,-2.32 -0.5,-0.11 0.22,2.11 -1.57,-0.8 0.44,0.79l0.06 -0.68zm0.34 -1.71c-0.01,-0.07 -0.16,-0.21 -0.16,-0.13l0.49 0.88 -0.33 -0.74zm0.76 -1.34c-0.07,-0.05 -0.2,-0.22 -0.2,-0.14 0,0.05 -0.11,-0.09 -0.11,-0.08 0.02,0.01 0.05,0.01 0.49,0.28l-0.19 -0.06zm1.61 -2.02c-0.87,-0.19 0.52,-1.37 -0.7,0.2 -1.02,1.31 -1.07,-0.07 0.07,0.69 1.25,-0.1 0.25,0.22 0.63,-0.89zm3.44 -3.53c0.92,-0.26 1.06,0.67 0.72,-0.61 0.1,-1.5 1.08,-1.63 -1.99,0.65 -1.77,1.31 -1.52,1.08 -2.16,2.83 1.26,-2.07 1,-2.02 3.43,-2.87zm6.62 -7.19l-1.42 0.08c1.21,0.21 2.45,0.27 3.49,0.47 4,0.79 1.43,-0.14 2.99,1.3 -1.72,1.36 -3.27,0.95 -5.75,1.71 -0.7,0.21 -1.68,0.63 -2.49,1.02 -1.76,0.84 -1.59,0.54 -1.5,0.97 0.62,-0.07 10.12,-2.29 10.45,-2.45 -0.18,-3.62 -1.96,-3.46 -5.78,-3.1zm-5.95 -2.97c-1.08,0.65 -0.58,0.29 1.81,1.56 0.37,0.2 1.21,0.6 1.39,0.64 2.03,0.46 0.23,0.83 1.54,-0.23l-4.74 -1.96zm-1.31 -0.83c0.41,-1.3 0.53,-0.95 -0.81,-0.57 0.44,-1.36 0.59,-1.05 -0.77,-0.61 0.43,-1.38 0.78,-1.25 -0.59,-0.81l0.09 -0.06c-1.74,0.21 -1.12,-0.03 -0.09,0.06 -0.39,1.42 -0.77,1.33 0.59,0.81 -0.51,1.34 -0.62,0.99 0.77,0.61 -0.46,1.29 -0.55,0.91 0.81,0.57 0.35,1.21 -0.08,1.07 0.47,-0.1l-0.47 0.1zm-3.53 -4.11c-1.62,0.84 -0.87,-1.15 -0.2,0.55 0.98,2.51 0.15,0.54 0.58,0.34 -0.02,-1.08 0.97,-1.05 -0.38,-0.89zm-0.75 -1.38c-0.09,0.06 -0.25,0.08 -0.26,0.19l-0.14 0.12c0,-0 0.11,-0.08 0.16,-0.12l0.24 -0.19zm-2.67 -10.2c-1.27,0.17 -0.97,0.4 -0.71,-0.9l-0.19 1.73c0.02,0.24 0.46,2.55 0.54,2.92 1.22,5.76 1.64,2.57 2.11,5.27l-1.75 -9.03zm-4.05 4.46c0.88,2.8 0.43,0.27 0.97,-1.9 0.59,-2.33 0.77,-2.58 1.8,-4.09 -2.79,0.04 -2.78,3.18 -2.77,5.99zm-0.8 2.02l0.37 0.23c0,-0 0.08,-0.04 0.08,-0.04 -0.19,-2.18 1.64,0.81 -0.38,-0.77l-0.06 0.59zm-0.35 1.79c0.01,0.06 0.15,0.07 0.14,0.12l-0.2 -0.4c-0.03,-0.04 -0.18,-0.26 -0.28,-0.38l0.33 0.66zm-0.66 1.41l-0.25 -0.16 0.25 0.16zm-1.19 1.12c0.1,0.05 0.29,0.04 0.29,0.15l0.23 0.12c-0.01,-0 -0.13,-0.06 -0.34,-0.16l-0.19 -0.1zm-1.07 2.17c-1.21,0.51 -0.76,0.31 -1.53,1.39 0.45,0.17 -0.78,1.68 1.41,-0.71 1.01,-1.09 0.98,-1.95 0.98,-2.02 0.45,1.71 0.83,1.33 -0.87,1.33zm-3.61 3.41c-0.11,1.95 -0.26,0.8 0.71,0.02 2.6,-2.1 0.78,-0.97 0.68,-1.34 -1.89,1.06 -1.07,0.28 -1.39,1.32zm-5.08 2.09c1.3,0.52 2.42,0.44 3.55,-0.45 1.75,-1.37 1.11,0.59 0.27,-0.57 -2.24,0.17 -1.47,0.35 -3.82,1.02zm-0.88 1.03l-5.73 0.35c1.68,0.61 3.89,0.22 6.88,-0.18l-1.15 -0.17z"/>
  </g>
 </g>
</svg>
