<?xml version="1.0" encoding="UTF-8"?>
<svg width="24" height="24" viewBox="0 0 24 24" xmlns="http://www.w3.org/2000/svg">
  <!-- Cleaning Tools Group -->
  <g fill="currentColor">
    <!-- Spray Bottle -->
    <path d="M8 2h3v2H8V2zM9.5 4h1v2h-1V4z"/>
    <path d="M8 6h4l2 2v12c0 1.1-.9 2-2 2H8c-1.1 0-2-.9-2-2V8l2-2z"/>
    <!-- Brush -->
    <path d="M14 3v4c0 .55.45 1 1 1h4c.55 0 1-.45 1-1V3c0-.55-.45-1-1-1h-4c-.55 0-1 .45-1 1z"/>
    <path d="M15 8v2c0 .55.45 1 1 1h2c.55 0 1-.45 1-1V8h-4z"/>
    <!-- Bubbles -->
    <circle cx="10" cy="14" r="1"/>
    <circle cx="13" cy="16" r="1"/>
    <circle cx="11" cy="18" r="1"/>
  </g>
</svg> 