<?xml version="1.0" encoding="UTF-8"?>
<svg width="60" height="60" viewBox="0 0 60 60" fill="none" xmlns="http://www.w3.org/2000/svg">
  <path d="M30 20C33.3137 20 36 17.3137 36 14C36 10.6863 33.3137 8 30 8C26.6863 8 24 10.6863 24 14C24 17.3137 26.6863 20 30 20Z" stroke="#0047CC" stroke-width="2"/>
  <path d="M42 35C45.3137 35 48 32.3137 48 29C48 25.6863 45.3137 23 42 23C38.6863 23 36 25.6863 36 29C36 32.3137 38.6863 35 42 35Z" stroke="#0047CC" stroke-width="2"/>
  <path d="M18 35C21.3137 35 24 32.3137 24 29C24 25.6863 21.3137 23 18 23C14.6863 23 12 25.6863 12 29C12 32.3137 14.6863 35 18 35Z" stroke="#0047CC" stroke-width="2"/>
  <path d="M30 52C36.6274 52 42 46.6274 42 40C42 33.3726 36.6274 28 30 28C23.3726 28 18 33.3726 18 40C18 46.6274 23.3726 52 30 52Z" fill="#0047CC"/>
</svg> 