<?xml version="1.0" encoding="UTF-8"?>
<svg width="24" height="24" viewBox="0 0 24 24" xmlns="http://www.w3.org/2000/svg">
  <g fill="currentColor">
    <!-- Quote Marks -->
    <path d="M4.583 17.321C3.553 16.227 3 15 3 13.011c0-3.5 2.457-6.637 6.03-8.188l.893 1.378c-3.335 1.804-3.987 4.145-4.247 5.621.278-.004.557.01.835.043 1.577.185 2.906 1.423 2.906 3.208 0 1.773-1.355 3.222-3.123 3.222-.737 0-1.621-.39-1.711-.973z"/>
    <path d="M13.583 17.321C12.553 16.227 12 15 12 13.011c0-3.5 2.457-6.637 6.03-8.188l.893 1.378c-3.335 1.804-3.987 4.145-4.247 5.621.278-.004.557.01.835.043 1.577.185 2.906 1.423 2.906 3.208 0 1.773-1.355 3.222-3.123 3.222-.737 0-1.621-.39-1.711-.973z"/>
    <!-- Stars -->
    <path d="M7 4l1.5 3 3.5.5-2.5 2.5.5 3.5L7 12l-3 1.5.5-3.5L2 7.5 5.5 7z" opacity="0.5"/>
    <path d="M19 4l1.5 3 3.5.5-2.5 2.5.5 3.5-3-1.5-3 1.5.5-3.5L14 7.5l3.5-.5z" opacity="0.5"/>
  </g>
</svg> 