<?xml version="1.0" encoding="UTF-8"?>
<!DOCTYPE svg PUBLIC "-//W3C//DTD SVG 1.1//EN" "http://www.w3.org/Graphics/SVG/1.1/DTD/svg11.dtd">
<!-- Creator: CorelDRAW -->
<svg xmlns="http://www.w3.org/2000/svg" xml:space="preserve" width="0.650764in" height="0.689921in" version="1.1" style="shape-rendering:geometricPrecision; text-rendering:geometricPrecision; image-rendering:optimizeQuality; fill-rule:evenodd; clip-rule:evenodd"
viewBox="0 0 440.73 467.25"
 xmlns:xlink="http://www.w3.org/1999/xlink"
 xmlns:xodm="http://www.corel.com/coreldraw/odm/2003">
 <defs>
  <style type="text/css">
   <![CDATA[
    .fil2 {fill:#040504}
    .fil0 {fill:#232424}
    .fil1 {fill:#FEFEFE}
   ]]>
  </style>
 </defs>
 <g id="Layer_x0020_1">
  <metadata id="CorelCorpID_0Corel-Layer"/>
  <g id="_1936667172496">
   <path class="fil0" d="M174.41 371.82c23.01,11.6 141.78,59.89 152.8,69.14 -8.78,17.51 -7.62,15.47 -35.51,1.6 -11.8,-5.87 -27.71,-12.44 -40.63,-17.98l-81.43 -35.67c0.13,-7.53 2.05,-12.09 4.77,-17.09zm5.26 -14.39c17.67,-50.58 45.74,-23.71 91.84,-5 42.31,17.18 77.23,26.22 62.18,72.35 -20.67,-5.77 -54.51,-23.24 -76.76,-33.24l-77.25 -34.11zm214.5 -233.44c4.42,-8.4 9.44,-24.18 24.21,-18.1 14.32,5.9 3.41,21.11 -1.39,29.85 -21.53,39.2 -114.78,193.59 -121.78,209.96l-19.29 -8.25 118.25 -213.46zm-84.28 228.32c2.33,-13.03 28.98,-51.82 36.93,-65.73l74.52 -128.63c7.78,-14.23 37.75,-52.19 2.85,-67.1 -30.98,-13.23 -43.87,27.5 -53.99,45.48 -12.02,21.34 -25.5,42.93 -36.94,64.52l-71.41 130.77c-50.8,-26.66 -78.29,-29.33 -99.4,25.92 -11.07,28.97 -14.08,39.27 10.83,50.22 17.85,7.85 36.51,15.76 55.26,23.74 52.04,22.15 93.7,54.32 109.48,22.17 7.95,-16.21 18.69,-41.91 12.68,-62.94 -6.97,-24.41 -20.07,-26.45 -40.81,-38.42z"/>
   <path class="fil0" d="M20.33 190.42c13.06,-29.5 71.08,-24.53 73.16,27.3 1.49,37.15 -1.66,84.82 -0.87,121.86 0.26,12.18 -1.92,10.09 6.68,14.08 3.09,-3.71 1.16,0.58 2.75,-5.49l0.5 -26.86c-0.36,-78.42 -22.46,-68.67 148.02,-68.29 11.94,0.03 25.7,3.52 25.99,-6.85l-7.92 -2.1c-3.62,-0.45 -7.59,-0.24 -11.28,-0.22l-110.65 0.11c-7.61,-0.01 -14.67,-0.33 -22.2,0.86 -2.52,0.4 -6.69,1.66 -9.16,2.05l-6.52 -0.31c-4.86,0.51 -3.23,1.33 -3.14,-4.25 -4.11,4.5 -4.98,-5.7 -3.53,5.41 0.23,-46.55 4.91,-48.91 -17.98,-71.71 -9.6,-9.56 -10.5,-6.67 -17.8,-12.81 0.21,-24.84 -6.77,-100.87 17.02,-117.4 19.53,-41.86 90.29,-31.88 126.53,-32.14 38.04,-0.26 105.69,-8.74 124.31,36.58 0.37,0.36 0.94,0.43 1.07,1.11l2.05 2.35c14.93,21.06 7.14,44.31 14.79,53.34 3.32,-0.89 7.99,3.28 6.38,-17.42 -1.82,-23.59 -8.79,-36.41 -20.91,-54.2 -11.82,-17.33 -39.24,-31.26 -66.79,-31.36 -19.89,-0.06 -130.73,-1.44 -145.89,1.51 -17.82,3.47 -20.79,8.79 -34.21,15.93 1.81,4.37 1.91,2.98 -2.73,1.78 1.66,4.05 1.66,2.59 -2.85,1.67 1.04,4.04 1.8,3.29 -2.24,2.27 1.02,4.03 1.75,3.24 -2.29,2.22 0.95,4.2 2.04,3.77 -1.96,2.57 -10.03,20.74 -19.48,25.01 -21.47,55.47 -1.49,22.91 2.99,53.86 -1.67,75.28 -25.23,4.64 -41.4,8.53 -49.45,31.61 -5.26,15.09 -4.29,32.59 5.7,47.17 3.2,4.66 9.23,10.81 10.41,12.51 8.97,12.89 1.03,94.79 3.51,117.99 2.36,22.08 8.12,12.1 24.92,18.14 6.62,34.24 -19.69,70.69 35.15,59.41 12.78,-20.63 5.95,-36.21 12.24,-59.36 7.55,-2.25 9.33,-1.84 17.14,-1.8 5.53,0.03 13.54,0.93 17.61,-1.68 -3.46,-9.71 -4.19,-7.47 -17.51,-7.41 -16.39,0.07 -69.55,1.54 -79.39,-1.73 -4.25,-10.23 -1.47,-106.8 -1.52,-126.31 -7.82,-6.57 -16.62,-11.17 -20.56,-24.98 -1.73,-6.06 -2.32,-12.47 -1.29,-19.39l4.72 -12.9c2.03,-3.01 2.13,-2.7 3.11,-3.64zm71.92 255.06c-6.11,3.26 -3.86,1.54 -6.48,6.32 6.48,-3.65 3.59,-1.61 6.48,-6.32zm-37.36 7.09c-0.32,-4.11 0.79,-3.01 -3.32,-3.33l3.32 3.33zm-18.81 -61.65c-0.47,-4.89 0.89,-4.02 -3.78,-3.01 0,3.94 -0.83,2.53 3.78,3.01zm-7.92 -7.01c0.5,-4.39 1.41,-3 -3.06,-3.9 0.4,4.76 -1.04,3.9 3.06,3.9zm-2.59 -6.05c0.16,-9.47 0.66,-3.39 -3.02,-4.75l3.02 4.75zm-2.56 -119.81c0.39,-3.59 1.15,-2.62 -2.58,-2.65 0,3.51 -0.89,2.65 2.58,2.65zm-11.49 -13.49l5.18 6.47c-2.87,-8.25 -0.69,-3.33 -5.18,-6.47zm-1.37 -3.23c0.87,-4.27 1.61,-2.9 -2.99,-3.54 0.64,4.32 -0.72,3.54 2.99,3.54zm-7.21 -16.92c1.98,-9.89 1.32,-3.79 -2.87,-6.36 0.94,10.22 -0.24,4.47 2.87,6.36zm0 -23.01l-2.95 5.16c3.83,-1.61 3.67,4.68 2.95,-5.16zm5.88 -15.56c4.46,-1.46 3.53,0.1 3.57,-4.1 -4.44,0 -2.88,-0.96 -3.57,4.1zm11.6 -13.08c3.9,-0.02 2.71,0.91 3.32,-3.09 -4.12,0.69 -3.32,-0.6 -3.32,3.09zm7.13 -3.87c4.55,0.53 3.12,1.47 4.01,-3.17 -4.92,0.39 -4.01,-1.09 -4.01,3.17zm11.22 -4.68c9.41,0.23 3.02,0.54 5.02,-3.14 -8.09,1.11 -3.58,-0.27 -5.02,3.14zm19.82 -100.99c3.45,0.85 2.55,1.3 1.75,-2.3l-1.75 2.3zm11.4 -19.61c4.78,-0.95 3.88,0.55 3.36,-4 -4.26,0 -2.75,-0.91 -3.36,4zm25.56 -25.95c4.17,0.49 2.76,1.3 3.73,-3.13 -4.55,0.66 -3.73,-0.77 -3.73,3.13zm24.12 -11.55c6.11,-1.2 2.81,0.18 2.97,-3.26 -5.67,1.53 -1.17,-0.5 -2.97,3.26zm167.29 -2.39c-2.87,-2.9 4.62,-2.05 -6.64,-3.03 1.69,2.69 -5.99,2.72 6.64,3.03zm17.02 3.8c0.55,3.64 -0.51,2.81 3.11,2.58 0,-3.53 0.79,-2.42 -3.11,-2.58zm5.02 2.15c-0.05,3.54 -0.88,2.69 2.74,2.29l-2.74 -2.29zm2.51 2.42c1.07,4.67 -0.42,3.75 4.09,3.28 0,-4.34 0.92,-2.82 -4.09,-3.28zm6.77 4.24c1.24,4.75 -0.34,3.8 4.14,3.62 0,-4.47 0.96,-2.89 -4.14,-3.62zm21.92 20.71c-0.15,3.95 -1,2.65 3.24,3.33 -0.71,-4.18 0.59,-3.33 -3.24,-3.33zm5.23 6.51l2.49 2.14 -2.49 -2.14zm7.36 12.92l1.71 2.09 -1.71 -2.09zm2.89 12.5c1.93,5.86 0.07,2.43 3.36,2.28l-3.36 -2.28zm-9.92 33.36c0.35,4.7 -1.02,3.65 3.02,4.14 -1.36,3.22 -2.11,2.49 1.15,2.79l-1.15 -2.79c1.44,-5.45 2.55,-4.14 -3.02,-4.14zm-5.09 -37.83c0.62,-3.54 1.38,-2.72 -2.18,-2.56l2.18 2.56zm-1.63 -5c0.27,-3.67 1.05,-2.51 -2.78,-3.12 0.3,3.94 -0.84,3.12 2.78,3.12zm-11.63 -18.12l3.3 4.11c-1.36,3.31 -2.19,2.69 1.17,2.69l-1.17 -2.69c1.49,-5.55 2.51,-4.11 -3.3,-4.11zm-9.56 -10.57c-0.6,3.47 -1.15,2.16 2.67,3.26 0,-4.79 1.44,-4.36 -2.67,-3.26l-3.26 -1.92c0,3.83 -0.79,2.81 3.26,1.92zm-6.36 -3.22c-0.63,-4.88 0.79,-4.03 -3.85,-3.12 0,4.05 -0.86,2.61 3.85,3.12zm-15.17 -6.57c-0.17,-4.32 0.85,-3.3 -3.59,-2.33 0,3.5 -0.69,2.2 3.59,2.33zm-173.23 -3.3c-6.4,1.41 -1.97,-0.13 -3.04,3.39l3.04 -3.39zm-15.43 6.73c-4.12,-0.35 -2.68,-1.18 -3.84,3.14 4.69,-0.55 3.84,0.89 3.84,-3.14zm-10.61 7.68l7.03 -3.93c-11.98,1.06 -2.05,-1.1 -7.03,3.93zm-13.14 15.36c-3.86,0.58 -3.1,-0.61 -3.07,2.85 3.5,0 2.35,0.81 3.07,-2.85zm-3.14 2.91c-4.39,0.67 -3.62,-0.65 -2.93,3.5 3.61,0 2.26,0.75 2.93,-3.5zm-10.97 33.86c-8.26,11.53 -4.06,72.6 -3.5,74.35 2.52,7.75 0.23,2.37 3.09,5.83l0.4 -80.18zm24.8 99.31c-5.59,-8.43 -4.76,-7.21 -13.36,-13.04 3.48,5.32 1.36,2.81 5.86,7.15 4.32,4.16 2.93,2.76 7.5,5.9zm178.53 71.7c4.34,-0.64 3.69,0.67 2.85,-3.3 4.18,0.91 2.83,1.61 3.47,-2.9l-3.47 2.9c-4.26,-0.97 -2.85,-1.53 -2.85,3.3zm-146.31 -0.1c-8.26,-0.5 -3.51,-0.92 -4.71,2.95l4.71 -2.95zm-9.02 2.45c-4.64,-0.71 -3.39,-1.78 -4.17,2.62 4.93,-0.18 4.17,1.33 4.17,-2.62zm-5.82 1.62c-4.43,-0.9 -3.05,-1.69 -3.65,3.02 4.44,-0.66 3.65,0.74 3.65,-3.02zm-6.05 12.11l0.15 -6.64c-3.96,4.33 -3.18,-4.23 -1.84,3.19 0.07,0.36 0.38,1.34 0.47,1.7 0.12,0.44 0.78,1.19 1.21,1.75zm-29.08 -88.07l4.87 4.63 -4.87 -4.63zm-2.4 -2.18c-0.94,-4.61 0.5,-3.74 -3.93,-3.12 0,4.09 -0.86,2.62 3.93,3.12zm-4.51 -2.19c-1.09,-4.81 0.39,-3.72 -4.6,-3 0,4.4 -0.86,2.72 4.6,3zm-25.91 -2.01l16.91 -0.1c-1.38,-1.57 1.94,-4.59 -9.06,-4.39 -11.28,0.2 -7.18,3.47 -7.85,4.49zm-5.12 -0.21c-4.37,-0.94 -3.37,-1.92 -3.42,2.39 4.13,-0.17 3.42,1.07 3.42,-2.39zm-5.21 1.63c-4.19,-0.38 -2.83,-1.24 -3.64,3.18 4.51,-0.55 3.64,0.82 3.64,-3.18zm-17.87 47.42c-1.01,4.16 -1.93,3.27 2.22,3.11l-2.22 -3.11zm1.14 5.56c-0.45,4.46 -1.36,2.97 3.17,4.19 -0.37,-5.1 1.17,-4.19 -3.17,-4.19zm9.67 12.16c-2.64,-3.88 -3.06,-4.79 -6.04,-8.19 2.61,9.09 -0.68,3.85 6.04,8.19zm2.68 1.5c0.59,4.57 -0.76,3.84 3.49,2.95 0,-3.59 0.74,-2.23 -3.49,-2.95zm99.68 133.5l-91.69 -2.87 -1.45 -124.7c-0.12,-0.34 -0.42,-1.03 -0.75,-1.47 -3.09,13.24 -3.13,116.95 0.75,128.21l93.15 0.83zm-0.35 -0.86l4.65 4.63c-0.74,-5.48 0.82,-3.94 -4.65,-4.63zm5.28 3.76c-0.96,3.53 -1.82,3.2 1.59,1.98l-1.59 -1.98zm-39.13 45.08l2.33 -4.45c-3.08,0.21 -2.38,-4.25 -2.33,4.45zm-9.01 -35.56l-0.03 2.72c3.49,-1.47 6.28,0.79 0.03,-2.72zm-22.56 47.98l-0.12 -3.46c-0.51,0.49 -3,0.37 -3,2.11l0.09 -47.83 27.42 -1.01c3.03,11.16 -1.63,27.59 -2.59,38.66 -0.78,8.95 0.17,16.31 -17.25,14.46 -4.4,-0.47 -1.39,0.64 -4.3,-1.06 -7.22,-4.2 -0.35,-1.7 -0.25,-1.87z"/>
   <path class="fil1" d="M179.68 357.43l77.25 34.11c22.26,10 56.1,27.47 76.76,33.24 15.06,-46.12 -19.86,-55.17 -62.18,-72.35 -46.1,-18.72 -74.17,-45.58 -91.84,5z"/>
   <path class="fil1" d="M275.93 337.45l19.29 8.25c7,-16.37 100.25,-170.75 121.78,-209.96 4.8,-8.74 15.71,-23.95 1.39,-29.85 -14.77,-6.08 -19.8,9.69 -24.21,18.1l-118.25 213.46z"/>
   <path class="fil2" d="M122.65 2.86c-0.16,3.44 3.14,2.06 -2.97,3.26 -7.39,-0.34 -17.18,2.13 -20.39,8.42 -0.97,4.42 0.44,3.62 -3.73,3.13 -7.26,0.74 -3.57,-0.75 -4.84,3.83 -4.55,-1.4 -4.26,-2.66 -2.73,1.78 -4.35,-1.21 -4.06,-2.49 -2.85,1.67 -4.03,-1.05 -3.25,-1.77 -2.24,2.27 -4.04,-1.01 -3.33,-1.79 -2.29,2.22 -4.01,-1.12 -2.96,-1.59 -1.96,2.57 -2.97,1.67 -1.37,-1.06 -3.76,2.79 -2.64,4.26 -0.48,-0.07 -1.54,4.8 0.52,4.55 1.42,3.05 -3.36,4 -2.71,1.79 -2.35,1.79 -4.91,6.47 -2.02,3.69 -3.33,6.77 -4.74,10.84 0.8,3.6 1.71,3.15 -1.75,2.3 -7.27,32.31 -3.75,63.13 -4.74,97.54l-10.07 0.31c-2,3.68 4.39,3.38 -5.02,3.14l-7.21 1.5c-0.89,4.64 0.54,3.7 -4.01,3.17l-3.81 0.77c-0.61,4.01 0.58,3.07 -3.32,3.09 -2.31,1.12 -1.55,-0.73 -5.2,3.48 -2.89,3.33 -1.78,1.72 -2.82,5.5 -0.04,4.21 0.89,2.65 -3.57,4.1 -2.21,1.35 -0.76,-2.26 -4.1,4.75 -3.16,6.65 -2.42,3.24 -1.78,10.81 0.72,9.84 0.89,3.55 -2.95,5.16l0.08 11.49c4.19,2.58 4.85,-3.53 2.87,6.36 -0.66,7.13 -1.01,8.01 4.22,13.38 4.6,0.64 3.86,-0.73 2.99,3.54 0.04,4 -3.22,3.83 1.37,3.23 4.48,3.14 2.31,-1.78 5.18,6.47 1.13,3.85 -3.95,0.8 3.73,4.36 3.72,0.03 2.97,-0.94 2.58,2.65l-0.46 115.06c3.68,1.36 3.18,-4.72 3.02,4.75l-0.47 2.15c4.47,0.89 3.56,-0.49 3.06,3.9 0.61,5.14 -1.1,3.47 4.14,4 4.67,-1.01 3.31,-1.88 3.78,3.01l13.28 0.63c-1.05,13.29 -3.6,48.45 2.21,57.7 4.11,0.32 3,-0.79 3.32,3.33 6.51,2.83 24.98,3 30.88,-0.77 2.63,-4.78 0.37,-3.06 6.48,-6.32l2.56 -19.03c-0.06,-8.7 -0.75,-4.24 2.33,-4.45l2.7 -30.55 33.33 -0.13c3.4,-4.5 1.57,1.2 2.37,-7.97 -3.41,1.23 -2.55,1.55 -1.59,-1.98l-0.63 0.88 -4.65 -4.63 0.35 0.86 -93.15 -0.83c-3.88,-11.26 -3.84,-114.97 -0.75,-128.21 2,-4.14 1.97,-2.86 -2.3,-1.5 -4.25,0.89 -2.9,1.62 -3.49,-2.95 0.03,-4.82 0.66,-1.34 -2.68,-1.5 -6.72,-4.34 -3.43,0.91 -6.04,-8.19l-0.46 0.22c-4.53,-1.22 -3.61,0.27 -3.17,-4.19l1.09 -2.45c-4.16,0.17 -3.24,1.06 -2.22,-3.11 -0.31,-6.52 -1.29,-12.87 -0.26,-19.52 1.26,-8.12 3.35,-8.18 4.75,-15.82 0.48,-0.28 1.18,-1.34 1.37,-0.94l8.37 -7.96c0.81,-4.42 -0.56,-3.56 3.64,-3.18l1.78 0.76c0.05,-4.31 -0.95,-3.33 3.42,-2.39l5.12 0.21c0.67,-1.02 -3.43,-4.29 7.85,-4.49 11,-0.19 7.68,2.82 9.06,4.39l4.4 -0.89c4.99,-0.72 3.51,-1.81 4.6,3l0.58 -0.93c4.43,-0.62 2.99,-1.49 3.93,3.12 -0.29,4.57 -0.55,1.03 2.4,2.18l4.87 4.63c10.69,25.75 8.58,25.27 8.55,58.88l0.43 103.56c3.48,9.12 15.65,10.32 15.47,-10.81 -0.19,-22.71 -0.55,-45.48 -0.23,-68.19 -0.43,-0.57 -1.09,-1.31 -1.21,-1.75 -0.1,-0.37 -0.41,-1.34 -0.47,-1.7 -1.34,-7.42 -2.13,1.14 1.84,-3.19 2.79,-1.34 2.41,2.38 2.25,-2.45 0.6,-4.71 -0.78,-3.92 3.65,-3.02l1.65 0.99c0.78,-4.39 -0.47,-3.32 4.17,-2.62l4.3 0.5c1.2,-3.87 -3.55,-3.45 4.71,-2.95l146.31 0.1c0,-4.84 -1.41,-4.27 2.85,-3.3l3.47 -2.9c1.94,-11.35 -23.76,-7.29 -35.68,-7.3 -15.8,-0.02 -31.6,-0.05 -47.41,-0.02 -23.82,0.04 -68.92,-3.46 -87.54,4.8l6.52 0.31c2.47,-0.39 6.64,-1.65 9.16,-2.05 7.53,-1.19 14.59,-0.87 22.2,-0.86l110.65 -0.11c3.68,-0.02 7.66,-0.23 11.28,0.22l7.92 2.1c-0.29,10.37 -14.04,6.88 -25.99,6.85 -170.48,-0.38 -148.38,-10.12 -148.02,68.29l-0.5 26.86c-1.59,6.06 0.34,1.78 -2.75,5.49 -8.6,-3.98 -6.42,-1.89 -6.68,-14.08 -0.79,-37.04 2.37,-84.7 0.87,-121.86 -2.08,-51.83 -60.1,-56.81 -73.16,-27.3 -0.99,0.94 -1.08,0.63 -3.11,3.64l-4.72 12.9c-1.02,6.92 -0.44,13.33 1.29,19.39 3.94,13.81 12.73,18.41 20.56,24.98 0.05,19.51 -2.73,116.08 1.52,126.31 9.84,3.26 63,1.8 79.39,1.73 13.32,-0.06 14.05,-2.3 17.51,7.41 -4.07,2.61 -12.08,1.7 -17.61,1.68 -7.81,-0.04 -9.6,-0.45 -17.14,1.8 -6.29,23.16 0.53,38.73 -12.24,59.36 -54.84,11.28 -28.53,-25.18 -35.15,-59.41 -16.8,-6.04 -22.56,3.94 -24.92,-18.14 -2.48,-23.2 5.47,-105.1 -3.51,-117.99 -1.18,-1.7 -7.21,-7.85 -10.41,-12.51 -9.99,-14.58 -10.96,-32.08 -5.7,-47.17 8.05,-23.08 24.22,-26.97 49.45,-31.61 4.65,-21.42 0.17,-52.37 1.67,-75.28 1.98,-30.46 11.44,-34.73 21.47,-55.47 4,1.19 2.91,1.62 1.96,-2.57 4.04,1.02 3.31,1.8 2.29,-2.22 4.04,1.02 3.28,1.76 2.24,-2.27 4.51,0.91 4.51,2.38 2.85,-1.67 4.64,1.2 4.54,2.59 2.73,-1.78 13.43,-7.15 16.39,-12.46 34.21,-15.93 15.16,-2.95 126.01,-1.58 145.89,-1.51 27.55,0.09 54.97,14.03 66.79,31.36 12.12,17.78 19.09,30.6 20.91,54.2 1.6,20.7 -3.06,16.53 -6.38,17.42 -7.65,-9.03 0.14,-32.27 -14.79,-53.34l-2.05 -2.35c-0.14,-0.69 -0.7,-0.76 -1.07,-1.11 -18.62,-45.32 -86.28,-36.85 -124.31,-36.58 -36.23,0.25 -106.99,-9.72 -126.53,32.14 -23.79,16.53 -16.81,92.57 -17.02,117.4 7.3,6.14 8.21,3.26 17.8,12.81 22.89,22.8 18.22,25.16 17.98,71.71 -1.44,-11.11 -0.57,-0.91 3.53,-5.41 0.24,-15.67 1.92,-33.23 -3.86,-47.7l-7.23 -11.02c-4.56,-3.14 -3.18,-1.74 -7.5,-5.9 -4.5,-4.34 -2.38,-1.83 -5.86,-7.15 -2.91,-6.19 -6.11,-5.68 -11.84,-6.08 -2.86,-3.46 -0.58,1.91 -3.09,-5.83 -0.57,-1.75 -4.76,-62.82 3.5,-74.35 1.52,-12.28 7.36,-20.64 8.04,-30.36 -0.69,-4.14 -1.46,-2.82 2.93,-3.5l0.06 -0.06c-0.03,-3.46 -0.78,-2.27 3.07,-2.85l-0.53 -1.72c2.84,-1.51 0.72,-0.11 3.98,-2.77 0.9,-0.73 2.7,-2.35 3.66,-3.27 3.68,-3.56 4.71,-3.88 6.03,-7.61 4.97,-5.04 -4.95,-2.87 7.03,-3.93l-0.25 -0.6c1.16,-4.32 -0.28,-3.5 3.84,-3.14l12.38 -3.34c1.08,-3.52 -3.36,-1.98 3.04,-3.39 20.51,1.57 60.49,-1.13 84.57,-1.12 14.3,0.01 28.59,-0.01 42.89,-0.01 14.94,-0.01 29.98,1.96 42.18,2.1 4.43,-0.97 3.42,-1.99 3.59,2.33 7.36,3.12 3.69,2.83 11.32,3.44 4.63,-0.9 3.22,-1.76 3.85,3.12 -0.03,4.49 -0.72,1.16 3.1,1.3l3.26 1.92c4.11,-1.1 2.67,-1.53 2.67,3.26 1.52,5 2.25,5.97 6.89,7.31 5.8,0 4.78,-1.43 3.3,4.11l1.17 2.69c-0.19,3.94 -1.19,3.54 2.35,2.04l2.03 6.16c3.83,0.62 3.06,-0.54 2.78,3.12l-0.56 2.45c3.56,-0.16 2.81,-0.98 2.18,2.56l5.09 37.83c5.56,0 4.46,-1.31 3.02,4.14l1.15 2.79c11.95,0.42 11.67,-1.73 11.64,-13.53 -0.02,-8.77 -1.87,-16.53 -2.53,-24.49 -3.29,0.15 -1.43,3.58 -3.36,-2.28l-1.17 -10.41 -1.71 -2.09 -4.87 -10.78 -2.49 -2.14 -1.99 -3.18c-4.24,-0.68 -3.39,0.62 -3.24,-3.33 -1.83,-5.02 -2.46,-6.19 -6.98,-10.65 -4.94,-4.89 -5.42,-5.07 -10.8,-6.44 -4.48,0.18 -2.9,1.13 -4.14,-3.62l-2.68 -0.96c-4.51,0.46 -3.02,1.38 -4.09,-3.28l0.23 -0.12c-3.62,0.39 -2.79,1.25 -2.74,-2.29l-1.91 0.42c-3.62,0.23 -2.56,1.06 -3.11,-2.58 -6.71,-2.82 -8.93,-4.52 -17.02,-3.8 -12.63,-0.31 -4.96,-0.34 -6.64,-3.03 -52.23,0.1 -106.61,-2.67 -157.68,2.16z"/>
   <path class="fil1" d="M169.65 388.9l81.43 35.67c12.92,5.54 28.83,12.11 40.63,17.98 27.88,13.87 26.73,15.91 35.51,-1.6 -11.01,-9.25 -129.79,-57.53 -152.8,-69.14 -2.72,4.99 -4.64,9.56 -4.77,17.09z"/>
   <path class="fil0" d="M378.98 346.14l0.03 27.09 -7.14 4.32c-1.07,1.02 -4.75,3.87 -2.64,8 3.01,5.87 -2.42,2.83 7.6,4.06 24.28,2.96 17.79,-30.13 17.57,-50.24l-1.15 -74.72c-0.44,-12.56 -0.41,-14.8 -11.87,-15.68 -6.94,13.69 -2.34,75.88 -2.41,97.17z"/>
   <polygon class="fil1" points="63.12,435.41 63.24,438.87 81.01,438.61 85.76,393.61 85.8,390.89 63.07,391.41 "/>
   <path class="fil2" d="M63.24 438.87c-0.1,0.17 -6.97,-2.33 0.25,1.87 2.91,1.69 -0.1,0.59 4.3,1.06 17.42,1.85 16.47,-5.52 17.25,-14.46 0.96,-11.07 5.62,-27.5 2.59,-38.66l-27.42 1.01 -0.09 47.83c-0.01,-1.75 2.49,-1.62 3,-2.11l-0.05 -44 22.72 -0.52c6.24,3.51 3.45,1.25 -0.03,2.72l-4.75 45 -17.77 0.26z"/>
  </g>
 </g>
</svg>
