<?xml version="1.0" encoding="UTF-8"?>
<!DOCTYPE svg PUBLIC "-//W3C//DTD SVG 1.1//EN" "http://www.w3.org/Graphics/SVG/1.1/DTD/svg11.dtd">
<!-- Creator: CorelDRAW -->
<svg xmlns="http://www.w3.org/2000/svg" xml:space="preserve" width="0.70976in" height="0.717976in" version="1.1" style="shape-rendering:geometricPrecision; text-rendering:geometricPrecision; image-rendering:optimizeQuality; fill-rule:evenodd; clip-rule:evenodd"
viewBox="0 0 490.36 496.03"
 xmlns:xlink="http://www.w3.org/1999/xlink"
 xmlns:xodm="http://www.corel.com/coreldraw/odm/2003">
 <defs>
  <style type="text/css">
   <![CDATA[
    .fil2 {fill:#040504}
    .fil1 {fill:#232424}
    .fil0 {fill:#FEFEFE}
   ]]>
  </style>
 </defs>
 <g id="Layer_x0020_1">
  <metadata id="CorelCorpID_0Corel-Layer"/>
  <g id="_1936666957024">
   <path class="fil0" d="M128.44 303.34c7.94,-6.21 14.86,2.4 11.07,11.07l-47.78 47.52c-8.11,4.55 -15.85,-2.37 -11.22,-11.17 0.92,-1.75 13.48,-14.08 16.04,-16.67 10.79,-10.91 20.18,-21.59 31.89,-30.75zm170.65 -131.27c-8.11,-16.26 27.12,-46.33 38.28,-47.14 7.67,13.14 3.12,9.87 -11.77,28.16 -4.25,5.22 -7.32,9.11 -11.61,13.96 -7.93,8.95 -12.82,6.19 -13.12,5.54 -0.29,-0.63 -1.2,-0.3 -1.78,-0.52zm-13.01 -33.33c-9.11,-12.92 4.71,-22.46 12.72,-30.77 6.43,-6.67 18.92,-25.8 29.68,-20.89 18.1,8.28 -29.02,52.22 -42.4,51.65zm25.33 95.19c9,4.01 4.72,-0.25 8.7,8.7 -0,0.1 0.8,0.78 -0.72,3.62 -1.93,3.62 -1.02,1.38 -3.29,2.93 -3.08,2.2 0.08,0.91 -5.13,2.11 -5.65,1.3 2.13,0.02 -4.09,0.6l-81.64 -0.38 0.38 90.17c0.11,10.5 1.72,19.73 -2.83,24.55 -0.9,4.75 4.41,5.76 -6.01,6.69 -4.96,0.44 -5.46,-1.94 -7.2,-3.4l-1.88 -1.67 -0.1 -115.45 -188.33 -0.85 -0.17 207.19 225.8 0.36c-6.56,-8.9 -20.32,-16.49 -28.85,-26.78 -10.48,-12.65 3.79,-26.13 10.16,-35.29l37.13 -45.77c15.12,-17.07 38.62,-54.88 57.79,-75.77 55.53,-60.5 39.99,-75.02 73.8,-45.09 7.59,6.72 13.09,15.55 23.19,18.83l0 -1.69c-0.36,-0.52 -0.68,-1.26 -0.84,-1.69 -0.16,-0.43 -0.59,-1.2 -0.76,-1.75 -4.17,-13.4 1.83,12.42 -1.04,-3.86 -0.19,-1.09 -0.38,-5.42 -0.41,-6.68l0.18 -215.49 -189.83 1.02 -0.35 214.34 86.34 0.48z"/>
   <polygon class="fil0" points="207.43,19.48 206.53,19.36 18.9,19.24 18.95,233.54 207.79,233.46 "/>
   <path class="fil1" d="M422.36 293.56l2.4 -1.71 -0.42 -2.54c0.02,-0.23 -0.03,-1.05 0.01,-1.34 0.97,-6.85 4.81,-8.04 5.22,-24.5 2,-80.38 -1.82,-175.4 -0.24,-258.52l-425.08 0.21c2.9,34.01 0.45,293.82 0.44,350.32 -0,19.19 -0,38.38 -0,57.57l0.21 50.62c3.01,17.07 -3.97,-11.79 1.09,3.96 0.19,0.59 0.65,1.35 0.82,1.81 3.49,9.19 203.27,3.9 228.59,3.71 18.22,-0.14 36.24,0.93 48.32,-9.53 25.15,-21.77 24.39,-50.88 69.14,-45.72 7.73,0.89 41.47,31.15 50.73,41.24l4.31 4.76c3.53,3.72 4.56,4.45 8.1,7.93 8.45,8.33 18.73,21.3 36.13,21.32 27.64,0.05 51.29,-45.64 20.57,-68.7 -9.63,-7.23 -6.17,-3.57 -14.55,-12.98 -5.3,-5.95 -10.55,-6.8 -17.02,-13.14l-14.83 -12.92c-29.72,-26.46 -34.78,-47.09 -13.18,-82.83 1.03,-1.7 1.46,-2.62 2.73,-4.47 2.19,-3.16 2.78,-6.68 6.51,-4.58zm59.54 181.69l-2.6 3.34c-2.67,3.12 -1.4,1.9 -3.72,4.22l-5.87 5.07c-0.42,0.35 -1.16,0.86 -1.7,1.35 9.93,-5.32 8.72,-3.72 13.89,-13.98zm-16.5 15.01c-4.43,-0.14 -2.9,-1.12 -4.3,3.3 5.27,-0.32 4.3,1.25 4.3,-3.3zm-5.07 2.33c-6.39,1.77 -2.25,-0.03 -2.82,3.45l2.82 -3.45zm-21.38 1.29l-1.8 -1.66 1.8 1.66zm-2.87 -2.22c-0.38,-3.67 0.69,-2.91 -2.75,-2.79l2.75 2.79zm-14.33 -11.29c4.93,5.79 1.4,2.87 8.94,4.88 -0.66,3.58 -1.22,2.26 2.76,3.22 0,-4.86 1.45,-4.42 -2.76,-3.22l-8.94 -4.88zm-36.83 -34.43c3.69,5.6 1.4,2.32 6.64,6.29 4.75,3.6 4.13,3 9.65,7.03 -7.3,-11.14 -7.4,-6.64 -16.28,-13.32zm-21.12 -21.21c-0.8,-4.72 0.65,-3.83 -3.81,-3.34 0,4.21 -0.92,2.77 3.81,3.34zm-4.56 -2.56c-0.85,-5.03 0.54,-3.82 -4.77,-2.75 0,4.26 -0.79,2.52 4.77,2.75zm-19.79 -2.83c-9.2,-1.21 -3.74,-1.26 -6.24,2.85l6.24 -2.85zm-10.87 3.39c-4.16,-0.96 -3.51,-2.06 -3.11,1.87l3.11 -1.87zm-6.48 0.74c-4.48,-0.92 -3.08,-1.72 -3.78,3.01 4.58,-0.58 3.78,0.85 3.78,-3.01zm-13.52 12.47l7.07 -7.38c0.32,-0.33 0.95,-0.98 1.21,-1.25 0.26,-0.27 0.81,-0.84 1.22,-1.26 -7.82,3.05 -6.42,1.4 -9.5,9.89zm-5.93 9.57l3.96 -7.11c-4.85,5.53 -2.34,-4.49 -3.96,7.11zm-2.57 2.1c-5,1.05 -4.07,-0.55 -3.69,4.1 4.44,0 2.85,0.96 3.69,-4.1zm-18.06 19.32c-4.26,-1.35 -2.85,-1.79 -2.85,3.07 4.17,-0.75 3.66,0.58 2.85,-3.07 4.71,-2.29 1.26,1.06 4.55,-2.74 3.02,-3.49 0.54,-0.18 2.49,-4.66 3.55,0.59 2.22,1.18 3.33,-2.71 -4.83,0 -4.36,-1.45 -3.33,2.71l-7.04 7.4zm-3.87 2.55c-7.59,1.07 -2.2,-0.32 -3.54,3.45l3.54 -3.45zm-11.74 2.43c-6.41,-0.01 -3.18,-0.09 -4.8,3.42l4.8 -3.42zm151.35 -171.41l3.75 -7.19c-4.44,4.92 -2.57,-4.57 -3.75,7.19zm-4.49 6.94l3.63 -7.22c-4.72,5.74 -2.42,-5.31 -3.63,7.22zm-0.81 -0.31c-4.44,1.03 -3.55,-0.4 -3.17,3.91 4.12,0 2.66,0.87 3.17,-3.91zm-9.86 20.16l3.2 -4.69c-4.13,2.12 -3.63,-1.55 -3.2,4.69zm1 24.89c-1.35,4.52 -2.33,3.58 2.26,3.34l-2.26 -3.34zm1.15 6.2c-0.79,4.61 -1.68,3.17 3.1,3.99 -0.51,-4.84 0.98,-3.99 -3.1,-3.99zm7.63 10.9c-0.35,-0.72 -0.83,-2.59 -1.09,-2.15l-3.73 -4.66c2.74,10.93 -0.56,2.75 4.83,6.8zm25.99 22.4c-4.14,-5.04 -8.53,-6.66 -14.1,-10.48 4.16,6.13 0.52,2.42 6.92,6.8 0.57,0.39 6.48,3.27 7.18,3.68zm13.47 12.47c-4.56,-4.88 -4.75,-4.46 -11.45,-9.04 4.35,6.5 2.73,5.57 11.45,9.04zm18.16 16.8c-3.95,-4.52 1.68,0.56 -3.75,-3.99 -2.68,-2.25 -1.79,-1.33 -5.14,-3.7 5.11,7.86 0.13,3.85 8.88,7.69zm12.98 13.58c-0.44,4.25 -1.3,2.84 3.1,3.84 -0.52,-4.69 0.92,-3.84 -3.1,-3.84zm3.44 34.71c-4.25,0.72 -3.41,-0.58 -3.05,3.48 4.02,0 2.76,0.91 3.05,-3.48zm-14.89 -0.42l-13.17 10.54c9.25,-1.96 9.49,-2.96 13.17,-10.54zm-199.07 -46.35l38.74 -48.77c2.77,-6.07 3.91,-6.43 8.61,-12.12 4.35,-5.27 23.1,-31.1 28.27,-33.9 3.02,-6.57 9.24,-14.4 14.35,-20.3 3.29,-3.8 4.46,-4.42 7.65,-8.27 7.66,-9.21 5.11,-10.37 14.61,-20.14 6.77,-6.96 12.31,-16.79 16.11,-18.44 8.45,-3.67 8.74,2.18 9.84,4.97l5.81 3.11c2.08,10.7 0.7,0.76 -1.48,5.15l-0.01 0.03c5.81,13.86 -19.15,23.02 -23.08,56.59 -3.42,29.17 9.34,47.65 24.17,58.58 3.88,2.86 6.74,4.87 11.53,9.29 3.67,3.38 7.2,5.06 11.69,9.17l28.15 27.04c16.76,16.52 11.84,33.14 -1.53,43.23 -28.12,21.21 -58.5,-36.02 -91.37,-61.01 -14.95,-11.36 -55.78,-13.2 -74.62,12.81 -5.42,7.48 -24.1,32.35 -29.94,31.89 -5.7,-2.81 -13.77,-9.96 -17.13,-14.62 2.9,-6.26 2.52,-7.37 7.81,-13.02l7.9 -8.32c2.98,-2.74 0.34,-1.35 3.92,-2.94zm200.18 42.55c4.59,-0.51 3.59,0.73 2.78,-3.88 -3.95,0 -2.53,-0.81 -2.78,3.88zm-18.6 -39.87c4.07,4.99 7.33,5.69 11.32,8.98 4.61,3.81 6.2,7.02 9.28,11.92 -2.45,-13.73 -8.35,-14.12 -20.59,-20.9zm-20.37 -19.57l5.03 4.65c2.98,2.47 2.57,1.94 6.28,4.81 -3,-5.04 -0.7,-2.7 -4.95,-6.14 -3.44,-2.79 -2.74,-1.87 -6.36,-3.32zm-16.42 -12.91c3.7,3.05 4.15,3.04 9.3,6.29 -5.42,-6.82 0.47,-3.66 -9.3,-6.29zm-17.18 -19.1c0.11,-4.45 1.09,-2.9 -3.56,-4.18 0.58,5.16 -0.98,4.18 3.56,4.18zm-6.13 -8.05c1.08,-4.12 2.08,-3.5 -1.97,-2.78l1.97 2.78zm-1.95 -49.08c4.18,0.25 3.1,1.04 2.1,-3.3l-2.1 3.3zm6.44 -14.67l2.53 -1.78 -2.53 1.78zm3.08 -1.56c4.71,-0.83 3.88,0.62 3.19,-3.83 -4.07,0 -2.63,-0.87 -3.19,3.83zm4.32 -6.91c4.53,-1.27 3.53,0.24 3.48,-4.2 -4.5,0 -2.93,-0.96 -3.48,4.2zm4.41 -7.98c4.04,-0.84 3.14,0.42 3.01,-3.55 -3.86,0 -2.53,-0.83 -3.01,3.55zm2.6 -3.53c4.77,-1.18 3.86,0.38 3.34,-4.21 -4.49,0 -2.95,-0.96 -3.34,4.21zm2.04 -11.43l-2.46 -2 2.46 2zm-19.99 0.1c2.26,-2.09 0.1,1.61 3.08,-3.23 2.33,-3.77 0.55,-0.66 2.08,-4.62 11.84,1.93 2.16,-0.87 10.38,3.08 -2.96,-4.54 -0.22,-2.96 -6.9,-6.91 -6.19,5.53 -5.56,4.3 -8.65,11.68zm-7.12 7.21c-4.5,1.14 -3.56,-0.35 -3.56,3.85 4.23,0 2.73,0.92 3.56,-3.85zm-10.42 13.08l5.03 -6.64c-4.79,3.44 -2.15,-2.82 -5.03,6.64zm-1.86 2.57c-5.73,3.86 -2.21,-4 -5.06,6.65 0.48,-0.41 1.2,-1.58 1.42,-1.24l3.64 -5.41zm-14.42 18.08l2.88 -2.72c0.34,-0.46 0.92,-1.34 1.26,-1.82 0.35,-0.5 0.78,-1.34 1.16,-2.03 -4.77,3.24 -2.13,-2.35 -5.29,6.56zm-8.17 11.85c2.57,-2.41 2.14,-1.88 4.51,-6.9 -5.66,5.4 -2.05,-4.61 -4.51,6.9zm-8.71 11.68l4.19 -7.06c-5.28,5.83 -2.47,-4.62 -4.19,7.06zm-9.47 11.46c3.26,-3.91 2.92,-3.9 6.21,-9.31 -6.72,5.34 -3.7,-0.22 -6.21,9.31zm-9.86 11.26c2.45,-2.52 0.13,0.72 3.39,-3.85 0.17,-0.24 2.93,-4.64 3.29,-5.21 -5.46,3.91 -1.07,-1.13 -4.53,3.97 -1.4,2.07 -1.37,2.88 -2.15,5.08zm-8.69 11.7c2.52,-2.43 2.14,-2.02 4.54,-6.93 -5.11,4.86 -2.29,-3.44 -4.54,6.93zm-9 11.67l4.42 -7.09c-5.65,5.93 -2.35,-4.83 -4.42,7.09zm-8.37 8.68c0.51,-0.42 1.28,-1.62 1.52,-1.26l3.85 -5.29c-5.23,3.24 -2.15,-2.98 -5.37,6.55zm-9.3 11.47l4.35 -4.5c0.37,-0.5 0.82,-1.32 1.21,-2 -4.56,2.9 -2.96,-0.09 -5.56,6.5zm-9.24 11.38l5.51 -6.37c-4.73,2.93 -2.29,-2.03 -5.51,6.37zm-12.71 16.6c3.96,-3.09 2.11,-1.26 5.01,-6.85 -5.35,4.93 -1.97,-3.22 -5.01,6.85zm-10.26 10.85c2.7,-2.19 2.44,-1.53 5.31,-6.19 -4.81,2.76 -3.34,0.28 -5.31,6.19zm-1.22 3.95c-4,2.55 -5.63,-0.39 -0,3.89l0 -3.89zm34.5 -5.63c-3.04,3.64 -3.09,4.18 -6.34,9.29 6.93,-5.28 3.56,0.66 6.34,-9.29zm2.36 -2.23c4.75,-1.14 3.85,0.42 3.55,-4.02 -4.33,0 -2.78,-0.93 -3.55,4.02zm9.3 -13.78c-2.13,2.18 -2.08,1.91 -4.18,6.87 3.99,-4.01 2.23,2.87 4.18,-6.87zm9.18 -6.56l-7 3.93c12.09,-1.68 1.46,1.19 7,-3.93zm0.09 0.33c4.31,0.56 3,1.44 3.63,-3.02 -4.52,0.32 -3.63,-1.01 -3.63,3.02zm66.85 1.07l-6.29 -4.39c4.97,4.94 -3.74,1.46 6.29,4.39zm59.5 58.77c-2.33,-2.89 -1.58,-2.44 -6.67,-5.28 3.6,4.98 -2.36,2.49 6.67,5.28zm18.64 4.2l-9.08 -0.29c3.54,3.65 -6.25,3.27 3.12,2.65l5.96 -2.36zm-38.35 -230.85c-10.1,-3.28 -15.59,-12.11 -23.19,-18.83 -33.8,-29.93 -18.27,-15.41 -73.8,45.09 -19.17,20.88 -42.67,58.7 -57.79,75.77l-37.13 45.77c-6.37,9.16 -20.64,22.64 -10.16,35.29 8.53,10.3 22.29,17.88 28.85,26.78l-225.8 -0.36 0.17 -207.19 188.33 0.85c7.35,11.54 0.53,95.71 2.85,109.88 2.04,12.48 -3.53,6.16 10.63,8.29 4.94,-23.15 -3.6,-105.21 2.64,-121.08 13.58,-5.59 71.24,-0.43 83.34,-1.57 16.02,-1.52 6.07,2.83 9.8,-5.27 -2.77,-5.38 -2.2,-5.89 -19.21,-5.7 -16.88,0.19 -62.87,2.44 -73.77,-1.41 -3,-6.6 -2.54,-169.89 -1.93,-204.97 0.11,-6.23 -0.1,-9.96 3.02,-12.82 6.57,-4.98 179.67,-4.38 192.92,0.02 3.27,12.47 1.16,176.24 1.29,215.76 0.08,26.75 -6.39,26.07 -1.07,15.74zm0 -1.69c2.13,-10.74 -0.37,-142.56 -0.6,-173.03l-2.28 -56.44 -0.18 215.49c0.03,1.26 0.21,5.59 0.41,6.68 2.87,16.28 -3.13,-9.54 1.04,3.86 0.17,0.55 0.6,1.32 0.76,1.75 0.16,0.43 0.48,1.17 0.84,1.69zm-98.01 -4.93c-3.98,-8.95 0.29,-4.68 -8.7,-8.7 0.51,0.47 1.23,0.47 1.49,1.43l7.21 7.27zm-97.31 123.61c4.55,-4.82 2.94,-14.05 2.83,-24.55l-0.38 -90.17 81.64 0.38c6.22,-0.58 -1.56,0.7 4.09,-0.6 5.21,-1.2 2.05,0.08 5.13,-2.11 -29.82,2.28 -63.15,-4.97 -92.37,0.31 -3.89,11.45 -3.93,103.85 -0.93,116.75zm-13.21 3.29c0.95,-3.6 1.58,-3.05 -1.88,-1.67l1.88 1.67zm32.72 63.6l-13.46 -12.59 109.4 -139.52c6.17,-7.47 12.37,-15.35 18.43,-23.17 6.71,-8.66 11.03,-14.91 18.66,-23.11 4.28,2.8 12.99,10.37 16.37,14.18l-36.16 47.17c-18.87,22.07 -100.88,131.04 -113.24,137.04zm-34.88 -413.64c5.61,-7.85 3.31,40.26 3.33,48.14l-0.47 161.06c-1.49,5.94 -0.39,3.6 -3.52,6.76 -5.25,2.86 -178.37,3.34 -190.41,0.56l-1.1 -219.27c19.5,-3.53 157.96,-1.11 190.2,-1.41 2.37,2.56 1.91,-0.47 1.07,4.04l0.9 0.12z"/>
   <path class="fil0" d="M394.86 270.45c-3.47,4.62 -2.85,5.62 -7.12,7.21 -0.83,4.77 0.68,3.85 -3.56,3.85 -0.41,3.25 3.17,3.08 -1.83,2.59l-5.03 6.64c-0.48,3.23 3.01,2.99 -1.86,2.57l-3.64 5.41c-0.21,-0.34 -0.94,0.83 -1.42,1.24 -1.81,5.13 4.89,1.95 -4.07,4.87 -0.37,0.68 -0.81,1.53 -1.16,2.03 -0.33,0.48 -0.92,1.35 -1.26,1.82l-2.88 2.72c-1.52,5.31 5.36,2.21 -3.66,4.95 -2.37,5.02 -1.94,4.49 -4.51,6.9 -4.49,9.88 0.34,2.61 -4.81,4.42l0.29 0.19 -4.19 7.06c-1.97,2.8 1.5,2.86 -3.26,2.15 -3.29,5.41 -2.95,5.41 -6.21,9.31 -1.79,2.85 2.22,2.68 -3.18,2.2 -0.36,0.57 -3.12,4.97 -3.29,5.21 -3.27,4.56 -0.95,1.32 -3.39,3.85 -2.52,6.15 0.58,3.64 -4.15,4.76 -2.4,4.91 -2.02,4.51 -4.54,6.93 -3.37,6.97 -1.32,3.14 -4.96,4.35l0.38 0.23 -4.42 7.09c-1.63,2.85 1.59,3.05 -3,2.12l-3.85 5.29c-0.24,-0.36 -1.01,0.85 -1.52,1.26 -1.44,5.31 5.48,2.11 -3.74,4.96 -0.39,0.67 -0.84,1.5 -1.21,2l-4.35 4.5c-1.38,5.41 5.81,1.97 -3.73,5.01l-5.51 6.37c-1.26,4.5 1.77,-0.02 -2.74,5.9 -4,5.26 -2.03,2.39 -5.05,4.03l0.09 -0.18c-2.9,5.59 -1.05,3.76 -5.01,6.85 -3.46,5.76 -0.38,3.12 -4.95,4.66 -2.87,4.66 -2.61,4 -5.31,6.19 -0.44,4.5 1.83,1.92 -1.22,3.95l-0 3.89 13.9 10.91c7.29,-3.77 8.13,-8.64 14.26,-11.14 3.25,-5.11 3.3,-5.65 6.34,-9.29 1.19,-3.12 -1.78,-3.82 2.36,-2.23 0.76,-4.95 -0.79,-4.02 3.55,-4.02 0.17,-3.58 -3.47,-3.05 1.57,-2.89 2.1,-4.95 2.05,-4.69 4.18,-6.87l2.18 -2.63 7 -3.93 0.09 0.33c0,-4.03 -0.88,-2.7 3.63,-3.02 12.88,-7 46.72,-12.34 56.93,-0.31l6.29 4.39c10.14,8.49 18.5,18.16 28.1,27.56 5.19,5.08 8.73,8.6 14.05,13.61 4.41,4.14 9.77,7.39 10.68,12.32 5.09,2.84 4.34,2.39 6.67,5.28 3.82,1.54 4.75,2.26 9.56,3.91l9.08 0.29 1.87 -0.75 13.17 -10.54c0.18,-4.21 -1.72,-1.83 1.11,-3.81 0.25,-4.69 -1.17,-3.88 2.78,-3.88l-0.79 -15.08c-3.08,-4.91 -4.67,-8.11 -9.28,-11.92 -3.98,-3.29 -7.25,-3.99 -11.32,-8.98 -5.03,-4.2 -7.74,-4.69 -9.07,-10.11 -3.71,-2.87 -3.29,-2.34 -6.28,-4.81l-5.03 -4.65c-4.92,-2.35 -5.11,-0.57 -7.12,-6.62 -5.16,-3.25 -5.6,-3.24 -9.3,-6.29 -4.2,-2.95 -6.45,-4.74 -10.3,-8.44 -5.62,-5.4 -5.35,-4.32 -6.89,-10.66 -4.54,0 -2.97,0.98 -3.56,-4.18 -2.92,-0.76 -1.65,-0.06 -2.58,-3.87l-1.97 -2.78c-3.91,-16.79 -4.6,-29.95 0.02,-46.3l2.1 -3.3 4.34 -11.38 2.53 -1.78 0.55 0.22c0.57,-4.7 -0.88,-3.83 3.19,-3.83 -0.03,-3.75 -2.58,-4.01 1.13,-3.08 0.55,-5.16 -1.02,-4.2 3.48,-4.2 -0.18,-4.98 -2.97,-2.21 0.93,-3.78 0.49,-4.38 -0.85,-3.55 3.01,-3.55l-0.42 0.02c0.39,-5.17 -1.16,-4.21 3.34,-4.21l-1.2 -3.78 0.01 -0.03 -0.1 -3.41 -2.46 -2c-3.66,-0.16 -2.95,0.71 -1.78,-2.86l-0.21 0.19c-8.22,-3.94 1.46,-1.14 -10.38,-3.08 -1.53,3.96 0.25,0.85 -2.08,4.62 -2.99,4.83 -0.82,1.14 -3.08,3.23z"/>
   <path class="fil2" d="M424.76 291.85c14.34,-33.9 8.26,-162.66 8.22,-217.33 -0.01,-11.42 2.77,-67.03 -3.81,-71.93 -9.1,-3.68 -415.98,-3.39 -426.46,0.58 -4.1,15.6 -1.46,360.58 -1.53,414.49 -0.02,15.74 -4.27,46.11 3.48,55.75 13.82,7.06 223.03,2.52 256.95,1.93 1.62,-3.52 -1.62,-3.43 4.8,-3.42l8.19 1.02c1.35,-3.77 -4.05,-2.38 3.54,-3.45l1.03 0.53c0,-4.86 -1.41,-4.42 2.85,-3.07l7.04 -7.4c-1.03,-4.16 -1.5,-2.71 3.33,-2.71 9.9,-3.34 2.47,0.5 4,-5.12 -0.38,-4.65 -1.31,-3.05 3.69,-4.1 2.9,1.5 1.16,1.12 2.57,-2.1 1.62,-11.6 -0.89,-1.58 3.96,-7.11 4.62,1 1.31,0.7 1.97,-2.46 3.08,-8.49 1.68,-6.84 9.5,-9.89l0.24 0.43c0.69,-4.74 -0.71,-3.93 3.78,-3.01l3.37 1.14c-0.4,-3.94 -1.04,-2.83 3.11,-1.87l4.63 -0.54c2.5,-4.11 -2.96,-4.06 6.24,-2.85l15.01 0.08c5.32,-1.07 3.92,-2.28 4.77,2.75l0.74 -0.78c4.46,-0.49 3.02,-1.38 3.81,3.34 3.47,5.68 15.22,15.72 21.12,21.21 8.89,6.68 8.99,2.18 16.28,13.32 1.44,4.87 -0.63,0.37 2.55,4.26 1.71,2.09 2.84,3 5.67,5.64 4.74,4.41 7.53,7.14 12.32,11.21l8.94 4.88c4.2,-1.2 2.76,-1.63 2.76,3.22l-0.12 0.4c3.44,-0.11 2.37,-0.88 2.75,2.79l1.07 0.56 1.8 1.66 18.56 2.16c0.58,-3.48 -3.56,-1.68 2.82,-3.45l0.77 0.97c1.4,-4.42 -0.13,-3.44 4.3,-3.3l2.61 -1.03c0.53,-0.49 1.28,-1 1.7,-1.35l5.87 -5.07c2.32,-2.31 1.05,-1.1 3.72,-4.22l2.6 -3.34c4.07,1.14 0.41,1.38 1.45,-2.52 -0.35,-4.06 -1.2,-2.77 3.05,-3.48 4.75,-8.27 5.89,-22.94 -0.34,-30.86 -4.4,-1 -3.54,0.41 -3.1,-3.84 -1.44,-5.52 1.06,-2.68 -4.82,-8.61 -4.47,-4.5 -4.1,-3.52 -8.17,-4.97 -8.76,-3.84 -3.77,0.18 -8.88,-7.69 -1.25,-5.72 -4.11,-6.48 -9.28,-9.12 -8.71,-3.47 -7.09,-2.54 -11.45,-9.04l-2.02 -3.43c-0.71,-0.41 -6.62,-3.29 -7.18,-3.68 -6.4,-4.38 -2.76,-0.67 -6.92,-6.8 -1.55,-4.7 -7.25,-10.19 -11.89,-11.91 -5.39,-4.05 -2.09,4.12 -4.83,-6.8l0.3 -0.11c-4.78,-0.82 -3.89,0.61 -3.1,-3.99l1.11 -2.86c-4.59,0.24 -3.61,1.18 -2.26,-3.34l-1 -24.89c-0.44,-6.23 -0.94,-2.56 3.2,-4.69 3.5,-7.86 2.89,-3.9 3.49,-11.56 -0.37,-4.31 -1.27,-2.89 3.17,-3.91l0.81 0.31c1.21,-12.53 -1.09,-1.48 3.63,-7.22l0.87 0.28c1.18,-11.76 -0.68,-2.27 3.75,-7.19l0.85 0.24c-3.73,-2.11 -4.32,1.41 -6.51,4.58 -1.28,1.84 -1.7,2.76 -2.73,4.47 -21.6,35.74 -16.55,56.37 13.18,82.83l14.83 12.92c6.47,6.33 11.73,7.19 17.02,13.14 8.38,9.41 4.92,5.75 14.55,12.98 30.72,23.05 7.07,68.74 -20.57,68.7 -17.4,-0.03 -27.68,-13 -36.13,-21.32 -3.54,-3.49 -4.57,-4.21 -8.1,-7.93l-4.31 -4.76c-9.25,-10.09 -42.99,-40.35 -50.73,-41.24 -44.75,-5.16 -43.99,23.95 -69.14,45.72 -12.08,10.46 -30.1,9.39 -48.32,9.53 -25.32,0.19 -225.11,5.48 -228.59,-3.71 -0.18,-0.47 -0.63,-1.22 -0.82,-1.81 -5.06,-15.75 1.92,13.11 -1.09,-3.96l-0.21 -50.62c0,-19.19 0,-38.38 0,-57.57 0.01,-56.5 2.46,-316.31 -0.44,-350.32l425.08 -0.21c-1.57,83.12 2.25,178.14 0.24,258.52 -0.41,16.46 -4.25,17.66 -5.22,24.5 -0.04,0.29 0.01,1.11 -0.01,1.34l0.42 2.54z"/>
   <path class="fil0" d="M242.31 433.12c12.36,-6 94.37,-114.97 113.24,-137.04l36.16 -47.17c-3.38,-3.81 -12.1,-11.38 -16.37,-14.18 -7.63,8.2 -11.95,14.45 -18.66,23.11 -6.06,7.82 -12.26,15.69 -18.43,23.17l-109.4 139.52 13.46 12.59z"/>
   <path class="fil2" d="M206.53 19.36c0.84,-4.51 1.3,-1.47 -1.07,-4.04 -32.25,0.3 -170.7,-2.12 -190.2,1.41l1.1 219.27c12.04,2.78 185.16,2.3 190.41,-0.56 3.13,-3.16 2.03,-0.82 3.52,-6.76l0.47 -161.06c-0.02,-7.88 2.28,-55.98 -3.33,-48.14l0.36 213.98 -188.84 0.08 -0.05 -214.3 187.63 0.13z"/>
   <path class="fil2" d="M207.61 252.4l0.1 115.45c3.46,-1.38 2.83,-1.93 1.88,1.67 1.74,1.46 2.24,3.84 7.2,3.4 10.41,-0.93 5.11,-1.94 6.01,-6.69 -3,-12.9 -2.96,-105.3 0.93,-116.75 29.22,-5.28 62.55,1.96 92.37,-0.31 2.27,-1.55 1.36,0.69 3.29,-2.93 1.52,-2.84 0.72,-3.51 0.72,-3.62l-7.21 -7.27c-0.26,-0.95 -0.99,-0.96 -1.49,-1.43l-86.34 -0.48 0.35 -214.34 189.83 -1.02 2.28 56.44c0.22,30.47 2.73,162.3 0.6,173.03l0 1.69c-5.31,10.33 1.16,11.01 1.07,-15.74 -0.13,-39.51 1.98,-203.29 -1.29,-215.76 -13.25,-4.4 -186.35,-5 -192.92,-0.02 -3.12,2.86 -2.92,6.59 -3.02,12.82 -0.61,35.08 -1.07,198.36 1.93,204.97 10.9,3.85 56.89,1.6 73.77,1.41 17.01,-0.19 16.44,0.32 19.21,5.7 -3.72,8.1 6.22,3.76 -9.8,5.27 -12.11,1.14 -69.76,-4.01 -83.34,1.57 -6.24,15.87 2.3,97.93 -2.64,121.08 -14.16,-2.13 -8.59,4.2 -10.63,-8.29 -2.31,-14.17 4.5,-98.35 -2.85,-109.88z"/>
   <path class="fil2" d="M348.06 327.67c-5.17,2.8 -23.92,28.63 -28.27,33.9 -4.7,5.69 -5.84,6.05 -8.61,12.12l-38.74 48.77c-3.58,1.59 -0.95,0.2 -3.92,2.94l-7.9 8.32c-5.29,5.65 -4.9,6.76 -7.81,13.02 3.36,4.66 11.43,11.81 17.13,14.62 5.83,0.46 24.52,-24.41 29.94,-31.89 18.84,-26.01 59.67,-24.18 74.62,-12.81 32.86,24.98 63.25,82.22 91.37,61.01 13.38,-10.09 18.29,-26.71 1.53,-43.23l-28.15 -27.04c-4.5,-4.12 -8.02,-5.79 -11.69,-9.17 -4.78,-4.41 -7.64,-6.42 -11.53,-9.29 -14.83,-10.93 -27.59,-29.41 -24.17,-58.58 3.94,-33.57 28.89,-42.73 23.08,-56.59l1.2 3.78c0.52,4.59 1.43,3.04 -3.34,4.21l0.42 -0.02c0.12,3.97 1.03,2.71 -3.01,3.55 -3.9,1.57 -1.12,-1.2 -0.93,3.78 0.05,4.44 1.06,2.93 -3.48,4.2 -3.71,-0.94 -1.16,-0.67 -1.13,3.08 0.68,4.45 1.52,3.01 -3.19,3.83l-0.55 -0.22 -2.53 1.78 -4.34 11.38c1,4.34 2.08,3.54 -2.1,3.3 -4.62,16.35 -3.93,29.52 -0.02,46.3 4.05,-0.72 3.05,-1.34 1.97,2.78 0.93,3.81 -0.35,3.11 2.58,3.87 4.64,1.28 3.67,-0.28 3.56,4.18 1.54,6.34 1.26,5.26 6.89,10.66 3.85,3.7 6.1,5.49 10.3,8.44 9.77,2.63 3.88,-0.54 9.3,6.29 2.01,6.05 2.2,4.28 7.12,6.62 3.62,1.45 2.92,0.53 6.36,3.32 4.25,3.44 1.95,1.1 4.95,6.14 1.33,5.42 4.03,5.91 9.07,10.11 12.24,6.78 18.14,7.17 20.59,20.9l0.79 15.08c0.81,4.62 1.81,3.38 -2.78,3.88 -2.83,1.98 -0.93,-0.4 -1.11,3.81 -3.68,7.58 -3.92,8.58 -13.17,10.54l-1.87 0.75 -5.96 2.36c-9.37,0.62 0.42,1.01 -3.12,-2.65 -4.81,-1.65 -5.74,-2.37 -9.56,-3.91 -9.02,-2.79 -3.07,-0.3 -6.67,-5.28 -0.91,-4.93 -6.27,-8.18 -10.68,-12.32 -5.33,-5.01 -8.86,-8.53 -14.05,-13.61 -9.6,-9.4 -17.96,-19.07 -28.1,-27.56 -10.03,-2.93 -1.32,0.55 -6.29,-4.39 -10.21,-12.03 -44.05,-6.69 -56.93,0.31 -0.63,4.46 0.67,3.58 -3.63,3.02l-0.09 -0.33c-5.54,5.11 5.09,2.25 -7,3.93l-2.18 2.63c-1.95,9.73 -0.19,2.86 -4.18,6.87 -5.04,-0.17 -1.4,-0.69 -1.57,2.89 0.3,4.44 1.2,2.88 -3.55,4.02 -4.14,-1.6 -1.18,-0.89 -2.36,2.23 -2.78,9.95 0.6,4 -6.34,9.29 -6.13,2.5 -6.97,7.37 -14.26,11.14l-13.9 -10.91c-5.62,-4.29 -4,-1.34 0,-3.89 3.04,-2.03 0.78,0.55 1.22,-3.95 1.97,-5.91 0.5,-3.43 5.31,-6.19 4.57,-1.54 1.49,1.1 4.95,-4.66 3.04,-10.07 -0.34,-1.93 5.01,-6.85l-0.09 0.18c3.02,-1.64 1.06,1.23 5.05,-4.03 4.5,-5.93 1.47,-1.4 2.74,-5.9 3.23,-8.4 0.78,-3.44 5.51,-6.37 9.54,-3.04 2.34,0.4 3.73,-5.01 2.6,-6.59 1,-3.6 5.56,-6.5 9.22,-2.85 2.3,0.35 3.74,-4.96 3.22,-9.53 0.14,-3.31 5.37,-6.55 4.59,0.92 1.37,0.73 3,-2.12 2.07,-11.91 -1.23,-1.16 4.42,-7.09l-0.38 -0.23c3.64,-1.21 1.59,2.61 4.96,-4.35 2.25,-10.37 -0.57,-2.07 4.54,-6.93 4.73,-1.12 1.62,1.38 4.15,-4.76 0.79,-2.2 0.75,-3.01 2.15,-5.08 3.46,-5.11 -0.94,-0.07 4.53,-3.97 5.4,0.48 1.39,0.65 3.18,-2.2 2.51,-9.53 -0.51,-3.97 6.21,-9.31 4.76,0.72 1.3,0.65 3.26,-2.15 1.72,-11.69 -1.09,-1.23 4.19,-7.06l-0.29 -0.19c5.15,-1.81 0.32,5.46 4.81,-4.42 2.46,-11.51 -1.15,-1.5 4.51,-6.9 9.02,-2.74 2.14,0.36 3.66,-4.95 3.16,-8.91 0.52,-3.32 5.29,-6.56 8.97,-2.92 2.26,0.26 4.07,-4.87 2.85,-10.65 -0.67,-2.79 5.06,-6.65 4.87,0.42 1.38,0.66 1.86,-2.57 2.88,-9.46 0.24,-3.2 5.03,-6.64 5,0.49 1.43,0.66 1.83,-2.59 -0.01,-4.2 -0.94,-2.71 3.56,-3.85 4.26,-1.59 3.64,-2.59 7.12,-7.21 3.09,-7.38 2.46,-6.15 8.65,-11.68 6.67,3.94 3.93,2.36 6.9,6.91l0.21 -0.19c-1.17,3.56 -1.89,2.7 1.78,2.86l2.46 2 0.1 3.41c2.17,-4.39 3.56,5.55 1.48,-5.15l-5.81 -3.11c-1.1,-2.79 -1.39,-8.63 -9.84,-4.97 -3.8,1.65 -9.34,11.48 -16.11,18.44 -9.5,9.76 -6.96,10.93 -14.61,20.14 -3.2,3.85 -4.37,4.47 -7.65,8.27 -5.11,5.91 -11.32,13.74 -14.35,20.3z"/>
   <path class="fil1" d="M128.44 303.34c-11.71,9.16 -21.1,19.84 -31.89,30.75 -2.56,2.59 -15.12,14.92 -16.04,16.67 -4.63,8.8 3.11,15.72 11.22,11.17l47.78 -47.52c3.79,-8.67 -3.13,-17.28 -11.07,-11.07z"/>
   <path class="fil1" d="M286.08 138.74c13.38,0.57 60.5,-43.38 42.4,-51.65 -10.76,-4.92 -23.25,14.22 -29.68,20.89 -8.02,8.3 -21.83,17.85 -12.72,30.77z"/>
   <path class="fil1" d="M299.09 172.06c0.57,0.22 1.49,-0.12 1.78,0.52 0.3,0.66 5.2,3.42 13.12,-5.54 4.29,-4.85 7.36,-8.74 11.61,-13.96 14.89,-18.3 19.45,-15.03 11.77,-28.16 -11.16,0.81 -46.39,30.88 -38.28,47.14z"/>
  </g>
 </g>
</svg>
