<?xml version="1.0" encoding="UTF-8"?>
<svg width="100" height="100" viewBox="0 0 100 100" xmlns="http://www.w3.org/2000/svg">
  <!-- Handle -->
  <path d="M50 10 L50 60" stroke="#4A4A4A" stroke-width="4"/>
  <!-- Handle Grip -->
  <path d="M40 10 L60 10" stroke="#2C2C2C" stroke-width="6" stroke-linecap="round"/>
  <!-- Mop Frame -->
  <rect x="20" y="60" width="60" height="5" rx="2" fill="#2C2C2C"/>
  <!-- Frame Joint -->
  <circle cx="50" cy="62.5" r="3" fill="#4A4A4A"/>
  <!-- Microfiber Pad Base -->
  <rect x="20" y="65" width="60" height="10" rx="2" fill="#4A90E2"/>
  <!-- Microfiber Texture -->
  <g fill="#6CB4EE">
    <rect x="22" y="75" width="4" height="15" rx="1"/>
    <rect x="28" y="75" width="4" height="15" rx="1"/>
    <rect x="34" y="75" width="4" height="15" rx="1"/>
    <rect x="40" y="75" width="4" height="15" rx="1"/>
    <rect x="46" y="75" width="4" height="15" rx="1"/>
    <rect x="52" y="75" width="4" height="15" rx="1"/>
    <rect x="58" y="75" width="4" height="15" rx="1"/>
    <rect x="64" y="75" width="4" height="15" rx="1"/>
    <rect x="70" y="75" width="4" height="15" rx="1"/>
  </g>
</svg> 